<?xml version="1.0" encoding="UTF-8" standalone="no"?>
<!DOCTYPE svg PUBLIC "-//W3C//DTD SVG 1.1//EN" "http://www.w3.org/Graphics/SVG/1.1/DTD/svg11.dtd">
<svg xmlns="http://www.w3.org/2000/svg" version="1.1" viewBox="0.00 0.00 600.00 382.00">
<g stroke-width="2.00" fill="none" stroke-linecap="butt">
<path stroke="#73727f" vector-effect="non-scaling-stroke" d="
  M 420.08 25.89
  L 411.58 29.47"
/>
<path stroke="#e8e0d6" vector-effect="non-scaling-stroke" d="
  M 399.55 92.49
  Q 397.21 94.89 396.02 97.86
  Q 394.40 101.92 394.35 102.03
  Q 392.85 105.28 392.00 108.11
  C 391.11 111.06 390.01 113.22 388.68 116.70
  A 2.83 2.82 6.6 0 1 386.44 118.47
  L 366.62 121.16"
/>
<path stroke="#ddd0c1" vector-effect="non-scaling-stroke" d="
  M 366.62 121.16
  L 362.96 121.13
  A 3.54 3.19 35.4 0 0 362.18 121.22
  Q 355.29 122.89 348.13 122.44"
/>
<path stroke="#e8e0d6" vector-effect="non-scaling-stroke" d="
  M 394.23 110.48
  Q 394.10 111.55 393.39 112.35"
/>
<path stroke="#bbad9e" vector-effect="non-scaling-stroke" d="
  M 393.39 112.35
  L 391.90 116.99
  A 0.35 0.34 -85.3 0 0 392.28 117.44
  L 412.68 114.26"
/>
<path stroke="#e8e0d6" vector-effect="non-scaling-stroke" d="
  M 412.68 114.26
  Q 422.41 114.12 431.75 111.76
  A 1.30 1.26 50.9 0 1 432.66 111.87
  Q 434.63 112.89 437.32 112.11"
/>
<path stroke="#d1c8c9" vector-effect="non-scaling-stroke" d="
  M 437.32 112.11
  Q 439.31 112.49 440.75 111.70"
/>
<path stroke="#d9d1cd" vector-effect="non-scaling-stroke" d="
  M 530.56 162.13
  Q 523.46 155.88 518.37 154.28
  C 508.49 151.18 498.54 148.49 488.90 144.71"
/>
<path stroke="#9d9693" vector-effect="non-scaling-stroke" d="
  M 488.90 144.71
  Q 495.13 142.83 501.16 140.96
  C 505.76 139.53 506.82 136.63 506.05 132.03
  Q 505.53 128.97 504.16 130.31"
/>
<path stroke="#eee7db" vector-effect="non-scaling-stroke" d="
  M 504.16 130.31
  L 496.76 126.73"
/>
<path stroke="#bbad9e" vector-effect="non-scaling-stroke" d="
  M 496.76 126.73
  Q 496.60 125.25 495.36 123.98
  A 0.38 0.38 0.0 0 0 494.74 124.40
  Q 495.53 126.23 495.32 128.47"
/>
<path stroke="#eee7db" vector-effect="non-scaling-stroke" d="
  M 495.32 128.47
  C 490.15 130.89 485.44 124.39 481.45 122.05
  Q 473.78 117.56 464.57 116.49
  Q 447.04 114.47 427.09 115.45
  C 416.84 115.96 407.36 117.99 396.95 119.18
  Q 389.57 120.02 382.32 121.16"
/>
<path stroke="#d1c8c9" vector-effect="non-scaling-stroke" d="
  M 382.32 121.16
  L 378.30 121.57"
/>
<path stroke="#eee7db" vector-effect="non-scaling-stroke" d="
  M 378.30 121.57
  Q 372.13 122.74 366.62 121.16"
/>
<path stroke="#b09e8a" vector-effect="non-scaling-stroke" d="
  M 495.32 128.47
  L 496.76 126.73"
/>
<path stroke="#92867e" vector-effect="non-scaling-stroke" d="
  M 504.16 130.31
  Q 506.05 133.33 504.76 137.50
  A 0.86 0.86 0.0 0 1 503.56 138.01
  Q 501.44 136.97 499.45 135.06
  Q 497.19 132.88 494.18 131.76
  A 2.16 2.12 45.6 0 0 492.80 131.73
  L 479.22 136.02"
/>
<path stroke="#cec2b9" vector-effect="non-scaling-stroke" d="
  M 479.22 136.02
  Q 474.91 133.96 470.58 131.97
  C 460.68 127.41 448.33 126.58 437.68 126.45
  Q 410.86 126.13 384.40 129.81
  C 375.72 131.02 362.24 131.84 351.73 133.35
  Q 331.52 136.23 328.05 136.48
  Q 309.42 137.83 286.31 140.65
  Q 283.00 141.05 254.26 143.89
  Q 231.51 146.14 208.97 150.22"
/>
<path stroke="#c6b8b4" vector-effect="non-scaling-stroke" d="
  M 208.97 150.22
  Q 206.99 150.45 206.72 149.18"
/>
<path stroke="#b09e8a" vector-effect="non-scaling-stroke" d="
  M 206.72 149.18
  Q 208.10 148.63 209.13 147.67
  A 0.33 0.33 0.0 0 0 208.80 147.11
  C 205.63 148.13 201.62 149.59 198.30 148.90"
/>
<path stroke="#c6b8b4" vector-effect="non-scaling-stroke" d="
  M 378.30 121.57
  Q 378.27 122.82 380.26 122.68
  Q 387.10 122.20 382.32 121.16"
/>
<path stroke="#7d7171" vector-effect="non-scaling-stroke" d="
  M 479.22 136.02
  C 473.57 138.27 468.09 140.82 468.64 147.44
  C 468.80 149.39 470.25 150.69 472.08 150.89
  C 478.67 151.60 483.67 148.06 488.90 144.71"
/>
<path stroke="#cec2b9" vector-effect="non-scaling-stroke" d="
  M 297.17 196.50
  Q 302.24 192.76 307.38 191.08
  Q 310.25 190.14 324.84 185.71
  A 1.00 1.00 0.0 0 0 325.50 184.44
  L 325.47 184.34
  A 0.75 0.75 0.0 0 0 324.55 183.83
  L 303.93 189.85
  A 3.15 2.69 15.8 0 0 303.21 190.18
  Q 299.67 192.45 298.19 192.93
  Q 288.66 196.02 281.76 198.53
  Q 273.77 201.44 269.25 202.75
  Q 264.17 204.22 256.65 206.81
  A 4.71 4.19 -66.8 0 0 255.82 207.20
  C 253.18 208.80 250.07 209.03 247.47 210.28
  A 0.39 0.39 0.0 0 0 247.65 211.02
  L 256.09 210.79"
/>
<path stroke="#cec2b9" vector-effect="non-scaling-stroke" d="
  M 270.51 212.73
  Q 270.01 212.47 269.55 212.77
  A 0.51 0.51 0.0 0 0 269.76 213.70
  Q 270.43 213.80 270.92 214.07
  A 0.98 0.98 0.0 0 1 270.53 215.89
  L 266.88 216.24"
/>
<path stroke="#b1a3a7" vector-effect="non-scaling-stroke" d="
  M 266.88 216.24
  Q 259.52 215.06 253.06 217.58
  C 251.46 218.21 251.87 220.36 250.44 221.62
  C 249.40 222.54 249.78 223.88 248.40 224.82"
/>
<path stroke="#c8bbb4" vector-effect="non-scaling-stroke" d="
  M 235.69 216.40
  Q 238.67 212.48 243.31 210.54
  Q 253.12 206.42 255.89 205.46
  Q 272.75 199.57 272.79 199.56
  C 275.17 198.60 277.35 197.71 279.55 196.17
  Q 288.50 189.87 294.60 185.41
  A 0.19 0.18 27.3 0 0 294.49 185.08
  L 288.42 184.80
  A 1.28 0.99 -8.1 0 0 288.24 184.81
  L 277.77 186.46
  A 1.64 1.59 -60.0 0 0 277.42 186.56
  Q 272.01 188.72 267.57 187.83"
/>
<path stroke="#9b887c" vector-effect="non-scaling-stroke" d="
  M 227.15 178.14
  L 263.10 175.58"
/>
<path stroke="#b1a3a7" vector-effect="non-scaling-stroke" d="
  M 263.10 175.58
  Q 276.68 176.18 290.24 174.38
  C 293.97 173.89 297.10 174.21 300.47 174.93
  A 0.50 0.49 -50.8 0 1 300.56 175.87
  L 299.93 176.16
  A 0.21 0.21 0.0 0 0 300.01 176.56
  C 303.12 176.68 308.63 176.30 312.80 178.07
  A 0.19 0.18 -40.6 0 1 312.77 178.42
  Q 300.71 181.72 296.86 182.82
  Q 295.50 183.21 294.65 183.88
  A 0.53 0.53 0.0 0 0 295.01 184.82
  Q 298.78 184.59 301.08 187.43
  C 301.99 188.57 301.33 189.07 301.31 189.98
  A 0.23 0.22 -7.5 0 0 301.60 190.20
  L 315.24 186.04
  A 4.35 4.23 -67.6 0 0 316.12 185.66
  Q 321.86 182.35 331.47 179.74
  A 0.16 0.16 0.0 0 0 331.59 179.54
  L 331.59 179.53
  A 0.18 0.18 0.0 0 0 331.39 179.43
  L 324.62 181.06
  A 0.14 0.14 0.0 0 1 324.45 180.95
  L 324.45 180.94
  A 0.16 0.15 -17.2 0 1 324.55 180.76
  L 335.98 175.97
  A 0.35 0.35 0.0 0 0 335.90 175.30
  L 325.11 173.53
  A 0.17 0.17 0.0 0 1 325.11 173.20
  L 330.95 172.29"
/>
<path stroke="#9b887c" vector-effect="non-scaling-stroke" d="
  M 330.95 172.29
  Q 338.49 171.27 346.00 171.13
  Q 351.45 171.02 357.16 171.06
  C 359.11 171.07 360.98 170.44 363.02 170.41
  Q 372.47 170.31 380.07 169.41
  C 387.49 168.54 398.78 169.22 407.54 168.29
  Q 413.98 167.61 416.93 167.55
  Q 418.75 167.52 425.57 166.54
  Q 429.41 165.99 434.25 165.65
  A 1.55 1.53 -28.1 0 1 435.29 165.96
  Q 437.18 167.41 438.52 167.17
  Q 444.09 166.17 446.56 165.97
  Q 447.17 165.92 447.51 165.54
  Q 447.97 165.04 447.77 164.51
  A 0.34 0.33 -35.4 0 0 447.20 164.42
  Q 447.14 164.49 447.04 164.60
  A 1.63 1.57 -74.3 0 1 446.22 165.08
  Q 440.00 166.54 437.30 166.07
  Q 434.54 165.59 431.88 162.47"
/>
<path stroke="#656376" vector-effect="non-scaling-stroke" d="
  M 431.88 162.47
  Q 426.92 157.70 423.59 152.35"
/>
<path stroke="#74778a" vector-effect="non-scaling-stroke" d="
  M 423.59 152.35
  Q 422.15 151.48 419.05 151.92
  Q 414.48 152.56 414.46 152.56
  C 410.50 152.86 408.15 153.52 403.99 153.66
  Q 401.47 153.75 390.99 154.57
  C 381.56 155.31 369.99 155.43 361.58 156.18
  C 353.12 156.94 347.09 156.59 339.16 157.51
  Q 337.05 157.76 323.40 158.38
  C 315.39 158.75 305.58 159.75 296.52 159.82
  C 292.64 159.86 287.43 160.98 284.50 160.87
  Q 279.80 160.69 269.34 161.46
  C 256.66 162.40 245.18 162.85 232.70 164.17
  Q 228.47 164.61 215.03 164.77"
/>
<path stroke="#656376" vector-effect="non-scaling-stroke" d="
  M 215.03 164.77
  Q 209.06 163.85 203.89 161.06
  A 1.66 1.62 56.1 0 0 202.98 160.87
  Q 201.06 161.03 199.23 162.26"
/>
<path stroke="#b1a3a7" vector-effect="non-scaling-stroke" d="
  M 199.23 162.26
  Q 197.45 162.77 196.17 162.63
  A 1.03 1.03 0.0 0 1 195.71 160.75
  Q 198.36 158.96 201.57 159.16
  A 0.69 0.69 0.0 0 0 202.00 157.90
  Q 199.75 156.35 197.70 156.41
  A 1.11 1.11 0.0 0 1 197.13 154.33
  Q 199.25 153.16 202.37 153.90
  C 206.07 154.79 210.51 157.13 214.57 157.70
  C 227.35 159.50 242.08 157.78 251.68 157.87
  C 261.68 157.95 273.09 155.42 282.07 153.50
  Q 286.27 152.61 289.87 149.82"
/>
<path stroke="#9b887c" vector-effect="non-scaling-stroke" d="
  M 289.87 149.82
  L 289.66 152.82
  A 0.55 0.54 -88.0 0 0 290.20 153.41
  L 296.67 153.41
  A 0.89 0.88 -83.9 0 0 297.53 152.71
  L 297.92 150.83"
/>
<path stroke="#b1a3a7" vector-effect="non-scaling-stroke" d="
  M 297.92 150.83
  Q 299.53 149.56 301.43 149.52"
/>
<path stroke="#656376" vector-effect="non-scaling-stroke" d="
  M 301.43 149.52
  Q 300.35 151.69 302.06 153.29
  A 0.75 0.75 0.0 0 0 302.59 153.51
  L 304.23 153.51
  A 0.84 0.83 26.8 0 1 304.73 155.02
  Q 303.75 155.74 302.21 155.36
  A 0.76 0.75 -80.1 0 0 301.28 156.02
  L 301.25 156.29
  A 0.79 0.79 0.0 0 0 302.10 157.14
  L 304.63 156.94
  A 1.15 1.14 -76.1 0 0 305.53 156.39
  Q 306.78 154.37 305.31 152.07
  A 1.17 1.16 -18.0 0 0 304.24 151.53
  L 303.38 151.60
  A 0.81 0.80 -2.3 0 1 302.51 150.80
  L 302.51 150.43
  A 0.64 0.64 0.0 0 1 303.06 149.80
  L 306.20 149.39"
/>
<path stroke="#b1a3a7" vector-effect="non-scaling-stroke" d="
  M 306.20 149.39
  Q 306.50 149.01 306.79 149.29
  A 0.31 0.29 24.2 0 1 306.88 149.50
  L 307.03 156.42
  A 0.19 0.08 23.7 0 0 307.14 156.54
  Q 307.18 156.56 307.22 156.57
  L 310.37 156.86"
/>
<path stroke="#656376" vector-effect="non-scaling-stroke" d="
  M 310.37 156.86
  Q 311.47 153.42 311.23 149.41
  A 0.85 0.82 -13.1 0 1 311.75 148.60
  Q 312.32 148.37 313.28 148.88
  A 0.74 0.72 -76.8 0 1 313.67 149.53
  L 313.67 156.03
  A 0.58 0.58 0.0 0 0 314.41 156.59
  L 314.80 156.48
  A 0.42 0.41 -8.1 0 0 315.09 156.10
  L 315.12 150.81"
/>
<path stroke="#b1a3a7" vector-effect="non-scaling-stroke" d="
  M 315.12 150.81
  Q 315.04 151.37 315.17 151.71
  A 0.33 0.33 0.0 0 0 315.78 151.71
  L 316.07 150.94"
/>
<path stroke="#656376" vector-effect="non-scaling-stroke" d="
  M 316.07 150.94
  Q 315.88 153.94 317.24 155.43
  A 1.88 1.85 -22.9 0 0 318.77 156.04
  L 323.14 155.69
  A 0.70 0.69 5.4 0 0 323.75 155.19
  L 324.25 153.47
  A 1.19 1.19 0.0 0 1 326.53 153.44
  Q 327.39 156.15 330.51 155.16
  Q 331.25 154.93 330.73 153.33
  A 0.95 0.95 0.0 0 1 331.79 152.10
  L 332.42 152.20
  A 1.09 1.07 -64.8 0 0 333.42 151.83
  L 334.87 150.08
  A 0.31 0.31 0.0 0 1 335.42 150.25
  Q 335.70 153.79 338.03 155.07
  A 2.10 2.01 35.2 0 0 340.56 154.69
  Q 342.24 152.80 342.11 150.31"
/>
<path stroke="#b1a3a7" vector-effect="non-scaling-stroke" d="
  M 342.11 150.31
  Q 341.97 151.03 343.32 151.44"
/>
<path stroke="#656376" vector-effect="non-scaling-stroke" d="
  M 343.32 151.44
  L 343.42 153.99
  A 0.49 0.48 -0.6 0 0 343.91 154.46
  L 344.21 154.46
  A 0.49 0.48 -1.7 0 0 344.70 153.95
  Q 344.52 150.13 344.85 147.45
  Q 345.02 146.03 346.73 146.26
  A 1.05 1.05 0.0 0 1 347.41 147.97
  L 346.15 149.48
  A 0.85 0.83 56.3 0 0 346.00 150.27
  C 346.50 151.86 347.30 154.56 349.59 154.17"
/>
<path stroke="#b1a3a7" vector-effect="non-scaling-stroke" d="
  M 349.59 154.17
  Q 350.74 154.43 350.99 154.02"
/>
<path stroke="#656376" vector-effect="non-scaling-stroke" d="
  M 350.99 154.02
  L 353.70 153.96"
/>
<path stroke="#b1a3a7" vector-effect="non-scaling-stroke" d="
  M 353.70 153.96
  Q 355.53 154.24 356.14 154.08
  Q 359.27 153.24 360.66 153.24"
/>
<path stroke="#656376" vector-effect="non-scaling-stroke" d="
  M 360.66 153.24
  Q 361.48 153.98 362.18 153.05
  A 1.07 0.98 -24.0 0 0 362.38 152.59
  L 362.62 151.12
  A 0.93 0.93 0.0 0 1 363.27 150.37
  Q 365.85 149.53 366.41 151.93
  A 1.09 1.08 88.7 0 0 367.26 152.75
  L 368.23 152.92"
/>
<path stroke="#b1a3a7" vector-effect="non-scaling-stroke" d="
  M 368.23 152.92
  Q 368.72 152.36 369.65 152.20"
/>
<path stroke="#656376" vector-effect="non-scaling-stroke" d="
  M 369.65 152.20
  Q 370.47 153.02 371.06 152.48
  A 0.56 0.54 69.1 0 0 371.23 152.08
  L 371.34 142.79"
/>
<path stroke="#b1a3a7" vector-effect="non-scaling-stroke" d="
  M 371.34 142.79
  L 373.37 142.19"
/>
<path stroke="#656376" vector-effect="non-scaling-stroke" d="
  M 373.37 142.19
  L 373.04 152.08
  A 0.37 0.36 -0.7 0 0 373.44 152.46
  L 373.80 152.43
  A 0.67 0.67 0.0 0 0 374.42 151.74
  Q 374.32 146.28 374.57 144.72
  Q 374.83 143.05 377.13 143.85
  A 1.06 1.06 0.0 0 1 377.83 145.01
  Q 377.56 146.78 375.96 146.88
  A 0.50 0.49 -12.6 0 0 375.53 147.55
  Q 376.68 150.51 378.13 151.95
  A 1.16 1.15 59.2 0 0 379.25 152.24
  L 379.61 152.13
  A 0.45 0.45 0.0 0 0 379.78 151.36
  C 378.39 150.11 377.55 149.02 378.69 147.30
  Q 379.19 146.55 379.46 145.73"
/>
<path stroke="#b1a3a7" vector-effect="non-scaling-stroke" d="
  M 379.46 145.73
  Q 379.81 144.73 379.74 142.86
  A 0.62 0.62 0.0 0 1 380.91 142.57
  Q 381.06 142.88 381.20 143.73"
/>
<path stroke="#656376" vector-effect="non-scaling-stroke" d="
  M 381.20 143.73
  L 381.21 151.52
  A 0.63 0.63 0.0 0 0 381.90 152.15
  Q 383.87 152.00 385.92 151.85
  Q 386.18 151.83 386.44 151.56
  Q 386.66 151.33 386.74 151.04"
/>
<path stroke="#b1a3a7" vector-effect="non-scaling-stroke" d="
  M 386.74 151.04
  Q 387.25 150.88 387.80 150.98"
/>
<path stroke="#656376" vector-effect="non-scaling-stroke" d="
  M 387.80 150.98
  Q 387.90 151.49 388.37 151.69
  A 0.57 0.57 0.0 0 0 389.17 151.14
  Q 388.94 146.30 389.45 141.29"
/>
<path stroke="#b1a3a7" vector-effect="non-scaling-stroke" d="
  M 389.45 141.29
  L 391.26 140.52"
/>
<path stroke="#656376" vector-effect="non-scaling-stroke" d="
  M 391.26 140.52
  L 391.14 150.62
  A 0.83 0.78 -1.1 0 0 392.01 151.41
  L 392.06 151.41
  A 0.87 0.86 -1.4 0 0 392.90 150.54
  L 392.84 143.19
  A 0.83 0.83 0.0 0 1 393.67 142.35
  L 396.04 142.35
  A 0.66 0.65 -90.0 0 1 396.69 143.01
  L 396.69 150.42
  A 0.76 0.76 0.0 0 0 397.45 151.18
  L 397.81 151.18
  A 0.43 0.43 0.0 0 0 398.23 150.76
  L 398.31 142.82"
/>
<path stroke="#b1a3a7" vector-effect="non-scaling-stroke" d="
  M 398.31 142.82
  Q 399.23 141.82 400.47 141.29"
/>
<path stroke="#656376" vector-effect="non-scaling-stroke" d="
  M 400.47 141.29
  L 400.38 149.85
  A 0.97 0.96 -1.9 0 0 401.42 150.82
  L 406.04 150.45
  A 0.97 0.96 -2.3 0 0 406.93 149.49
  L 406.93 149.10
  A 0.75 0.75 0.0 0 0 406.18 148.35
  L 403.01 148.35
  A 0.92 0.92 0.0 0 1 402.09 147.43
  L 402.09 146.36
  A 0.87 0.87 0.0 0 1 402.96 145.49
  L 405.55 145.49
  A 0.97 0.97 0.0 0 0 406.52 144.52
  L 406.52 144.20
  A 0.90 0.90 0.0 0 0 405.55 143.30
  L 403.08 143.50
  A 0.80 0.80 0.0 0 1 402.22 142.76
  L 402.19 142.37
  A 0.95 0.94 -4.5 0 1 403.07 141.35
  L 406.01 141.11
  A 1.10 1.07 27.4 0 0 406.44 140.98
  Q 407.71 140.27 407.16 138.62"
/>
<path stroke="#b1a3a7" vector-effect="non-scaling-stroke" d="
  M 407.16 138.62
  L 409.80 139.02"
/>
<path stroke="#656376" vector-effect="non-scaling-stroke" d="
  M 409.80 139.02
  Q 407.64 142.33 409.15 144.16
  C 410.25 145.49 412.15 145.10 414.01 144.91
  A 0.94 0.93 -88.6 0 1 415.03 145.99
  L 414.95 146.46
  A 1.19 1.18 2.2 0 1 413.88 147.44
  L 409.83 147.80
  A 1.01 1.01 0.0 0 0 408.92 148.71
  L 408.92 148.77
  A 0.85 0.85 0.0 0 0 409.78 149.66
  L 413.90 149.62
  A 1.03 0.89 30.8 0 0 414.24 149.56
  Q 418.47 148.00 416.74 143.87
  A 2.06 2.06 0.0 0 0 414.84 142.61
  L 411.43 142.61
  A 1.02 1.02 0.0 0 1 411.22 140.59
  L 415.50 139.70"
/>
<path stroke="#b1a3a7" vector-effect="non-scaling-stroke" d="
  M 415.50 139.70
  Q 423.45 139.45 431.63 139.95
  Q 437.34 140.31 442.34 138.32
  Q 448.55 135.85 454.93 133.38
  A 0.54 0.53 41.9 0 0 454.87 132.37
  Q 450.71 131.26 446.85 131.06
  Q 435.71 130.50 412.22 131.32
  Q 401.56 131.69 377.72 134.11
  Q 354.73 136.43 331.64 138.95
  Q 311.88 141.11 304.44 141.94
  Q 291.33 143.40 277.20 144.56
  Q 239.63 147.64 232.49 148.52
  Q 218.51 150.24 208.97 150.22"
/>
<path stroke="#c0b1af" vector-effect="non-scaling-stroke" d="
  M 435.45 111.10
  L 437.32 112.11"
/>
<path stroke="#a99785" vector-effect="non-scaling-stroke" d="
  M 412.68 114.26
  Q 414.03 113.65 414.61 112.84
  A 0.25 0.25 0.0 0 0 414.38 112.44
  Q 406.60 113.31 400.53 114.73
  Q 395.34 115.94 393.39 112.35"
/>
<path stroke="#5d5a72" vector-effect="non-scaling-stroke" d="
  M 415.50 139.70
  Q 417.53 139.98 417.41 137.83
  A 0.56 0.56 0.0 0 0 416.72 137.32
  L 409.80 139.02"
/>
<path stroke="#5d5a72" vector-effect="non-scaling-stroke" d="
  M 407.16 138.62
  L 401.37 139.58
  A 0.93 0.92 -83.0 0 0 400.66 140.14
  Q 400.45 140.65 400.47 141.29"
/>
<path stroke="#5d5a72" vector-effect="non-scaling-stroke" d="
  M 398.31 142.82
  C 398.52 139.70 395.80 139.22 393.70 140.43
  A 0.80 0.78 45.7 0 1 392.88 140.41
  Q 391.82 139.76 391.26 140.52"
/>
<path stroke="#5d5a72" vector-effect="non-scaling-stroke" d="
  M 389.45 141.29
  Q 389.17 140.41 388.28 140.76
  A 0.69 0.68 86.2 0 0 387.85 141.26
  Q 386.80 146.01 387.80 150.98"
/>
<path stroke="#5d5a72" vector-effect="non-scaling-stroke" d="
  M 386.74 151.04
  Q 386.76 150.18 386.24 149.83
  Q 385.77 149.51 384.92 149.67
  Q 383.95 149.86 383.22 149.76
  A 0.55 0.55 0.0 0 1 382.75 149.22
  L 382.75 141.78
  A 0.61 0.61 0.0 0 0 382.14 141.17
  L 381.88 141.17
  A 0.60 0.59 1.0 0 0 381.28 141.74
  L 381.20 143.73"
/>
<path stroke="#5d5a72" vector-effect="non-scaling-stroke" d="
  M 379.46 145.73
  Q 379.87 143.93 379.18 142.73
  C 378.03 140.72 375.11 141.35 373.37 142.19"
/>
<path stroke="#5d5a72" vector-effect="non-scaling-stroke" d="
  M 371.34 142.79
  Q 371.14 142.27 370.60 142.24
  Q 369.78 142.21 369.70 143.02
  Q 369.27 147.49 369.65 152.20"
/>
<path stroke="#5d5a72" vector-effect="non-scaling-stroke" d="
  M 368.23 152.92
  L 365.63 143.19
  A 1.00 1.00 0.0 0 0 363.71 143.16
  L 360.66 153.24"
/>
<path stroke="#5d5a72" vector-effect="non-scaling-stroke" d="
  M 353.70 153.96
  Q 354.98 154.15 355.60 153.48
  A 0.88 0.87 25.7 0 0 355.08 152.02
  Q 354.01 151.86 352.87 152.09
  A 0.91 0.91 0.0 0 1 351.78 151.27
  L 351.73 150.61
  A 0.99 0.99 0.0 0 1 352.72 149.54
  L 354.60 149.54
  A 0.92 0.91 90.0 0 0 355.51 148.62
  L 355.51 148.30
  A 0.83 0.82 -2.3 0 0 354.62 147.48
  L 352.32 147.66
  A 0.57 0.56 87.7 0 1 351.71 147.09
  L 351.71 146.84
  A 1.38 1.38 0.0 0 1 353.03 145.46
  L 355.35 145.36
  A 0.61 0.61 0.0 0 0 355.94 144.75
  L 355.94 144.30
  A 0.61 0.60 90.0 0 0 355.34 143.69
  L 351.73 143.69
  A 0.84 0.83 4.4 0 0 350.90 144.39
  Q 350.13 149.28 350.99 154.02"
/>
<path stroke="#5d5a72" vector-effect="non-scaling-stroke" d="
  M 349.59 154.17
  L 348.18 151.56
  A 1.65 1.65 0.0 0 1 348.20 149.95
  Q 349.79 147.20 348.67 144.76
  A 0.87 0.85 77.6 0 0 347.89 144.25
  L 344.47 144.25
  A 0.78 0.78 0.0 0 0 343.69 144.99
  L 343.32 151.44"
/>
<path stroke="#5d5a72" vector-effect="non-scaling-stroke" d="
  M 342.11 150.31
  Q 343.02 146.51 340.47 144.50
  Q 339.67 143.87 338.72 144.39
  Q 336.26 145.75 335.83 148.55
  A 0.45 0.45 0.0 0 1 334.94 148.51
  L 334.77 146.36
  A 0.95 0.93 87.7 0 0 333.84 145.49
  L 330.33 145.49
  A 0.83 0.82 -90.0 0 0 329.51 146.32
  L 329.51 154.04
  A 0.51 0.51 0.0 0 1 328.58 154.32
  C 327.42 152.56 327.92 150.79 327.31 149.34
  Q 326.87 148.27 326.48 146.25
  A 0.70 0.70 0.0 0 0 325.18 146.04
  Q 323.64 148.71 323.04 152.69
  Q 322.95 153.29 321.94 154.67
  A 0.14 0.14 0.0 0 1 321.68 154.59
  L 321.68 150.47
  A 0.45 0.45 0.0 0 0 321.23 150.02
  L 320.97 150.02
  A 0.42 0.42 0.0 0 0 320.55 150.44
  L 320.55 153.28
  A 1.37 1.37 0.0 0 1 317.98 153.94
  Q 316.66 151.55 318.23 148.79
  A 0.80 0.79 -77.1 0 1 318.86 148.39
  L 321.31 148.19
  A 0.81 0.81 0.0 0 0 321.89 146.90
  L 321.78 146.75
  Q 321.76 146.74 321.74 146.73
  Q 316.54 145.72 316.07 150.94"
/>
<path stroke="#5d5a72" vector-effect="non-scaling-stroke" d="
  M 315.12 150.81
  Q 315.38 148.78 314.52 147.62
  A 1.23 1.20 68.7 0 0 313.44 147.13
  L 310.80 147.34
  A 0.90 0.89 -88.0 0 0 309.98 148.11
  Q 309.39 152.33 310.37 156.86"
/>
<path stroke="#6c6d86" vector-effect="non-scaling-stroke" d="
  M 307.22 156.57
  Q 307.58 156.61 307.87 156.48
  A 0.65 0.65 0.0 0 0 308.24 155.81
  Q 307.72 151.67 308.93 148.09
  A 0.41 0.41 0.0 0 0 308.51 147.55
  L 308.03 147.59
  A 0.66 0.64 -2.0 0 0 307.43 148.22
  L 307.22 156.57"
/>
<path stroke="#5d5a72" vector-effect="non-scaling-stroke" d="
  M 306.20 149.39
  Q 306.43 148.68 306.33 148.25
  Q 306.22 147.76 305.42 147.69
  Q 302.79 147.46 301.43 149.52"
/>
<path stroke="#937f78" vector-effect="non-scaling-stroke" d="
  M 297.92 150.83
  Q 298.09 149.83 297.91 149.02
  A 0.69 0.68 85.6 0 0 297.28 148.48
  Q 292.79 148.17 289.87 149.82"
/>
<path stroke="#5d5a72" vector-effect="non-scaling-stroke" d="
  M 199.23 162.26
  L 198.45 163.40"
/>
<path stroke="#937f78" vector-effect="non-scaling-stroke" d="
  M 197.10 150.41
  Q 202.23 151.25 206.72 149.18"
/>
<path stroke="#7a7984" vector-effect="non-scaling-stroke" d="
  M 215.67 143.05
  Q 215.28 144.28 212.44 144.94
  Q 204.60 146.77 194.52 146.95"
/>
<path stroke="#c0b1af" vector-effect="non-scaling-stroke" d="
  M 51.25 274.52
  Q 49.53 273.88 49.18 274.91"
/>
<path stroke="#a99785" vector-effect="non-scaling-stroke" d="
  M 49.18 274.91
  Q 48.72 274.90 48.46 275.25"
/>
<path stroke="#c0b1af" vector-effect="non-scaling-stroke" d="
  M 47.28 275.41
  L 30.45 277.02"
/>
<path stroke="#828593" vector-effect="non-scaling-stroke" d="
  M 29.76 276.96
  L 28.16 273.96"
/>
<path stroke="#ddd0c1" vector-effect="non-scaling-stroke" d="
  M 63.71 264.73
  Q 67.10 266.01 71.62 264.45
  C 86.88 259.20 102.36 254.70 117.73 249.81
  C 141.71 242.19 161.36 234.90 198.26 221.81
  Q 205.57 219.22 210.63 216.38
  Q 214.41 214.26 217.30 209.32
  A 0.37 0.35 -46.3 0 0 217.30 208.95
  Q 217.07 208.58 217.49 208.36
  Q 217.75 208.23 217.67 207.97
  Q 217.61 207.78 217.29 207.75"
/>
<path stroke="#937f78" vector-effect="non-scaling-stroke" d="
  M 330.95 172.29
  Q 325.26 172.74 319.56 173.34
  C 313.78 173.95 307.32 173.46 302.47 174.01
  Q 299.90 174.30 297.14 173.56
  A 5.88 5.17 -30.3 0 0 296.32 173.40
  Q 292.35 172.93 270.31 173.44
  Q 265.75 173.54 263.10 175.58"
/>
<path stroke="#c6b8b4" vector-effect="non-scaling-stroke" d="
  M 292.83 250.25
  Q 282.68 250.58 278.59 243.22
  C 277.30 240.89 277.45 238.93 274.02 238.66
  Q 273.10 238.58 272.90 237.46
  A 0.51 0.50 85.8 0 1 273.41 236.86
  Q 275.22 236.90 275.87 236.02
  A 1.40 1.39 61.7 0 0 276.15 235.07
  C 275.88 231.23 276.34 225.55 278.59 221.98
  Q 280.17 219.49 281.75 217.60
  A 0.40 0.40 0.0 0 0 281.21 217.03
  Q 277.25 219.97 275.62 224.30
  A 0.42 0.41 17.7 0 1 275.12 224.55
  L 260.55 220.31
  A 0.25 0.24 -58.7 0 1 260.46 219.90
  Q 262.73 217.76 266.88 216.24"
/>
<path stroke="#1f2e55" vector-effect="non-scaling-stroke" d="
  M 423.59 152.35
  Q 422.38 153.00 421.84 154.02
  A 1.29 1.27 50.6 0 0 421.75 154.98
  Q 422.05 155.97 421.93 156.44
  A 1.54 1.49 42.9 0 1 419.03 156.50
  Q 418.34 154.56 418.43 153.89
  A 0.36 0.35 1.2 0 0 418.04 153.49
  L 416.51 153.61
  A 0.69 0.68 -10.3 0 0 415.90 154.48
  L 416.69 157.19
  A 0.50 0.50 0.0 0 1 416.25 157.83
  L 415.06 157.92
  A 1.33 1.32 -14.2 0 1 413.75 157.15
  L 412.86 155.18
  A 1.02 1.02 0.0 0 0 410.91 155.68
  L 411.03 157.26
  A 1.15 1.15 0.0 0 1 408.88 157.91
  Q 408.30 156.86 408.09 155.31
  A 0.82 0.82 0.0 0 0 406.56 155.04
  Q 406.08 155.92 406.07 157.64
  A 0.72 0.72 0.0 0 1 404.94 158.24
  Q 403.40 157.20 403.08 155.59
  A 0.98 0.98 0.0 0 0 401.16 155.59
  Q 401.03 156.22 401.16 157.05
  A 0.88 0.88 0.0 0 1 399.62 157.75
  L 398.10 155.96
  A 0.79 0.78 -67.4 0 0 396.72 156.53
  L 396.80 157.58
  A 0.78 0.78 0.0 0 1 395.56 158.27
  Q 394.76 157.69 394.20 156.74
  A 0.78 0.78 0.0 0 0 392.85 156.75
  L 391.87 158.45
  A 0.71 0.70 25.5 0 1 391.01 158.75
  Q 390.11 158.42 390.12 157.56
  A 1.03 0.97 -34.2 0 0 388.19 157.25
  Q 387.94 157.82 387.84 158.69
  A 0.78 0.77 -83.9 0 1 387.00 159.37
  L 386.90 159.36
  A 0.81 0.80 -85.9 0 1 386.17 158.51
  Q 386.24 157.03 385.16 156.72
  A 1.12 1.10 -47.8 0 0 384.45 156.76
  Q 382.64 157.48 381.08 157.06
  A 1.42 1.42 0.0 0 0 380.34 157.06
  Q 379.66 157.26 379.25 157.66
  C 378.42 158.49 377.62 158.36 376.94 157.46
  A 0.63 0.63 0.0 0 0 376.05 157.35
  Q 374.02 158.97 372.90 157.92
  A 0.03 0.02 58.3 0 0 372.88 157.91
  L 364.13 158.30
  A 0.61 0.61 0.0 0 0 363.55 158.96
  L 363.73 161.13
  A 0.26 0.26 0.0 0 1 363.28 161.32
  L 362.85 160.83
  A 0.91 0.89 26.1 0 1 362.61 160.15
  Q 362.71 158.96 361.08 158.02
  A 0.61 0.61 0.0 0 0 360.24 158.24
  L 359.84 158.93
  A 1.00 0.99 12.5 0 1 359.05 159.43
  L 343.98 160.63
  A 0.98 0.96 69.8 0 1 343.12 160.22
  Q 342.59 159.48 341.95 159.55
  A 0.86 0.85 -1.3 0 0 341.21 160.32
  Q 341.14 161.09 341.05 161.18
  A 0.61 0.60 47.4 0 1 340.15 161.14
  L 338.81 159.51
  A 0.58 0.57 22.9 0 0 337.79 159.92
  L 337.89 161.18
  A 0.51 0.50 -79.9 0 1 337.18 161.68
  Q 336.17 161.22 335.52 160.05
  A 0.58 0.58 0.0 0 0 334.70 159.84
  Q 334.07 160.24 334.21 161.27
  A 0.51 0.51 0.0 0 1 333.47 161.80
  Q 332.08 161.10 331.85 159.70
  A 0.41 0.41 0.0 0 0 331.05 159.64
  Q 330.44 161.53 331.00 162.76
  A 0.11 0.11 0.0 0 1 330.95 162.91
  L 330.61 163.06
  A 0.37 0.37 0.0 0 1 330.12 162.87
  L 328.81 159.97
  A 0.48 0.48 0.0 0 0 327.90 160.08
  L 327.48 162.63
  A 0.13 0.13 0.0 0 1 327.37 162.73
  L 327.11 162.75
  A 0.62 0.61 -10.4 0 1 326.47 162.31
  Q 326.05 160.80 325.11 160.53
  A 0.65 0.65 0.0 0 0 324.28 161.19
  Q 324.33 162.14 324.18 162.45
  A 0.46 0.46 0.0 0 1 323.37 162.51
  L 321.84 160.16
  A 0.47 0.47 0.0 0 0 320.98 160.45
  L 321.18 163.04
  A 0.52 0.52 0.0 0 1 320.19 163.30
  L 318.99 160.66
  A 0.65 0.65 0.0 0 0 317.74 160.98
  L 317.90 162.97
  A 0.42 0.42 0.0 0 1 317.14 163.25
  L 315.63 161.24
  A 0.51 0.50 39.5 0 0 314.77 161.32
  Q 314.66 161.54 314.57 161.99
  A 0.81 0.81 0.0 0 1 313.26 162.46
  L 311.95 161.37
  A 0.37 0.37 0.0 0 0 311.36 161.56
  Q 310.85 163.38 309.83 162.67
  Q 309.23 162.26 309.01 161.62
  A 0.52 0.52 0.0 0 0 308.01 161.71
  L 307.75 163.28
  A 0.34 0.34 0.0 0 1 307.12 163.39
  Q 306.33 162.00 305.30 161.84
  A 0.53 0.53 0.0 0 0 304.68 162.36
  Q 304.67 163.30 304.54 163.43
  A 0.62 0.62 0.0 0 1 303.59 163.36
  L 302.39 161.64
  A 0.55 0.55 0.0 0 0 301.39 161.99
  L 301.51 163.43
  A 0.62 0.62 0.0 0 1 300.32 163.73
  L 299.14 161.11
  A 0.43 0.43 0.0 0 0 298.32 161.22
  L 297.98 163.23
  A 0.34 0.34 0.0 0 1 297.39 163.41
  Q 297.13 163.11 296.52 162.25
  A 0.76 0.69 29.6 0 0 295.17 162.55
  Q 295.18 163.15 294.95 163.48
  A 0.61 0.60 37.1 0 1 294.08 163.60
  Q 293.99 163.53 293.68 163.10
  Q 293.21 162.45 292.62 162.68
  Q 292.28 162.81 291.89 164.08
  A 0.34 0.33 33.9 0 1 291.31 164.19
  Q 290.61 163.32 289.98 162.89
  A 0.53 0.52 -64.2 0 0 289.18 163.17
  L 288.97 163.91
  A 0.54 0.54 0.0 0 1 287.99 164.03
  Q 287.94 163.95 287.41 163.33
  A 0.58 0.58 0.0 0 0 286.39 163.61
  L 286.30 164.10
  A 0.64 0.63 -65.5 0 1 285.27 164.49
  L 284.08 163.51
  A 0.44 0.44 0.0 0 0 283.37 163.77
  L 283.31 164.19
  A 0.59 0.58 10.9 0 1 282.61 164.66
  Q 281.92 164.52 281.78 164.36
  A 0.79 0.77 62.5 0 0 280.99 164.10
  Q 278.10 164.85 274.27 164.87
  C 269.84 164.90 264.86 166.45 260.36 165.99
  Q 254.00 165.33 249.34 165.86
  C 241.81 166.70 234.07 166.76 226.62 167.18
  Q 222.48 167.41 215.03 164.77"
/>
<path stroke="#463f47" vector-effect="non-scaling-stroke" d="
  M 431.88 162.47
  C 426.87 163.24 421.90 164.28 417.00 164.54
  Q 403.43 165.29 390.16 165.99
  Q 381.28 166.46 377.32 166.39
  Q 369.15 166.26 364.47 166.68
  Q 356.12 167.45 345.25 167.47
  Q 334.41 167.48 322.67 168.35
  C 311.18 169.19 298.76 168.79 286.98 169.61
  C 274.51 170.49 264.31 170.30 253.03 171.04
  Q 243.11 171.70 236.46 171.74
  Q 228.04 171.80 219.64 171.88
  A 0.76 0.70 47.4 0 1 219.52 171.87
  L 213.10 171.07"
/>
<path stroke="#75676c" vector-effect="non-scaling-stroke" d="
  M 36.21 277.54
  L 31.59 277.35"
/>
<path stroke="#937f78" vector-effect="non-scaling-stroke" d="
  M 49.46 275.00
  Q 49.32 274.96 49.18 274.91"
/>
<path stroke="#857b6c" vector-effect="non-scaling-stroke" d="
  M 283.55 209.57
  Q 283.00 209.77 282.65 209.56"
/>
<path stroke="#e8e0d6" vector-effect="non-scaling-stroke" d="
  M 514.3583 141.3428
  A 0.62 0.47 -84.6 0 0 513.8321 141.9158
  A 0.62 0.47 -84.6 0 0 514.2417 142.5772
  A 0.62 0.47 -84.6 0 0 514.7679 142.0042
  A 0.62 0.47 -84.6 0 0 514.3583 141.3428"
/>
<path stroke="#463f47" vector-effect="non-scaling-stroke" d="
  M 190.27 129.87
  Q 190.12 129.97 189.93 129.94
  A 0.42 0.41 -78.0 0 1 189.60 129.42
  Q 190.74 125.19 187.81 122.25
  Q 180.44 114.86 174.51 109.22
  Q 173.80 108.54 172.70 108.01
  A 0.69 0.68 0.5 0 0 171.78 108.91
  L 177.14 120.81
  A 3.44 3.41 -79.2 0 0 177.78 121.76
  Q 179.21 123.28 185.25 129.98
  Q 189.05 134.18 190.54 139.85
  A 2.37 2.36 -7.3 0 0 192.83 141.62
  L 195.48 141.62
  A 1.35 1.34 81.5 0 0 196.76 139.88
  Q 195.29 135.04 195.42 129.58
  A 0.86 0.85 -67.7 0 0 195.16 128.94
  L 192.62 126.43
  A 0.70 0.70 0.0 0 0 191.60 126.48
  Q 190.24 128.08 190.38 129.67
  A 0.21 0.20 75.2 0 1 190.27 129.87"
/>
<path stroke="#5e4d42" vector-effect="non-scaling-stroke" d="
  M 195.13 138.73
  Q 195.33 135.86 194.32 133.74
  C 193.75 132.55 193.98 131.43 193.44 130.35
  A 0.62 0.61 76.7 0 0 192.89 130.01
  L 192.58 130.01
  A 0.53 0.53 0.0 0 0 192.08 130.73
  C 193.04 133.34 194.36 136.19 193.57 138.80
  A 0.48 0.47 -81.7 0 0 194.02 139.41
  L 194.40 139.41
  A 0.73 0.73 0.0 0 0 195.13 138.73"
/>
<path stroke="#cec2b9" vector-effect="non-scaling-stroke" d="
  M 312.1352 130.4654
  A 1.37 0.56 -4.8 0 0 310.7231 130.0220
  A 1.37 0.56 -4.8 0 0 309.4048 130.6946
  A 1.37 0.56 -4.8 0 0 310.8169 131.1380
  A 1.37 0.56 -4.8 0 0 312.1352 130.4654"
/>
<path stroke="#7d7171" vector-effect="non-scaling-stroke" d="
  M 454.37 147.71
  Q 454.31 146.57 454.36 146.40
  A 1.75 1.67 41.5 0 1 457.57 146.28
  Q 457.98 147.16 456.99 148.30
  A 0.54 0.54 0.0 0 0 457.10 149.11
  Q 457.66 149.48 457.93 149.46
  A 0.63 0.62 -7.9 0 0 458.49 148.72
  Q 458.11 146.63 458.64 145.27
  A 0.70 0.70 0.0 0 0 457.79 144.34
  L 456.47 144.73
  A 0.40 0.38 70.0 0 1 456.00 144.50
  Q 455.59 143.57 455.33 143.45
  A 0.41 0.41 0.0 0 0 454.76 143.73
  Q 454.34 145.58 453.11 146.45
  A 0.75 0.74 -26.8 0 0 452.83 147.29
  Q 453.11 148.17 453.71 148.28
  A 0.55 0.55 0.0 0 0 454.37 147.71"
/>
<path stroke="#7d7171" vector-effect="non-scaling-stroke" d="
  M 455.6652 148.6139
  A 1.01 0.65 -65.1 0 0 454.6504 149.2563
  A 1.01 0.65 -65.1 0 0 454.8148 150.4461
  A 1.01 0.65 -65.1 0 0 455.8296 149.8037
  A 1.01 0.65 -65.1 0 0 455.6652 148.6139"
/>
<path stroke="#b1a3a7" vector-effect="non-scaling-stroke" d="
  M 432.6903 151.5256
  A 0.93 0.79 -122.5 0 0 432.5237 152.7345
  A 0.93 0.79 -122.5 0 0 433.6897 153.0944
  A 0.93 0.79 -122.5 0 0 433.8563 151.8855
  A 0.93 0.79 -122.5 0 0 432.6903 151.5256"
/>
<path stroke="#9b887c" vector-effect="non-scaling-stroke" d="
  M 413.87 169.46
  Q 413.14 168.99 412.26 169.20
  A 0.44 0.44 0.0 0 0 412.01 169.89
  Q 413.07 171.31 414.41 170.61
  A 1.95 1.90 -57.5 0 1 415.34 170.39
  Q 422.91 170.61 432.24 168.89
  Q 432.44 168.86 432.45 168.72
  Q 432.48 168.41 432.23 168.21
  A 0.25 0.20 -20.3 0 0 432.08 168.16
  L 414.31 169.57
  A 0.71 0.69 -30.5 0 1 413.87 169.46"
/>
<path stroke="#cec2b9" vector-effect="non-scaling-stroke" d="
  M 329.34 183.38
  A 0.84 0.84 0.0 0 0 330.39 184.12
  C 336.42 182.48 342.50 180.46 348.76 181.44
  A 0.29 0.29 0.0 0 0 348.95 180.91
  L 344.54 178.36
  A 1.03 1.03 0.0 0 0 343.13 178.74
  Q 342.92 179.11 342.66 179.32
  A 1.48 1.48 0.0 0 1 341.66 179.64
  Q 336.73 179.38 332.15 181.95
  A 0.22 0.21 28.2 0 1 332.04 181.98
  L 329.87 182.31
  A 0.67 0.65 -7.1 0 0 329.31 183.01
  L 329.34 183.38"
/>
<path stroke="#7d7171" vector-effect="non-scaling-stroke" d="
  M 329.4096 184.8554
  A 1.85 0.91 -12.0 0 0 327.4108 184.3499
  A 1.85 0.91 -12.0 0 0 325.7904 185.6246
  A 1.85 0.91 -12.0 0 0 327.7892 186.1301
  A 1.85 0.91 -12.0 0 0 329.4096 184.8554"
/>
<path stroke="#656376" vector-effect="non-scaling-stroke" d="
  M 364.23 146.35
  Q 363.45 147.47 363.51 147.81
  A 0.90 0.82 -41.8 0 0 365.18 147.83
  Q 365.46 147.02 364.97 146.34
  A 0.45 0.45 0.0 0 0 364.23 146.35"
/>
<path stroke="#656376" vector-effect="non-scaling-stroke" d="
  M 339.2534 146.5248
  A 3.33 1.84 -84.6 0 0 337.1082 149.6668
  A 3.33 1.84 -84.6 0 0 338.6266 153.1552
  A 3.33 1.84 -84.6 0 0 340.7718 150.0132
  A 3.33 1.84 -84.6 0 0 339.2534 146.5248"
/>
<path stroke="#656376" vector-effect="non-scaling-stroke" d="
  M 332.6923 147.2481
  A 1.66 1.37 -70.2 0 0 330.8410 148.3459
  A 1.66 1.37 -70.2 0 0 331.5677 150.3719
  A 1.66 1.37 -70.2 0 0 333.4190 149.2741
  A 1.66 1.37 -70.2 0 0 332.6923 147.2481"
/>
<path stroke="#5d5a72" vector-effect="non-scaling-stroke" d="
  M 325.97 148.74
  Q 324.75 149.75 324.87 150.61
  A 0.61 0.61 0.0 0 0 326.07 150.62
  L 326.34 148.96
  A 0.23 0.23 0.0 0 0 325.97 148.74"
/>
<path stroke="#28283c" vector-effect="non-scaling-stroke" d="
  M 402.59 161.72
  Q 401.99 162.36 401.49 162.36
  Q 383.00 162.29 363.00 163.35
  A 0.49 0.48 -16.0 0 0 362.60 164.07
  L 362.68 164.21
  A 1.27 1.26 74.1 0 0 363.83 164.86
  Q 376.19 164.47 383.75 164.26
  C 386.19 164.20 388.24 163.65 389.94 163.43
  Q 391.92 163.18 394.58 163.12
  Q 407.14 162.84 417.69 162.13
  A 7.58 6.51 -44.8 0 0 418.69 161.98
  Q 422.39 161.12 423.23 161.14
  Q 425.70 161.19 428.27 160.75
  A 0.32 0.31 -30.1 0 0 428.42 160.20
  L 427.55 159.48
  A 0.19 0.18 -27.8 0 0 427.41 159.44
  L 415.78 160.86
  Q 415.75 160.86 415.72 160.86
  L 403.84 161.15
  A 1.76 1.74 20.1 0 0 402.59 161.72"
/>
<path stroke="#ddd0c1" vector-effect="non-scaling-stroke" d="
  M 228.47 210.25
  L 277.71 191.92
  A 0.26 0.26 0.0 0 0 277.60 191.41
  Q 274.50 191.58 271.56 192.44
  Q 255.33 197.18 246.51 199.79
  C 241.50 201.26 230.93 205.35 228.45 210.23
  A 0.02 0.01 84.3 0 0 228.47 210.25"
/>
<path stroke="#857b6c" vector-effect="non-scaling-stroke" d="
  M 287.19 216.88
  Q 274.26 224.61 278.10 238.40
  Q 279.55 243.61 282.42 245.53
  Q 285.83 247.81 290.54 245.57"
/>
<path stroke="#b09e8a" vector-effect="non-scaling-stroke" d="
  M 290.54 245.57
  Q 292.74 245.39 294.13 246.39
  Q 294.89 246.93 295.73 246.54
  C 300.08 244.52 301.61 241.96 303.61 237.84
  A 2.37 2.34 -31.8 0 0 303.85 236.85
  Q 303.99 229.92 303.72 228.51
  Q 302.85 223.93 299.63 219.84
  Q 295.31 214.36 287.19 216.88"
/>
<path stroke="#514230" vector-effect="non-scaling-stroke" d="
  M 290.54 245.57
  Q 299.12 238.52 297.53 227.46
  Q 296.68 221.54 291.81 217.61
  A 1.37 1.32 67.3 0 0 291.16 217.33
  L 287.19 216.88"
/>
<path stroke="#685c5a" vector-effect="non-scaling-stroke" d="
  M 284.19 223.42
  L 283.04 222.59
  A 0.22 0.22 0.0 0 0 282.73 222.64
  L 282.42 223.07
  A 5.71 0.71 -54.3 0 0 279.67 228.12
  L 280.02 228.38
  A 5.71 0.71 -54.3 0 0 283.93 224.16
  L 284.24 223.73
  A 0.22 0.22 0.0 0 0 284.19 223.42"
/>
<path stroke="#7e7467" vector-effect="non-scaling-stroke" d="
  M 287.7673 231.3846
  A 1.37 0.85 -21.2 0 0 286.1826 231.0875
  A 1.37 0.85 -21.2 0 0 285.2127 232.3754
  A 1.37 0.85 -21.2 0 0 286.7974 232.6725
  A 1.37 0.85 -21.2 0 0 287.7673 231.3846"
/>
</g>
<path fill="#101a41" d="
  M 420.08 25.89
  L 411.58 29.47
  Q 411.05 23.78 408.11 20.17
  C 406.61 18.33 404.41 17.15 402.89 15.40
  A 0.94 0.94 0.0 0 1 403.53 13.84
  C 407.12 13.61 411.31 16.90 414.09 18.88
  A 10.94 10.69 88.2 0 1 416.42 21.12
  L 420.08 25.89
  Z"
/>
<path fill="#d6c9bc" d="
  M 399.55 92.49
  Q 397.21 94.89 396.02 97.86
  Q 394.40 101.92 394.35 102.03
  Q 392.85 105.28 392.00 108.11
  C 391.11 111.06 390.01 113.22 388.68 116.70
  A 2.83 2.82 6.6 0 1 386.44 118.47
  L 366.62 121.16
  L 362.96 121.13
  A 3.54 3.19 35.4 0 0 362.18 121.22
  Q 355.29 122.89 348.13 122.44
  Q 351.30 118.71 354.11 115.63
  Q 357.14 112.30 357.15 109.47
  A 1.04 1.02 -20.6 0 1 357.51 108.69
  Q 367.37 100.25 372.71 89.40
  A 10.66 10.64 80.4 0 1 374.68 86.62
  Q 378.81 82.41 382.68 76.93
  Q 390.81 65.41 397.67 55.17
  Q 407.38 40.65 411.58 29.47
  L 420.08 25.89
  Q 420.23 27.76 421.33 30.09
  A 1.94 1.91 41.4 0 1 421.43 31.48
  Q 418.09 42.05 414.65 52.57
  C 410.25 66.03 404.88 79.35 399.55 92.49
  Z"
/>
<path fill="#f9f6ef" d="
  M 399.55 92.49
  L 393.15 108.99
  A 0.65 0.64 -38.9 0 0 393.11 109.34
  Q 393.28 110.18 394.23 110.48
  Q 394.10 111.55 393.39 112.35
  L 391.90 116.99
  A 0.35 0.34 -85.3 0 0 392.28 117.44
  L 412.68 114.26
  Q 422.41 114.12 431.75 111.76
  A 1.30 1.26 50.9 0 1 432.66 111.87
  Q 434.63 112.89 437.32 112.11
  Q 439.31 112.49 440.75 111.70
  Q 446.30 112.50 457.00 112.71
  Q 461.46 112.80 470.59 114.53
  Q 476.36 115.62 483.69 118.63
  Q 494.71 123.16 496.32 124.20
  Q 503.93 129.07 504.10 129.17
  C 507.29 130.96 509.19 132.91 512.45 135.23
  Q 513.19 135.76 515.63 137.78
  C 520.70 141.96 529.01 149.14 531.35 154.94
  Q 532.70 158.27 530.56 162.13
  Q 523.46 155.88 518.37 154.28
  C 508.49 151.18 498.54 148.49 488.90 144.71
  Q 495.13 142.83 501.16 140.96
  C 505.76 139.53 506.82 136.63 506.05 132.03
  Q 505.53 128.97 504.16 130.31
  L 496.76 126.73
  Q 496.60 125.25 495.36 123.98
  A 0.38 0.38 0.0 0 0 494.74 124.40
  Q 495.53 126.23 495.32 128.47
  C 490.15 130.89 485.44 124.39 481.45 122.05
  Q 473.78 117.56 464.57 116.49
  Q 447.04 114.47 427.09 115.45
  C 416.84 115.96 407.36 117.99 396.95 119.18
  Q 389.57 120.02 382.32 121.16
  L 378.30 121.57
  Q 372.13 122.74 366.62 121.16
  L 386.44 118.47
  A 2.83 2.82 6.6 0 0 388.68 116.70
  C 390.01 113.22 391.11 111.06 392.00 108.11
  Q 392.85 105.28 394.35 102.03
  Q 394.40 101.92 396.02 97.86
  Q 397.21 94.89 399.55 92.49
  Z
  M 514.3583 141.3428
  A 0.62 0.47 -84.6 0 0 513.8321 141.9158
  A 0.62 0.47 -84.6 0 0 514.2417 142.5772
  A 0.62 0.47 -84.6 0 0 514.7679 142.0042
  A 0.62 0.47 -84.6 0 0 514.3583 141.3428
  Z"
/>
<path fill="#101a41" d="
  M 215.67 143.05
  Q 215.28 144.28 212.44 144.94
  Q 204.60 146.77 194.52 146.95
  L 181.04 129.36
  A 1.97 1.91 -89.1 0 0 180.72 129.02
  C 177.90 126.63 176.48 123.52 174.14 120.52
  Q 158.38 100.30 157.33 99.23
  A 1.57 1.57 0.0 0 1 158.24 96.59
  L 161.19 96.17
  A 5.42 5.42 0.0 0 1 165.71 97.61
  Q 188.63 119.51 191.52 121.96
  C 192.94 123.16 194.96 124.76 196.64 126.53
  Q 205.65 135.95 215.67 143.05
  Z
  M 190.27 129.87
  Q 190.12 129.97 189.93 129.94
  A 0.42 0.41 -78.0 0 1 189.60 129.42
  Q 190.74 125.19 187.81 122.25
  Q 180.44 114.86 174.51 109.22
  Q 173.80 108.54 172.70 108.01
  A 0.69 0.68 0.5 0 0 171.78 108.91
  L 177.14 120.81
  A 3.44 3.41 -79.2 0 0 177.78 121.76
  Q 179.21 123.28 185.25 129.98
  Q 189.05 134.18 190.54 139.85
  A 2.37 2.36 -7.3 0 0 192.83 141.62
  L 195.48 141.62
  A 1.35 1.34 81.5 0 0 196.76 139.88
  Q 195.29 135.04 195.42 129.58
  A 0.86 0.85 -67.7 0 0 195.16 128.94
  L 192.62 126.43
  A 0.70 0.70 0.0 0 0 191.60 126.48
  Q 190.24 128.08 190.38 129.67
  A 0.21 0.20 75.2 0 1 190.27 129.87
  Z"
/>
<path fill="#7c644d" d="
  M 190.38 129.67
  Q 190.24 128.08 191.60 126.48
  A 0.70 0.70 0.0 0 1 192.62 126.43
  L 195.16 128.94
  A 0.86 0.85 -67.7 0 1 195.42 129.58
  Q 195.29 135.04 196.76 139.88
  A 1.35 1.34 81.5 0 1 195.48 141.62
  L 192.83 141.62
  A 2.37 2.36 -7.3 0 1 190.54 139.85
  Q 189.05 134.18 185.25 129.98
  Q 179.21 123.28 177.78 121.76
  A 3.44 3.41 -79.2 0 1 177.14 120.81
  L 171.78 108.91
  A 0.69 0.68 0.5 0 1 172.70 108.01
  Q 173.80 108.54 174.51 109.22
  Q 180.44 114.86 187.81 122.25
  Q 190.74 125.19 189.60 129.42
  A 0.42 0.41 -78.0 0 0 189.93 129.94
  Q 190.12 129.97 190.27 129.87
  A 0.21 0.20 75.2 0 0 190.38 129.67
  Z
  M 195.13 138.73
  Q 195.33 135.86 194.32 133.74
  C 193.75 132.55 193.98 131.43 193.44 130.35
  A 0.62 0.61 76.7 0 0 192.89 130.01
  L 192.58 130.01
  A 0.53 0.53 0.0 0 0 192.08 130.73
  C 193.04 133.34 194.36 136.19 193.57 138.80
  A 0.48 0.47 -81.7 0 0 194.02 139.41
  L 194.40 139.41
  A 0.73 0.73 0.0 0 0 195.13 138.73
  Z"
/>
<path fill="#d6c9bc" d="
  M 435.45 111.10
  L 437.32 112.11
  Q 434.63 112.89 432.66 111.87
  A 1.30 1.26 50.9 0 0 431.75 111.76
  Q 422.41 114.12 412.68 114.26
  Q 414.03 113.65 414.61 112.84
  A 0.25 0.25 0.0 0 0 414.38 112.44
  Q 406.60 113.31 400.53 114.73
  Q 395.34 115.94 393.39 112.35
  Q 394.10 111.55 394.23 110.48
  C 397.41 110.37 400.49 110.45 403.71 110.20
  Q 414.44 109.40 427.43 109.72
  C 429.82 109.78 432.84 110.58 435.45 111.10
  Z"
/>
<path fill="#a999a2" d="
  M 440.75 111.70
  Q 439.31 112.49 437.32 112.11
  L 435.45 111.10
  L 440.75 111.70
  Z"
/>
<path fill="#7c644d" d="
  M 412.68 114.26
  L 392.28 117.44
  A 0.35 0.34 -85.3 0 1 391.90 116.99
  L 393.39 112.35
  Q 395.34 115.94 400.53 114.73
  Q 406.60 113.31 414.38 112.44
  A 0.25 0.25 0.0 0 1 414.61 112.84
  Q 414.03 113.65 412.68 114.26
  Z"
/>
<path fill="#e3d7c6" d="
  M 495.32 128.47
  L 496.76 126.73
  L 504.16 130.31
  Q 506.05 133.33 504.76 137.50
  A 0.86 0.86 0.0 0 1 503.56 138.01
  Q 501.44 136.97 499.45 135.06
  Q 497.19 132.88 494.18 131.76
  A 2.16 2.12 45.6 0 0 492.80 131.73
  L 479.22 136.02
  Q 474.91 133.96 470.58 131.97
  C 460.68 127.41 448.33 126.58 437.68 126.45
  Q 410.86 126.13 384.40 129.81
  C 375.72 131.02 362.24 131.84 351.73 133.35
  Q 331.52 136.23 328.05 136.48
  Q 309.42 137.83 286.31 140.65
  Q 283.00 141.05 254.26 143.89
  Q 231.51 146.14 208.97 150.22
  Q 206.99 150.45 206.72 149.18
  Q 208.10 148.63 209.13 147.67
  A 0.33 0.33 0.0 0 0 208.80 147.11
  C 205.63 148.13 201.62 149.59 198.30 148.90
  Q 197.09 147.56 194.52 146.95
  Q 204.60 146.77 212.44 144.94
  Q 215.28 144.28 215.67 143.05
  Q 218.06 142.42 223.35 140.30
  C 225.75 139.35 229.34 139.49 231.88 139.05
  Q 251.21 135.71 255.25 135.22
  Q 265.38 134.00 273.11 132.86
  Q 281.69 131.60 290.96 130.51
  Q 316.64 127.48 322.88 126.32
  Q 322.95 126.31 334.21 125.02
  Q 339.78 124.39 345.46 123.13
  Q 347.09 122.76 348.13 122.44
  Q 355.29 122.89 362.18 121.22
  A 3.54 3.19 35.4 0 1 362.96 121.13
  L 366.62 121.16
  Q 372.13 122.74 378.30 121.57
  Q 378.27 122.82 380.26 122.68
  Q 387.10 122.20 382.32 121.16
  Q 389.57 120.02 396.95 119.18
  C 407.36 117.99 416.84 115.96 427.09 115.45
  Q 447.04 114.47 464.57 116.49
  Q 473.78 117.56 481.45 122.05
  C 485.44 124.39 490.15 130.89 495.32 128.47
  Z
  M 312.1352 130.4654
  A 1.37 0.56 -4.8 0 0 310.7231 130.0220
  A 1.37 0.56 -4.8 0 0 309.4048 130.6946
  A 1.37 0.56 -4.8 0 0 310.8169 131.1380
  A 1.37 0.56 -4.8 0 0 312.1352 130.4654
  Z"
/>
<path fill="#a999a2" d="
  M 382.32 121.16
  Q 387.10 122.20 380.26 122.68
  Q 378.27 122.82 378.30 121.57
  L 382.32 121.16
  Z"
/>
<path fill="#7c644d" d="
  M 496.76 126.73
  L 495.32 128.47
  Q 495.53 126.23 494.74 124.40
  A 0.38 0.38 0.0 0 1 495.36 123.98
  Q 496.60 125.25 496.76 126.73
  Z"
/>
<path fill="#b9acab" d="
  M 479.22 136.02
  C 473.57 138.27 468.09 140.82 468.64 147.44
  C 468.80 149.39 470.25 150.69 472.08 150.89
  C 478.67 151.60 483.67 148.06 488.90 144.71
  C 498.54 148.49 508.49 151.18 518.37 154.28
  Q 523.46 155.88 530.56 162.13
  Q 529.17 164.94 526.46 166.95
  Q 522.22 170.09 518.78 171.51
  Q 499.83 179.36 481.76 180.91
  Q 474.88 181.50 473.10 181.69
  Q 469.65 182.07 464.40 182.07
  Q 412.00 182.03 378.60 182.04
  C 373.73 182.05 369.50 182.95 364.83 183.66
  Q 360.71 184.28 340.07 189.01
  Q 335.85 189.97 332.44 190.34
  C 328.60 190.76 325.63 191.58 322.18 191.70
  Q 320.49 191.76 314.04 192.40
  C 308.31 192.98 302.86 194.81 297.17 196.50
  Q 302.24 192.76 307.38 191.08
  Q 310.25 190.14 324.84 185.71
  A 1.00 1.00 0.0 0 0 325.50 184.44
  L 325.47 184.34
  A 0.75 0.75 0.0 0 0 324.55 183.83
  L 303.93 189.85
  A 3.15 2.69 15.8 0 0 303.21 190.18
  Q 299.67 192.45 298.19 192.93
  Q 288.66 196.02 281.76 198.53
  Q 273.77 201.44 269.25 202.75
  Q 264.17 204.22 256.65 206.81
  A 4.71 4.19 -66.8 0 0 255.82 207.20
  C 253.18 208.80 250.07 209.03 247.47 210.28
  A 0.39 0.39 0.0 0 0 247.65 211.02
  L 256.09 210.79
  L 270.51 212.73
  Q 270.01 212.47 269.55 212.77
  A 0.51 0.51 0.0 0 0 269.76 213.70
  Q 270.43 213.80 270.92 214.07
  A 0.98 0.98 0.0 0 1 270.53 215.89
  L 266.88 216.24
  Q 259.52 215.06 253.06 217.58
  C 251.46 218.21 251.87 220.36 250.44 221.62
  C 249.40 222.54 249.78 223.88 248.40 224.82
  L 246.35 222.19
  A 8.05 7.57 89.0 0 0 245.29 221.10
  L 240.49 217.12
  A 2.30 2.18 71.7 0 0 239.69 216.69
  Q 237.81 216.14 235.69 216.40
  Q 238.67 212.48 243.31 210.54
  Q 253.12 206.42 255.89 205.46
  Q 272.75 199.57 272.79 199.56
  C 275.17 198.60 277.35 197.71 279.55 196.17
  Q 288.50 189.87 294.60 185.41
  A 0.19 0.18 27.3 0 0 294.49 185.08
  L 288.42 184.80
  A 1.28 0.99 -8.1 0 0 288.24 184.81
  L 277.77 186.46
  A 1.64 1.59 -60.0 0 0 277.42 186.56
  Q 272.01 188.72 267.57 187.83
  Q 265.07 185.14 261.76 183.83
  A 3.88 3.80 53.5 0 0 260.13 183.57
  Q 256.74 183.77 253.42 183.30
  Q 250.92 182.94 246.88 182.87
  Q 236.71 182.69 227.15 178.14
  L 263.10 175.58
  Q 276.68 176.18 290.24 174.38
  C 293.97 173.89 297.10 174.21 300.47 174.93
  A 0.50 0.49 -50.8 0 1 300.56 175.87
  L 299.93 176.16
  A 0.21 0.21 0.0 0 0 300.01 176.56
  C 303.12 176.68 308.63 176.30 312.80 178.07
  A 0.19 0.18 -40.6 0 1 312.77 178.42
  Q 300.71 181.72 296.86 182.82
  Q 295.50 183.21 294.65 183.88
  A 0.53 0.53 0.0 0 0 295.01 184.82
  Q 298.78 184.59 301.08 187.43
  C 301.99 188.57 301.33 189.07 301.31 189.98
  A 0.23 0.22 -7.5 0 0 301.60 190.20
  L 315.24 186.04
  A 4.35 4.23 -67.6 0 0 316.12 185.66
  Q 321.86 182.35 331.47 179.74
  A 0.16 0.16 0.0 0 0 331.59 179.54
  L 331.59 179.53
  A 0.18 0.18 0.0 0 0 331.39 179.43
  L 324.62 181.06
  A 0.14 0.14 0.0 0 1 324.45 180.95
  L 324.45 180.94
  A 0.16 0.15 -17.2 0 1 324.55 180.76
  L 335.98 175.97
  A 0.35 0.35 0.0 0 0 335.90 175.30
  L 325.11 173.53
  A 0.17 0.17 0.0 0 1 325.11 173.20
  L 330.95 172.29
  Q 338.49 171.27 346.00 171.13
  Q 351.45 171.02 357.16 171.06
  C 359.11 171.07 360.98 170.44 363.02 170.41
  Q 372.47 170.31 380.07 169.41
  C 387.49 168.54 398.78 169.22 407.54 168.29
  Q 413.98 167.61 416.93 167.55
  Q 418.75 167.52 425.57 166.54
  Q 429.41 165.99 434.25 165.65
  A 1.55 1.53 -28.1 0 1 435.29 165.96
  Q 437.18 167.41 438.52 167.17
  Q 444.09 166.17 446.56 165.97
  Q 447.17 165.92 447.51 165.54
  Q 447.97 165.04 447.77 164.51
  A 0.34 0.33 -35.4 0 0 447.20 164.42
  Q 447.14 164.49 447.04 164.60
  A 1.63 1.57 -74.3 0 1 446.22 165.08
  Q 440.00 166.54 437.30 166.07
  Q 434.54 165.59 431.88 162.47
  Q 426.92 157.70 423.59 152.35
  Q 422.15 151.48 419.05 151.92
  Q 414.48 152.56 414.46 152.56
  C 410.50 152.86 408.15 153.52 403.99 153.66
  Q 401.47 153.75 390.99 154.57
  C 381.56 155.31 369.99 155.43 361.58 156.18
  C 353.12 156.94 347.09 156.59 339.16 157.51
  Q 337.05 157.76 323.40 158.38
  C 315.39 158.75 305.58 159.75 296.52 159.82
  C 292.64 159.86 287.43 160.98 284.50 160.87
  Q 279.80 160.69 269.34 161.46
  C 256.66 162.40 245.18 162.85 232.70 164.17
  Q 228.47 164.61 215.03 164.77
  Q 209.06 163.85 203.89 161.06
  A 1.66 1.62 56.1 0 0 202.98 160.87
  Q 201.06 161.03 199.23 162.26
  Q 197.45 162.77 196.17 162.63
  A 1.03 1.03 0.0 0 1 195.71 160.75
  Q 198.36 158.96 201.57 159.16
  A 0.69 0.69 0.0 0 0 202.00 157.90
  Q 199.75 156.35 197.70 156.41
  A 1.11 1.11 0.0 0 1 197.13 154.33
  Q 199.25 153.16 202.37 153.90
  C 206.07 154.79 210.51 157.13 214.57 157.70
  C 227.35 159.50 242.08 157.78 251.68 157.87
  C 261.68 157.95 273.09 155.42 282.07 153.50
  Q 286.27 152.61 289.87 149.82
  L 289.66 152.82
  A 0.55 0.54 -88.0 0 0 290.20 153.41
  L 296.67 153.41
  A 0.89 0.88 -83.9 0 0 297.53 152.71
  L 297.92 150.83
  Q 299.53 149.56 301.43 149.52
  Q 300.35 151.69 302.06 153.29
  A 0.75 0.75 0.0 0 0 302.59 153.51
  L 304.23 153.51
  A 0.84 0.83 26.8 0 1 304.73 155.02
  Q 303.75 155.74 302.21 155.36
  A 0.76 0.75 -80.1 0 0 301.28 156.02
  L 301.25 156.29
  A 0.79 0.79 0.0 0 0 302.10 157.14
  L 304.63 156.94
  A 1.15 1.14 -76.1 0 0 305.53 156.39
  Q 306.78 154.37 305.31 152.07
  A 1.17 1.16 -18.0 0 0 304.24 151.53
  L 303.38 151.60
  A 0.81 0.80 -2.3 0 1 302.51 150.80
  L 302.51 150.43
  A 0.64 0.64 0.0 0 1 303.06 149.80
  L 306.20 149.39
  Q 306.50 149.01 306.79 149.29
  A 0.31 0.29 24.2 0 1 306.88 149.50
  L 307.03 156.42
  A 0.19 0.08 23.7 0 0 307.14 156.54
  Q 307.18 156.56 307.22 156.57
  L 310.37 156.86
  Q 311.47 153.42 311.23 149.41
  A 0.85 0.82 -13.1 0 1 311.75 148.60
  Q 312.32 148.37 313.28 148.88
  A 0.74 0.72 -76.8 0 1 313.67 149.53
  L 313.67 156.03
  A 0.58 0.58 0.0 0 0 314.41 156.59
  L 314.80 156.48
  A 0.42 0.41 -8.1 0 0 315.09 156.10
  L 315.12 150.81
  Q 315.04 151.37 315.17 151.71
  A 0.33 0.33 0.0 0 0 315.78 151.71
  L 316.07 150.94
  Q 315.88 153.94 317.24 155.43
  A 1.88 1.85 -22.9 0 0 318.77 156.04
  L 323.14 155.69
  A 0.70 0.69 5.4 0 0 323.75 155.19
  L 324.25 153.47
  A 1.19 1.19 0.0 0 1 326.53 153.44
  Q 327.39 156.15 330.51 155.16
  Q 331.25 154.93 330.73 153.33
  A 0.95 0.95 0.0 0 1 331.79 152.10
  L 332.42 152.20
  A 1.09 1.07 -64.8 0 0 333.42 151.83
  L 334.87 150.08
  A 0.31 0.31 0.0 0 1 335.42 150.25
  Q 335.70 153.79 338.03 155.07
  A 2.10 2.01 35.2 0 0 340.56 154.69
  Q 342.24 152.80 342.11 150.31
  Q 341.97 151.03 343.32 151.44
  L 343.42 153.99
  A 0.49 0.48 -0.6 0 0 343.91 154.46
  L 344.21 154.46
  A 0.49 0.48 -1.7 0 0 344.70 153.95
  Q 344.52 150.13 344.85 147.45
  Q 345.02 146.03 346.73 146.26
  A 1.05 1.05 0.0 0 1 347.41 147.97
  L 346.15 149.48
  A 0.85 0.83 56.3 0 0 346.00 150.27
  C 346.50 151.86 347.30 154.56 349.59 154.17
  Q 350.74 154.43 350.99 154.02
  L 353.70 153.96
  Q 355.53 154.24 356.14 154.08
  Q 359.27 153.24 360.66 153.24
  Q 361.48 153.98 362.18 153.05
  A 1.07 0.98 -24.0 0 0 362.38 152.59
  L 362.62 151.12
  A 0.93 0.93 0.0 0 1 363.27 150.37
  Q 365.85 149.53 366.41 151.93
  A 1.09 1.08 88.7 0 0 367.26 152.75
  L 368.23 152.92
  Q 368.72 152.36 369.65 152.20
  Q 370.47 153.02 371.06 152.48
  A 0.56 0.54 69.1 0 0 371.23 152.08
  L 371.34 142.79
  L 373.37 142.19
  L 373.04 152.08
  A 0.37 0.36 -0.7 0 0 373.44 152.46
  L 373.80 152.43
  A 0.67 0.67 0.0 0 0 374.42 151.74
  Q 374.32 146.28 374.57 144.72
  Q 374.83 143.05 377.13 143.85
  A 1.06 1.06 0.0 0 1 377.83 145.01
  Q 377.56 146.78 375.96 146.88
  A 0.50 0.49 -12.6 0 0 375.53 147.55
  Q 376.68 150.51 378.13 151.95
  A 1.16 1.15 59.2 0 0 379.25 152.24
  L 379.61 152.13
  A 0.45 0.45 0.0 0 0 379.78 151.36
  C 378.39 150.11 377.55 149.02 378.69 147.30
  Q 379.19 146.55 379.46 145.73
  Q 379.81 144.73 379.74 142.86
  A 0.62 0.62 0.0 0 1 380.91 142.57
  Q 381.06 142.88 381.20 143.73
  L 381.21 151.52
  A 0.63 0.63 0.0 0 0 381.90 152.15
  Q 383.87 152.00 385.92 151.85
  Q 386.18 151.83 386.44 151.56
  Q 386.66 151.33 386.74 151.04
  Q 387.25 150.88 387.80 150.98
  Q 387.90 151.49 388.37 151.69
  A 0.57 0.57 0.0 0 0 389.17 151.14
  Q 388.94 146.30 389.45 141.29
  L 391.26 140.52
  L 391.14 150.62
  A 0.83 0.78 -1.1 0 0 392.01 151.41
  L 392.06 151.41
  A 0.87 0.86 -1.4 0 0 392.90 150.54
  L 392.84 143.19
  A 0.83 0.83 0.0 0 1 393.67 142.35
  L 396.04 142.35
  A 0.66 0.65 -90.0 0 1 396.69 143.01
  L 396.69 150.42
  A 0.76 0.76 0.0 0 0 397.45 151.18
  L 397.81 151.18
  A 0.43 0.43 0.0 0 0 398.23 150.76
  L 398.31 142.82
  Q 399.23 141.82 400.47 141.29
  L 400.38 149.85
  A 0.97 0.96 -1.9 0 0 401.42 150.82
  L 406.04 150.45
  A 0.97 0.96 -2.3 0 0 406.93 149.49
  L 406.93 149.10
  A 0.75 0.75 0.0 0 0 406.18 148.35
  L 403.01 148.35
  A 0.92 0.92 0.0 0 1 402.09 147.43
  L 402.09 146.36
  A 0.87 0.87 0.0 0 1 402.96 145.49
  L 405.55 145.49
  A 0.97 0.97 0.0 0 0 406.52 144.52
  L 406.52 144.20
  A 0.90 0.90 0.0 0 0 405.55 143.30
  L 403.08 143.50
  A 0.80 0.80 0.0 0 1 402.22 142.76
  L 402.19 142.37
  A 0.95 0.94 -4.5 0 1 403.07 141.35
  L 406.01 141.11
  A 1.10 1.07 27.4 0 0 406.44 140.98
  Q 407.71 140.27 407.16 138.62
  L 409.80 139.02
  Q 407.64 142.33 409.15 144.16
  C 410.25 145.49 412.15 145.10 414.01 144.91
  A 0.94 0.93 -88.6 0 1 415.03 145.99
  L 414.95 146.46
  A 1.19 1.18 2.2 0 1 413.88 147.44
  L 409.83 147.80
  A 1.01 1.01 0.0 0 0 408.92 148.71
  L 408.92 148.77
  A 0.85 0.85 0.0 0 0 409.78 149.66
  L 413.90 149.62
  A 1.03 0.89 30.8 0 0 414.24 149.56
  Q 418.47 148.00 416.74 143.87
  A 2.06 2.06 0.0 0 0 414.84 142.61
  L 411.43 142.61
  A 1.02 1.02 0.0 0 1 411.22 140.59
  L 415.50 139.70
  Q 423.45 139.45 431.63 139.95
  Q 437.34 140.31 442.34 138.32
  Q 448.55 135.85 454.93 133.38
  A 0.54 0.53 41.9 0 0 454.87 132.37
  Q 450.71 131.26 446.85 131.06
  Q 435.71 130.50 412.22 131.32
  Q 401.56 131.69 377.72 134.11
  Q 354.73 136.43 331.64 138.95
  Q 311.88 141.11 304.44 141.94
  Q 291.33 143.40 277.20 144.56
  Q 239.63 147.64 232.49 148.52
  Q 218.51 150.24 208.97 150.22
  Q 231.51 146.14 254.26 143.89
  Q 283.00 141.05 286.31 140.65
  Q 309.42 137.83 328.05 136.48
  Q 331.52 136.23 351.73 133.35
  C 362.24 131.84 375.72 131.02 384.40 129.81
  Q 410.86 126.13 437.68 126.45
  C 448.33 126.58 460.68 127.41 470.58 131.97
  Q 474.91 133.96 479.22 136.02
  Z
  M 454.37 147.71
  Q 454.31 146.57 454.36 146.40
  A 1.75 1.67 41.5 0 1 457.57 146.28
  Q 457.98 147.16 456.99 148.30
  A 0.54 0.54 0.0 0 0 457.10 149.11
  Q 457.66 149.48 457.93 149.46
  A 0.63 0.62 -7.9 0 0 458.49 148.72
  Q 458.11 146.63 458.64 145.27
  A 0.70 0.70 0.0 0 0 457.79 144.34
  L 456.47 144.73
  A 0.40 0.38 70.0 0 1 456.00 144.50
  Q 455.59 143.57 455.33 143.45
  A 0.41 0.41 0.0 0 0 454.76 143.73
  Q 454.34 145.58 453.11 146.45
  A 0.75 0.74 -26.8 0 0 452.83 147.29
  Q 453.11 148.17 453.71 148.28
  A 0.55 0.55 0.0 0 0 454.37 147.71
  Z
  M 455.6652 148.6139
  A 1.01 0.65 -65.1 0 0 454.6504 149.2563
  A 1.01 0.65 -65.1 0 0 454.8148 150.4461
  A 1.01 0.65 -65.1 0 0 455.8296 149.8037
  A 1.01 0.65 -65.1 0 0 455.6652 148.6139
  Z
  M 432.6903 151.5256
  A 0.93 0.79 -122.5 0 0 432.5237 152.7345
  A 0.93 0.79 -122.5 0 0 433.6897 153.0944
  A 0.93 0.79 -122.5 0 0 433.8563 151.8855
  A 0.93 0.79 -122.5 0 0 432.6903 151.5256
  Z
  M 413.87 169.46
  Q 413.14 168.99 412.26 169.20
  A 0.44 0.44 0.0 0 0 412.01 169.89
  Q 413.07 171.31 414.41 170.61
  A 1.95 1.90 -57.5 0 1 415.34 170.39
  Q 422.91 170.61 432.24 168.89
  Q 432.44 168.86 432.45 168.72
  Q 432.48 168.41 432.23 168.21
  A 0.25 0.20 -20.3 0 0 432.08 168.16
  L 414.31 169.57
  A 0.71 0.69 -30.5 0 1 413.87 169.46
  Z
  M 329.34 183.38
  A 0.84 0.84 0.0 0 0 330.39 184.12
  C 336.42 182.48 342.50 180.46 348.76 181.44
  A 0.29 0.29 0.0 0 0 348.95 180.91
  L 344.54 178.36
  A 1.03 1.03 0.0 0 0 343.13 178.74
  Q 342.92 179.11 342.66 179.32
  A 1.48 1.48 0.0 0 1 341.66 179.64
  Q 336.73 179.38 332.15 181.95
  A 0.22 0.21 28.2 0 1 332.04 181.98
  L 329.87 182.31
  A 0.67 0.65 -7.1 0 0 329.31 183.01
  L 329.34 183.38
  Z
  M 329.4096 184.8554
  A 1.85 0.91 -12.0 0 0 327.4108 184.3499
  A 1.85 0.91 -12.0 0 0 325.7904 185.6246
  A 1.85 0.91 -12.0 0 0 327.7892 186.1301
  A 1.85 0.91 -12.0 0 0 329.4096 184.8554
  Z"
/>
<path fill="#403536" d="
  M 488.90 144.71
  C 483.67 148.06 478.67 151.60 472.08 150.89
  C 470.25 150.69 468.80 149.39 468.64 147.44
  C 468.09 140.82 473.57 138.27 479.22 136.02
  L 492.80 131.73
  A 2.16 2.12 45.6 0 1 494.18 131.76
  Q 497.19 132.88 499.45 135.06
  Q 501.44 136.97 503.56 138.01
  A 0.86 0.86 0.0 0 0 504.76 137.50
  Q 506.05 133.33 504.16 130.31
  Q 505.53 128.97 506.05 132.03
  C 506.82 136.63 505.76 139.53 501.16 140.96
  Q 495.13 142.83 488.90 144.71
  Z"
/>
<path fill="#403536" d="
  M 195.13 138.73
  A 0.73 0.73 0.0 0 1 194.40 139.41
  L 194.02 139.41
  A 0.48 0.47 -81.7 0 1 193.57 138.80
  C 194.36 136.19 193.04 133.34 192.08 130.73
  A 0.53 0.53 0.0 0 1 192.58 130.01
  L 192.89 130.01
  A 0.62 0.61 76.7 0 1 193.44 130.35
  C 193.98 131.43 193.75 132.55 194.32 133.74
  Q 195.33 135.86 195.13 138.73
  Z"
/>
<ellipse fill="#b9acab" cx="0.00" cy="0.00" transform="translate(310.77,130.58) rotate(-4.8)" rx="1.37" ry="0.56"/>
<path fill="#a999a2" d="
  M 415.50 139.70
  Q 417.53 139.98 417.41 137.83
  A 0.56 0.56 0.0 0 0 416.72 137.32
  L 409.80 139.02
  L 407.16 138.62
  L 401.37 139.58
  A 0.93 0.92 -83.0 0 0 400.66 140.14
  Q 400.45 140.65 400.47 141.29
  Q 399.23 141.82 398.31 142.82
  C 398.52 139.70 395.80 139.22 393.70 140.43
  A 0.80 0.78 45.7 0 1 392.88 140.41
  Q 391.82 139.76 391.26 140.52
  L 389.45 141.29
  Q 389.17 140.41 388.28 140.76
  A 0.69 0.68 86.2 0 0 387.85 141.26
  Q 386.80 146.01 387.80 150.98
  Q 387.25 150.88 386.74 151.04
  Q 386.76 150.18 386.24 149.83
  Q 385.77 149.51 384.92 149.67
  Q 383.95 149.86 383.22 149.76
  A 0.55 0.55 0.0 0 1 382.75 149.22
  L 382.75 141.78
  A 0.61 0.61 0.0 0 0 382.14 141.17
  L 381.88 141.17
  A 0.60 0.59 1.0 0 0 381.28 141.74
  L 381.20 143.73
  Q 381.06 142.88 380.91 142.57
  A 0.62 0.62 0.0 0 0 379.74 142.86
  Q 379.81 144.73 379.46 145.73
  Q 379.87 143.93 379.18 142.73
  C 378.03 140.72 375.11 141.35 373.37 142.19
  L 371.34 142.79
  Q 371.14 142.27 370.60 142.24
  Q 369.78 142.21 369.70 143.02
  Q 369.27 147.49 369.65 152.20
  Q 368.72 152.36 368.23 152.92
  L 365.63 143.19
  A 1.00 1.00 0.0 0 0 363.71 143.16
  L 360.66 153.24
  Q 359.27 153.24 356.14 154.08
  Q 355.53 154.24 353.70 153.96
  Q 354.98 154.15 355.60 153.48
  A 0.88 0.87 25.7 0 0 355.08 152.02
  Q 354.01 151.86 352.87 152.09
  A 0.91 0.91 0.0 0 1 351.78 151.27
  L 351.73 150.61
  A 0.99 0.99 0.0 0 1 352.72 149.54
  L 354.60 149.54
  A 0.92 0.91 90.0 0 0 355.51 148.62
  L 355.51 148.30
  A 0.83 0.82 -2.3 0 0 354.62 147.48
  L 352.32 147.66
  A 0.57 0.56 87.7 0 1 351.71 147.09
  L 351.71 146.84
  A 1.38 1.38 0.0 0 1 353.03 145.46
  L 355.35 145.36
  A 0.61 0.61 0.0 0 0 355.94 144.75
  L 355.94 144.30
  A 0.61 0.60 90.0 0 0 355.34 143.69
  L 351.73 143.69
  A 0.84 0.83 4.4 0 0 350.90 144.39
  Q 350.13 149.28 350.99 154.02
  Q 350.74 154.43 349.59 154.17
  L 348.18 151.56
  A 1.65 1.65 0.0 0 1 348.20 149.95
  Q 349.79 147.20 348.67 144.76
  A 0.87 0.85 77.6 0 0 347.89 144.25
  L 344.47 144.25
  A 0.78 0.78 0.0 0 0 343.69 144.99
  L 343.32 151.44
  Q 341.97 151.03 342.11 150.31
  Q 343.02 146.51 340.47 144.50
  Q 339.67 143.87 338.72 144.39
  Q 336.26 145.75 335.83 148.55
  A 0.45 0.45 0.0 0 1 334.94 148.51
  L 334.77 146.36
  A 0.95 0.93 87.7 0 0 333.84 145.49
  L 330.33 145.49
  A 0.83 0.82 -90.0 0 0 329.51 146.32
  L 329.51 154.04
  A 0.51 0.51 0.0 0 1 328.58 154.32
  C 327.42 152.56 327.92 150.79 327.31 149.34
  Q 326.87 148.27 326.48 146.25
  A 0.70 0.70 0.0 0 0 325.18 146.04
  Q 323.64 148.71 323.04 152.69
  Q 322.95 153.29 321.94 154.67
  A 0.14 0.14 0.0 0 1 321.68 154.59
  L 321.68 150.47
  A 0.45 0.45 0.0 0 0 321.23 150.02
  L 320.97 150.02
  A 0.42 0.42 0.0 0 0 320.55 150.44
  L 320.55 153.28
  A 1.37 1.37 0.0 0 1 317.98 153.94
  Q 316.66 151.55 318.23 148.79
  A 0.80 0.79 -77.1 0 1 318.86 148.39
  L 321.31 148.19
  A 0.81 0.81 0.0 0 0 321.89 146.90
  L 321.78 146.75
  Q 321.76 146.74 321.74 146.73
  Q 316.54 145.72 316.07 150.94
  L 315.78 151.71
  A 0.33 0.33 0.0 0 1 315.17 151.71
  Q 315.04 151.37 315.12 150.81
  Q 315.38 148.78 314.52 147.62
  A 1.23 1.20 68.7 0 0 313.44 147.13
  L 310.80 147.34
  A 0.90 0.89 -88.0 0 0 309.98 148.11
  Q 309.39 152.33 310.37 156.86
  L 307.22 156.57
  Q 307.58 156.61 307.87 156.48
  A 0.65 0.65 0.0 0 0 308.24 155.81
  Q 307.72 151.67 308.93 148.09
  A 0.41 0.41 0.0 0 0 308.51 147.55
  L 308.03 147.59
  A 0.66 0.64 -2.0 0 0 307.43 148.22
  L 307.22 156.57
  Q 307.18 156.56 307.14 156.54
  A 0.19 0.08 23.7 0 1 307.03 156.42
  L 306.88 149.50
  A 0.31 0.29 24.2 0 0 306.79 149.29
  Q 306.50 149.01 306.20 149.39
  Q 306.43 148.68 306.33 148.25
  Q 306.22 147.76 305.42 147.69
  Q 302.79 147.46 301.43 149.52
  Q 299.53 149.56 297.92 150.83
  Q 298.09 149.83 297.91 149.02
  A 0.69 0.68 85.6 0 0 297.28 148.48
  Q 292.79 148.17 289.87 149.82
  Q 286.27 152.61 282.07 153.50
  C 273.09 155.42 261.68 157.95 251.68 157.87
  C 242.08 157.78 227.35 159.50 214.57 157.70
  C 210.51 157.13 206.07 154.79 202.37 153.90
  Q 199.25 153.16 197.13 154.33
  A 1.11 1.11 0.0 0 0 197.70 156.41
  Q 199.75 156.35 202.00 157.90
  A 0.69 0.69 0.0 0 1 201.57 159.16
  Q 198.36 158.96 195.71 160.75
  A 1.03 1.03 0.0 0 0 196.17 162.63
  Q 197.45 162.77 199.23 162.26
  L 198.45 163.40
  Q 173.17 171.90 148.17 181.41
  Q 143.91 183.03 139.50 183.41
  A 0.49 0.49 0.0 0 1 139.06 182.64
  Q 139.19 182.46 139.69 182.18
  C 142.25 180.76 147.10 179.71 150.70 178.09
  Q 159.87 173.97 175.43 167.51
  Q 178.67 166.17 181.71 164.52
  C 184.46 163.03 188.04 161.90 190.99 159.98
  Q 193.46 158.37 190.94 155.34
  A 0.65 0.64 58.5 0 1 191.18 154.33
  Q 194.51 152.93 197.10 150.41
  Q 202.23 151.25 206.72 149.18
  Q 206.99 150.45 208.97 150.22
  Q 218.51 150.24 232.49 148.52
  Q 239.63 147.64 277.20 144.56
  Q 291.33 143.40 304.44 141.94
  Q 311.88 141.11 331.64 138.95
  Q 354.73 136.43 377.72 134.11
  Q 401.56 131.69 412.22 131.32
  Q 435.71 130.50 446.85 131.06
  Q 450.71 131.26 454.87 132.37
  A 0.54 0.53 41.9 0 1 454.93 133.38
  Q 448.55 135.85 442.34 138.32
  Q 437.34 140.31 431.63 139.95
  Q 423.45 139.45 415.50 139.70
  Z"
/>
<path fill="#101a41" d="
  M 415.50 139.70
  L 411.22 140.59
  A 1.02 1.02 0.0 0 0 411.43 142.61
  L 414.84 142.61
  A 2.06 2.06 0.0 0 1 416.74 143.87
  Q 418.47 148.00 414.24 149.56
  A 1.03 0.89 30.8 0 1 413.90 149.62
  L 409.78 149.66
  A 0.85 0.85 0.0 0 1 408.92 148.77
  L 408.92 148.71
  A 1.01 1.01 0.0 0 1 409.83 147.80
  L 413.88 147.44
  A 1.19 1.18 2.2 0 0 414.95 146.46
  L 415.03 145.99
  A 0.94 0.93 -88.6 0 0 414.01 144.91
  C 412.15 145.10 410.25 145.49 409.15 144.16
  Q 407.64 142.33 409.80 139.02
  L 416.72 137.32
  A 0.56 0.56 0.0 0 1 417.41 137.83
  Q 417.53 139.98 415.50 139.70
  Z"
/>
<path fill="#101a41" d="
  M 407.16 138.62
  Q 407.71 140.27 406.44 140.98
  A 1.10 1.07 27.4 0 1 406.01 141.11
  L 403.07 141.35
  A 0.95 0.94 -4.5 0 0 402.19 142.37
  L 402.22 142.76
  A 0.80 0.80 0.0 0 0 403.08 143.50
  L 405.55 143.30
  A 0.90 0.90 0.0 0 1 406.52 144.20
  L 406.52 144.52
  A 0.97 0.97 0.0 0 1 405.55 145.49
  L 402.96 145.49
  A 0.87 0.87 0.0 0 0 402.09 146.36
  L 402.09 147.43
  A 0.92 0.92 0.0 0 0 403.01 148.35
  L 406.18 148.35
  A 0.75 0.75 0.0 0 1 406.93 149.10
  L 406.93 149.49
  A 0.97 0.96 -2.3 0 1 406.04 150.45
  L 401.42 150.82
  A 0.97 0.96 -1.9 0 1 400.38 149.85
  L 400.47 141.29
  Q 400.45 140.65 400.66 140.14
  A 0.93 0.92 -83.0 0 1 401.37 139.58
  L 407.16 138.62
  Z"
/>
<path fill="#101a41" d="
  M 398.31 142.82
  L 398.23 150.76
  A 0.43 0.43 0.0 0 1 397.81 151.18
  L 397.45 151.18
  A 0.76 0.76 0.0 0 1 396.69 150.42
  L 396.69 143.01
  A 0.66 0.65 -90.0 0 0 396.04 142.35
  L 393.67 142.35
  A 0.83 0.83 0.0 0 0 392.84 143.19
  L 392.90 150.54
  A 0.87 0.86 -1.4 0 1 392.06 151.41
  L 392.01 151.41
  A 0.83 0.78 -1.1 0 1 391.14 150.62
  L 391.26 140.52
  Q 391.82 139.76 392.88 140.41
  A 0.80 0.78 45.7 0 0 393.70 140.43
  C 395.80 139.22 398.52 139.70 398.31 142.82
  Z"
/>
<path fill="#101a41" d="
  M 389.45 141.29
  Q 388.94 146.30 389.17 151.14
  A 0.57 0.57 0.0 0 1 388.37 151.69
  Q 387.90 151.49 387.80 150.98
  Q 386.80 146.01 387.85 141.26
  A 0.69 0.68 86.2 0 1 388.28 140.76
  Q 389.17 140.41 389.45 141.29
  Z"
/>
<path fill="#101a41" d="
  M 386.74 151.04
  Q 386.66 151.33 386.44 151.56
  Q 386.18 151.83 385.92 151.85
  Q 383.87 152.00 381.90 152.15
  A 0.63 0.63 0.0 0 1 381.21 151.52
  L 381.20 143.73
  L 381.28 141.74
  A 0.60 0.59 1.0 0 1 381.88 141.17
  L 382.14 141.17
  A 0.61 0.61 0.0 0 1 382.75 141.78
  L 382.75 149.22
  A 0.55 0.55 0.0 0 0 383.22 149.76
  Q 383.95 149.86 384.92 149.67
  Q 385.77 149.51 386.24 149.83
  Q 386.76 150.18 386.74 151.04
  Z"
/>
<ellipse fill="#d6c9bc" cx="0.00" cy="0.00" transform="translate(514.30,141.96) rotate(-84.6)" rx="0.62" ry="0.47"/>
<path fill="#101a41" d="
  M 379.46 145.73
  Q 379.19 146.55 378.69 147.30
  C 377.55 149.02 378.39 150.11 379.78 151.36
  A 0.45 0.45 0.0 0 1 379.61 152.13
  L 379.25 152.24
  A 1.16 1.15 59.2 0 1 378.13 151.95
  Q 376.68 150.51 375.53 147.55
  A 0.50 0.49 -12.6 0 1 375.96 146.88
  Q 377.56 146.78 377.83 145.01
  A 1.06 1.06 0.0 0 0 377.13 143.85
  Q 374.83 143.05 374.57 144.72
  Q 374.32 146.28 374.42 151.74
  A 0.67 0.67 0.0 0 1 373.80 152.43
  L 373.44 152.46
  A 0.37 0.36 -0.7 0 1 373.04 152.08
  L 373.37 142.19
  C 375.11 141.35 378.03 140.72 379.18 142.73
  Q 379.87 143.93 379.46 145.73
  Z"
/>
<path fill="#101a41" d="
  M 371.34 142.79
  L 371.23 152.08
  A 0.56 0.54 69.1 0 1 371.06 152.48
  Q 370.47 153.02 369.65 152.20
  Q 369.27 147.49 369.70 143.02
  Q 369.78 142.21 370.60 142.24
  Q 371.14 142.27 371.34 142.79
  Z"
/>
<path fill="#101a41" d="
  M 368.23 152.92
  L 367.26 152.75
  A 1.09 1.08 88.7 0 1 366.41 151.93
  Q 365.85 149.53 363.27 150.37
  A 0.93 0.93 0.0 0 0 362.62 151.12
  L 362.38 152.59
  A 1.07 0.98 -24.0 0 1 362.18 153.05
  Q 361.48 153.98 360.66 153.24
  L 363.71 143.16
  A 1.00 1.00 0.0 0 1 365.63 143.19
  L 368.23 152.92
  Z
  M 364.23 146.35
  Q 363.45 147.47 363.51 147.81
  A 0.90 0.82 -41.8 0 0 365.18 147.83
  Q 365.46 147.02 364.97 146.34
  A 0.45 0.45 0.0 0 0 364.23 146.35
  Z"
/>
<path fill="#403536" d="
  M 453.71 148.28
  Q 453.11 148.17 452.83 147.29
  A 0.75 0.74 -26.8 0 1 453.11 146.45
  Q 454.34 145.58 454.76 143.73
  A 0.41 0.41 0.0 0 1 455.33 143.45
  Q 455.59 143.57 456.00 144.50
  A 0.40 0.38 70.0 0 0 456.47 144.73
  L 457.79 144.34
  A 0.70 0.70 0.0 0 1 458.64 145.27
  Q 458.11 146.63 458.49 148.72
  A 0.63 0.62 -7.9 0 1 457.93 149.46
  Q 457.66 149.48 457.10 149.11
  A 0.54 0.54 0.0 0 1 456.99 148.30
  Q 457.98 147.16 457.57 146.28
  A 1.75 1.67 41.5 0 0 454.36 146.40
  Q 454.31 146.57 454.37 147.71
  A 0.55 0.55 0.0 0 1 453.71 148.28
  Z"
/>
<path fill="#101a41" d="
  M 353.70 153.96
  L 350.99 154.02
  Q 350.13 149.28 350.90 144.39
  A 0.84 0.83 4.4 0 1 351.73 143.69
  L 355.34 143.69
  A 0.61 0.60 90.0 0 1 355.94 144.30
  L 355.94 144.75
  A 0.61 0.61 0.0 0 1 355.35 145.36
  L 353.03 145.46
  A 1.38 1.38 0.0 0 0 351.71 146.84
  L 351.71 147.09
  A 0.57 0.56 87.7 0 0 352.32 147.66
  L 354.62 147.48
  A 0.83 0.82 -2.3 0 1 355.51 148.30
  L 355.51 148.62
  A 0.92 0.91 -90.0 0 1 354.60 149.54
  L 352.72 149.54
  A 0.99 0.99 0.0 0 0 351.73 150.61
  L 351.78 151.27
  A 0.91 0.91 0.0 0 0 352.87 152.09
  Q 354.01 151.86 355.08 152.02
  A 0.88 0.87 25.7 0 1 355.60 153.48
  Q 354.98 154.15 353.70 153.96
  Z"
/>
<path fill="#101a41" d="
  M 342.11 150.31
  Q 342.24 152.80 340.56 154.69
  A 2.10 2.01 35.2 0 1 338.03 155.07
  Q 335.70 153.79 335.42 150.25
  A 0.31 0.31 0.0 0 0 334.87 150.08
  L 333.42 151.83
  A 1.09 1.07 -64.8 0 1 332.42 152.20
  L 331.79 152.10
  A 0.95 0.95 0.0 0 0 330.73 153.33
  Q 331.25 154.93 330.51 155.16
  Q 327.39 156.15 326.53 153.44
  A 1.19 1.19 0.0 0 0 324.25 153.47
  L 323.75 155.19
  A 0.70 0.69 5.4 0 1 323.14 155.69
  L 318.77 156.04
  A 1.88 1.85 -22.9 0 1 317.24 155.43
  Q 315.88 153.94 316.07 150.94
  Q 316.54 145.72 321.74 146.73
  Q 321.76 146.74 321.78 146.75
  L 321.89 146.90
  A 0.81 0.81 0.0 0 1 321.31 148.19
  L 318.86 148.39
  A 0.80 0.79 -77.1 0 0 318.23 148.79
  Q 316.66 151.55 317.98 153.94
  A 1.37 1.37 0.0 0 0 320.55 153.28
  L 320.55 150.44
  A 0.42 0.42 0.0 0 1 320.97 150.02
  L 321.23 150.02
  A 0.45 0.45 0.0 0 1 321.68 150.47
  L 321.68 154.59
  A 0.14 0.14 0.0 0 0 321.94 154.67
  Q 322.95 153.29 323.04 152.69
  Q 323.64 148.71 325.18 146.04
  A 0.70 0.70 0.0 0 1 326.48 146.25
  Q 326.87 148.27 327.31 149.34
  C 327.92 150.79 327.42 152.56 328.58 154.32
  A 0.51 0.51 0.0 0 0 329.51 154.04
  L 329.51 146.32
  A 0.83 0.82 -90.0 0 1 330.33 145.49
  L 333.84 145.49
  A 0.95 0.93 87.7 0 1 334.77 146.36
  L 334.94 148.51
  A 0.45 0.45 0.0 0 0 335.83 148.55
  Q 336.26 145.75 338.72 144.39
  Q 339.67 143.87 340.47 144.50
  Q 343.02 146.51 342.11 150.31
  Z
  M 339.2534 146.5248
  A 3.33 1.84 -84.6 0 0 337.1082 149.6668
  A 3.33 1.84 -84.6 0 0 338.6266 153.1552
  A 3.33 1.84 -84.6 0 0 340.7718 150.0132
  A 3.33 1.84 -84.6 0 0 339.2534 146.5248
  Z
  M 332.6923 147.2481
  A 1.66 1.37 -70.2 0 0 330.8410 148.3459
  A 1.66 1.37 -70.2 0 0 331.5677 150.3719
  A 1.66 1.37 -70.2 0 0 333.4190 149.2741
  A 1.66 1.37 -70.2 0 0 332.6923 147.2481
  Z
  M 325.97 148.74
  Q 324.75 149.75 324.87 150.61
  A 0.61 0.61 0.0 0 0 326.07 150.62
  L 326.34 148.96
  A 0.23 0.23 0.0 0 0 325.97 148.74
  Z"
/>
<path fill="#101a41" d="
  M 349.59 154.17
  C 347.30 154.56 346.50 151.86 346.00 150.27
  A 0.85 0.83 56.3 0 1 346.15 149.48
  L 347.41 147.97
  A 1.05 1.05 0.0 0 0 346.73 146.26
  Q 345.02 146.03 344.85 147.45
  Q 344.52 150.13 344.70 153.95
  A 0.49 0.48 -1.7 0 1 344.21 154.46
  L 343.91 154.46
  A 0.49 0.48 -0.6 0 1 343.42 153.99
  L 343.32 151.44
  L 343.69 144.99
  A 0.78 0.78 0.0 0 1 344.47 144.25
  L 347.89 144.25
  A 0.87 0.85 77.6 0 1 348.67 144.76
  Q 349.79 147.20 348.20 149.95
  A 1.65 1.65 0.0 0 0 348.18 151.56
  L 349.59 154.17
  Z"
/>
<path fill="#b9acab" d="
  M 364.97 146.34
  Q 365.46 147.02 365.18 147.83
  A 0.90 0.82 -41.8 0 1 363.51 147.81
  Q 363.45 147.47 364.23 146.35
  A 0.45 0.45 0.0 0 1 364.97 146.34
  Z"
/>
<ellipse fill="#b9acab" cx="0.00" cy="0.00" transform="translate(338.94,149.84) rotate(-84.6)" rx="3.33" ry="1.84"/>
<path fill="#101a41" d="
  M 315.12 150.81
  L 315.09 156.10
  A 0.42 0.41 -8.1 0 1 314.80 156.48
  L 314.41 156.59
  A 0.58 0.58 0.0 0 1 313.67 156.03
  L 313.67 149.53
  A 0.74 0.72 -76.8 0 0 313.28 148.88
  Q 312.32 148.37 311.75 148.60
  A 0.85 0.82 -13.1 0 0 311.23 149.41
  Q 311.47 153.42 310.37 156.86
  Q 309.39 152.33 309.98 148.11
  A 0.90 0.89 -88.0 0 1 310.80 147.34
  L 313.44 147.13
  A 1.23 1.20 68.7 0 1 314.52 147.62
  Q 315.38 148.78 315.12 150.81
  Z"
/>
<path fill="#7c644d" d="
  M 206.72 149.18
  Q 202.23 151.25 197.10 150.41
  L 198.30 148.90
  C 201.62 149.59 205.63 148.13 208.80 147.11
  A 0.33 0.33 0.0 0 1 209.13 147.67
  Q 208.10 148.63 206.72 149.18
  Z"
/>
<ellipse fill="#b9acab" cx="0.00" cy="0.00" transform="translate(332.13,148.81) rotate(-70.2)" rx="1.66" ry="1.37"/>
<path fill="#2e4169" d="
  M 307.22 156.57
  L 307.43 148.22
  A 0.66 0.64 -2.0 0 1 308.03 147.59
  L 308.51 147.55
  A 0.41 0.41 0.0 0 1 308.93 148.09
  Q 307.72 151.67 308.24 155.81
  A 0.65 0.65 0.0 0 1 307.87 156.48
  Q 307.58 156.61 307.22 156.57
  Z"
/>
<path fill="#101a41" d="
  M 306.20 149.39
  L 303.06 149.80
  A 0.64 0.64 0.0 0 0 302.51 150.43
  L 302.51 150.80
  A 0.81 0.80 -2.3 0 0 303.38 151.60
  L 304.24 151.53
  A 1.17 1.16 -18.0 0 1 305.31 152.07
  Q 306.78 154.37 305.53 156.39
  A 1.15 1.14 -76.1 0 1 304.63 156.94
  L 302.10 157.14
  A 0.79 0.79 0.0 0 1 301.25 156.29
  L 301.28 156.02
  A 0.76 0.75 -80.1 0 1 302.21 155.36
  Q 303.75 155.74 304.73 155.02
  A 0.84 0.83 26.8 0 0 304.23 153.51
  L 302.59 153.51
  A 0.75 0.75 0.0 0 1 302.06 153.29
  Q 300.35 151.69 301.43 149.52
  Q 302.79 147.46 305.42 147.69
  Q 306.22 147.76 306.33 148.25
  Q 306.43 148.68 306.20 149.39
  Z"
/>
<path fill="#7c644d" d="
  M 297.92 150.83
  L 297.53 152.71
  A 0.89 0.88 -83.9 0 1 296.67 153.41
  L 290.20 153.41
  A 0.55 0.54 -88.0 0 1 289.66 152.82
  L 289.87 149.82
  Q 292.79 148.17 297.28 148.48
  A 0.69 0.68 85.6 0 1 297.91 149.02
  Q 298.09 149.83 297.92 150.83
  Z"
/>
<path fill="#a999a2" d="
  M 326.34 148.96
  L 326.07 150.62
  A 0.61 0.61 0.0 0 1 324.87 150.61
  Q 324.75 149.75 325.97 148.74
  A 0.23 0.23 0.0 0 1 326.34 148.96
  Z"
/>
<ellipse fill="#403536" cx="0.00" cy="0.00" transform="translate(455.24,149.53) rotate(-65.1)" rx="1.01" ry="0.65"/>
<path fill="#2e4169" d="
  M 423.59 152.35
  Q 422.38 153.00 421.84 154.02
  A 1.29 1.27 50.6 0 0 421.75 154.98
  Q 422.05 155.97 421.93 156.44
  A 1.54 1.49 42.9 0 1 419.03 156.50
  Q 418.34 154.56 418.43 153.89
  A 0.36 0.35 1.2 0 0 418.04 153.49
  L 416.51 153.61
  A 0.69 0.68 -10.3 0 0 415.90 154.48
  L 416.69 157.19
  A 0.50 0.50 0.0 0 1 416.25 157.83
  L 415.06 157.92
  A 1.33 1.32 -14.2 0 1 413.75 157.15
  L 412.86 155.18
  A 1.02 1.02 0.0 0 0 410.91 155.68
  L 411.03 157.26
  A 1.15 1.15 0.0 0 1 408.88 157.91
  Q 408.30 156.86 408.09 155.31
  A 0.82 0.82 0.0 0 0 406.56 155.04
  Q 406.08 155.92 406.07 157.64
  A 0.72 0.72 0.0 0 1 404.94 158.24
  Q 403.40 157.20 403.08 155.59
  A 0.98 0.98 0.0 0 0 401.16 155.59
  Q 401.03 156.22 401.16 157.05
  A 0.88 0.88 0.0 0 1 399.62 157.75
  L 398.10 155.96
  A 0.79 0.78 -67.4 0 0 396.72 156.53
  L 396.80 157.58
  A 0.78 0.78 0.0 0 1 395.56 158.27
  Q 394.76 157.69 394.20 156.74
  A 0.78 0.78 0.0 0 0 392.85 156.75
  L 391.87 158.45
  A 0.71 0.70 25.5 0 1 391.01 158.75
  Q 390.11 158.42 390.12 157.56
  A 1.03 0.97 -34.2 0 0 388.19 157.25
  Q 387.94 157.82 387.84 158.69
  A 0.78 0.77 -83.9 0 1 387.00 159.37
  L 386.90 159.36
  A 0.81 0.80 -85.9 0 1 386.17 158.51
  Q 386.24 157.03 385.16 156.72
  A 1.12 1.10 -47.8 0 0 384.45 156.76
  Q 382.64 157.48 381.08 157.06
  A 1.42 1.42 0.0 0 0 380.34 157.06
  Q 379.66 157.26 379.25 157.66
  C 378.42 158.49 377.62 158.36 376.94 157.46
  A 0.63 0.63 0.0 0 0 376.05 157.35
  Q 374.02 158.97 372.90 157.92
  A 0.03 0.02 58.3 0 0 372.88 157.91
  L 364.13 158.30
  A 0.61 0.61 0.0 0 0 363.55 158.96
  L 363.73 161.13
  A 0.26 0.26 0.0 0 1 363.28 161.32
  L 362.85 160.83
  A 0.91 0.89 26.1 0 1 362.61 160.15
  Q 362.71 158.96 361.08 158.02
  A 0.61 0.61 0.0 0 0 360.24 158.24
  L 359.84 158.93
  A 1.00 0.99 12.5 0 1 359.05 159.43
  L 343.98 160.63
  A 0.98 0.96 69.8 0 1 343.12 160.22
  Q 342.59 159.48 341.95 159.55
  A 0.86 0.85 -1.3 0 0 341.21 160.32
  Q 341.14 161.09 341.05 161.18
  A 0.61 0.60 47.4 0 1 340.15 161.14
  L 338.81 159.51
  A 0.58 0.57 22.9 0 0 337.79 159.92
  L 337.89 161.18
  A 0.51 0.50 -79.9 0 1 337.18 161.68
  Q 336.17 161.22 335.52 160.05
  A 0.58 0.58 0.0 0 0 334.70 159.84
  Q 334.07 160.24 334.21 161.27
  A 0.51 0.51 0.0 0 1 333.47 161.80
  Q 332.08 161.10 331.85 159.70
  A 0.41 0.41 0.0 0 0 331.05 159.64
  Q 330.44 161.53 331.00 162.76
  A 0.11 0.11 0.0 0 1 330.95 162.91
  L 330.61 163.06
  A 0.37 0.37 0.0 0 1 330.12 162.87
  L 328.81 159.97
  A 0.48 0.48 0.0 0 0 327.90 160.08
  L 327.48 162.63
  A 0.13 0.13 0.0 0 1 327.37 162.73
  L 327.11 162.75
  A 0.62 0.61 -10.4 0 1 326.47 162.31
  Q 326.05 160.80 325.11 160.53
  A 0.65 0.65 0.0 0 0 324.28 161.19
  Q 324.33 162.14 324.18 162.45
  A 0.46 0.46 0.0 0 1 323.37 162.51
  L 321.84 160.16
  A 0.47 0.47 0.0 0 0 320.98 160.45
  L 321.18 163.04
  A 0.52 0.52 0.0 0 1 320.19 163.30
  L 318.99 160.66
  A 0.65 0.65 0.0 0 0 317.74 160.98
  L 317.90 162.97
  A 0.42 0.42 0.0 0 1 317.14 163.25
  L 315.63 161.24
  A 0.51 0.50 39.5 0 0 314.77 161.32
  Q 314.66 161.54 314.57 161.99
  A 0.81 0.81 0.0 0 1 313.26 162.46
  L 311.95 161.37
  A 0.37 0.37 0.0 0 0 311.36 161.56
  Q 310.85 163.38 309.83 162.67
  Q 309.23 162.26 309.01 161.62
  A 0.52 0.52 0.0 0 0 308.01 161.71
  L 307.75 163.28
  A 0.34 0.34 0.0 0 1 307.12 163.39
  Q 306.33 162.00 305.30 161.84
  A 0.53 0.53 0.0 0 0 304.68 162.36
  Q 304.67 163.30 304.54 163.43
  A 0.62 0.62 0.0 0 1 303.59 163.36
  L 302.39 161.64
  A 0.55 0.55 0.0 0 0 301.39 161.99
  L 301.51 163.43
  A 0.62 0.62 0.0 0 1 300.32 163.73
  L 299.14 161.11
  A 0.43 0.43 0.0 0 0 298.32 161.22
  L 297.98 163.23
  A 0.34 0.34 0.0 0 1 297.39 163.41
  Q 297.13 163.11 296.52 162.25
  A 0.76 0.69 29.6 0 0 295.17 162.55
  Q 295.18 163.15 294.95 163.48
  A 0.61 0.60 37.1 0 1 294.08 163.60
  Q 293.99 163.53 293.68 163.10
  Q 293.21 162.45 292.62 162.68
  Q 292.28 162.81 291.89 164.08
  A 0.34 0.33 33.9 0 1 291.31 164.19
  Q 290.61 163.32 289.98 162.89
  A 0.53 0.52 -64.2 0 0 289.18 163.17
  L 288.97 163.91
  A 0.54 0.54 0.0 0 1 287.99 164.03
  Q 287.94 163.95 287.41 163.33
  A 0.58 0.58 0.0 0 0 286.39 163.61
  L 286.30 164.10
  A 0.64 0.63 -65.5 0 1 285.27 164.49
  L 284.08 163.51
  A 0.44 0.44 0.0 0 0 283.37 163.77
  L 283.31 164.19
  A 0.59 0.58 10.9 0 1 282.61 164.66
  Q 281.92 164.52 281.78 164.36
  A 0.79 0.77 62.5 0 0 280.99 164.10
  Q 278.10 164.85 274.27 164.87
  C 269.84 164.90 264.86 166.45 260.36 165.99
  Q 254.00 165.33 249.34 165.86
  C 241.81 166.70 234.07 166.76 226.62 167.18
  Q 222.48 167.41 215.03 164.77
  Q 228.47 164.61 232.70 164.17
  C 245.18 162.85 256.66 162.40 269.34 161.46
  Q 279.80 160.69 284.50 160.87
  C 287.43 160.98 292.64 159.86 296.52 159.82
  C 305.58 159.75 315.39 158.75 323.40 158.38
  Q 337.05 157.76 339.16 157.51
  C 347.09 156.59 353.12 156.94 361.58 156.18
  C 369.99 155.43 381.56 155.31 390.99 154.57
  Q 401.47 153.75 403.99 153.66
  C 408.15 153.52 410.50 152.86 414.46 152.56
  Q 414.48 152.56 419.05 151.92
  Q 422.15 151.48 423.59 152.35
  Z"
/>
<ellipse fill="#a999a2" cx="0.00" cy="0.00" transform="translate(433.19,152.31) rotate(-122.5)" rx="0.93" ry="0.79"/>
<path fill="#101a41" d="
  M 423.59 152.35
  Q 426.92 157.70 431.88 162.47
  C 426.87 163.24 421.90 164.28 417.00 164.54
  Q 403.43 165.29 390.16 165.99
  Q 381.28 166.46 377.32 166.39
  Q 369.15 166.26 364.47 166.68
  Q 356.12 167.45 345.25 167.47
  Q 334.41 167.48 322.67 168.35
  C 311.18 169.19 298.76 168.79 286.98 169.61
  C 274.51 170.49 264.31 170.30 253.03 171.04
  Q 243.11 171.70 236.46 171.74
  Q 228.04 171.80 219.64 171.88
  A 0.76 0.70 47.4 0 1 219.52 171.87
  L 213.10 171.07
  L 198.45 163.40
  L 199.23 162.26
  Q 201.06 161.03 202.98 160.87
  A 1.66 1.62 56.1 0 1 203.89 161.06
  Q 209.06 163.85 215.03 164.77
  Q 222.48 167.41 226.62 167.18
  C 234.07 166.76 241.81 166.70 249.34 165.86
  Q 254.00 165.33 260.36 165.99
  C 264.86 166.45 269.84 164.90 274.27 164.87
  Q 278.10 164.85 280.99 164.10
  A 0.79 0.77 62.5 0 1 281.78 164.36
  Q 281.92 164.52 282.61 164.66
  A 0.59 0.58 10.9 0 0 283.31 164.19
  L 283.37 163.77
  A 0.44 0.44 0.0 0 1 284.08 163.51
  L 285.27 164.49
  A 0.64 0.63 -65.5 0 0 286.30 164.10
  L 286.39 163.61
  A 0.58 0.58 0.0 0 1 287.41 163.33
  Q 287.94 163.95 287.99 164.03
  A 0.54 0.54 0.0 0 0 288.97 163.91
  L 289.18 163.17
  A 0.53 0.52 -64.2 0 1 289.98 162.89
  Q 290.61 163.32 291.31 164.19
  A 0.34 0.33 33.9 0 0 291.89 164.08
  Q 292.28 162.81 292.62 162.68
  Q 293.21 162.45 293.68 163.10
  Q 293.99 163.53 294.08 163.60
  A 0.61 0.60 37.1 0 0 294.95 163.48
  Q 295.18 163.15 295.17 162.55
  A 0.76 0.69 29.6 0 1 296.52 162.25
  Q 297.13 163.11 297.39 163.41
  A 0.34 0.34 0.0 0 0 297.98 163.23
  L 298.32 161.22
  A 0.43 0.43 0.0 0 1 299.14 161.11
  L 300.32 163.73
  A 0.62 0.62 0.0 0 0 301.51 163.43
  L 301.39 161.99
  A 0.55 0.55 0.0 0 1 302.39 161.64
  L 303.59 163.36
  A 0.62 0.62 0.0 0 0 304.54 163.43
  Q 304.67 163.30 304.68 162.36
  A 0.53 0.53 0.0 0 1 305.30 161.84
  Q 306.33 162.00 307.12 163.39
  A 0.34 0.34 0.0 0 0 307.75 163.28
  L 308.01 161.71
  A 0.52 0.52 0.0 0 1 309.01 161.62
  Q 309.23 162.26 309.83 162.67
  Q 310.85 163.38 311.36 161.56
  A 0.37 0.37 0.0 0 1 311.95 161.37
  L 313.26 162.46
  A 0.81 0.81 0.0 0 0 314.57 161.99
  Q 314.66 161.54 314.77 161.32
  A 0.51 0.50 39.5 0 1 315.63 161.24
  L 317.14 163.25
  A 0.42 0.42 0.0 0 0 317.90 162.97
  L 317.74 160.98
  A 0.65 0.65 0.0 0 1 318.99 160.66
  L 320.19 163.30
  A 0.52 0.52 0.0 0 0 321.18 163.04
  L 320.98 160.45
  A 0.47 0.47 0.0 0 1 321.84 160.16
  L 323.37 162.51
  A 0.46 0.46 0.0 0 0 324.18 162.45
  Q 324.33 162.14 324.28 161.19
  A 0.65 0.65 0.0 0 1 325.11 160.53
  Q 326.05 160.80 326.47 162.31
  A 0.62 0.61 -10.4 0 0 327.11 162.75
  L 327.37 162.73
  A 0.13 0.13 0.0 0 0 327.48 162.63
  L 327.90 160.08
  A 0.48 0.48 0.0 0 1 328.81 159.97
  L 330.12 162.87
  A 0.37 0.37 0.0 0 0 330.61 163.06
  L 330.95 162.91
  A 0.11 0.11 0.0 0 0 331.00 162.76
  Q 330.44 161.53 331.05 159.64
  A 0.41 0.41 0.0 0 1 331.85 159.70
  Q 332.08 161.10 333.47 161.80
  A 0.51 0.51 0.0 0 0 334.21 161.27
  Q 334.07 160.24 334.70 159.84
  A 0.58 0.58 0.0 0 1 335.52 160.05
  Q 336.17 161.22 337.18 161.68
  A 0.51 0.50 -79.9 0 0 337.89 161.18
  L 337.79 159.92
  A 0.58 0.57 22.9 0 1 338.81 159.51
  L 340.15 161.14
  A 0.61 0.60 47.4 0 0 341.05 161.18
  Q 341.14 161.09 341.21 160.32
  A 0.86 0.85 -1.3 0 1 341.95 159.55
  Q 342.59 159.48 343.12 160.22
  A 0.98 0.96 69.8 0 0 343.98 160.63
  L 359.05 159.43
  A 1.00 0.99 12.5 0 0 359.84 158.93
  L 360.24 158.24
  A 0.61 0.61 0.0 0 1 361.08 158.02
  Q 362.71 158.96 362.61 160.15
  A 0.91 0.89 26.1 0 0 362.85 160.83
  L 363.28 161.32
  A 0.26 0.26 0.0 0 0 363.73 161.13
  L 363.55 158.96
  A 0.61 0.61 0.0 0 1 364.13 158.30
  L 372.88 157.91
  A 0.03 0.02 58.3 0 1 372.90 157.92
  Q 374.02 158.97 376.05 157.35
  A 0.63 0.63 0.0 0 1 376.94 157.46
  C 377.62 158.36 378.42 158.49 379.25 157.66
  Q 379.66 157.26 380.34 157.06
  A 1.42 1.42 0.0 0 1 381.08 157.06
  Q 382.64 157.48 384.45 156.76
  A 1.12 1.10 -47.8 0 1 385.16 156.72
  Q 386.24 157.03 386.17 158.51
  A 0.81 0.80 -85.9 0 0 386.90 159.36
  L 387.00 159.37
  A 0.78 0.77 -83.9 0 0 387.84 158.69
  Q 387.94 157.82 388.19 157.25
  A 1.03 0.97 -34.2 0 1 390.12 157.56
  Q 390.11 158.42 391.01 158.75
  A 0.71 0.70 25.5 0 0 391.87 158.45
  L 392.85 156.75
  A 0.78 0.78 0.0 0 1 394.20 156.74
  Q 394.76 157.69 395.56 158.27
  A 0.78 0.78 0.0 0 0 396.80 157.58
  L 396.72 156.53
  A 0.79 0.78 -67.4 0 1 398.10 155.96
  L 399.62 157.75
  A 0.88 0.88 0.0 0 0 401.16 157.05
  Q 401.03 156.22 401.16 155.59
  A 0.98 0.98 0.0 0 1 403.08 155.59
  Q 403.40 157.20 404.94 158.24
  A 0.72 0.72 0.0 0 0 406.07 157.64
  Q 406.08 155.92 406.56 155.04
  A 0.82 0.82 0.0 0 1 408.09 155.31
  Q 408.30 156.86 408.88 157.91
  A 1.15 1.15 0.0 0 0 411.03 157.26
  L 410.91 155.68
  A 1.02 1.02 0.0 0 1 412.86 155.18
  L 413.75 157.15
  A 1.33 1.32 -14.2 0 0 415.06 157.92
  L 416.25 157.83
  A 0.50 0.50 0.0 0 0 416.69 157.19
  L 415.90 154.48
  A 0.69 0.68 -10.3 0 1 416.51 153.61
  L 418.04 153.49
  A 0.36 0.35 1.2 0 1 418.43 153.89
  Q 418.34 154.56 419.03 156.50
  A 1.54 1.49 42.9 0 0 421.93 156.44
  Q 422.05 155.97 421.75 154.98
  A 1.29 1.27 50.6 0 1 421.84 154.02
  Q 422.38 153.00 423.59 152.35
  Z
  M 402.59 161.72
  Q 401.99 162.36 401.49 162.36
  Q 383.00 162.29 363.00 163.35
  A 0.49 0.48 -16.0 0 0 362.60 164.07
  L 362.68 164.21
  A 1.27 1.26 74.1 0 0 363.83 164.86
  Q 376.19 164.47 383.75 164.26
  C 386.19 164.20 388.24 163.65 389.94 163.43
  Q 391.92 163.18 394.58 163.12
  Q 407.14 162.84 417.69 162.13
  A 7.58 6.51 -44.8 0 0 418.69 161.98
  Q 422.39 161.12 423.23 161.14
  Q 425.70 161.19 428.27 160.75
  A 0.32 0.31 -30.1 0 0 428.42 160.20
  L 427.55 159.48
  A 0.19 0.18 -27.8 0 0 427.41 159.44
  L 415.78 160.86
  Q 415.75 160.86 415.72 160.86
  L 403.84 161.15
  A 1.76 1.74 20.1 0 0 402.59 161.72
  Z"
/>
<path fill="#403536" d="
  M 403.84 161.15
  L 415.72 160.86
  Q 415.75 160.86 415.78 160.86
  L 427.41 159.44
  A 0.19 0.18 -27.8 0 1 427.55 159.48
  L 428.42 160.20
  A 0.32 0.31 -30.1 0 1 428.27 160.75
  Q 425.70 161.19 423.23 161.14
  Q 422.39 161.12 418.69 161.98
  A 7.58 6.51 -44.8 0 1 417.69 162.13
  Q 407.14 162.84 394.58 163.12
  Q 391.92 163.18 389.94 163.43
  C 388.24 163.65 386.19 164.20 383.75 164.26
  Q 376.19 164.47 363.83 164.86
  A 1.27 1.26 74.1 0 1 362.68 164.21
  L 362.60 164.07
  A 0.49 0.48 -16.0 0 1 363.00 163.35
  Q 383.00 162.29 401.49 162.36
  Q 401.99 162.36 402.59 161.72
  A 1.76 1.74 20.1 0 1 403.84 161.15
  Z"
/>
<path fill="#7c644d" d="
  M 431.88 162.47
  Q 434.54 165.59 437.30 166.07
  Q 440.00 166.54 446.22 165.08
  A 1.63 1.57 -74.3 0 0 447.04 164.60
  Q 447.14 164.49 447.20 164.42
  A 0.34 0.33 -35.4 0 1 447.77 164.51
  Q 447.97 165.04 447.51 165.54
  Q 447.17 165.92 446.56 165.97
  Q 444.09 166.17 438.52 167.17
  Q 437.18 167.41 435.29 165.96
  A 1.55 1.53 -28.1 0 0 434.25 165.65
  Q 429.41 165.99 425.57 166.54
  Q 418.75 167.52 416.93 167.55
  Q 413.98 167.61 407.54 168.29
  C 398.78 169.22 387.49 168.54 380.07 169.41
  Q 372.47 170.31 363.02 170.41
  C 360.98 170.44 359.11 171.07 357.16 171.06
  Q 351.45 171.02 346.00 171.13
  Q 338.49 171.27 330.95 172.29
  Q 325.26 172.74 319.56 173.34
  C 313.78 173.95 307.32 173.46 302.47 174.01
  Q 299.90 174.30 297.14 173.56
  A 5.88 5.17 -30.3 0 0 296.32 173.40
  Q 292.35 172.93 270.31 173.44
  Q 265.75 173.54 263.10 175.58
  L 227.15 178.14
  Q 219.82 176.63 213.10 171.07
  L 219.52 171.87
  A 0.76 0.70 47.4 0 0 219.64 171.88
  Q 228.04 171.80 236.46 171.74
  Q 243.11 171.70 253.03 171.04
  C 264.31 170.30 274.51 170.49 286.98 169.61
  C 298.76 168.79 311.18 169.19 322.67 168.35
  Q 334.41 167.48 345.25 167.47
  Q 356.12 167.45 364.47 166.68
  Q 369.15 166.26 377.32 166.39
  Q 381.28 166.46 390.16 165.99
  Q 403.43 165.29 417.00 164.54
  C 421.90 164.28 426.87 163.24 431.88 162.47
  Z"
/>
<path fill="#7c644d" d="
  M 414.31 169.57
  L 432.08 168.16
  A 0.25 0.20 -20.3 0 1 432.23 168.21
  Q 432.48 168.41 432.45 168.72
  Q 432.44 168.86 432.24 168.89
  Q 422.91 170.61 415.34 170.39
  A 1.95 1.90 -57.5 0 0 414.41 170.61
  Q 413.07 171.31 412.01 169.89
  A 0.44 0.44 0.0 0 1 412.26 169.20
  Q 413.14 168.99 413.87 169.46
  A 0.71 0.69 -30.5 0 0 414.31 169.57
  Z"
/>
<path fill="#a999a2" d="
  M 330.95 172.29
  L 325.11 173.20
  A 0.17 0.17 0.0 0 0 325.11 173.53
  L 335.90 175.30
  A 0.35 0.35 0.0 0 1 335.98 175.97
  L 324.55 180.76
  A 0.16 0.15 -17.2 0 0 324.45 180.94
  L 324.45 180.95
  A 0.14 0.14 0.0 0 0 324.62 181.06
  L 331.39 179.43
  A 0.18 0.18 0.0 0 1 331.59 179.53
  L 331.59 179.54
  A 0.16 0.16 0.0 0 1 331.47 179.74
  Q 321.86 182.35 316.12 185.66
  A 4.35 4.23 -67.6 0 1 315.24 186.04
  L 301.60 190.20
  A 0.23 0.22 -7.5 0 1 301.31 189.98
  C 301.33 189.07 301.99 188.57 301.08 187.43
  Q 298.78 184.59 295.01 184.82
  A 0.53 0.53 0.0 0 1 294.65 183.88
  Q 295.50 183.21 296.86 182.82
  Q 300.71 181.72 312.77 178.42
  A 0.19 0.18 -40.6 0 0 312.80 178.07
  C 308.63 176.30 303.12 176.68 300.01 176.56
  A 0.21 0.21 0.0 0 1 299.93 176.16
  L 300.56 175.87
  A 0.50 0.49 -50.8 0 0 300.47 174.93
  C 297.10 174.21 293.97 173.89 290.24 174.38
  Q 276.68 176.18 263.10 175.58
  Q 265.75 173.54 270.31 173.44
  Q 292.35 172.93 296.32 173.40
  A 5.88 5.17 -30.3 0 1 297.14 173.56
  Q 299.90 174.30 302.47 174.01
  C 307.32 173.46 313.78 173.95 319.56 173.34
  Q 325.26 172.74 330.95 172.29
  Z"
/>
<path fill="#e3d7c6" d="
  M 329.87 182.31
  L 332.04 181.98
  A 0.22 0.21 28.2 0 0 332.15 181.95
  Q 336.73 179.38 341.66 179.64
  A 1.48 1.48 0.0 0 0 342.66 179.32
  Q 342.92 179.11 343.13 178.74
  A 1.03 1.03 0.0 0 1 344.54 178.36
  L 348.95 180.91
  A 0.29 0.29 0.0 0 1 348.76 181.44
  C 342.50 180.46 336.42 182.48 330.39 184.12
  A 0.84 0.84 0.0 0 1 329.34 183.38
  L 329.31 183.01
  A 0.67 0.65 -7.1 0 1 329.87 182.31
  Z"
/>
<path fill="#e3d7c6" d="
  M 297.17 196.50
  Q 284.05 201.07 280.10 202.10
  Q 267.92 205.28 255.40 209.11
  A 0.66 0.66 0.0 0 0 255.27 210.31
  L 256.09 210.79
  L 247.65 211.02
  A 0.39 0.39 0.0 0 1 247.47 210.28
  C 250.07 209.03 253.18 208.80 255.82 207.20
  A 4.71 4.19 -66.8 0 1 256.65 206.81
  Q 264.17 204.22 269.25 202.75
  Q 273.77 201.44 281.76 198.53
  Q 288.66 196.02 298.19 192.93
  Q 299.67 192.45 303.21 190.18
  A 3.15 2.69 15.8 0 1 303.93 189.85
  L 324.55 183.83
  A 0.75 0.75 0.0 0 1 325.47 184.34
  L 325.50 184.44
  A 1.00 1.00 0.0 0 1 324.84 185.71
  Q 310.25 190.14 307.38 191.08
  Q 302.24 192.76 297.17 196.50
  Z"
/>
<ellipse fill="#403536" cx="0.00" cy="0.00" transform="translate(327.60,185.24) rotate(-12.0)" rx="1.85" ry="0.91"/>
<path fill="#d6c9bc" d="
  M 235.69 216.40
  Q 232.94 217.00 230.25 218.01
  Q 223.08 220.71 216.30 222.81
  C 206.36 225.89 197.84 229.25 188.18 232.48
  Q 181.43 234.73 174.01 237.35
  Q 155.25 243.98 141.92 247.87
  Q 123.51 253.23 110.45 257.71
  C 107.77 258.63 104.43 259.13 101.50 260.18
  Q 95.34 262.40 72.95 268.18
  Q 68.19 269.41 51.25 274.52
  Q 49.53 273.88 49.18 274.91
  Q 48.72 274.90 48.46 275.25
  Q 47.77 275.50 47.28 275.41
  L 30.45 277.02
  L 29.76 276.96
  L 28.16 273.96
  Q 35.28 273.38 40.08 272.10
  Q 49.84 269.51 63.71 264.73
  Q 67.10 266.01 71.62 264.45
  C 86.88 259.20 102.36 254.70 117.73 249.81
  C 141.71 242.19 161.36 234.90 198.26 221.81
  Q 205.57 219.22 210.63 216.38
  Q 214.41 214.26 217.30 209.32
  A 0.37 0.35 -46.3 0 0 217.30 208.95
  Q 217.07 208.58 217.49 208.36
  Q 217.75 208.23 217.67 207.97
  Q 217.61 207.78 217.29 207.75
  Q 230.08 202.29 243.31 198.07
  Q 249.14 196.21 267.57 187.83
  Q 272.01 188.72 277.42 186.56
  A 1.64 1.59 -60.0 0 1 277.77 186.46
  L 288.24 184.81
  A 1.28 0.99 -8.1 0 1 288.42 184.80
  L 294.49 185.08
  A 0.19 0.18 27.3 0 1 294.60 185.41
  Q 288.50 189.87 279.55 196.17
  C 277.35 197.71 275.17 198.60 272.79 199.56
  Q 272.75 199.57 255.89 205.46
  Q 253.12 206.42 243.31 210.54
  Q 238.67 212.48 235.69 216.40
  Z
  M 228.47 210.25
  L 277.71 191.92
  A 0.26 0.26 0.0 0 0 277.60 191.41
  Q 274.50 191.58 271.56 192.44
  Q 255.33 197.18 246.51 199.79
  C 241.50 201.26 230.93 205.35 228.45 210.23
  A 0.02 0.01 84.3 0 0 228.47 210.25
  Z"
/>
<path fill="#e3d7c6" d="
  M 228.45 210.23
  C 230.93 205.35 241.50 201.26 246.51 199.79
  Q 255.33 197.18 271.56 192.44
  Q 274.50 191.58 277.60 191.41
  A 0.26 0.26 0.0 0 1 277.71 191.92
  L 228.47 210.25
  A 0.02 0.01 84.3 0 1 228.45 210.23
  Z"
/>
<path fill="#e3d7c6" d="
  M 217.29 207.75
  Q 217.61 207.78 217.67 207.97
  Q 217.75 208.23 217.49 208.36
  Q 217.07 208.58 217.30 208.95
  A 0.37 0.35 -46.3 0 1 217.30 209.32
  Q 214.41 214.26 210.63 216.38
  Q 205.57 219.22 198.26 221.81
  C 161.36 234.90 141.71 242.19 117.73 249.81
  C 102.36 254.70 86.88 259.20 71.62 264.45
  Q 67.10 266.01 63.71 264.73
  Q 77.37 259.90 90.90 255.02
  Q 114.29 246.61 122.41 243.62
  Q 126.66 242.05 140.05 236.50
  C 143.76 234.96 148.60 233.75 151.55 232.57
  Q 184.20 219.57 217.29 207.75
  Z"
/>
<path fill="#261f12" d="
  M 283.55 209.57
  Q 283.00 209.77 282.65 209.56
  Q 283.02 209.73 283.55 209.57
  Z"
/>
<path fill="#e3d7c6" d="
  M 282.65 209.56
  Q 283.00 209.77 283.55 209.57
  C 285.65 210.22 287.09 211.84 289.03 212.56
  C 296.31 215.29 302.75 218.98 305.42 226.68
  A 3.51 3.32 -55.9 0 1 305.60 227.78
  L 305.60 235.67
  A 1.42 1.19 58.5 0 1 305.54 236.07
  Q 303.88 241.32 301.10 244.61
  A 5.80 5.67 -85.7 0 1 299.84 245.72
  L 292.83 250.25
  Q 282.68 250.58 278.59 243.22
  C 277.30 240.89 277.45 238.93 274.02 238.66
  Q 273.10 238.58 272.90 237.46
  A 0.51 0.50 85.8 0 1 273.41 236.86
  Q 275.22 236.90 275.87 236.02
  A 1.40 1.39 61.7 0 0 276.15 235.07
  C 275.88 231.23 276.34 225.55 278.59 221.98
  Q 280.17 219.49 281.75 217.60
  A 0.40 0.40 0.0 0 0 281.21 217.03
  Q 277.25 219.97 275.62 224.30
  A 0.42 0.41 17.7 0 1 275.12 224.55
  L 260.55 220.31
  A 0.25 0.24 -58.7 0 1 260.46 219.90
  Q 262.73 217.76 266.88 216.24
  L 270.53 215.89
  A 0.98 0.98 0.0 0 0 270.92 214.07
  Q 270.43 213.80 269.76 213.70
  A 0.51 0.51 0.0 0 1 269.55 212.77
  Q 270.01 212.47 270.51 212.73
  C 274.62 212.45 278.75 210.76 282.65 209.56
  Z
  M 287.19 216.88
  Q 274.26 224.61 278.10 238.40
  Q 279.55 243.61 282.42 245.53
  Q 285.83 247.81 290.54 245.57
  Q 292.74 245.39 294.13 246.39
  Q 294.89 246.93 295.73 246.54
  C 300.08 244.52 301.61 241.96 303.61 237.84
  A 2.37 2.34 -31.8 0 0 303.85 236.85
  Q 303.99 229.92 303.72 228.51
  Q 302.85 223.93 299.63 219.84
  Q 295.31 214.36 287.19 216.88
  Z"
/>
<path fill="#a999a2" d="
  M 266.88 216.24
  Q 262.73 217.76 260.46 219.90
  A 0.25 0.24 -58.7 0 0 260.55 220.31
  L 275.12 224.55
  A 0.42 0.41 17.7 0 0 275.62 224.30
  Q 277.25 219.97 281.21 217.03
  A 0.40 0.40 0.0 0 1 281.75 217.60
  Q 280.17 219.49 278.59 221.98
  C 276.34 225.55 275.88 231.23 276.15 235.07
  A 1.40 1.39 61.7 0 1 275.87 236.02
  Q 275.22 236.90 273.41 236.86
  A 0.51 0.50 85.8 0 0 272.90 237.46
  Q 273.10 238.58 274.02 238.66
  C 277.45 238.93 277.30 240.89 278.59 243.22
  Q 282.68 250.58 292.83 250.25
  Q 287.16 252.52 284.48 252.22
  Q 281.75 251.91 277.69 251.40
  C 269.19 250.33 262.39 247.26 254.89 241.84
  Q 251.15 239.14 249.65 235.29
  A 2.53 2.49 -53.9 0 1 249.49 234.21
  Q 249.90 228.94 248.40 224.82
  C 249.78 223.88 249.40 222.54 250.44 221.62
  C 251.87 220.36 251.46 218.21 253.06 217.58
  Q 259.52 215.06 266.88 216.24
  Z"
/>
<path fill="#7c644d" d="
  M 290.54 245.57
  Q 299.12 238.52 297.53 227.46
  Q 296.68 221.54 291.81 217.61
  A 1.37 1.32 67.3 0 0 291.16 217.33
  L 287.19 216.88
  Q 295.31 214.36 299.63 219.84
  Q 302.85 223.93 303.72 228.51
  Q 303.99 229.92 303.85 236.85
  A 2.37 2.34 -31.8 0 1 303.61 237.84
  C 301.61 241.96 300.08 244.52 295.73 246.54
  Q 294.89 246.93 294.13 246.39
  Q 292.74 245.39 290.54 245.57
  Z"
/>
<path fill="#261f12" d="
  M 287.19 216.88
  L 291.16 217.33
  A 1.37 1.32 67.3 0 1 291.81 217.61
  Q 296.68 221.54 297.53 227.46
  Q 299.12 238.52 290.54 245.57
  Q 285.83 247.81 282.42 245.53
  Q 279.55 243.61 278.10 238.40
  Q 274.26 224.61 287.19 216.88
  Z
  M 284.19 223.42
  L 283.04 222.59
  A 0.22 0.22 0.0 0 0 282.73 222.64
  L 282.42 223.07
  A 5.71 0.71 -54.3 0 0 279.67 228.12
  L 280.02 228.38
  A 5.71 0.71 -54.3 0 0 283.93 224.16
  L 284.24 223.73
  A 0.22 0.22 0.0 0 0 284.19 223.42
  Z
  M 287.7673 231.3846
  A 1.37 0.85 -21.2 0 0 286.1826 231.0875
  A 1.37 0.85 -21.2 0 0 285.2127 232.3754
  A 1.37 0.85 -21.2 0 0 286.7974 232.6725
  A 1.37 0.85 -21.2 0 0 287.7673 231.3846
  Z"
/>
<path fill="#a999a2" d="
  M 284.19 223.42
  A 0.22 0.22 0.0 0 1 284.24 223.73
  L 283.93 224.16
  A 5.71 0.71 -54.3 0 1 280.02 228.38
  L 279.67 228.12
  A 5.71 0.71 -54.3 0 1 282.42 223.07
  L 282.73 222.64
  A 0.22 0.22 0.0 0 1 283.04 222.59
  L 284.19 223.42
  Z"
/>
<ellipse fill="#d6c9bc" cx="0.00" cy="0.00" transform="translate(286.49,231.88) rotate(-21.2)" rx="1.37" ry="0.85"/>
<path fill="#2e4169" d="
  M 28.16 273.96
  L 29.76 276.96
  Q 21.17 275.53 14.11 270.51
  A 0.50 0.50 0.0 0 1 14.01 269.78
  L 14.20 269.56
  A 0.30 0.30 0.0 0 1 14.59 269.50
  Q 20.85 273.41 28.16 273.96
  Z"
/>
<path fill="#a999a2" d="
  M 51.25 274.52
  Q 50.44 274.95 49.46 275.00
  Q 49.32 274.96 49.18 274.91
  Q 49.53 273.88 51.25 274.52
  Z"
/>
<path fill="#7c644d" d="
  M 49.18 274.91
  Q 49.32 274.96 49.46 275.00
  Q 49.04 275.26 48.46 275.25
  Q 48.72 274.90 49.18 274.91
  Z"
/>
<path fill="#a999a2" d="
  M 47.28 275.41
  Q 41.79 277.63 36.21 277.54
  L 31.59 277.35
  Q 30.98 277.30 30.45 277.02
  L 47.28 275.41
  Z"
/>
<path fill="#403536" d="
  M 36.21 277.54
  L 31.59 277.35
  L 36.21 277.54
  Z"
/>
</svg>
