<?xml version="1.0" encoding="UTF-8" standalone="no"?>
<!DOCTYPE svg PUBLIC "-//W3C//DTD SVG 1.1//EN" "http://www.w3.org/Graphics/SVG/1.1/DTD/svg11.dtd">
<svg xmlns="http://www.w3.org/2000/svg" version="1.1" viewBox="0.00 0.00 1546.00 1545.00">
<path fill="#231f20" d="
  M 956.74 0.00
  Q 984.17 0.71 1002.78 3.15
  Q 1006.54 3.64 1024.76 6.94
  C 1043.76 10.39 1063.24 16.19 1079.69 22.33
  C 1146.58 47.27 1205.99 95.22 1237.82 160.45
  Q 1260.10 206.13 1260.48 254.01
  C 1261.03 325.34 1231.35 397.90 1175.16 444.08
  Q 1148.38 466.08 1118.90 478.46
  Q 1079.22 495.11 1036.02 499.03
  Q 1018.79 500.59 1003.52 500.65
  Q 957.53 500.83 915.45 480.02
  Q 899.54 472.16 883.65 458.83
  C 856.18 435.80 838.14 403.95 833.79 368.24
  C 832.82 360.27 832.16 349.06 833.32 340.61
  C 838.09 306.07 860.30 275.20 891.32 259.64
  C 912.03 249.26 935.54 245.46 958.49 247.22
  C 986.14 249.34 1009.05 263.37 1024.44 286.45
  C 1037.84 306.55 1045.69 334.19 1042.37 358.40
  A 0.38 0.38 0.0 0 0 1042.89 358.80
  C 1069.70 347.73 1089.96 326.14 1098.03 298.05
  Q 1104.66 274.96 1100.13 249.40
  Q 1093.53 212.20 1064.83 185.46
  C 1031.86 154.75 986.38 142.70 942.24 144.73
  Q 916.50 145.91 890.77 152.58
  C 851.60 162.74 814.33 180.04 779.47 201.45
  Q 751.85 218.42 725.02 238.78
  Q 693.33 262.84 665.92 288.18
  Q 632.42 319.18 583.33 367.83
  Q 532.21 418.51 480.99 474.49
  C 442.46 516.61 406.11 558.99 371.72 603.74
  A 0.32 0.32 0.0 0 0 371.97 604.25
  L 1545.43 604.25
  A 0.23 0.22 12.3 0 1 1545.64 604.57
  L 1480.29 749.84
  A 0.69 0.69 0.0 0 1 1479.66 750.25
  L 25.50 750.25
  A 0.42 0.42 0.0 0 1 25.18 749.56
  C 85.52 676.18 150.73 602.73 216.13 531.63
  Q 331.44 406.29 456.18 281.93
  Q 499.83 238.41 532.27 206.79
  Q 581.34 158.95 640.69 116.22
  Q 698.71 74.45 763.75 44.29
  Q 770.56 41.13 792.83 32.14
  Q 821.91 20.40 857.19 11.69
  Q 897.92 1.63 943.63 0.00
  L 956.74 0.00
  Z"
/>
<path fill="#231f20" d="
  M 1445.12 826.25
  A 0.17 0.17 0.0 0 1 1445.28 826.49
  L 1380.04 972.98
  A 0.85 0.84 11.6 0 1 1379.26 973.49
  L 232.44 973.49
  A 0.54 0.54 0.0 0 0 231.91 974.13
  Q 233.59 983.47 235.94 992.06
  Q 241.62 1012.75 248.27 1031.24
  C 272.19 1097.74 301.22 1163.38 332.16 1226.07
  Q 337.38 1236.66 347.07 1253.19
  Q 369.25 1291.04 397.61 1321.65
  C 424.50 1350.67 456.06 1373.82 492.51 1389.18
  Q 535.64 1407.37 582.23 1407.04
  C 589.29 1406.98 597.73 1406.20 603.26 1405.56
  C 651.48 1399.97 694.38 1371.49 707.62 1323.07
  Q 711.54 1308.74 710.14 1291.83
  C 708.49 1271.97 702.13 1254.12 688.78 1239.70
  Q 685.52 1236.18 681.86 1233.57
  A 0.25 0.25 0.0 0 0 681.47 1233.73
  Q 676.73 1261.31 657.61 1281.11
  C 643.97 1295.22 623.97 1304.16 604.22 1307.18
  C 593.82 1308.77 582.04 1309.85 571.88 1308.91
  Q 529.40 1304.95 500.77 1273.21
  Q 475.12 1244.78 472.12 1205.96
  Q 471.31 1195.57 473.19 1187.18
  C 481.81 1148.68 506.47 1116.02 540.95 1097.40
  C 574.65 1079.20 613.94 1074.92 651.99 1078.33
  Q 688.04 1081.57 721.22 1095.57
  C 769.18 1115.82 808.10 1152.06 830.60 1198.88
  C 845.85 1230.63 853.21 1266.63 853.08 1302.42
  C 852.88 1359.92 826.03 1416.24 786.69 1457.71
  Q 760.86 1484.92 727.91 1504.60
  Q 680.95 1532.63 623.29 1541.14
  Q 617.55 1541.99 605.78 1543.06
  Q 596.02 1543.95 588.21 1544.13
  Q 543.78 1545.12 500.94 1536.55
  C 488.73 1534.10 473.76 1530.43 460.72 1526.27
  Q 392.25 1504.43 334.65 1459.32
  Q 307.88 1438.35 285.12 1414.64
  C 245.74 1373.60 211.91 1324.44 186.36 1273.42
  C 179.10 1258.91 174.40 1250.49 168.51 1238.05
  Q 139.61 1176.89 108.77 1104.47
  Q 50.29 967.13 0.56 826.79
  A 0.41 0.41 0.0 0 1 0.95 826.25
  L 1445.12 826.25
  Z"
/>
</svg>
