<?xml version="1.0" encoding="UTF-8" standalone="no"?>
<!DOCTYPE svg PUBLIC "-//W3C//DTD SVG 1.1//EN" "http://www.w3.org/Graphics/SVG/1.1/DTD/svg11.dtd">
<svg xmlns="http://www.w3.org/2000/svg" version="1.1" viewBox="0.00 0.00 224.00 225.00">
<g stroke-width="2.00" fill="none" stroke-linecap="butt">
<path stroke="#80c480" vector-effect="non-scaling-stroke" d="
  M 115.01 78.68
  Q 104.56 80.34 92.98 79.11
  C 72.01 76.87 53.91 69.00 40.25 52.53
  A 0.35 0.35 0.0 0 0 39.65 52.63
  C 37.19 59.00 36.62 66.99 39.92 73.11
  C 43.99 80.64 52.00 84.27 60.07 85.93
  Q 88.69 91.83 115.14 79.08
  A 0.21 0.21 0.0 0 0 115.01 78.68"
/>
<path stroke="#80ba50" vector-effect="non-scaling-stroke" d="
  M 121.58 77.33
  Q 143.59 73.71 166.49 75.55
  Q 167.38 75.62 168.62 75.91
  A 0.32 0.32 0.0 0 1 168.68 76.51
  Q 163.95 78.81 159.29 77.36
  A 0.28 0.28 0.0 0 0 159.02 77.84
  C 164.57 82.81 170.65 81.82 175.88 76.74
  A 1.10 1.06 23.5 0 1 176.68 76.44
  Q 184.18 76.76 189.29 80.52
  A 0.47 0.47 0.0 0 0 190.02 80.25
  Q 191.87 72.16 183.84 69.14
  Q 178.71 67.21 175.26 66.90
  Q 147.22 64.33 121.47 76.98
  A 0.19 0.19 0.0 0 0 121.58 77.33"
/>
<path stroke="#80c480" vector-effect="non-scaling-stroke" d="
  M 127.89 86.98
  Q 104.85 94.34 81.76 96.46
  C 57.36 98.70 34.07 94.77 13.88 80.74
  A 0.52 0.51 19.6 0 0 13.07 81.12
  Q 12.46 88.64 14.41 95.61
  C 17.25 105.73 23.39 112.21 33.65 114.63
  C 66.08 122.27 102.26 105.92 128.09 87.36
  A 0.22 0.22 0.0 0 0 127.89 86.98"
/>
<path stroke="#80ba50" vector-effect="non-scaling-stroke" d="
  M 76.12 176.10
  Q 87.58 159.98 100.32 147.09
  Q 107.10 140.24 113.17 135.58
  A 0.09 0.09 0.0 0 1 113.30 135.70
  Q 106.53 145.95 102.96 159.07
  A 0.04 0.04 0.0 0 0 103.03 159.10
  C 108.68 151.20 116.28 144.39 123.61 138.36
  Q 136.46 127.79 153.02 116.58
  Q 163.69 109.35 171.10 105.90
  Q 181.37 101.11 190.81 98.58
  C 196.55 97.04 205.38 95.69 207.72 102.75
  A 0.36 0.36 0.0 0 0 208.36 102.83
  C 214.78 93.17 208.68 87.96 199.62 86.13
  C 177.43 81.64 153.73 90.73 135.64 103.34
  C 121.58 113.13 107.44 125.81 96.36 139.09
  Q 82.67 155.49 75.82 175.94
  A 0.17 0.17 0.0 0 0 76.12 176.10"
/>
<path stroke="#80c480" vector-effect="non-scaling-stroke" d="
  M 117.23 102.67
  Q 100.95 114.83 83.24 121.72
  C 69.80 126.96 55.47 129.38 41.42 125.08
  A 0.43 0.43 0.0 0 0 40.87 125.57
  Q 43.83 141.67 60.62 142.63
  C 83.80 143.95 105.77 120.35 117.43 102.86
  A 0.14 0.14 0.0 0 0 117.23 102.67"
/>
</g>
<path fill="#ffe01e" d="
  M 224.00 0.00
  L 224.00 225.00
  L 0.00 225.00
  L 0.00 0.00
  L 224.00 0.00
  Z
  M 115.01 78.68
  Q 104.56 80.34 92.98 79.11
  C 72.01 76.87 53.91 69.00 40.25 52.53
  A 0.35 0.35 0.0 0 0 39.65 52.63
  C 37.19 59.00 36.62 66.99 39.92 73.11
  C 43.99 80.64 52.00 84.27 60.07 85.93
  Q 88.69 91.83 115.14 79.08
  A 0.21 0.21 0.0 0 0 115.01 78.68
  Z
  M 121.58 77.33
  Q 143.59 73.71 166.49 75.55
  Q 167.38 75.62 168.62 75.91
  A 0.32 0.32 0.0 0 1 168.68 76.51
  Q 163.95 78.81 159.29 77.36
  A 0.28 0.28 0.0 0 0 159.02 77.84
  C 164.57 82.81 170.65 81.82 175.88 76.74
  A 1.10 1.06 23.5 0 1 176.68 76.44
  Q 184.18 76.76 189.29 80.52
  A 0.47 0.47 0.0 0 0 190.02 80.25
  Q 191.87 72.16 183.84 69.14
  Q 178.71 67.21 175.26 66.90
  Q 147.22 64.33 121.47 76.98
  A 0.19 0.19 0.0 0 0 121.58 77.33
  Z
  M 127.89 86.98
  Q 104.85 94.34 81.76 96.46
  C 57.36 98.70 34.07 94.77 13.88 80.74
  A 0.52 0.51 19.6 0 0 13.07 81.12
  Q 12.46 88.64 14.41 95.61
  C 17.25 105.73 23.39 112.21 33.65 114.63
  C 66.08 122.27 102.26 105.92 128.09 87.36
  A 0.22 0.22 0.0 0 0 127.89 86.98
  Z
  M 76.12 176.10
  Q 87.58 159.98 100.32 147.09
  Q 107.10 140.24 113.17 135.58
  A 0.09 0.09 0.0 0 1 113.30 135.70
  Q 106.53 145.95 102.96 159.07
  A 0.04 0.04 0.0 0 0 103.03 159.10
  C 108.68 151.20 116.28 144.39 123.61 138.36
  Q 136.46 127.79 153.02 116.58
  Q 163.69 109.35 171.10 105.90
  Q 181.37 101.11 190.81 98.58
  C 196.55 97.04 205.38 95.69 207.72 102.75
  A 0.36 0.36 0.0 0 0 208.36 102.83
  C 214.78 93.17 208.68 87.96 199.62 86.13
  C 177.43 81.64 153.73 90.73 135.64 103.34
  C 121.58 113.13 107.44 125.81 96.36 139.09
  Q 82.67 155.49 75.82 175.94
  A 0.17 0.17 0.0 0 0 76.12 176.10
  Z
  M 117.23 102.67
  Q 100.95 114.83 83.24 121.72
  C 69.80 126.96 55.47 129.38 41.42 125.08
  A 0.43 0.43 0.0 0 0 40.87 125.57
  Q 43.83 141.67 60.62 142.63
  C 83.80 143.95 105.77 120.35 117.43 102.86
  A 0.14 0.14 0.0 0 0 117.23 102.67
  Z"
/>
<path fill="#00a8e1" d="
  M 115.01 78.68
  A 0.21 0.21 0.0 0 1 115.14 79.08
  Q 88.69 91.83 60.07 85.93
  C 52.00 84.27 43.99 80.64 39.92 73.11
  C 36.62 66.99 37.19 59.00 39.65 52.63
  A 0.35 0.35 0.0 0 1 40.25 52.53
  C 53.91 69.00 72.01 76.87 92.98 79.11
  Q 104.56 80.34 115.01 78.68
  Z"
/>
<path fill="#009482" d="
  M 121.58 77.33
  A 0.19 0.19 0.0 0 1 121.47 76.98
  Q 147.22 64.33 175.26 66.90
  Q 178.71 67.21 183.84 69.14
  Q 191.87 72.16 190.02 80.25
  A 0.47 0.47 0.0 0 1 189.29 80.52
  Q 184.18 76.76 176.68 76.44
  A 1.10 1.06 23.5 0 0 175.88 76.74
  C 170.65 81.82 164.57 82.81 159.02 77.84
  A 0.28 0.28 0.0 0 1 159.29 77.36
  Q 163.95 78.81 168.68 76.51
  A 0.32 0.32 0.0 0 0 168.62 75.91
  Q 167.38 75.62 166.49 75.55
  Q 143.59 73.71 121.58 77.33
  Z"
/>
<path fill="#00a8e1" d="
  M 127.89 86.98
  A 0.22 0.22 0.0 0 1 128.09 87.36
  C 102.26 105.92 66.08 122.27 33.65 114.63
  C 23.39 112.21 17.25 105.73 14.41 95.61
  Q 12.46 88.64 13.07 81.12
  A 0.52 0.51 19.6 0 1 13.88 80.74
  C 34.07 94.77 57.36 98.70 81.76 96.46
  Q 104.85 94.34 127.89 86.98
  Z"
/>
<path fill="#009482" d="
  M 75.82 175.94
  Q 82.67 155.49 96.36 139.09
  C 107.44 125.81 121.58 113.13 135.64 103.34
  C 153.73 90.73 177.43 81.64 199.62 86.13
  C 208.68 87.96 214.78 93.17 208.36 102.83
  A 0.36 0.36 0.0 0 1 207.72 102.75
  C 205.38 95.69 196.55 97.04 190.81 98.58
  Q 181.37 101.11 171.10 105.90
  Q 163.69 109.35 153.02 116.58
  Q 136.46 127.79 123.61 138.36
  C 116.28 144.39 108.68 151.20 103.03 159.10
  A 0.04 0.04 0.0 0 1 102.96 159.07
  Q 106.53 145.95 113.30 135.70
  A 0.09 0.09 0.0 0 0 113.17 135.58
  Q 107.10 140.24 100.32 147.09
  Q 87.58 159.98 76.12 176.10
  A 0.17 0.17 0.0 0 1 75.82 175.94
  Z"
/>
<path fill="#00a8e1" d="
  M 117.23 102.67
  A 0.14 0.14 0.0 0 1 117.43 102.86
  C 105.77 120.35 83.80 143.95 60.62 142.63
  Q 43.83 141.67 40.87 125.57
  A 0.43 0.43 0.0 0 1 41.42 125.08
  C 55.47 129.38 69.80 126.96 83.24 121.72
  Q 100.95 114.83 117.23 102.67
  Z"
/>
</svg>
