<?xml version="1.0" encoding="UTF-8" standalone="no"?>
<!DOCTYPE svg PUBLIC "-//W3C//DTD SVG 1.1//EN" "http://www.w3.org/Graphics/SVG/1.1/DTD/svg11.dtd">
<svg xmlns="http://www.w3.org/2000/svg" version="1.1" viewBox="0.00 0.00 200.00 160.00">
<path stroke="#7d0f49" stroke-width="2.00" fill="none" stroke-linecap="butt" vector-effect="non-scaling-stroke" d="
  M 60.40 93.27
  Q 59.08 98.55 59.62 104.15"
/>
<path fill="#df0011" d="
  M 185.50 0.00
  Q 185.91 0.23 185.87 0.73
  A 0.56 0.56 0.0 0 1 185.45 1.23
  C 153.11 10.17 121.93 23.63 95.57 44.56
  C 79.72 57.16 65.57 73.40 60.40 93.27
  Q 59.08 98.55 59.62 104.15
  Q 61.41 116.17 69.31 125.92
  Q 77.89 136.50 89.29 143.94
  Q 104.64 153.97 123.72 160.00
  L 118.63 160.00
  Q 116.73 159.68 114.85 160.00
  L 79.56 160.00
  C 56.61 159.76 39.87 146.55 27.42 128.32
  C 15.65 111.11 7.24 91.72 0.22 71.95
  A 0.39 0.39 0.0 0 1 0.59 71.43
  Q 16.52 71.55 23.10 71.36
  C 26.59 71.26 28.77 69.01 30.96 65.99
  Q 59.36 26.87 70.49 11.59
  C 75.42 4.81 79.22 0.96 87.24 0.43
  Q 90.33 0.23 93.39 0.00
  L 185.50 0.00
  Z"
/>
<path fill="#1b1d80" d="
  M 59.62 104.15
  Q 59.08 98.55 60.40 93.27
  Q 64.36 86.48 71.27 82.27
  C 85.07 73.85 101.64 69.04 117.31 65.83
  Q 157.52 57.57 199.32 57.01
  A 0.24 0.24 0.0 0 1 199.48 57.44
  L 192.66 62.96
  A 4.10 4.06 -68.3 0 1 190.69 63.82
  C 167.35 67.08 142.68 73.21 120.83 82.54
  C 114.18 85.38 91.63 97.08 96.85 107.69
  C 99.05 112.17 106.67 116.12 111.56 118.23
  Q 128.28 125.44 147.66 130.08
  A 1.30 1.27 76.7 0 1 148.37 130.53
  L 150.61 133.29
  A 0.62 0.62 0.0 0 1 150.07 134.29
  Q 121.59 131.38 94.99 125.30
  Q 79.39 121.73 68.49 115.06
  Q 62.58 111.45 59.62 104.15
  Z"
/>
</svg>
