<?xml version="1.0" encoding="UTF-8" standalone="no"?>
<!DOCTYPE svg PUBLIC "-//W3C//DTD SVG 1.1//EN" "http://www.w3.org/Graphics/SVG/1.1/DTD/svg11.dtd">
<svg xmlns="http://www.w3.org/2000/svg" version="1.1" viewBox="0.00 0.00 200.00 200.00">
<path fill="#ec1f24" d="
  M 65.49 53.68
  Q 65.80 54.72 65.22 58.27
  Q 64.10 65.10 58.60 67.37
  C 53.65 69.40 49.40 68.70 44.29 68.04
  A 5.09 5.07 22.3 0 0 39.63 69.98
  L 38.82 71.03
  A 1.38 1.38 0.0 0 0 39.84 73.25
  C 46.41 73.63 47.64 79.48 47.64 85.48
  Q 47.60 112.22 47.54 135.82
  A 3.03 2.99 -55.9 0 0 47.74 136.90
  Q 49.67 142.08 55.83 141.89
  C 60.63 141.74 62.06 137.62 62.14 133.10
  C 62.22 127.98 62.86 121.97 62.77 116.30
  Q 62.50 99.86 62.97 90.51
  Q 63.22 85.62 65.67 74.64
  C 68.07 63.87 73.45 53.73 80.78 45.28
  Q 97.09 26.47 121.79 20.82
  C 129.94 18.95 136.10 19.16 145.75 18.69
  Q 160.33 17.97 172.72 11.49
  Q 178.99 8.21 186.07 3.80
  A 0.60 0.60 0.0 0 1 186.98 4.43
  C 185.46 12.17 177.60 22.95 171.87 27.40
  C 161.67 35.34 148.66 39.78 135.60 41.48
  Q 127.77 42.49 123.82 43.81
  C 105.89 49.77 91.27 64.85 87.04 83.54
  C 85.73 89.29 85.08 97.19 85.10 103.52
  Q 85.15 115.71 85.11 138.24
  Q 85.11 140.00 84.10 144.13
  C 80.05 160.85 64.30 169.32 48.17 164.30
  C 35.39 160.32 28.04 148.75 27.98 135.25
  Q 27.88 111.17 28.00 87.25
  Q 28.03 80.80 27.09 79.00
  C 24.35 73.80 19.05 74.32 13.16 74.45
  A 0.83 0.83 0.0 0 1 12.32 73.62
  L 12.32 73.36
  A 0.51 0.51 0.0 0 1 12.83 72.85
  L 34.18 72.85
  A 0.83 0.81 3.5 0 0 35.00 72.14
  Q 36.26 62.63 44.83 60.86
  C 47.16 60.38 51.25 60.66 53.01 60.74
  C 58.59 61.00 61.48 57.69 64.78 53.54
  A 0.41 0.41 0.0 0 1 65.49 53.68
  Z"
/>
<path fill="#ec1f24" d="
  M 177.90 30.05
  A 0.23 0.23 0.0 0 1 178.28 30.27
  C 175.30 48.23 164.89 63.10 145.99 65.71
  C 142.96 66.13 137.15 66.45 133.94 67.30
  Q 111.52 73.20 111.12 98.04
  Q 111.00 105.79 111.15 139.37
  Q 111.19 149.72 109.66 155.00
  Q 106.52 165.81 99.21 172.98
  C 78.80 192.97 47.32 188.89 32.95 163.74
  A 0.27 0.27 0.0 0 1 33.36 163.39
  C 47.56 174.68 66.18 176.40 79.90 163.14
  C 88.70 154.63 91.25 143.85 91.38 131.95
  Q 91.63 107.86 91.59 103.20
  Q 91.46 89.74 93.14 83.47
  C 97.87 65.82 112.59 52.14 130.73 48.46
  C 138.41 46.90 147.77 46.47 154.68 44.47
  C 163.96 41.79 170.43 36.23 177.90 30.05
  Z"
/>
<path fill="#ec1f24" d="
  M 141.53 112.04
  C 143.01 115.33 146.00 116.45 147.89 112.81
  C 151.25 106.33 144.60 100.25 138.31 103.03
  C 134.47 104.73 133.77 107.93 133.70 112.28
  Q 133.32 136.69 133.17 146.26
  Q 133.09 151.96 131.67 156.37
  Q 122.28 185.47 93.97 192.61
  C 82.79 195.43 70.91 194.48 59.85 190.86
  A 0.26 0.26 0.0 0 1 59.96 190.35
  C 85.14 193.40 106.71 185.31 114.89 159.11
  Q 116.58 153.70 116.55 149.75
  Q 116.38 123.18 116.36 110.52
  Q 116.35 103.91 119.32 97.25
  Q 126.09 82.04 143.48 83.14
  C 147.82 83.41 150.53 83.64 153.97 85.76
  Q 160.41 89.73 164.38 96.14
  C 168.94 103.53 170.32 115.35 164.74 122.39
  Q 160.66 127.54 154.47 127.87
  C 145.48 128.34 140.71 120.57 140.96 112.16
  A 0.30 0.30 0.0 0 1 141.53 112.04
  Z"
/>
</svg>
