<?xml version="1.0" encoding="UTF-8" standalone="no"?>
<!DOCTYPE svg PUBLIC "-//W3C//DTD SVG 1.1//EN" "http://www.w3.org/Graphics/SVG/1.1/DTD/svg11.dtd">
<svg xmlns="http://www.w3.org/2000/svg" version="1.1" viewBox="0.00 0.00 200.00 200.00">
<path stroke="#7f98cb" stroke-width="2.00" fill="none" stroke-linecap="butt" vector-effect="non-scaling-stroke" d="
  M 98.75 146.13
  L 126.00 136.66
  A 0.60 0.60 0.0 0 1 126.78 137.10
  L 128.91 147.20
  A 0.38 0.38 0.0 0 0 129.48 147.44
  L 132.11 145.81
  A 0.77 0.77 0.0 0 0 132.48 145.17
  L 132.90 134.98
  A 1.34 1.32 80.3 0 1 133.72 133.81
  L 154.39 125.20
  A 0.28 0.28 0.0 0 1 154.78 125.46
  L 154.78 153.51
  A 0.20 0.19 -16.0 0 0 155.08 153.67
  L 159.73 150.79
  A 2.02 1.99 -10.1 0 0 160.63 149.52
  L 166.84 120.54
  A 3.36 3.36 0.0 0 1 168.49 118.31
  Q 177.93 113.03 179.46 111.96
  Q 181.89 110.26 182.95 108.02
  A 2.50 2.46 21.3 0 0 181.42 104.61
  C 178.13 103.58 171.88 107.05 164.37 110.28
  A 3.48 3.48 0.0 0 1 161.54 110.26
  L 134.53 98.09
  A 1.98 1.96 -43.6 0 0 132.95 98.06
  L 128.28 100.00
  A 0.39 0.39 0.0 0 0 128.20 100.68
  L 150.24 116.82
  A 0.58 0.58 0.0 0 1 150.20 117.79
  L 131.64 129.27
  A 0.49 0.49 0.0 0 1 131.13 129.28
  L 120.97 123.41
  A 0.83 0.82 44.1 0 0 120.12 123.42
  L 117.89 124.80
  A 0.39 0.39 0.0 0 0 117.81 125.40
  L 124.52 132.85
  A 0.65 0.65 0.0 0 1 124.40 133.82
  L 120.17 136.75
  A 3.36 3.10 -68.4 0 1 119.32 137.16
  Q 111.12 139.67 107.93 140.16
  Q 101.20 141.17 89.15 141.54"
/>
<path fill="#003399" d="
  M 98.75 146.13
  L 126.00 136.66
  A 0.60 0.60 0.0 0 1 126.78 137.10
  L 128.91 147.20
  A 0.38 0.38 0.0 0 0 129.48 147.44
  L 132.11 145.81
  A 0.77 0.77 0.0 0 0 132.48 145.17
  L 132.90 134.98
  A 1.34 1.32 80.3 0 1 133.72 133.81
  L 154.39 125.20
  A 0.28 0.28 0.0 0 1 154.78 125.46
  L 154.78 153.51
  A 0.20 0.19 -16.0 0 0 155.08 153.67
  L 159.73 150.79
  A 2.02 1.99 -10.1 0 0 160.63 149.52
  L 166.84 120.54
  A 3.36 3.36 0.0 0 1 168.49 118.31
  Q 177.93 113.03 179.46 111.96
  Q 181.89 110.26 182.95 108.02
  A 2.50 2.46 21.3 0 0 181.42 104.61
  C 178.13 103.58 171.88 107.05 164.37 110.28
  A 3.48 3.48 0.0 0 1 161.54 110.26
  L 134.53 98.09
  A 1.98 1.96 -43.6 0 0 132.95 98.06
  L 128.28 100.00
  A 0.39 0.39 0.0 0 0 128.20 100.68
  L 150.24 116.82
  A 0.58 0.58 0.0 0 1 150.20 117.79
  L 131.64 129.27
  A 0.49 0.49 0.0 0 1 131.13 129.28
  L 120.97 123.41
  A 0.83 0.82 44.1 0 0 120.12 123.42
  L 117.89 124.80
  A 0.39 0.39 0.0 0 0 117.81 125.40
  L 124.52 132.85
  A 0.65 0.65 0.0 0 1 124.40 133.82
  L 120.17 136.75
  A 3.36 3.10 -68.4 0 1 119.32 137.16
  Q 111.12 139.67 107.93 140.16
  Q 101.20 141.17 89.15 141.54
  Q 75.60 140.68 58.97 137.30
  Q 48.24 135.11 41.01 132.02
  Q 27.12 126.09 14.61 116.52
  C 8.51 111.86 1.39 104.19 0.33 97.28
  Q -0.29 93.30 0.86 85.32
  C 4.43 60.51 17.50 37.93 37.26 22.15
  Q 56.39 6.88 81.81 1.82
  Q 90.45 0.10 96.77 0.12
  Q 101.57 0.15 107.14 0.28
  Q 110.65 0.36 113.10 0.95
  Q 114.62 1.31 117.06 1.64
  Q 120.05 2.03 121.01 2.26
  Q 155.13 10.41 176.27 35.55
  Q 197.15 60.38 199.79 93.02
  Q 200.04 96.17 199.70 105.67
  Q 199.43 113.20 198.42 118.21
  C 189.59 162.40 155.69 193.65 111.01 199.61
  Q 107.99 200.01 98.35 199.94
  C 75.87 199.77 54.40 192.17 37.14 178.82
  Q 17.01 163.24 7.49 139.36
  A 0.37 0.37 0.0 0 1 8.02 138.91
  C 10.94 140.67 14.06 142.58 16.69 143.65
  Q 35.25 151.17 55.50 153.10
  Q 62.95 153.81 71.96 152.47
  Q 85.67 150.44 98.75 146.13
  Z"
/>
<path fill="#fdfdfd" d="
  M 98.75 146.13
  Q 100.37 144.35 99.95 142.70
  A 0.70 0.69 84.2 0 0 99.32 142.18
  L 89.15 141.54
  Q 101.20 141.17 107.93 140.16
  Q 111.12 139.67 119.32 137.16
  A 3.36 3.10 -68.4 0 0 120.17 136.75
  L 124.40 133.82
  A 0.65 0.65 0.0 0 0 124.52 132.85
  L 117.81 125.40
  A 0.39 0.39 0.0 0 1 117.89 124.80
  L 120.12 123.42
  A 0.83 0.82 44.1 0 1 120.97 123.41
  L 131.13 129.28
  A 0.49 0.49 0.0 0 0 131.64 129.27
  L 150.20 117.79
  A 0.58 0.58 0.0 0 0 150.24 116.82
  L 128.20 100.68
  A 0.39 0.39 0.0 0 1 128.28 100.00
  L 132.95 98.06
  A 1.98 1.96 -43.6 0 1 134.53 98.09
  L 161.54 110.26
  A 3.48 3.48 0.0 0 0 164.37 110.28
  C 171.88 107.05 178.13 103.58 181.42 104.61
  A 2.50 2.46 21.3 0 1 182.95 108.02
  Q 181.89 110.26 179.46 111.96
  Q 177.93 113.03 168.49 118.31
  A 3.36 3.36 0.0 0 0 166.84 120.54
  L 160.63 149.52
  A 2.02 1.99 -10.1 0 1 159.73 150.79
  L 155.08 153.67
  A 0.20 0.19 -16.0 0 1 154.78 153.51
  L 154.78 125.46
  A 0.28 0.28 0.0 0 0 154.39 125.20
  L 133.72 133.81
  A 1.34 1.32 80.3 0 0 132.90 134.98
  L 132.48 145.17
  A 0.77 0.77 0.0 0 1 132.11 145.81
  L 129.48 147.44
  A 0.38 0.38 0.0 0 1 128.91 147.20
  L 126.78 137.10
  A 0.60 0.60 0.0 0 0 126.00 136.66
  L 98.75 146.13
  Z"
/>
</svg>
