<?xml version="1.0" encoding="UTF-8" standalone="no"?>
<!DOCTYPE svg PUBLIC "-//W3C//DTD SVG 1.1//EN" "http://www.w3.org/Graphics/SVG/1.1/DTD/svg11.dtd">
<svg xmlns="http://www.w3.org/2000/svg" version="1.1" viewBox="0.00 0.00 1000.00 1000.00">
<path fill="#03285f" d="
  M 777.44 291.27
  Q 776.74 291.00 775.76 290.94
  A 2.93 2.90 -33.2 0 1 774.87 290.76
  Q 735.21 276.11 692.06 266.70
  Q 611.76 249.20 531.34 255.49
  C 470.37 260.26 409.38 275.74 353.75 299.30
  Q 307.44 318.91 265.70 349.71
  Q 252.31 359.60 237.33 371.81
  A 0.40 0.40 0.0 0 1 236.70 371.39
  Q 246.61 337.30 264.34 306.59
  C 272.40 292.63 280.65 278.54 290.84 265.34
  Q 304.31 247.89 323.98 238.75
  Q 333.06 234.53 342.45 231.44
  C 392.40 215.01 444.91 204.76 497.64 203.15
  Q 593.62 200.23 682.75 234.98
  Q 733.67 254.83 776.30 288.17
  Q 777.57 289.17 778.00 290.76
  A 0.43 0.42 -86.9 0 1 777.44 291.27
  Z"
/>
<path fill="#03285f" d="
  M 639.69 281.32
  A 0.34 0.34 0.0 0 1 639.67 281.99
  Q 579.95 289.66 523.84 307.30
  Q 421.41 339.51 339.78 405.88
  C 297.15 440.54 259.43 482.49 227.98 528.09
  A 0.39 0.38 56.2 0 1 227.29 527.95
  Q 222.48 505.39 221.85 481.08
  Q 221.72 475.93 221.54 450.25
  Q 221.54 450.18 222.07 441.24
  C 222.89 427.42 229.68 418.68 239.47 409.72
  C 280.96 371.77 326.58 339.83 377.08 316.39
  Q 434.18 289.88 497.76 279.57
  Q 568.81 268.04 639.69 281.32
  Z"
/>
<path fill="#03285f" d="
  M 588.88 351.10
  A 1.73 1.73 0.0 0 1 586.69 348.45
  Q 599.36 335.52 614.24 325.49
  Q 654.45 298.40 702.83 303.04
  C 709.38 303.66 715.03 304.11 713.58 312.02
  C 712.52 317.80 711.35 328.16 702.12 322.68
  A 7.18 6.80 67.6 0 0 700.85 322.11
  Q 694.61 320.11 688.20 317.81
  C 683.89 316.26 677.72 316.26 678.19 322.75
  Q 678.43 326.06 678.74 328.91
  A 5.82 5.77 -42.7 0 1 678.66 330.70
  C 675.54 346.88 662.27 356.96 645.94 354.31
  Q 628.69 351.51 616.81 338.48
  Q 612.79 334.08 607.79 337.83
  Q 599.89 343.77 588.88 351.10
  Z
  M 619.53 330.99
  A 0.45 0.45 0.0 0 0 619.45 331.66
  Q 628.18 341.50 640.59 345.12
  C 658.24 350.26 670.46 338.59 668.46 320.95
  C 667.94 316.37 665.00 314.95 660.77 315.46
  Q 638.50 318.16 619.53 330.99
  Z"
/>
<path fill="#03285f" d="
  M 572.17 314.13
  Q 556.84 322.79 556.01 323.26
  Q 491.33 359.71 437.72 409.71
  C 364.50 478.00 312.52 563.99 282.92 659.45
  A 0.31 0.30 36.1 0 1 282.38 659.53
  Q 257.92 625.28 242.70 585.53
  Q 241.14 581.44 242.80 578.06
  C 264.76 533.41 293.40 489.54 327.03 452.28
  Q 377.62 396.23 440.12 361.34
  Q 492.35 332.17 551.04 317.07
  Q 561.64 314.34 572.11 313.90
  A 0.12 0.12 0.0 0 1 572.17 314.13
  Z"
/>
<path fill="#03285f" d="
  M 547.81 412.39
  A 0.21 0.21 0.0 0 1 548.18 412.46
  C 553.43 429.72 561.17 446.05 572.46 460.07
  A 0.48 0.48 0.0 0 0 573.20 460.08
  C 606.74 420.86 645.30 386.18 689.37 360.37
  Q 718.66 343.22 752.51 331.26
  A 0.89 0.89 0.0 0 1 753.58 332.55
  L 752.07 335.17
  A 2.24 2.24 0.0 0 1 751.03 336.09
  Q 748.16 337.31 746.77 338.04
  Q 706.02 359.58 670.71 387.95
  C 607.37 438.85 561.54 505.66 535.84 582.57
  Q 501.86 684.27 509.79 791.25
  Q 510.06 794.93 508.22 796.44
  A 1.97 1.92 -69.2 0 1 507.34 796.85
  Q 504.97 797.24 502.21 796.79
  Q 471.12 791.71 437.82 780.22
  C 432.55 778.41 432.27 775.33 432.48 769.96
  C 435.22 700.06 445.92 631.87 467.82 566.06
  Q 489.61 500.56 526.90 441.43
  Q 536.25 426.61 547.81 412.39
  Z"
/>
<path fill="#03285f" d="
  M 554.60 347.57
  Q 553.21 351.37 551.34 356.30
  Q 544.95 373.12 545.24 390.99
  Q 545.26 392.17 544.03 394.15
  A 3.29 3.09 84.4 0 1 543.53 394.80
  Q 505.17 434.50 474.57 479.55
  Q 414.20 568.46 393.11 672.86
  Q 386.97 703.29 385.02 740.74
  Q 384.91 742.88 385.05 744.75
  C 385.36 748.73 386.09 752.84 380.42 752.12
  A 2.22 2.17 -21.5 0 1 379.35 751.67
  C 373.67 747.22 365.65 742.49 359.63 738.08
  Q 339.38 723.25 321.18 705.67
  C 316.43 701.07 317.68 696.88 319.06 689.89
  Q 333.07 619.08 361.45 558.45
  Q 395.56 485.59 450.49 427.99
  Q 481.50 395.48 518.47 368.22
  C 529.90 359.79 541.71 351.76 554.24 347.20
  A 0.29 0.28 -89.8 0 1 554.60 347.57
  Z"
/>
</svg>
