<?xml version="1.0" encoding="UTF-8" standalone="no"?>
<!DOCTYPE svg PUBLIC "-//W3C//DTD SVG 1.1//EN" "http://www.w3.org/Graphics/SVG/1.1/DTD/svg11.dtd">
<svg xmlns="http://www.w3.org/2000/svg" version="1.1" viewBox="0.00 0.00 225.00 225.00">
<g stroke-width="2.00" fill="none" stroke-linecap="butt">
<path stroke="#80aad2" vector-effect="non-scaling-stroke" d="
  M 47.22 17.81
  C 42.28 23.65 32.88 32.21 28.34 41.66
  C 19.77 59.47 28.64 79.16 42.69 90.82
  Q 48.83 95.91 53.16 98.60
  C 66.44 106.85 82.69 114.94 97.75 123.01
  Q 102.12 125.35 107.49 129.50
  Q 115.49 135.67 113.56 144.97
  A 0.28 0.28 0.0 0 0 114.03 145.22
  Q 114.90 144.36 121.82 136.01
  Q 128.05 128.48 128.25 128.07
  C 132.16 119.86 130.23 111.33 124.14 104.80
  Q 121.16 101.61 111.46 96.86
  Q 98.39 90.47 81.15 80.87
  C 71.23 75.35 60.31 68.52 51.78 60.01
  Q 37.99 46.25 43.34 27.88
  Q 44.09 25.29 47.55 18.03
  A 0.20 0.20 0.0 0 0 47.22 17.81"
/>
<path stroke="#80aad2" vector-effect="non-scaling-stroke" d="
  M 2.01 155.34
  Q 2.02 155.37 4.09 157.88
  A 9.16 7.76 -86.3 0 1 4.79 158.86
  C 13.94 173.91 24.41 189.29 39.88 198.78
  Q 62.72 212.79 89.17 207.89
  Q 99.71 205.94 114.03 200.63
  C 127.36 195.69 138.80 187.82 149.54 178.29
  Q 166.00 163.68 179.51 147.01
  Q 192.02 131.57 193.96 129.22
  C 201.83 119.67 211.20 109.71 224.39 118.03
  A 0.15 0.14 -89.6 0 0 224.59 117.83
  Q 219.45 108.91 215.34 102.64
  Q 210.87 95.82 208.39 93.70
  Q 196.86 83.86 182.86 91.24
  Q 174.91 95.43 167.91 102.42
  C 149.92 120.37 131.64 139.40 113.24 155.72
  Q 98.64 168.67 85.55 177.00
  C 76.08 183.02 67.70 186.15 57.27 185.39
  Q 45.64 184.55 34.68 178.88
  Q 16.05 169.25 2.71 154.81
  A 0.44 0.44 0.0 0 0 2.01 155.34"
/>
</g>
<path fill="#ffffff" d="
  M 225.00 0.00
  L 225.00 225.00
  L 0.00 225.00
  L 0.00 0.00
  L 225.00 0.00
  Z
  M 47.22 17.81
  C 42.28 23.65 32.88 32.21 28.34 41.66
  C 19.77 59.47 28.64 79.16 42.69 90.82
  Q 48.83 95.91 53.16 98.60
  C 66.44 106.85 82.69 114.94 97.75 123.01
  Q 102.12 125.35 107.49 129.50
  Q 115.49 135.67 113.56 144.97
  A 0.28 0.28 0.0 0 0 114.03 145.22
  Q 114.90 144.36 121.82 136.01
  Q 128.05 128.48 128.25 128.07
  C 132.16 119.86 130.23 111.33 124.14 104.80
  Q 121.16 101.61 111.46 96.86
  Q 98.39 90.47 81.15 80.87
  C 71.23 75.35 60.31 68.52 51.78 60.01
  Q 37.99 46.25 43.34 27.88
  Q 44.09 25.29 47.55 18.03
  A 0.20 0.20 0.0 0 0 47.22 17.81
  Z
  M 2.01 155.34
  Q 2.02 155.37 4.09 157.88
  A 9.16 7.76 -86.3 0 1 4.79 158.86
  C 13.94 173.91 24.41 189.29 39.88 198.78
  Q 62.72 212.79 89.17 207.89
  Q 99.71 205.94 114.03 200.63
  C 127.36 195.69 138.80 187.82 149.54 178.29
  Q 166.00 163.68 179.51 147.01
  Q 192.02 131.57 193.96 129.22
  C 201.83 119.67 211.20 109.71 224.39 118.03
  A 0.15 0.14 -89.6 0 0 224.59 117.83
  Q 219.45 108.91 215.34 102.64
  Q 210.87 95.82 208.39 93.70
  Q 196.86 83.86 182.86 91.24
  Q 174.91 95.43 167.91 102.42
  C 149.92 120.37 131.64 139.40 113.24 155.72
  Q 98.64 168.67 85.55 177.00
  C 76.08 183.02 67.70 186.15 57.27 185.39
  Q 45.64 184.55 34.68 178.88
  Q 16.05 169.25 2.71 154.81
  A 0.44 0.44 0.0 0 0 2.01 155.34
  Z"
/>
<path fill="#0055a4" d="
  M 47.55 18.03
  Q 44.09 25.29 43.34 27.88
  Q 37.99 46.25 51.78 60.01
  C 60.31 68.52 71.23 75.35 81.15 80.87
  Q 98.39 90.47 111.46 96.86
  Q 121.16 101.61 124.14 104.80
  C 130.23 111.33 132.16 119.86 128.25 128.07
  Q 128.05 128.48 121.82 136.01
  Q 114.90 144.36 114.03 145.22
  A 0.28 0.28 0.0 0 1 113.56 144.97
  Q 115.49 135.67 107.49 129.50
  Q 102.12 125.35 97.75 123.01
  C 82.69 114.94 66.44 106.85 53.16 98.60
  Q 48.83 95.91 42.69 90.82
  C 28.64 79.16 19.77 59.47 28.34 41.66
  C 32.88 32.21 42.28 23.65 47.22 17.81
  A 0.20 0.20 0.0 0 1 47.55 18.03
  Z"
/>
<path fill="#0055a4" d="
  M 2.71 154.81
  Q 16.05 169.25 34.68 178.88
  Q 45.64 184.55 57.27 185.39
  C 67.70 186.15 76.08 183.02 85.55 177.00
  Q 98.64 168.67 113.24 155.72
  C 131.64 139.40 149.92 120.37 167.91 102.42
  Q 174.91 95.43 182.86 91.24
  Q 196.86 83.86 208.39 93.70
  Q 210.87 95.82 215.34 102.64
  Q 219.45 108.91 224.59 117.83
  A 0.15 0.14 -89.6 0 1 224.39 118.03
  C 211.20 109.71 201.83 119.67 193.96 129.22
  Q 192.02 131.57 179.51 147.01
  Q 166.00 163.68 149.54 178.29
  C 138.80 187.82 127.36 195.69 114.03 200.63
  Q 99.71 205.94 89.17 207.89
  Q 62.72 212.79 39.88 198.78
  C 24.41 189.29 13.94 173.91 4.79 158.86
  A 9.16 7.76 -86.3 0 0 4.09 157.88
  Q 2.02 155.37 2.01 155.34
  A 0.44 0.44 0.0 0 1 2.71 154.81
  Z"
/>
</svg>
