<?xml version="1.0" encoding="UTF-8" standalone="no"?>
<!DOCTYPE svg PUBLIC "-//W3C//DTD SVG 1.1//EN" "http://www.w3.org/Graphics/SVG/1.1/DTD/svg11.dtd">
<svg xmlns="http://www.w3.org/2000/svg" version="1.1" viewBox="0.00 0.00 1053.00 506.00">
<path stroke="#11162d" stroke-width="2.00" fill="none" stroke-linecap="butt" vector-effect="non-scaling-stroke" d="
  M 913.58 213.11
  A 0.25 0.25 0.0 0 0 913.39 213.50
  L 917.77 219.56
  A 4.43 4.32 84.6 0 0 919.38 220.93
  L 928.67 225.59
  A 1.11 1.08 49.0 0 0 929.51 225.66
  Q 940.62 222.27 950.87 220.26
  C 953.87 219.67 957.24 219.61 960.00 219.46
  A 0.79 0.79 0.0 0 0 960.75 218.67
  L 960.75 216.81
  A 0.60 0.59 -87.4 0 0 960.21 216.21
  Q 937.16 213.73 936.12 213.66
  Q 920.97 212.70 913.58 213.11"
/>
<path fill="#222c5a" d="
  M 568.00 69.46
  Q 568.07 69.45 568.13 69.44
  A 0.77 0.77 0.0 0 1 568.96 69.99
  Q 569.14 70.61 569.96 70.51
  A 1.53 1.48 -34.3 0 1 570.79 70.65
  C 575.75 73.13 582.74 76.24 583.21 77.26
  A 0.51 0.51 0.0 0 0 583.89 77.51
  Q 584.51 77.22 585.07 78.07
  Q 585.34 78.46 586.05 78.81
  Q 590.55 81.02 590.56 81.02
  A 1.67 1.65 -16.7 0 1 591.52 81.53
  Q 592.88 83.03 595.43 83.91
  A 2.38 2.30 76.0 0 1 596.28 84.44
  Q 597.39 85.51 600.09 86.90
  Q 601.66 87.70 603.99 89.26
  Q 624.89 103.25 644.35 118.09
  Q 652.14 124.02 665.00 133.50
  Q 676.96 142.31 685.70 148.57
  Q 789.40 222.83 834.68 255.21
  C 846.41 263.60 859.59 273.97 869.41 281.08
  Q 877.48 286.93 888.67 294.09
  C 889.46 294.59 891.39 295.10 892.06 296.05
  Q 892.48 296.66 893.01 296.50
  A 0.77 0.76 64.1 0 1 893.87 296.80
  Q 894.77 298.09 896.32 298.27
  A 0.54 0.54 0.0 0 1 896.75 299.02
  Q 895.92 300.90 895.31 301.56
  Q 886.45 311.21 883.70 313.21
  Q 875.10 319.46 870.13 321.85
  Q 862.69 325.43 854.85 326.50
  Q 846.96 327.59 839.19 325.06
  Q 829.17 321.81 819.70 315.05
  Q 565.50 133.63 520.64 101.86
  Q 495.64 84.15 464.56 69.67
  A 1.85 1.76 -30.6 0 0 463.86 69.51
  Q 463.84 69.51 463.59 69.54
  A 0.41 0.40 77.0 0 1 463.17 69.27
  Q 462.85 68.37 462.07 68.50
  A 0.90 0.88 -36.1 0 1 461.52 68.42
  Q 457.12 66.24 454.06 64.96
  Q 447.05 62.03 439.84 59.20
  Q 427.82 54.50 408.76 48.53
  Q 381.84 40.09 350.01 34.28
  Q 298.94 24.94 244.52 22.22
  Q 210.21 20.51 190.92 20.35
  C 171.30 20.18 143.53 20.03 121.65 20.36
  Q 71.85 21.11 55.91 21.38
  Q 29.49 21.83 4.66 21.75
  A 1.34 1.34 0.0 0 1 3.37 20.78
  L 0.30 10.15
  A 0.70 0.70 0.0 0 1 0.97 9.25
  L 282.47 9.26
  A 2.43 2.37 56.4 0 1 283.45 9.47
  Q 290.26 12.54 294.51 12.53
  Q 297.62 12.52 298.76 12.51
  Q 320.11 12.32 333.50 13.46
  Q 365.25 16.18 402.33 22.16
  Q 437.70 27.85 468.26 35.04
  Q 473.22 36.21 482.52 38.96
  Q 518.27 49.54 547.55 60.68
  Q 549.07 61.26 550.16 61.86
  C 551.37 62.53 553.01 62.45 553.88 63.18
  Q 554.84 63.98 560.31 65.97
  Q 561.42 66.38 567.23 69.35
  A 1.28 1.25 52.5 0 0 568.00 69.46
  Z"
/>
<path fill="#222c5a" d="
  M 835.57 343.00
  A 1.04 1.03 29.3 0 1 836.04 344.66
  Q 834.85 346.03 831.09 350.49
  Q 828.99 352.98 825.59 355.71
  Q 818.79 361.17 812.06 364.52
  A 1.73 1.69 23.8 0 1 811.66 364.67
  Q 810.66 364.90 807.28 366.25
  Q 801.90 368.41 792.94 368.84
  Q 787.57 369.10 779.56 367.86
  Q 773.06 366.85 766.61 364.38
  Q 754.79 359.85 744.26 352.02
  C 725.52 338.07 717.91 332.08 701.57 321.14
  C 659.46 292.96 603.85 251.61 575.33 230.93
  Q 536.47 202.75 509.50 184.77
  Q 491.89 173.02 480.83 166.45
  Q 479.82 165.85 474.64 162.85
  A 1.65 0.40 35.7 0 0 473.80 162.51
  C 473.06 162.42 472.52 161.29 471.63 161.03
  Q 470.10 160.58 465.84 157.90
  Q 462.42 155.76 443.54 146.57
  Q 443.26 146.43 442.95 146.50
  Q 442.73 146.55 442.53 146.50
  Q 442.27 146.43 442.19 146.26
  Q 441.67 145.20 440.86 145.55
  A 0.47 0.47 0.0 0 1 440.22 145.23
  Q 440.18 145.06 439.00 144.56
  Q 419.52 136.21 410.50 133.25
  Q 402.74 130.70 396.83 128.75
  Q 387.12 125.54 383.07 124.57
  Q 379.91 123.81 373.79 122.11
  Q 368.93 120.76 364.47 119.73
  Q 326.09 110.85 286.07 106.88
  Q 247.35 103.03 207.11 102.12
  Q 190.34 101.74 178.91 101.60
  Q 164.35 101.43 99.16 101.50
  Q 87.29 101.51 78.33 101.81
  Q 62.48 102.33 57.13 102.31
  Q 57.08 102.31 57.02 102.31
  L 52.01 101.52
  A 1.93 1.76 -25.7 0 1 51.41 101.34
  C 46.44 98.98 45.70 93.80 44.62 89.15
  A 0.40 0.40 0.0 0 1 45.03 88.65
  C 55.49 89.23 64.50 88.91 76.57 89.20
  Q 83.42 89.36 91.25 89.22
  C 93.08 89.18 95.14 89.63 96.92 89.50
  Q 98.40 89.38 116.30 89.62
  Q 173.90 90.36 257.83 91.27
  Q 311.64 91.84 323.16 92.47
  Q 353.13 94.11 388.03 100.22
  Q 456.95 112.29 521.44 136.93
  Q 526.10 138.72 538.30 143.74
  Q 544.29 146.21 548.12 148.27
  A 2.22 2.06 -28.0 0 0 549.03 148.51
  Q 549.11 148.52 549.20 148.51
  A 0.94 0.92 55.9 0 1 549.64 148.60
  C 553.16 150.30 556.63 152.38 560.23 153.65
  Q 561.96 154.25 563.27 155.29
  A 3.33 2.67 -6.3 0 0 563.82 155.64
  Q 590.92 168.94 609.24 182.29
  C 677.18 231.79 726.94 268.18 784.72 309.04
  Q 812.88 328.95 828.63 339.00
  Q 829.87 339.80 830.59 340.07
  A 3.93 3.80 -14.0 0 1 831.63 340.67
  Q 833.77 342.41 835.57 343.00
  Z"
/>
<path fill="#222c5a" d="
  M 1053.00 267.90
  L 1053.00 276.56
  Q 1050.85 275.08 1048.61 274.08
  A 5.21 4.85 73.6 0 1 1047.70 273.54
  Q 1040.63 268.25 1032.49 265.11
  C 1030.92 264.50 1027.96 264.10 1025.80 264.05
  Q 998.42 263.48 972.72 266.67
  Q 960.66 268.17 949.64 271.84
  C 942.67 274.16 937.74 277.22 930.83 281.52
  Q 926.53 284.20 921.54 285.45
  Q 920.26 285.77 917.97 285.89
  Q 914.89 286.05 914.38 286.26
  A 2.60 2.53 45.7 0 1 913.60 286.24
  L 908.38 285.43
  A 0.77 0.42 43.2 0 1 908.19 285.38
  Q 898.87 281.87 888.65 275.34
  C 874.02 265.99 861.45 256.88 845.84 245.27
  C 832.08 235.04 820.41 227.66 806.14 217.95
  Q 793.39 209.28 783.67 200.25
  Q 782.11 198.79 781.02 197.37
  C 779.90 195.91 778.49 194.86 777.16 193.10
  Q 771.94 186.22 769.35 179.41
  Q 766.85 172.85 766.75 165.51
  A 0.01 0.00 38.0 0 1 766.76 165.51
  L 777.21 176.30
  A 24.49 24.39 -8.2 0 0 783.47 180.97
  Q 785.22 181.89 788.74 183.41
  Q 793.08 185.28 804.12 187.05
  Q 828.74 191.00 855.78 190.51
  Q 856.04 190.51 857.33 190.56
  Q 865.13 190.84 883.12 190.66
  Q 925.58 190.22 941.91 190.63
  Q 950.15 190.84 956.87 192.84
  Q 962.11 194.39 964.28 199.57
  A 0.54 0.40 36.3 0 1 964.33 199.73
  L 965.34 207.54
  A 3.06 3.00 -60.4 0 0 965.51 208.18
  Q 967.02 211.91 968.46 213.17
  Q 970.48 214.93 972.74 215.75
  Q 973.45 216.01 974.54 216.59
  A 4.39 4.39 0.0 0 0 975.44 216.95
  Q 982.06 218.72 984.75 219.00
  Q 1005.61 221.14 1014.24 222.53
  Q 1020.18 223.49 1030.48 226.57
  A 0.80 0.78 0.2 0 1 1031.03 227.11
  Q 1031.19 227.64 1031.80 227.52
  Q 1032.37 227.40 1032.68 227.57
  Q 1039.88 231.50 1042.50 234.52
  Q 1048.71 241.69 1050.66 251.11
  Q 1052.38 259.39 1053.00 267.90
  Z
  M 913.58 213.11
  A 0.25 0.25 0.0 0 0 913.39 213.50
  L 917.77 219.56
  A 4.43 4.32 84.6 0 0 919.38 220.93
  L 928.67 225.59
  A 1.11 1.08 49.0 0 0 929.51 225.66
  Q 940.62 222.27 950.87 220.26
  C 953.87 219.67 957.24 219.61 960.00 219.46
  A 0.79 0.79 0.0 0 0 960.75 218.67
  L 960.75 216.81
  A 0.60 0.59 -87.4 0 0 960.21 216.21
  Q 937.16 213.73 936.12 213.66
  Q 920.97 212.70 913.58 213.11
  Z"
/>
<path fill="#178795" d="
  M 437.86 227.70
  Q 437.76 227.43 437.30 227.52
  A 1.73 1.70 52.6 0 1 436.17 227.36
  Q 430.81 224.56 427.23 223.01
  Q 400.51 211.39 369.54 202.43
  Q 316.30 187.02 263.74 182.77
  Q 240.10 180.86 216.00 180.45
  Q 191.18 180.02 171.00 180.34
  Q 131.21 180.98 92.89 181.05
  A 0.65 0.64 90.0 0 1 92.25 180.40
  L 92.25 169.40
  A 0.98 0.98 0.0 0 1 93.23 168.42
  Q 101.64 168.50 137.12 169.13
  Q 197.21 170.18 281.50 171.55
  Q 325.47 172.26 372.26 179.46
  Q 411.81 185.56 452.51 196.44
  Q 483.61 204.77 513.97 216.76
  Q 522.61 220.17 531.27 224.07
  Q 541.33 228.59 548.29 231.92
  Q 579.82 246.97 607.33 268.68
  Q 625.40 282.94 641.62 294.45
  Q 671.37 315.55 673.96 317.66
  Q 678.61 321.43 695.32 333.34
  Q 706.09 341.02 716.72 348.97
  Q 758.77 380.44 767.75 387.18
  Q 771.52 390.01 772.36 390.53
  A 0.95 0.95 0.0 0 1 772.63 391.92
  C 765.84 401.06 756.30 407.62 745.19 410.89
  Q 721.52 417.84 699.18 407.05
  Q 694.93 405.00 689.03 400.71
  Q 532.33 287.09 519.38 277.72
  C 500.26 263.87 484.21 253.15 465.25 242.24
  Q 457.56 237.81 454.75 236.57
  A 2.12 2.12 0.0 0 1 453.85 235.81
  Q 453.48 235.23 453.02 235.51
  A 0.64 0.63 63.7 0 1 452.10 235.19
  Q 451.69 234.15 450.83 234.55
  A 0.50 0.50 0.0 0 1 450.14 234.26
  Q 449.76 233.18 448.87 233.54
  A 0.57 0.56 -21.8 0 1 448.13 233.23
  Q 447.70 232.15 446.81 232.55
  A 0.52 0.52 0.0 0 1 446.10 232.22
  Q 445.85 231.38 445.17 231.51
  A 1.10 1.09 58.3 0 1 444.30 231.30
  Q 441.36 229.06 438.71 228.44
  A 1.20 1.19 85.7 0 1 437.86 227.70
  Z"
/>
<path fill="#000000" d="
  M 913.58 213.11
  Q 920.97 212.70 936.12 213.66
  Q 937.16 213.73 960.21 216.21
  A 0.60 0.59 -87.4 0 1 960.75 216.81
  L 960.75 218.67
  A 0.79 0.79 0.0 0 1 960.00 219.46
  C 957.24 219.61 953.87 219.67 950.87 220.26
  Q 940.62 222.27 929.51 225.66
  A 1.11 1.08 49.0 0 1 928.67 225.59
  L 919.38 220.93
  A 4.43 4.32 84.6 0 1 917.77 219.56
  L 913.39 213.50
  A 0.25 0.25 0.0 0 1 913.58 213.11
  Z"
/>
<path fill="#178795" d="
  M 712.12 439.26
  Q 698.08 448.85 684.19 455.42
  A 6.03 5.88 24.7 0 1 682.98 455.85
  Q 681.10 456.33 679.61 457.22
  A 4.16 3.96 -66.1 0 1 678.60 457.64
  Q 672.23 459.30 670.83 459.56
  Q 659.56 461.67 649.74 457.48
  Q 639.98 453.31 631.08 446.94
  Q 604.75 428.11 468.60 330.93
  Q 453.86 320.41 429.38 307.94
  Q 428.43 307.45 428.05 307.06
  Q 427.47 306.45 427.03 306.57
  Q 426.43 306.74 426.06 306.12
  Q 425.56 305.26 424.84 305.55
  A 0.55 0.54 69.1 0 1 424.11 305.22
  Q 423.89 304.56 423.09 304.56
  Q 422.63 304.55 422.03 304.26
  Q 418.65 302.60 413.81 300.13
  Q 410.55 298.46 405.40 296.36
  Q 400.98 294.55 395.28 292.01
  Q 393.05 291.02 383.51 287.50
  Q 360.43 278.99 336.40 273.42
  C 333.34 272.70 329.01 272.00 325.39 271.09
  Q 322.92 270.46 321.01 270.16
  Q 313.13 268.90 307.91 267.93
  Q 299.72 266.41 282.26 264.56
  Q 257.45 261.93 230.92 261.14
  Q 221.21 260.86 190.00 260.53
  Q 189.95 260.53 187.70 260.58
  Q 181.06 260.72 156.32 260.83
  Q 150.72 260.86 144.50 260.27
  Q 140.50 259.89 139.06 256.54
  Q 137.82 253.66 137.06 248.63
  A 0.54 0.54 0.0 0 1 137.59 248.01
  Q 138.22 248.00 180.57 247.99
  C 190.31 247.99 201.93 248.42 212.25 248.36
  Q 213.88 248.35 217.00 248.40
  Q 264.88 249.12 305.75 251.72
  Q 350.42 254.57 389.27 261.02
  Q 413.40 265.02 428.12 268.91
  Q 451.45 275.07 461.67 278.90
  Q 471.26 282.50 480.93 286.45
  Q 484.44 287.89 486.00 288.74
  C 488.39 290.06 490.71 290.53 492.82 291.64
  Q 497.28 294.00 500.65 295.40
  Q 505.27 297.32 508.57 299.00
  C 520.32 304.97 532.89 310.92 544.70 317.60
  C 574.71 334.56 603.40 355.36 631.04 376.12
  C 646.95 388.07 672.68 406.02 689.67 419.10
  Q 693.98 422.43 699.77 426.98
  Q 700.84 427.81 702.30 429.25
  A 5.92 5.86 85.1 0 0 703.03 429.87
  Q 708.06 433.41 712.23 438.48
  A 0.53 0.53 0.0 0 1 712.12 439.26
  Z"
/>
<path fill="#178795" d="
  M 651.78 480.05
  A 0.51 0.50 -52.9 0 1 651.88 480.78
  Q 650.00 483.18 646.76 486.01
  Q 641.76 490.37 635.11 495.61
  Q 631.56 498.41 627.37 500.71
  A 2.40 2.28 23.9 0 1 626.64 500.97
  Q 625.16 501.24 623.38 502.36
  A 2.17 2.14 25.1 0 1 622.51 502.67
  C 620.24 502.95 617.14 504.26 614.43 504.53
  Q 606.92 505.30 599.51 503.90
  Q 580.91 500.37 565.32 488.91
  Q 554.51 480.96 481.73 427.03
  Q 454.68 406.99 426.97 389.77
  Q 421.70 386.50 407.87 378.88
  Q 385.37 366.49 361.21 357.76
  Q 356.04 355.89 353.13 355.11
  C 349.46 354.12 346.24 352.80 342.25 351.80
  Q 328.67 348.40 326.52 347.97
  Q 291.00 340.91 255.04 340.24
  Q 247.53 340.10 234.48 340.62
  Q 214.20 341.42 213.92 341.43
  Q 205.45 341.81 197.49 340.87
  Q 194.46 340.51 191.01 339.20
  Q 183.52 336.33 181.58 328.02
  A 0.42 0.42 0.0 0 1 181.98 327.50
  Q 187.72 327.43 212.00 327.69
  Q 213.28 327.70 214.50 327.71
  Q 279.24 328.04 316.74 331.05
  Q 345.73 333.38 363.92 336.20
  Q 370.26 337.18 381.41 339.06
  C 390.22 340.55 398.13 342.42 407.74 344.52
  Q 412.56 345.57 423.76 348.87
  Q 425.12 349.27 428.31 350.02
  Q 429.82 350.38 431.33 350.93
  Q 433.42 351.71 434.29 351.97
  Q 446.88 355.78 455.26 359.06
  Q 459.01 360.52 462.55 361.86
  Q 475.52 366.75 481.87 370.17
  Q 482.69 370.62 483.25 370.53
  A 0.62 0.60 73.6 0 1 483.91 370.90
  Q 484.15 371.49 484.92 371.45
  Q 485.36 371.43 485.97 371.74
  Q 494.90 376.24 495.84 376.45
  C 496.98 376.70 497.21 377.39 498.26 377.90
  Q 509.31 383.28 521.02 389.99
  Q 542.01 402.03 562.96 416.81
  Q 590.14 435.98 651.78 480.05
  Z"
/>
</svg>
