<?xml version="1.0" encoding="UTF-8" standalone="no"?>
<!DOCTYPE svg PUBLIC "-//W3C//DTD SVG 1.1//EN" "http://www.w3.org/Graphics/SVG/1.1/DTD/svg11.dtd">
<svg xmlns="http://www.w3.org/2000/svg" version="1.1" viewBox="0.00 0.00 200.00 180.00">
<path fill="#e60012" d="
  M 79.56 1.13
  C 79.42 1.13 79.27 1.13 79.12 1.13
  C 79.26 1.11 79.42 1.12 79.56 1.13
  Z"
/>
<path fill="#e60012" d="
  M 0.00 65.03
  L 0.00 61.22
  C 3.17 24.03 45.97 5.69 77.46 1.41
  A 0.13 0.11 65.7 0 1 77.59 1.47
  L 77.76 1.77
  A 0.07 0.07 0.0 0 1 77.71 1.88
  Q 59.56 4.81 43.48 14.71
  C 25.91 25.52 14.02 44.29 21.93 65.05
  C 27.70 80.23 43.74 91.32 58.98 97.01
  C 64.62 99.12 74.25 102.09 82.84 105.97
  Q 93.57 110.82 99.61 119.92
  A 0.43 0.42 -46.3 0 0 100.33 119.90
  Q 105.11 112.01 114.83 107.06
  C 125.04 101.87 135.80 99.23 145.53 95.04
  C 165.07 86.62 184.82 68.28 179.68 44.54
  C 176.62 30.43 165.03 19.15 152.37 12.31
  Q 136.71 3.84 118.75 1.20
  A 0.17 0.17 0.0 0 1 118.60 1.01
  L 118.60 1.00
  A 0.17 0.16 5.5 0 1 118.78 0.86
  Q 136.82 3.00 153.55 9.67
  C 167.44 15.21 181.18 23.90 190.27 36.07
  C 205.54 56.52 201.69 81.91 182.95 98.46
  Q 170.70 109.27 156.11 115.12
  C 143.57 120.13 134.19 123.78 124.04 131.02
  Q 105.38 144.30 100.05 166.66
  A 0.18 0.18 0.0 0 1 99.70 166.66
  C 94.71 144.92 78.85 129.99 58.87 121.37
  Q 53.21 118.93 42.95 114.81
  Q 35.73 111.92 26.35 105.90
  C 11.92 96.64 1.18 82.71 0.00 65.03
  Z"
/>
<path fill="#e60012" d="
  M 99.89 89.23
  Q 100.02 89.23 100.12 89.14
  C 106.63 83.79 116.35 83.19 122.99 81.49
  C 139.85 77.16 160.21 67.23 164.09 48.40
  C 166.66 35.91 159.61 24.28 149.59 16.86
  Q 138.47 8.63 123.92 4.97
  A 0.16 0.16 0.0 0 1 123.80 4.77
  L 123.80 4.76
  A 0.14 0.14 0.0 0 1 123.97 4.65
  Q 136.45 7.11 148.47 13.79
  C 162.68 21.68 174.51 34.92 172.77 51.84
  C 170.71 71.88 148.52 84.05 131.38 89.64
  Q 125.54 91.55 115.49 94.46
  C 109.24 96.27 104.18 98.47 100.08 103.75
  A 0.16 0.09 7.3 0 1 99.96 103.80
  Q 99.93 103.80 99.89 103.80
  Q 99.84 103.80 99.81 103.80
  A 0.16 0.09 -7.3 0 1 99.69 103.75
  C 95.59 98.47 90.53 96.27 84.28 94.46
  Q 74.23 91.54 68.39 89.63
  C 51.26 84.04 29.07 71.87 27.01 51.83
  C 25.28 34.90 37.11 21.67 51.32 13.78
  Q 63.34 7.10 75.82 4.65
  A 0.14 0.14 0.0 0 1 75.99 4.76
  L 75.99 4.77
  A 0.16 0.16 0.0 0 1 75.87 4.97
  Q 61.32 8.62 50.20 16.85
  C 40.18 24.27 33.13 35.90 35.69 48.39
  C 39.57 67.22 59.93 77.15 76.79 81.49
  C 83.43 83.19 93.15 83.79 99.65 89.14
  Q 99.76 89.23 99.89 89.23
  Z"
/>
<path fill="#e60012" d="
  M 75.69 7.34
  A 0.21 0.21 0.0 0 1 75.94 7.48
  L 75.97 7.58
  A 0.07 0.06 70.3 0 1 75.93 7.67
  Q 67.27 10.36 60.32 15.92
  Q 52.58 22.13 50.22 29.92
  C 45.11 46.86 61.16 59.76 75.72 64.67
  Q 98.40 72.31 122.06 65.31
  C 133.49 61.93 145.61 54.26 149.50 42.61
  C 155.12 25.78 138.65 12.77 125.01 7.91
  A 0.17 0.17 0.0 0 1 124.90 7.70
  A 0.14 0.14 0.0 0 1 125.07 7.61
  Q 131.90 9.37 139.62 14.12
  C 153.91 22.94 163.10 38.99 151.97 54.50
  C 144.12 65.43 129.56 72.19 116.39 74.36
  C 110.88 75.26 104.33 75.43 100.37 78.67
  A 0.69 0.68 -47.3 0 1 99.55 78.71
  Q 96.13 76.39 94.35 76.14
  Q 88.08 75.24 82.32 74.15
  C 67.78 71.40 48.76 62.39 44.09 46.91
  C 37.95 26.54 58.98 11.84 75.69 7.34
  Z"
/>
<circle fill="#e60012" cx="99.89" cy="30.15" r="19.07"/>
<path fill="#e60012" d="
  M 47.04 149.19
  A 0.20 0.20 0.0 0 1 47.28 148.88
  C 58.90 155.34 58.83 170.47 47.34 176.85
  C 36.47 182.89 22.26 179.53 14.91 169.79
  C 7.49 159.96 8.39 146.81 16.53 137.48
  C 24.61 128.22 39.16 125.37 50.90 127.61
  C 73.70 131.95 91.41 150.92 98.49 172.31
  A 0.20 0.20 0.0 0 1 98.13 172.49
  C 89.35 160.21 76.32 148.34 61.82 143.98
  C 53.45 141.46 40.94 141.40 35.52 149.25
  C 32.37 153.81 32.93 159.99 38.10 162.65
  C 46.49 166.97 53.73 156.17 47.04 149.19
  Z"
/>
<path fill="#e60012" d="
  M 152.53 149.22
  C 145.85 156.23 153.13 167.03 161.52 162.68
  C 166.69 160.00 167.23 153.81 164.06 149.25
  C 158.61 141.40 146.08 141.50 137.71 144.05
  C 123.20 148.45 110.18 160.38 101.42 172.70
  A 0.20 0.20 0.0 0 1 101.06 172.53
  C 108.09 151.08 125.77 132.03 148.60 127.62
  C 160.35 125.34 174.93 128.15 183.05 137.41
  C 191.23 146.73 192.17 159.90 184.77 169.76
  C 177.43 179.54 163.21 182.95 152.30 176.93
  C 140.78 170.57 140.66 155.42 152.28 148.91
  A 0.20 0.20 0.0 0 1 152.53 149.22
  Z"
/>
</svg>
