<?xml version="1.0" encoding="UTF-8" standalone="no"?>
<!DOCTYPE svg PUBLIC "-//W3C//DTD SVG 1.1//EN" "http://www.w3.org/Graphics/SVG/1.1/DTD/svg11.dtd">
<svg xmlns="http://www.w3.org/2000/svg" version="1.1" viewBox="0.00 0.00 200.00 200.00">
<g stroke-width="2.00" fill="none" stroke-linecap="butt">
<path stroke="#a99bc5" vector-effect="non-scaling-stroke" d="
  M 85.38 52.61
  C 92.74 47.90 104.30 45.42 110.98 52.66"
/>
<path stroke="#efc9bd" vector-effect="non-scaling-stroke" d="
  M 110.98 52.66
  L 109.15 59.38
  A 3.63 3.57 -15.3 0 1 108.22 60.98
  L 107.06 62.13
  A 0.54 0.54 0.0 0 0 107.24 63.01
  Q 111.90 64.94 113.41 69.49
  Q 114.50 72.76 115.43 73.89
  Q 119.61 78.98 126.42 75.28
  A 0.36 0.36 0.0 0 1 126.88 75.81
  Q 123.58 80.17 118.12 79.24
  A 0.43 0.42 -80.6 0 0 117.63 79.60
  Q 117.01 83.32 118.78 86.74"
/>
<path stroke="#a99bc5" vector-effect="non-scaling-stroke" d="
  M 118.78 86.74
  Q 118.40 97.52 112.63 106.31
  A 0.45 0.44 5.0 0 0 113.18 106.96
  Q 118.13 104.84 120.81 101.20
  A 0.52 0.52 0.0 0 1 121.74 101.44
  C 122.24 105.08 122.47 110.96 122.26 114.88
  Q 120.55 146.54 107.84 175.12
  Q 107.75 175.33 106.36 177.95
  A 0.38 0.37 87.0 0 0 106.90 178.44
  Q 118.77 170.12 133.64 166.57
  C 147.50 163.25 161.16 159.15 170.93 148.71
  C 181.75 137.16 185.21 117.48 165.97 111.14
  A 0.45 0.45 0.0 0 1 166.12 110.27
  Q 174.31 110.41 180.98 115.58
  A 1.27 1.27 0.0 0 0 182.69 115.44
  Q 184.78 113.20 186.00 109.99
  Q 193.17 91.13 181.20 75.15
  A 1.21 1.20 -60.4 0 1 180.96 74.27
  Q 181.56 68.81 179.37 63.52"
/>
<path stroke="#efc9bd" vector-effect="non-scaling-stroke" d="
  M 179.37 63.52
  Q 180.54 61.43 180.88 58.93
  Q 181.17 56.90 180.44 54.17
  Q 179.04 48.94 179.07 44.98
  A 0.65 0.64 -2.8 0 0 178.36 44.34
  Q 176.07 44.55 169.61 41.02
  Q 162.11 36.93 157.24 42.99
  A 0.37 0.37 0.0 0 1 156.60 42.64
  Q 157.51 39.96 159.85 37.91
  A 1.62 1.61 -35.2 0 0 160.20 35.92
  C 158.15 32.13 153.81 30.71 149.38 30.30
  Q 144.80 29.89 140.62 28.20
  A 0.65 0.64 -64.3 0 0 139.81 28.49
  Q 139.18 29.60 138.39 29.71"
/>
<path stroke="#d2a0c6" vector-effect="non-scaling-stroke" d="
  M 138.39 29.71
  Q 136.01 27.07 133.11 25.13
  C 119.63 16.10 103.03 12.01 86.98 15.51
  Q 72.55 18.65 65.13 26.65
  A 1.29 1.28 21.1 0 1 64.22 27.05
  Q 52.07 27.29 43.69 33.31
  Q 28.73 44.07 21.73 62.25
  A 0.91 0.91 0.0 0 0 22.92 63.42
  Q 29.68 60.70 36.82 61.54
  A 0.47 0.46 -47.0 0 1 36.85 62.46
  Q 31.36 63.49 26.84 65.95
  C 20.04 69.65 14.10 78.85 12.37 85.67
  Q 8.51 100.90 16.59 114.47
  A 1.50 1.49 -33.5 0 0 18.77 114.91
  Q 24.67 110.54 32.51 110.34
  A 0.43 0.43 0.0 0 1 32.67 111.17
  C 26.15 113.57 19.68 117.60 20.38 125.58
  C 21.35 136.48 30.13 146.56 38.64 153.40
  Q 44.22 157.89 49.27 159.81
  A 0.88 0.88 0.0 0 0 50.46 158.94
  Q 49.93 149.82 55.22 142.72
  A 0.44 0.44 0.0 0 1 56.00 143.12
  C 52.41 154.37 54.85 166.21 67.83 169.20
  C 80.74 172.18 91.29 173.52 98.69 184.56
  A 0.56 0.55 -50.6 0 0 99.66 184.46
  C 105.10 171.25 103.72 159.00 98.19 145.95
  A 0.64 0.63 61.8 0 1 98.42 145.17
  C 104.67 140.90 109.09 138.14 112.54 131.06
  Q 112.95 130.21 112.58 129.71
  A 0.29 0.28 57.8 0 0 112.21 129.62
  Q 94.19 139.18 73.30 135.77
  Q 68.26 134.95 67.00 133.41
  C 63.87 129.57 67.61 125.66 68.06 122.25
  A 2.72 2.65 -54.0 0 0 67.85 120.80
  L 66.96 118.78
  A 1.36 1.35 -44.7 0 1 66.97 117.66
  C 68.86 113.54 76.28 113.97 80.38 114.17
  Q 81.50 114.23 81.43 112.17
  A 1.23 1.22 76.1 0 0 79.67 111.10
  Q 79.44 111.21 79.42 111.23
  A 2.33 2.29 39.4 0 1 77.86 111.37
  Q 76.90 111.12 73.14 109.97
  C 70.17 109.06 68.89 109.42 67.07 111.81
  A 0.52 0.52 0.0 0 1 66.16 111.33
  Q 66.75 109.58 67.59 108.50
  A 2.32 2.32 0.0 0 0 67.10 105.19
  C 64.74 103.50 60.06 100.57 63.60 97.34
  C 67.85 93.44 73.38 88.38 75.04 83.33
  A 3.23 3.21 38.2 0 0 74.71 80.60
  L 72.90 77.72
  A 2.76 2.75 -46.7 0 1 72.82 74.93
  L 74.56 71.80
  A 6.76 6.54 -23.0 0 0 75.09 70.55
  Q 76.84 64.94 78.13 62.12
  Q 80.65 56.60 85.38 52.61"
/>
<path stroke="#c26a84" vector-effect="non-scaling-stroke" d="
  M 138.39 29.71
  L 136.86 31.05"
/>
<path stroke="#7c3c8c" vector-effect="non-scaling-stroke" d="
  M 136.86 31.05
  Q 129.06 30.19 121.51 30.36
  C 110.29 30.61 91.53 33.67 86.92 45.96
  Q 86.42 47.29 85.38 52.61"
/>
<path stroke="#996483" vector-effect="non-scaling-stroke" d="
  M 179.37 63.52
  L 175.95 66.11
  A 0.66 0.65 -41.4 0 1 175.10 66.06
  Q 172.50 63.48 168.71 63.17
  A 0.44 0.44 0.0 0 0 168.50 64.02
  Q 175.63 67.09 175.35 75.01
  Q 175.22 78.98 174.39 80.69
  Q 172.60 84.38 172.59 87.36
  A 0.44 0.44 0.0 0 1 172.00 87.78
  Q 170.21 87.16 163.86 88.29
  C 157.48 89.43 149.19 86.99 147.61 79.69
  A 0.32 0.32 0.0 0 0 146.98 79.70
  C 146.62 81.65 146.74 84.39 147.94 86.12
  Q 148.45 86.85 148.46 87.26
  A 2.01 1.96 -31.7 0 1 148.21 88.26
  C 144.98 94.14 135.58 95.60 129.77 95.39
  A 1.19 1.19 0.0 0 1 128.89 94.95
  L 127.60 93.34
  A 1.40 1.17 83.7 0 0 127.38 93.13
  L 118.78 86.74"
/>
<path stroke="#996483" vector-effect="non-scaling-stroke" d="
  M 110.98 52.66
  C 114.11 47.48 117.53 43.92 124.15 44.61
  A 1.32 1.30 78.8 0 1 125.18 45.31
  Q 126.84 48.56 130.86 49.76
  A 0.27 0.27 0.0 0 0 131.16 49.35
  Q 130.81 48.85 130.02 48.17
  C 127.35 45.91 126.69 42.41 127.88 39.32
  C 129.02 36.38 134.06 33.40 136.86 31.05"
/>
<path stroke="#d2a0c6" vector-effect="non-scaling-stroke" d="
  M 80.98 75.58
  Q 80.36 76.58 80.22 77.31
  A 1.62 1.59 34.7 0 0 80.44 78.47
  L 81.87 80.75
  A 1.02 0.99 -46.9 0 1 81.89 81.80
  L 81.52 82.44
  A 0.44 0.44 0.0 0 0 81.89 83.10
  C 84.07 83.12 85.87 81.00 87.11 79.13
  A 1.56 1.53 11.8 0 1 88.15 78.46
  Q 90.60 78.05 92.73 78.62
  A 0.46 0.46 0.0 0 0 93.13 77.80
  Q 91.14 76.32 88.16 76.49
  A 0.47 0.47 0.0 0 1 87.68 76.14
  L 87.60 75.83
  A 0.37 0.37 0.0 0 1 87.87 75.38
  L 90.23 74.76
  A 0.35 0.35 0.0 0 0 90.31 74.11
  C 88.08 72.89 85.83 73.24 82.53 73.40
  A 1.09 1.09 0.0 0 1 81.53 71.78
  C 83.30 68.66 86.62 68.45 90.04 68.43
  A 0.52 0.52 0.0 0 0 90.22 67.43
  Q 83.42 64.86 78.06 69.81
  Q 76.27 71.46 76.16 73.84
  A 1.40 1.39 -6.0 0 0 77.91 75.25
  L 80.28 74.63
  A 0.64 0.64 0.0 0 1 80.98 75.58"
/>
<path stroke="#d2a0c6" vector-effect="non-scaling-stroke" d="
  M 65.90 102.04
  L 70.80 104.87
  A 2.49 2.41 -31.2 0 0 72.19 105.19
  Q 74.67 105.02 74.94 102.21
  A 0.53 0.52 76.9 0 0 74.14 101.71
  C 71.97 103.05 69.60 101.99 66.27 101.14
  A 0.49 0.49 0.0 0 0 65.90 102.04"
/>
<path stroke="#996483" vector-effect="non-scaling-stroke" d="
  M 142.36 57.51
  L 136.96 57.03
  A 1.24 1.21 69.9 0 1 136.19 56.66
  Q 134.68 55.11 132.76 56.08
  A 1.87 1.70 -33.3 0 0 132.06 58.80
  Q 134.10 61.15 136.58 58.98
  A 1.30 1.26 -64.7 0 1 137.46 58.65
  Q 143.40 58.79 147.64 61.76
  A 0.27 0.27 0.0 0 1 147.72 62.12
  L 147.55 62.42
  A 0.29 0.28 -62.9 0 1 147.19 62.54
  C 142.56 60.67 138.01 60.21 133.66 62.73
  A 0.39 0.39 0.0 0 0 133.83 63.45
  Q 135.81 63.56 137.32 64.44
  A 0.61 0.60 -45.3 0 1 137.32 65.48
  Q 134.58 67.12 133.71 70.96
  A 0.47 0.47 0.0 0 0 134.50 71.39
  L 137.86 68.03
  A 0.56 0.56 0.0 0 1 138.80 68.58
  Q 138.27 70.38 138.44 72.16
  A 0.36 0.36 0.0 0 0 139.10 72.33
  C 141.61 68.66 144.45 67.45 149.29 64.83
  Q 151.02 63.89 153.05 60.82
  C 154.82 58.15 153.99 53.89 156.19 51.21
  A 0.39 0.39 0.0 0 0 155.73 50.60
  Q 153.40 51.59 150.68 54.90
  A 0.56 0.55 42.8 0 1 149.84 54.93
  Q 148.28 53.24 148.32 51.32
  A 0.41 0.41 0.0 0 0 147.55 51.11
  L 145.22 55.14
  A 0.27 0.27 0.0 0 1 144.72 55.07
  L 144.20 53.09
  A 0.34 0.33 -32.7 0 0 143.62 52.97
  Q 142.29 54.61 142.80 57.01
  A 0.41 0.41 0.0 0 1 142.36 57.51"
/>
</g>
<path fill="#ffffff" d="
  M 178.76 117.62
  Q 182.16 122.64 182.27 127.25
  C 182.82 149.98 160.82 162.58 141.66 167.38
  C 128.72 170.62 119.11 173.47 108.37 180.87
  Q 106.33 182.27 104.31 180.18
  A 0.34 0.34 0.0 0 0 103.73 180.34
  Q 102.91 183.83 101.62 186.20
  C 100.64 187.99 98.39 188.59 97.30 186.92
  Q 91.01 177.24 79.31 174.66
  C 69.59 172.51 57.31 171.14 53.72 160.86
  Q 53.37 159.87 53.33 159.82
  A 0.35 0.35 0.0 0 0 52.74 160.03
  C 52.38 163.66 48.29 162.58 45.98 161.33
  Q 29.72 152.57 21.16 136.60
  C 18.41 131.47 16.49 122.81 20.04 117.79
  A 0.20 0.20 0.0 0 0 19.81 117.48
  C 17.03 118.44 15.24 117.24 13.86 114.63
  Q 4.91 97.68 11.81 80.85
  Q 14.57 74.13 22.05 66.54
  A 0.30 0.29 31.4 0 0 21.93 66.05
  Q 18.25 64.83 19.97 60.70
  C 27.16 43.43 42.80 24.95 63.33 25.15
  A 1.35 1.34 -65.3 0 0 64.21 24.82
  Q 69.72 19.92 73.39 18.17
  Q 95.12 7.82 118.08 15.38
  Q 129.65 19.19 137.93 26.20
  A 0.70 0.69 -45.3 0 0 138.85 26.19
  Q 139.10 25.97 139.33 25.32
  A 0.54 0.54 0.0 0 1 140.09 25.02
  Q 140.50 25.23 140.90 25.67
  C 142.18 27.03 145.22 27.69 147.11 27.88
  C 153.85 28.56 160.38 29.72 162.85 36.72
  A 0.86 0.85 81.8 0 0 163.61 37.29
  Q 168.56 37.58 173.77 40.82
  Q 174.89 41.52 176.04 41.86
  C 178.40 42.55 179.68 41.85 181.40 41.58
  A 0.45 0.45 0.0 0 1 181.91 42.10
  Q 180.99 47.41 183.18 55.30
  Q 184.18 58.89 182.34 63.20
  A 1.85 1.84 -43.8 0 0 182.31 64.55
  Q 183.98 69.19 183.56 73.66
  A 1.73 1.73 0.0 0 0 183.89 74.87
  C 192.59 86.78 193.97 103.84 185.56 116.23
  Q 184.11 118.37 181.51 118.54
  A 0.91 0.90 -31.5 0 1 180.99 118.42
  L 179.06 117.30
  A 0.23 0.22 -2.0 0 0 178.76 117.62
  Z
  M 85.38 52.61
  C 92.74 47.90 104.30 45.42 110.98 52.66
  L 109.15 59.38
  A 3.63 3.57 -15.3 0 1 108.22 60.98
  L 107.06 62.13
  A 0.54 0.54 0.0 0 0 107.24 63.01
  Q 111.90 64.94 113.41 69.49
  Q 114.50 72.76 115.43 73.89
  Q 119.61 78.98 126.42 75.28
  A 0.36 0.36 0.0 0 1 126.88 75.81
  Q 123.58 80.17 118.12 79.24
  A 0.43 0.42 -80.6 0 0 117.63 79.60
  Q 117.01 83.32 118.78 86.74
  Q 118.40 97.52 112.63 106.31
  A 0.45 0.44 5.0 0 0 113.18 106.96
  Q 118.13 104.84 120.81 101.20
  A 0.52 0.52 0.0 0 1 121.74 101.44
  C 122.24 105.08 122.47 110.96 122.26 114.88
  Q 120.55 146.54 107.84 175.12
  Q 107.75 175.33 106.36 177.95
  A 0.38 0.37 87.0 0 0 106.90 178.44
  Q 118.77 170.12 133.64 166.57
  C 147.50 163.25 161.16 159.15 170.93 148.71
  C 181.75 137.16 185.21 117.48 165.97 111.14
  A 0.45 0.45 0.0 0 1 166.12 110.27
  Q 174.31 110.41 180.98 115.58
  A 1.27 1.27 0.0 0 0 182.69 115.44
  Q 184.78 113.20 186.00 109.99
  Q 193.17 91.13 181.20 75.15
  A 1.21 1.20 -60.4 0 1 180.96 74.27
  Q 181.56 68.81 179.37 63.52
  Q 180.54 61.43 180.88 58.93
  Q 181.17 56.90 180.44 54.17
  Q 179.04 48.94 179.07 44.98
  A 0.65 0.64 -2.8 0 0 178.36 44.34
  Q 176.07 44.55 169.61 41.02
  Q 162.11 36.93 157.24 42.99
  A 0.37 0.37 0.0 0 1 156.60 42.64
  Q 157.51 39.96 159.85 37.91
  A 1.62 1.61 -35.2 0 0 160.20 35.92
  C 158.15 32.13 153.81 30.71 149.38 30.30
  Q 144.80 29.89 140.62 28.20
  A 0.65 0.64 -64.3 0 0 139.81 28.49
  Q 139.18 29.60 138.39 29.71
  Q 136.01 27.07 133.11 25.13
  C 119.63 16.10 103.03 12.01 86.98 15.51
  Q 72.55 18.65 65.13 26.65
  A 1.29 1.28 21.1 0 1 64.22 27.05
  Q 52.07 27.29 43.69 33.31
  Q 28.73 44.07 21.73 62.25
  A 0.91 0.91 0.0 0 0 22.92 63.42
  Q 29.68 60.70 36.82 61.54
  A 0.47 0.46 -47.0 0 1 36.85 62.46
  Q 31.36 63.49 26.84 65.95
  C 20.04 69.65 14.10 78.85 12.37 85.67
  Q 8.51 100.90 16.59 114.47
  A 1.50 1.49 -33.5 0 0 18.77 114.91
  Q 24.67 110.54 32.51 110.34
  A 0.43 0.43 0.0 0 1 32.67 111.17
  C 26.15 113.57 19.68 117.60 20.38 125.58
  C 21.35 136.48 30.13 146.56 38.64 153.40
  Q 44.22 157.89 49.27 159.81
  A 0.88 0.88 0.0 0 0 50.46 158.94
  Q 49.93 149.82 55.22 142.72
  A 0.44 0.44 0.0 0 1 56.00 143.12
  C 52.41 154.37 54.85 166.21 67.83 169.20
  C 80.74 172.18 91.29 173.52 98.69 184.56
  A 0.56 0.55 -50.6 0 0 99.66 184.46
  C 105.10 171.25 103.72 159.00 98.19 145.95
  A 0.64 0.63 61.8 0 1 98.42 145.17
  C 104.67 140.90 109.09 138.14 112.54 131.06
  Q 112.95 130.21 112.58 129.71
  A 0.29 0.28 57.8 0 0 112.21 129.62
  Q 94.19 139.18 73.30 135.77
  Q 68.26 134.95 67.00 133.41
  C 63.87 129.57 67.61 125.66 68.06 122.25
  A 2.72 2.65 -54.0 0 0 67.85 120.80
  L 66.96 118.78
  A 1.36 1.35 -44.7 0 1 66.97 117.66
  C 68.86 113.54 76.28 113.97 80.38 114.17
  Q 81.50 114.23 81.43 112.17
  A 1.23 1.22 76.1 0 0 79.67 111.10
  Q 79.44 111.21 79.42 111.23
  A 2.33 2.29 39.4 0 1 77.86 111.37
  Q 76.90 111.12 73.14 109.97
  C 70.17 109.06 68.89 109.42 67.07 111.81
  A 0.52 0.52 0.0 0 1 66.16 111.33
  Q 66.75 109.58 67.59 108.50
  A 2.32 2.32 0.0 0 0 67.10 105.19
  C 64.74 103.50 60.06 100.57 63.60 97.34
  C 67.85 93.44 73.38 88.38 75.04 83.33
  A 3.23 3.21 38.2 0 0 74.71 80.60
  L 72.90 77.72
  A 2.76 2.75 -46.7 0 1 72.82 74.93
  L 74.56 71.80
  A 6.76 6.54 -23.0 0 0 75.09 70.55
  Q 76.84 64.94 78.13 62.12
  Q 80.65 56.60 85.38 52.61
  Z
  M 80.98 75.58
  Q 80.36 76.58 80.22 77.31
  A 1.62 1.59 34.7 0 0 80.44 78.47
  L 81.87 80.75
  A 1.02 0.99 -46.9 0 1 81.89 81.80
  L 81.52 82.44
  A 0.44 0.44 0.0 0 0 81.89 83.10
  C 84.07 83.12 85.87 81.00 87.11 79.13
  A 1.56 1.53 11.8 0 1 88.15 78.46
  Q 90.60 78.05 92.73 78.62
  A 0.46 0.46 0.0 0 0 93.13 77.80
  Q 91.14 76.32 88.16 76.49
  A 0.47 0.47 0.0 0 1 87.68 76.14
  L 87.60 75.83
  A 0.37 0.37 0.0 0 1 87.87 75.38
  L 90.23 74.76
  A 0.35 0.35 0.0 0 0 90.31 74.11
  C 88.08 72.89 85.83 73.24 82.53 73.40
  A 1.09 1.09 0.0 0 1 81.53 71.78
  C 83.30 68.66 86.62 68.45 90.04 68.43
  A 0.52 0.52 0.0 0 0 90.22 67.43
  Q 83.42 64.86 78.06 69.81
  Q 76.27 71.46 76.16 73.84
  A 1.40 1.39 -6.0 0 0 77.91 75.25
  L 80.28 74.63
  A 0.64 0.64 0.0 0 1 80.98 75.58
  Z
  M 65.90 102.04
  L 70.80 104.87
  A 2.49 2.41 -31.2 0 0 72.19 105.19
  Q 74.67 105.02 74.94 102.21
  A 0.53 0.52 76.9 0 0 74.14 101.71
  C 71.97 103.05 69.60 101.99 66.27 101.14
  A 0.49 0.49 0.0 0 0 65.90 102.04
  Z"
/>
<path fill="#a5418d" d="
  M 138.39 29.71
  L 136.86 31.05
  Q 129.06 30.19 121.51 30.36
  C 110.29 30.61 91.53 33.67 86.92 45.96
  Q 86.42 47.29 85.38 52.61
  Q 80.65 56.60 78.13 62.12
  Q 76.84 64.94 75.09 70.55
  A 6.76 6.54 -23.0 0 1 74.56 71.80
  L 72.82 74.93
  A 2.76 2.75 -46.7 0 0 72.90 77.72
  L 74.71 80.60
  A 3.23 3.21 38.2 0 1 75.04 83.33
  C 73.38 88.38 67.85 93.44 63.60 97.34
  C 60.06 100.57 64.74 103.50 67.10 105.19
  A 2.32 2.32 0.0 0 1 67.59 108.50
  Q 66.75 109.58 66.16 111.33
  A 0.52 0.52 0.0 0 0 67.07 111.81
  C 68.89 109.42 70.17 109.06 73.14 109.97
  Q 76.90 111.12 77.86 111.37
  A 2.33 2.29 39.4 0 0 79.42 111.23
  Q 79.44 111.21 79.67 111.10
  A 1.23 1.22 76.1 0 1 81.43 112.17
  Q 81.50 114.23 80.38 114.17
  C 76.28 113.97 68.86 113.54 66.97 117.66
  A 1.36 1.35 -44.7 0 0 66.96 118.78
  L 67.85 120.80
  A 2.72 2.65 -54.0 0 1 68.06 122.25
  C 67.61 125.66 63.87 129.57 67.00 133.41
  Q 68.26 134.95 73.30 135.77
  Q 94.19 139.18 112.21 129.62
  A 0.29 0.28 57.8 0 1 112.58 129.71
  Q 112.95 130.21 112.54 131.06
  C 109.09 138.14 104.67 140.90 98.42 145.17
  A 0.64 0.63 61.8 0 0 98.19 145.95
  C 103.72 159.00 105.10 171.25 99.66 184.46
  A 0.56 0.55 -50.6 0 1 98.69 184.56
  C 91.29 173.52 80.74 172.18 67.83 169.20
  C 54.85 166.21 52.41 154.37 56.00 143.12
  A 0.44 0.44 0.0 0 0 55.22 142.72
  Q 49.93 149.82 50.46 158.94
  A 0.88 0.88 0.0 0 1 49.27 159.81
  Q 44.22 157.89 38.64 153.40
  C 30.13 146.56 21.35 136.48 20.38 125.58
  C 19.68 117.60 26.15 113.57 32.67 111.17
  A 0.43 0.43 0.0 0 0 32.51 110.34
  Q 24.67 110.54 18.77 114.91
  A 1.50 1.49 -33.5 0 1 16.59 114.47
  Q 8.51 100.90 12.37 85.67
  C 14.10 78.85 20.04 69.65 26.84 65.95
  Q 31.36 63.49 36.85 62.46
  A 0.47 0.46 -47.0 0 0 36.82 61.54
  Q 29.68 60.70 22.92 63.42
  A 0.91 0.91 0.0 0 1 21.73 62.25
  Q 28.73 44.07 43.69 33.31
  Q 52.07 27.29 64.22 27.05
  A 1.29 1.28 21.1 0 0 65.13 26.65
  Q 72.55 18.65 86.98 15.51
  C 103.03 12.01 119.63 16.10 133.11 25.13
  Q 136.01 27.07 138.39 29.71
  Z"
/>
<path fill="#df927b" d="
  M 179.37 63.52
  L 175.95 66.11
  A 0.66 0.65 -41.4 0 1 175.10 66.06
  Q 172.50 63.48 168.71 63.17
  A 0.44 0.44 0.0 0 0 168.50 64.02
  Q 175.63 67.09 175.35 75.01
  Q 175.22 78.98 174.39 80.69
  Q 172.60 84.38 172.59 87.36
  A 0.44 0.44 0.0 0 1 172.00 87.78
  Q 170.21 87.16 163.86 88.29
  C 157.48 89.43 149.19 86.99 147.61 79.69
  A 0.32 0.32 0.0 0 0 146.98 79.70
  C 146.62 81.65 146.74 84.39 147.94 86.12
  Q 148.45 86.85 148.46 87.26
  A 2.01 1.96 -31.7 0 1 148.21 88.26
  C 144.98 94.14 135.58 95.60 129.77 95.39
  A 1.19 1.19 0.0 0 1 128.89 94.95
  L 127.60 93.34
  A 1.40 1.17 83.7 0 0 127.38 93.13
  L 118.78 86.74
  Q 117.01 83.32 117.63 79.60
  A 0.43 0.42 -80.6 0 1 118.12 79.24
  Q 123.58 80.17 126.88 75.81
  A 0.36 0.36 0.0 0 0 126.42 75.28
  Q 119.61 78.98 115.43 73.89
  Q 114.50 72.76 113.41 69.49
  Q 111.90 64.94 107.24 63.01
  A 0.54 0.54 0.0 0 1 107.06 62.13
  L 108.22 60.98
  A 3.63 3.57 -15.3 0 0 109.15 59.38
  L 110.98 52.66
  C 114.11 47.48 117.53 43.92 124.15 44.61
  A 1.32 1.30 78.8 0 1 125.18 45.31
  Q 126.84 48.56 130.86 49.76
  A 0.27 0.27 0.0 0 0 131.16 49.35
  Q 130.81 48.85 130.02 48.17
  C 127.35 45.91 126.69 42.41 127.88 39.32
  C 129.02 36.38 134.06 33.40 136.86 31.05
  L 138.39 29.71
  Q 139.18 29.60 139.81 28.49
  A 0.65 0.64 -64.3 0 1 140.62 28.20
  Q 144.80 29.89 149.38 30.30
  C 153.81 30.71 158.15 32.13 160.20 35.92
  A 1.62 1.61 -35.2 0 1 159.85 37.91
  Q 157.51 39.96 156.60 42.64
  A 0.37 0.37 0.0 0 0 157.24 42.99
  Q 162.11 36.93 169.61 41.02
  Q 176.07 44.55 178.36 44.34
  A 0.65 0.64 -2.8 0 1 179.07 44.98
  Q 179.04 48.94 180.44 54.17
  Q 181.17 56.90 180.88 58.93
  Q 180.54 61.43 179.37 63.52
  Z
  M 142.36 57.51
  L 136.96 57.03
  A 1.24 1.21 69.9 0 1 136.19 56.66
  Q 134.68 55.11 132.76 56.08
  A 1.87 1.70 -33.3 0 0 132.06 58.80
  Q 134.10 61.15 136.58 58.98
  A 1.30 1.26 -64.7 0 1 137.46 58.65
  Q 143.40 58.79 147.64 61.76
  A 0.27 0.27 0.0 0 1 147.72 62.12
  L 147.55 62.42
  A 0.29 0.28 -62.9 0 1 147.19 62.54
  C 142.56 60.67 138.01 60.21 133.66 62.73
  A 0.39 0.39 0.0 0 0 133.83 63.45
  Q 135.81 63.56 137.32 64.44
  A 0.61 0.60 -45.3 0 1 137.32 65.48
  Q 134.58 67.12 133.71 70.96
  A 0.47 0.47 0.0 0 0 134.50 71.39
  L 137.86 68.03
  A 0.56 0.56 0.0 0 1 138.80 68.58
  Q 138.27 70.38 138.44 72.16
  A 0.36 0.36 0.0 0 0 139.10 72.33
  C 141.61 68.66 144.45 67.45 149.29 64.83
  Q 151.02 63.89 153.05 60.82
  C 154.82 58.15 153.99 53.89 156.19 51.21
  A 0.39 0.39 0.0 0 0 155.73 50.60
  Q 153.40 51.59 150.68 54.90
  A 0.56 0.55 42.8 0 1 149.84 54.93
  Q 148.28 53.24 148.32 51.32
  A 0.41 0.41 0.0 0 0 147.55 51.11
  L 145.22 55.14
  A 0.27 0.27 0.0 0 1 144.72 55.07
  L 144.20 53.09
  A 0.34 0.33 -32.7 0 0 143.62 52.97
  Q 142.29 54.61 142.80 57.01
  A 0.41 0.41 0.0 0 1 142.36 57.51
  Z"
/>
<path fill="#52368b" d="
  M 136.86 31.05
  C 134.06 33.40 129.02 36.38 127.88 39.32
  C 126.69 42.41 127.35 45.91 130.02 48.17
  Q 130.81 48.85 131.16 49.35
  A 0.27 0.27 0.0 0 1 130.86 49.76
  Q 126.84 48.56 125.18 45.31
  A 1.32 1.30 78.8 0 0 124.15 44.61
  C 117.53 43.92 114.11 47.48 110.98 52.66
  C 104.30 45.42 92.74 47.90 85.38 52.61
  Q 86.42 47.29 86.92 45.96
  C 91.53 33.67 110.29 30.61 121.51 30.36
  Q 129.06 30.19 136.86 31.05
  Z"
/>
<path fill="#52368b" d="
  M 142.80 57.01
  Q 142.29 54.61 143.62 52.97
  A 0.34 0.33 -32.7 0 1 144.20 53.09
  L 144.72 55.07
  A 0.27 0.27 0.0 0 0 145.22 55.14
  L 147.55 51.11
  A 0.41 0.41 0.0 0 1 148.32 51.32
  Q 148.28 53.24 149.84 54.93
  A 0.56 0.55 42.8 0 0 150.68 54.90
  Q 153.40 51.59 155.73 50.60
  A 0.39 0.39 0.0 0 1 156.19 51.21
  C 153.99 53.89 154.82 58.15 153.05 60.82
  Q 151.02 63.89 149.29 64.83
  C 144.45 67.45 141.61 68.66 139.10 72.33
  A 0.36 0.36 0.0 0 1 138.44 72.16
  Q 138.27 70.38 138.80 68.58
  A 0.56 0.56 0.0 0 0 137.86 68.03
  L 134.50 71.39
  A 0.47 0.47 0.0 0 1 133.71 70.96
  Q 134.58 67.12 137.32 65.48
  A 0.61 0.60 -45.3 0 0 137.32 64.44
  Q 135.81 63.56 133.83 63.45
  A 0.39 0.39 0.0 0 1 133.66 62.73
  C 138.01 60.21 142.56 60.67 147.19 62.54
  A 0.29 0.28 -62.9 0 0 147.55 62.42
  L 147.72 62.12
  A 0.27 0.27 0.0 0 0 147.64 61.76
  Q 143.40 58.79 137.46 58.65
  A 1.30 1.26 -64.7 0 0 136.58 58.98
  Q 134.10 61.15 132.06 58.80
  A 1.87 1.70 -33.3 0 1 132.76 56.08
  Q 134.68 55.11 136.19 56.66
  A 1.24 1.21 69.9 0 0 136.96 57.03
  L 142.36 57.51
  A 0.41 0.41 0.0 0 0 142.80 57.01
  Z"
/>
<path fill="#52368b" d="
  M 179.37 63.52
  Q 181.56 68.81 180.96 74.27
  A 1.21 1.20 -60.4 0 0 181.20 75.15
  Q 193.17 91.13 186.00 109.99
  Q 184.78 113.20 182.69 115.44
  A 1.27 1.27 0.0 0 1 180.98 115.58
  Q 174.31 110.41 166.12 110.27
  A 0.45 0.45 0.0 0 0 165.97 111.14
  C 185.21 117.48 181.75 137.16 170.93 148.71
  C 161.16 159.15 147.50 163.25 133.64 166.57
  Q 118.77 170.12 106.90 178.44
  A 0.38 0.37 87.0 0 1 106.36 177.95
  Q 107.75 175.33 107.84 175.12
  Q 120.55 146.54 122.26 114.88
  C 122.47 110.96 122.24 105.08 121.74 101.44
  A 0.52 0.52 0.0 0 0 120.81 101.20
  Q 118.13 104.84 113.18 106.96
  A 0.45 0.44 5.0 0 1 112.63 106.31
  Q 118.40 97.52 118.78 86.74
  L 127.38 93.13
  A 1.40 1.17 83.7 0 1 127.60 93.34
  L 128.89 94.95
  A 1.19 1.19 0.0 0 0 129.77 95.39
  C 135.58 95.60 144.98 94.14 148.21 88.26
  A 2.01 1.96 -31.7 0 0 148.46 87.26
  Q 148.45 86.85 147.94 86.12
  C 146.74 84.39 146.62 81.65 146.98 79.70
  A 0.32 0.32 0.0 0 1 147.61 79.69
  C 149.19 86.99 157.48 89.43 163.86 88.29
  Q 170.21 87.16 172.00 87.78
  A 0.44 0.44 0.0 0 0 172.59 87.36
  Q 172.60 84.38 174.39 80.69
  Q 175.22 78.98 175.35 75.01
  Q 175.63 67.09 168.50 64.02
  A 0.44 0.44 0.0 0 1 168.71 63.17
  Q 172.50 63.48 175.10 66.06
  A 0.66 0.65 -41.4 0 0 175.95 66.11
  L 179.37 63.52
  Z"
/>
<path fill="#a5418d" d="
  M 80.98 75.58
  A 0.64 0.64 0.0 0 0 80.28 74.63
  L 77.91 75.25
  A 1.40 1.39 -6.0 0 1 76.16 73.84
  Q 76.27 71.46 78.06 69.81
  Q 83.42 64.86 90.22 67.43
  A 0.52 0.52 0.0 0 1 90.04 68.43
  C 86.62 68.45 83.30 68.66 81.53 71.78
  A 1.09 1.09 0.0 0 0 82.53 73.40
  C 85.83 73.24 88.08 72.89 90.31 74.11
  A 0.35 0.35 0.0 0 1 90.23 74.76
  L 87.87 75.38
  A 0.37 0.37 0.0 0 0 87.60 75.83
  L 87.68 76.14
  A 0.47 0.47 0.0 0 0 88.16 76.49
  Q 91.14 76.32 93.13 77.80
  A 0.46 0.46 0.0 0 1 92.73 78.62
  Q 90.60 78.05 88.15 78.46
  A 1.56 1.53 11.8 0 0 87.11 79.13
  C 85.87 81.00 84.07 83.12 81.89 83.10
  A 0.44 0.44 0.0 0 1 81.52 82.44
  L 81.89 81.80
  A 1.02 0.99 -46.9 0 0 81.87 80.75
  L 80.44 78.47
  A 1.62 1.59 34.7 0 1 80.22 77.31
  Q 80.36 76.58 80.98 75.58
  Z"
/>
<path fill="#a5418d" d="
  M 65.90 102.04
  A 0.49 0.49 0.0 0 1 66.27 101.14
  C 69.60 101.99 71.97 103.05 74.14 101.71
  A 0.53 0.52 76.9 0 1 74.94 102.21
  Q 74.67 105.02 72.19 105.19
  A 2.49 2.41 -31.2 0 1 70.80 104.87
  L 65.90 102.04
  Z"
/>
<path fill="#52368b" d="
  M 128.75 175.30
  L 127.82 175.81
  A 0.86 0.86 0.0 0 0 127.36 176.57
  L 127.36 178.87
  A 0.44 0.44 0.0 0 1 126.92 179.31
  L 126.66 179.31
  A 0.55 0.55 0.0 0 1 126.11 178.76
  L 126.11 176.47
  A 0.74 0.73 8.6 0 0 125.59 175.77
  L 124.62 175.46
  A 0.35 0.35 0.0 0 1 124.73 174.78
  L 128.61 174.78
  A 0.28 0.28 0.0 0 1 128.75 175.30
  Z"
/>
<path fill="#52368b" d="
  M 132.14 176.16
  Q 132.80 176.15 133.34 175.12
  A 0.68 0.68 0.0 0 1 134.62 175.44
  L 134.62 178.81
  A 0.40 0.40 0.0 0 1 134.22 179.21
  L 133.96 179.21
  A 0.46 0.46 0.0 0 1 133.50 178.75
  L 133.50 178.24
  A 0.76 0.76 0.0 0 0 132.80 177.48
  Q 132.48 177.45 132.15 177.46
  Q 131.81 177.46 131.49 177.49
  A 0.76 0.76 0.0 0 0 130.80 178.26
  L 130.81 178.77
  A 0.46 0.46 0.0 0 1 130.36 179.23
  L 130.10 179.24
  A 0.40 0.40 0.0 0 1 129.69 178.84
  L 129.65 175.47
  A 0.68 0.68 0.0 0 1 130.92 175.14
  Q 131.48 176.16 132.14 176.16
  Z"
/>
</svg>
