<?xml version="1.0" encoding="UTF-8" standalone="no"?>
<!DOCTYPE svg PUBLIC "-//W3C//DTD SVG 1.1//EN" "http://www.w3.org/Graphics/SVG/1.1/DTD/svg11.dtd">
<svg xmlns="http://www.w3.org/2000/svg" version="1.1" viewBox="0.00 0.00 225.00 225.00">
<g stroke-width="2.00" fill="none" stroke-linecap="butt">
<path stroke="#818dca" vector-effect="non-scaling-stroke" d="
  M 182.61 47.94
  A 5.54 5.54 0.0 0 0 177.07 42.40
  A 5.54 5.54 0.0 0 0 171.53 47.94
  A 5.54 5.54 0.0 0 0 177.07 53.48
  A 5.54 5.54 0.0 0 0 182.61 47.94"
/>
<path stroke="#818dca" vector-effect="non-scaling-stroke" d="
  M 169.57 60.99
  A 5.52 5.52 0.0 0 0 164.05 55.47
  A 5.52 5.52 0.0 0 0 158.53 60.99
  A 5.52 5.52 0.0 0 0 164.05 66.51
  A 5.52 5.52 0.0 0 0 169.57 60.99"
/>
<path stroke="#818dca" vector-effect="non-scaling-stroke" d="
  M 85.86 73.50
  A 5.52 5.52 0.0 0 0 80.34 67.98
  A 5.52 5.52 0.0 0 0 74.82 73.50
  A 5.52 5.52 0.0 0 0 80.34 79.02
  A 5.52 5.52 0.0 0 0 85.86 73.50"
/>
<path stroke="#818dca" vector-effect="non-scaling-stroke" d="
  M 103.55 73.48
  A 5.51 5.51 0.0 0 0 98.04 67.97
  A 5.51 5.51 0.0 0 0 92.53 73.48
  A 5.51 5.51 0.0 0 0 98.04 78.99
  A 5.51 5.51 0.0 0 0 103.55 73.48"
/>
<path stroke="#818dca" vector-effect="non-scaling-stroke" d="
  M 121.19 73.48
  A 5.51 5.51 0.0 0 0 115.68 67.97
  A 5.51 5.51 0.0 0 0 110.17 73.48
  A 5.51 5.51 0.0 0 0 115.68 78.99
  A 5.51 5.51 0.0 0 0 121.19 73.48"
/>
<path stroke="#818dca" vector-effect="non-scaling-stroke" d="
  M 138.87 73.49
  A 5.52 5.52 0.0 0 0 133.35 67.97
  A 5.52 5.52 0.0 0 0 127.83 73.49
  A 5.52 5.52 0.0 0 0 133.35 79.01
  A 5.52 5.52 0.0 0 0 138.87 73.49"
/>
<path stroke="#818dca" vector-effect="non-scaling-stroke" d="
  M 157.06 73.47
  A 5.51 5.51 0.0 0 0 151.55 67.96
  A 5.51 5.51 0.0 0 0 146.04 73.47
  A 5.51 5.51 0.0 0 0 151.55 78.98
  A 5.51 5.51 0.0 0 0 157.06 73.47"
/>
<path stroke="#818dca" vector-effect="non-scaling-stroke" d="
  M 139.12 91.39
  A 5.50 5.50 0.0 0 0 133.62 85.89
  A 5.50 5.50 0.0 0 0 128.12 91.39
  A 5.50 5.50 0.0 0 0 133.62 96.89
  A 5.50 5.50 0.0 0 0 139.12 91.39"
/>
<path stroke="#818dca" vector-effect="non-scaling-stroke" d="
  M 156.98 91.42
  A 5.50 5.50 0.0 0 0 151.48 85.92
  A 5.50 5.50 0.0 0 0 145.98 91.42
  A 5.50 5.50 0.0 0 0 151.48 96.92
  A 5.50 5.50 0.0 0 0 156.98 91.42"
/>
<path stroke="#818dca" vector-effect="non-scaling-stroke" d="
  M 126.64 103.88
  A 5.51 5.51 0.0 0 0 121.13 98.37
  A 5.51 5.51 0.0 0 0 115.62 103.88
  A 5.51 5.51 0.0 0 0 121.13 109.39
  A 5.51 5.51 0.0 0 0 126.64 103.88"
/>
<path stroke="#818dca" vector-effect="non-scaling-stroke" d="
  M 156.99 109.05
  A 5.51 5.51 0.0 0 0 151.48 103.54
  A 5.51 5.51 0.0 0 0 145.97 109.05
  A 5.51 5.51 0.0 0 0 151.48 114.56
  A 5.51 5.51 0.0 0 0 156.99 109.05"
/>
<path stroke="#818dca" vector-effect="non-scaling-stroke" d="
  M 114.17 116.38
  A 5.51 5.51 0.0 0 0 108.66 110.87
  A 5.51 5.51 0.0 0 0 103.15 116.38
  A 5.51 5.51 0.0 0 0 108.66 121.89
  A 5.51 5.51 0.0 0 0 114.17 116.38"
/>
<path stroke="#818dca" vector-effect="non-scaling-stroke" d="
  M 156.98 126.74
  A 5.51 5.51 0.0 0 0 151.47 121.23
  A 5.51 5.51 0.0 0 0 145.96 126.74
  A 5.51 5.51 0.0 0 0 151.47 132.25
  A 5.51 5.51 0.0 0 0 156.98 126.74"
/>
<path stroke="#818dca" vector-effect="non-scaling-stroke" d="
  M 101.69 128.89
  A 5.53 5.53 0.0 0 0 96.16 123.36
  A 5.53 5.53 0.0 0 0 90.63 128.89
  A 5.53 5.53 0.0 0 0 96.16 134.42
  A 5.53 5.53 0.0 0 0 101.69 128.89"
/>
<path stroke="#818dca" vector-effect="non-scaling-stroke" d="
  M 71.12 141.37
  A 5.52 5.52 0.0 0 0 65.60 135.85
  A 5.52 5.52 0.0 0 0 60.08 141.37
  A 5.52 5.52 0.0 0 0 65.60 146.89
  A 5.52 5.52 0.0 0 0 71.12 141.37"
/>
<path stroke="#818dca" vector-effect="non-scaling-stroke" d="
  M 89.18 141.37
  A 5.52 5.52 0.0 0 0 83.66 135.85
  A 5.52 5.52 0.0 0 0 78.14 141.37
  A 5.52 5.52 0.0 0 0 83.66 146.89
  A 5.52 5.52 0.0 0 0 89.18 141.37"
/>
<path stroke="#818dca" vector-effect="non-scaling-stroke" d="
  M 53.44 141.38
  A 5.52 5.52 0.0 0 0 47.92 135.86
  A 5.52 5.52 0.0 0 0 42.40 141.38
  A 5.52 5.52 0.0 0 0 47.92 146.90
  A 5.52 5.52 0.0 0 0 53.44 141.38"
/>
<path stroke="#818dca" vector-effect="non-scaling-stroke" d="
  M 156.99 144.43
  A 5.51 5.51 0.0 0 0 151.48 138.92
  A 5.51 5.51 0.0 0 0 145.97 144.43
  A 5.51 5.51 0.0 0 0 151.48 149.94
  A 5.51 5.51 0.0 0 0 156.99 144.43"
/>
<path stroke="#818dca" vector-effect="non-scaling-stroke" d="
  M 89.16 159.38
  A 5.52 5.52 0.0 0 0 83.64 153.86
  A 5.52 5.52 0.0 0 0 78.12 159.38
  A 5.52 5.52 0.0 0 0 83.64 164.90
  A 5.52 5.52 0.0 0 0 89.16 159.38"
/>
<path stroke="#818dca" vector-effect="non-scaling-stroke" d="
  M 89.16 177.05
  A 5.51 5.51 0.0 0 0 83.65 171.54
  A 5.51 5.51 0.0 0 0 78.14 177.05
  A 5.51 5.51 0.0 0 0 83.65 182.56
  A 5.51 5.51 0.0 0 0 89.16 177.05"
/>
</g>
<path fill="#031b95" d="
  M 225.00 0.00
  L 225.00 225.00
  L 0.00 225.00
  L 0.00 0.00
  L 225.00 0.00
  Z
  M 182.61 47.94
  A 5.54 5.54 0.0 0 0 177.07 42.40
  A 5.54 5.54 0.0 0 0 171.53 47.94
  A 5.54 5.54 0.0 0 0 177.07 53.48
  A 5.54 5.54 0.0 0 0 182.61 47.94
  Z
  M 169.57 60.99
  A 5.52 5.52 0.0 0 0 164.05 55.47
  A 5.52 5.52 0.0 0 0 158.53 60.99
  A 5.52 5.52 0.0 0 0 164.05 66.51
  A 5.52 5.52 0.0 0 0 169.57 60.99
  Z
  M 85.86 73.50
  A 5.52 5.52 0.0 0 0 80.34 67.98
  A 5.52 5.52 0.0 0 0 74.82 73.50
  A 5.52 5.52 0.0 0 0 80.34 79.02
  A 5.52 5.52 0.0 0 0 85.86 73.50
  Z
  M 103.55 73.48
  A 5.51 5.51 0.0 0 0 98.04 67.97
  A 5.51 5.51 0.0 0 0 92.53 73.48
  A 5.51 5.51 0.0 0 0 98.04 78.99
  A 5.51 5.51 0.0 0 0 103.55 73.48
  Z
  M 121.19 73.48
  A 5.51 5.51 0.0 0 0 115.68 67.97
  A 5.51 5.51 0.0 0 0 110.17 73.48
  A 5.51 5.51 0.0 0 0 115.68 78.99
  A 5.51 5.51 0.0 0 0 121.19 73.48
  Z
  M 138.87 73.49
  A 5.52 5.52 0.0 0 0 133.35 67.97
  A 5.52 5.52 0.0 0 0 127.83 73.49
  A 5.52 5.52 0.0 0 0 133.35 79.01
  A 5.52 5.52 0.0 0 0 138.87 73.49
  Z
  M 157.06 73.47
  A 5.51 5.51 0.0 0 0 151.55 67.96
  A 5.51 5.51 0.0 0 0 146.04 73.47
  A 5.51 5.51 0.0 0 0 151.55 78.98
  A 5.51 5.51 0.0 0 0 157.06 73.47
  Z
  M 139.12 91.39
  A 5.50 5.50 0.0 0 0 133.62 85.89
  A 5.50 5.50 0.0 0 0 128.12 91.39
  A 5.50 5.50 0.0 0 0 133.62 96.89
  A 5.50 5.50 0.0 0 0 139.12 91.39
  Z
  M 156.98 91.42
  A 5.50 5.50 0.0 0 0 151.48 85.92
  A 5.50 5.50 0.0 0 0 145.98 91.42
  A 5.50 5.50 0.0 0 0 151.48 96.92
  A 5.50 5.50 0.0 0 0 156.98 91.42
  Z
  M 126.64 103.88
  A 5.51 5.51 0.0 0 0 121.13 98.37
  A 5.51 5.51 0.0 0 0 115.62 103.88
  A 5.51 5.51 0.0 0 0 121.13 109.39
  A 5.51 5.51 0.0 0 0 126.64 103.88
  Z
  M 156.99 109.05
  A 5.51 5.51 0.0 0 0 151.48 103.54
  A 5.51 5.51 0.0 0 0 145.97 109.05
  A 5.51 5.51 0.0 0 0 151.48 114.56
  A 5.51 5.51 0.0 0 0 156.99 109.05
  Z
  M 114.17 116.38
  A 5.51 5.51 0.0 0 0 108.66 110.87
  A 5.51 5.51 0.0 0 0 103.15 116.38
  A 5.51 5.51 0.0 0 0 108.66 121.89
  A 5.51 5.51 0.0 0 0 114.17 116.38
  Z
  M 156.98 126.74
  A 5.51 5.51 0.0 0 0 151.47 121.23
  A 5.51 5.51 0.0 0 0 145.96 126.74
  A 5.51 5.51 0.0 0 0 151.47 132.25
  A 5.51 5.51 0.0 0 0 156.98 126.74
  Z
  M 101.69 128.89
  A 5.53 5.53 0.0 0 0 96.16 123.36
  A 5.53 5.53 0.0 0 0 90.63 128.89
  A 5.53 5.53 0.0 0 0 96.16 134.42
  A 5.53 5.53 0.0 0 0 101.69 128.89
  Z
  M 71.12 141.37
  A 5.52 5.52 0.0 0 0 65.60 135.85
  A 5.52 5.52 0.0 0 0 60.08 141.37
  A 5.52 5.52 0.0 0 0 65.60 146.89
  A 5.52 5.52 0.0 0 0 71.12 141.37
  Z
  M 89.18 141.37
  A 5.52 5.52 0.0 0 0 83.66 135.85
  A 5.52 5.52 0.0 0 0 78.14 141.37
  A 5.52 5.52 0.0 0 0 83.66 146.89
  A 5.52 5.52 0.0 0 0 89.18 141.37
  Z
  M 53.44 141.38
  A 5.52 5.52 0.0 0 0 47.92 135.86
  A 5.52 5.52 0.0 0 0 42.40 141.38
  A 5.52 5.52 0.0 0 0 47.92 146.90
  A 5.52 5.52 0.0 0 0 53.44 141.38
  Z
  M 156.99 144.43
  A 5.51 5.51 0.0 0 0 151.48 138.92
  A 5.51 5.51 0.0 0 0 145.97 144.43
  A 5.51 5.51 0.0 0 0 151.48 149.94
  A 5.51 5.51 0.0 0 0 156.99 144.43
  Z
  M 89.16 159.38
  A 5.52 5.52 0.0 0 0 83.64 153.86
  A 5.52 5.52 0.0 0 0 78.12 159.38
  A 5.52 5.52 0.0 0 0 83.64 164.90
  A 5.52 5.52 0.0 0 0 89.16 159.38
  Z
  M 89.16 177.05
  A 5.51 5.51 0.0 0 0 83.65 171.54
  A 5.51 5.51 0.0 0 0 78.14 177.05
  A 5.51 5.51 0.0 0 0 83.65 182.56
  A 5.51 5.51 0.0 0 0 89.16 177.05
  Z"
/>
<circle fill="#ffffff" cx="177.07" cy="47.94" r="5.54"/>
<circle fill="#ffffff" cx="164.05" cy="60.99" r="5.52"/>
<circle fill="#ffffff" cx="80.34" cy="73.50" r="5.52"/>
<circle fill="#ffffff" cx="98.04" cy="73.48" r="5.51"/>
<circle fill="#ffffff" cx="115.68" cy="73.48" r="5.51"/>
<circle fill="#ffffff" cx="133.35" cy="73.49" r="5.52"/>
<circle fill="#ffffff" cx="151.55" cy="73.47" r="5.51"/>
<circle fill="#ffffff" cx="133.62" cy="91.39" r="5.50"/>
<circle fill="#ffffff" cx="151.48" cy="91.42" r="5.50"/>
<circle fill="#ffffff" cx="121.13" cy="103.88" r="5.51"/>
<circle fill="#ffffff" cx="151.48" cy="109.05" r="5.51"/>
<circle fill="#ffffff" cx="108.66" cy="116.38" r="5.51"/>
<circle fill="#ffffff" cx="151.47" cy="126.74" r="5.51"/>
<circle fill="#ffffff" cx="96.16" cy="128.89" r="5.53"/>
<circle fill="#ffffff" cx="65.60" cy="141.37" r="5.52"/>
<circle fill="#ffffff" cx="83.66" cy="141.37" r="5.52"/>
<circle fill="#ffffff" cx="47.92" cy="141.38" r="5.52"/>
<circle fill="#ffffff" cx="151.48" cy="144.43" r="5.51"/>
<circle fill="#ffffff" cx="83.64" cy="159.38" r="5.52"/>
<circle fill="#ffffff" cx="83.65" cy="177.05" r="5.51"/>
</svg>
