<?xml version="1.0" encoding="UTF-8" standalone="no"?>
<!DOCTYPE svg PUBLIC "-//W3C//DTD SVG 1.1//EN" "http://www.w3.org/Graphics/SVG/1.1/DTD/svg11.dtd">
<svg xmlns="http://www.w3.org/2000/svg" version="1.1" viewBox="0.00 0.00 287.00 287.00">
<g stroke-width="2.00" fill="none" stroke-linecap="butt">
<path stroke="#b88b9d" vector-effect="non-scaling-stroke" d="
  M 8.46 184.15
  A 141.60 141.54 11.4 0 0 52.29 249.97
  A 141.67 141.54 -18.5 0 0 112.24 279.79
  A 141.54 141.45 43.6 0 0 181.37 278.13
  A 141.55 141.47 15.3 0 0 241.58 243.83
  A 141.65 141.59 76.7 0 0 278.74 183.64"
/>
<path stroke="#d68ca8" vector-effect="non-scaling-stroke" d="
  M 278.74 183.64
  A 141.60 141.56 47.6 0 0 281.98 112.25
  A 141.38 141.34 -70.2 0 0 254.57 53.93
  A 141.56 141.54 -6.9 0 0 202.29 12.93
  A 141.59 141.55 56.3 0 0 139.00 0.23
  A 141.54 141.52 -60.2 0 0 76.02 17.29
  A 141.55 141.49 3.9 0 0 29.32 58.07
  A 141.60 141.59 -21.9 0 0 4.08 117.28
  A 141.66 141.63 -48.8 0 0 8.46 184.15"
/>
<path stroke="#8f1845" vector-effect="non-scaling-stroke" d="
  M 278.74 183.64
  Q 146.28 183.72 14.22 183.81
  Q 14.01 183.81 11.30 183.54
  Q 9.51 183.37 8.46 184.15"
/>
<path stroke="#c5676d" vector-effect="non-scaling-stroke" d="
  M 221.16 98.73
  A 78.24 78.24 0.0 0 0 142.92 20.49
  A 78.24 78.24 0.0 0 0 64.68 98.73
  A 78.24 78.24 0.0 0 0 142.92 176.97
  A 78.24 78.24 0.0 0 0 221.16 98.73"
/>
<path stroke="#c5676d" vector-effect="non-scaling-stroke" d="
  M 216.43 98.69
  A 73.54 73.54 0.0 0 0 142.89 25.15
  A 73.54 73.54 0.0 0 0 69.35 98.69
  A 73.54 73.54 0.0 0 0 142.89 172.23
  A 73.54 73.54 0.0 0 0 216.43 98.69"
/>
<path stroke="#c5676d" vector-effect="non-scaling-stroke" d="
  M 215.32 98.69
  A 72.46 72.46 0.0 0 0 142.86 26.23
  A 72.46 72.46 0.0 0 0 70.40 98.69
  A 72.46 72.46 0.0 0 0 142.86 171.15
  A 72.46 72.46 0.0 0 0 215.32 98.69"
/>
<path stroke="#c5676d" vector-effect="non-scaling-stroke" d="
  M 213.71 98.69
  A 70.80 70.80 0.0 0 0 142.91 27.89
  A 70.80 70.80 0.0 0 0 72.11 98.69
  A 70.80 70.80 0.0 0 0 142.91 169.49
  A 70.80 70.80 0.0 0 0 213.71 98.69"
/>
<path stroke="#c5676d" vector-effect="non-scaling-stroke" d="
  M 132.19 110.14
  C 122.67 109.47 110.78 104.70 106.45 95.62
  C 101.25 84.73 103.40 73.22 113.16 65.92
  Q 118.60 61.85 123.92 60.76
  A 0.19 0.18 75.9 0 1 124.13 60.89
  L 124.21 61.15
  A 0.43 0.43 0.0 0 1 123.93 61.68
  C 113.66 64.86 105.46 71.74 104.89 82.66
  C 104.13 97.17 113.35 105.00 126.54 108.21
  Q 134.89 110.25 144.38 110.59
  Q 155.64 111.00 181.75 110.48
  C 183.86 110.44 187.32 110.38 188.12 112.24
  A 1.12 0.95 -48.9 0 0 190.01 111.95
  C 191.16 109.10 187.64 108.19 185.49 108.07
  Q 178.29 107.69 173.50 107.84
  Q 155.99 108.37 146.90 107.64
  A 0.48 0.47 -88.1 0 1 146.46 107.16
  L 146.46 107.07
  A 0.49 0.49 0.0 0 1 146.96 106.58
  Q 163.20 106.92 184.50 106.71
  C 187.54 106.68 192.59 108.30 191.10 112.39
  A 1.56 1.56 0.0 0 1 190.49 113.15
  Q 187.28 115.18 183.24 115.19
  Q 148.42 115.27 108.25 115.20
  C 103.20 115.19 97.86 116.05 93.38 114.97
  Q 89.99 114.17 89.05 110.83
  C 88.53 108.99 90.17 107.87 91.97 108.38
  A 1.26 1.22 -10.5 0 1 92.62 108.81
  L 93.93 110.44
  A 1.04 1.03 -21.1 0 0 94.82 110.83
  Q 98.01 110.61 98.18 107.77
  C 98.48 102.84 92.17 101.46 88.24 102.10
  C 83.21 102.91 80.53 108.49 81.38 113.05
  C 82.36 118.30 86.10 120.26 90.71 122.07
  A 0.22 0.21 -75.6 0 1 90.85 122.31
  L 90.82 122.58
  A 0.33 0.33 0.0 0 1 90.42 122.85
  C 83.32 121.13 77.78 114.55 80.93 107.18
  Q 84.01 99.96 91.83 100.83
  C 92.74 100.93 93.73 101.41 94.66 101.49
  A 0.29 0.29 0.0 0 0 94.85 100.96
  Q 89.73 97.39 83.77 100.05
  C 78.10 102.59 75.49 107.75 76.23 114.03
  Q 77.25 122.68 86.00 126.25
  Q 87.91 127.03 89.23 127.17
  A 0.51 0.50 -78.7 0 1 89.65 127.81
  C 89.28 129.14 88.29 131.00 88.12 132.00
  Q 86.91 139.01 91.87 144.36
  Q 99.06 152.11 108.96 155.89
  C 120.00 160.11 136.49 159.89 145.19 150.43
  Q 146.12 149.42 155.31 138.82
  C 161.65 131.52 173.65 127.33 182.23 132.97
  Q 187.96 136.73 186.62 143.56
  C 185.89 147.28 181.11 149.80 177.68 149.30
  A 0.20 0.20 0.0 0 0 177.46 149.56
  L 177.60 150.03
  A 0.01 0.01 0.0 0 0 177.61 150.04
  Q 182.37 150.84 185.73 148.50
  C 192.39 143.86 190.74 132.85 183.65 129.59
  A 0.23 0.22 58.3 0 1 183.75 129.16
  C 195.51 129.70 209.85 125.84 209.94 111.25
  Q 209.98 103.26 204.24 98.03
  A 0.35 0.35 0.0 0 0 203.72 98.49
  Q 208.49 105.09 205.96 113.27
  C 203.92 119.86 196.30 122.59 189.96 123.14
  C 179.95 124.01 167.13 123.08 158.33 123.26
  Q 154.36 123.34 106.45 122.88
  C 100.31 122.82 93.15 124.06 92.08 130.80
  C 90.86 138.52 98.18 142.53 104.70 138.92
  A 2.09 2.07 1.7 0 0 105.47 138.20
  Q 107.74 134.71 104.66 132.45
  A 1.74 1.74 0.0 0 0 101.91 133.62
  L 101.76 134.74
  A 1.06 1.05 -2.0 0 1 100.92 135.63
  Q 98.24 136.19 96.82 133.97
  A 1.59 1.55 -60.5 0 1 96.57 133.02
  C 96.77 128.66 101.07 128.14 104.50 128.19
  Q 146.33 128.78 156.58 129.04
  Q 159.64 129.12 162.77 129.16
  A 0.32 0.32 0.0 0 1 162.83 129.79
  C 157.95 130.79 152.32 136.29 149.35 140.13
  A 0.31 0.31 0.0 0 1 148.80 140.00
  C 146.98 130.72 136.45 126.62 129.76 134.03
  A 0.24 0.24 0.0 0 0 130.00 134.42
  Q 130.65 134.25 131.55 133.81
  C 140.05 129.62 148.38 137.29 145.37 146.19
  A 0.07 0.07 0.0 0 1 145.32 146.24
  L 144.82 146.39
  A 0.35 0.35 0.0 0 1 144.38 145.96
  C 147.18 135.75 137.75 130.77 129.69 136.01
  A 2.57 2.48 86.3 0 0 128.74 137.13
  Q 126.26 142.80 130.74 146.88
  Q 132.56 148.53 135.03 146.42
  A 0.70 0.70 0.0 0 0 135.18 145.54
  L 133.96 143.42
  A 1.00 0.99 42.6 0 1 133.92 142.50
  C 136.19 137.62 142.58 143.52 138.22 147.56
  Q 134.34 151.16 128.73 151.54
  C 119.51 152.17 108.34 150.39 101.46 143.74
  A 0.38 0.38 0.0 0 1 101.55 143.13
  Q 104.33 141.69 105.78 140.07
  A 0.29 0.29 0.0 0 0 105.40 139.64
  Q 100.31 143.09 95.42 140.27
  C 91.00 137.72 89.48 132.38 91.86 128.03
  C 95.10 122.11 102.04 121.65 108.50 121.67
  Q 116.34 121.68 132.50 121.94
  Q 153.07 122.28 187.00 122.21
  C 195.46 122.19 205.29 119.04 205.66 108.79
  C 205.90 102.16 202.60 96.53 196.02 94.47
  A 1.71 1.70 43.6 0 0 194.97 94.49
  L 185.28 97.91
  A 0.83 0.83 0.0 0 1 184.25 97.47
  L 184.21 97.37
  A 0.53 0.53 0.0 0 1 184.61 96.75
  Q 196.00 94.13 203.78 86.27
  C 208.95 81.03 209.62 72.80 204.27 67.46
  Q 200.19 63.39 194.43 64.72
  C 187.60 66.30 186.53 74.64 192.90 77.54
  A 0.52 0.52 0.0 0 1 193.05 78.37
  C 189.36 82.09 184.30 82.98 178.85 83.11
  Q 169.92 83.33 165.76 83.44
  C 159.32 83.62 149.39 86.15 149.85 94.57
  C 150.19 100.71 157.25 102.09 162.32 102.15
  A 0.35 0.35 0.0 0 1 162.66 102.50
  L 162.66 102.80
  A 0.42 0.42 0.0 0 1 162.25 103.22
  C 156.37 103.42 148.02 100.89 148.81 93.24
  C 149.84 83.19 163.08 81.88 170.50 81.98
  C 178.19 82.08 182.83 82.01 187.27 80.70
  A 0.16 0.16 0.0 0 0 187.22 80.38
  Q 177.52 80.56 166.00 80.51
  C 158.01 80.48 148.77 81.67 145.15 90.11
  A 1.42 1.41 11.7 0 1 143.85 90.96
  L 136.48 90.96
  A 0.85 0.85 0.0 0 1 135.64 89.98
  Q 136.43 85.00 133.58 81.20
  Q 132.29 79.49 131.24 79.39
  A 0.33 0.33 0.0 0 0 130.96 79.94
  Q 134.30 83.68 133.60 89.10
  Q 132.48 97.77 123.95 99.42
  Q 120.30 100.13 117.44 99.06
  A 0.35 0.35 0.0 0 1 117.63 98.39
  Q 120.89 98.99 124.89 98.11
  Q 131.19 96.73 132.32 89.76
  C 132.92 86.08 131.91 79.51 126.95 79.30
  A 3.04 3.03 11.2 0 0 123.98 81.28
  L 123.83 81.69
  A 1.49 1.48 -80.9 0 0 125.27 83.69
  C 128.92 83.57 128.40 88.65 125.23 89.01
  C 119.78 89.62 117.85 84.04 119.62 79.82
  Q 121.83 74.52 127.92 71.74
  A 0.89 0.86 79.3 0 0 128.43 70.97
  Q 128.46 70.27 128.37 69.68
  C 127.84 66.47 130.31 63.41 133.01 62.80
  C 136.21 62.08 139.92 64.77 139.19 68.30
  C 137.82 74.90 128.37 70.03 133.36 65.94
  A 0.38 0.37 49.0 0 1 133.87 65.98
  L 133.90 66.01
  A 0.43 0.43 0.0 0 1 133.90 66.59
  C 132.21 68.45 133.02 70.85 135.66 70.31
  C 139.67 69.48 138.26 64.62 135.17 63.85
  C 132.46 63.17 129.92 65.20 129.53 67.77
  C 128.59 74.09 136.11 76.04 140.16 72.65
  Q 145.14 68.48 146.75 67.31
  C 150.60 64.53 161.08 59.48 164.28 64.91
  C 165.31 66.65 164.12 68.97 161.99 68.74
  A 1.39 1.39 0.0 0 1 161.10 68.30
  Q 159.82 66.90 158.99 67.45
  A 2.08 2.04 53.0 0 0 158.59 70.50
  Q 160.11 72.30 162.56 72.66
  C 171.56 74.00 175.15 65.28 171.43 58.15
  A 0.45 0.44 -13.7 0 1 171.83 57.50
  C 175.78 57.53 180.98 57.29 184.20 60.05
  A 1.58 1.58 0.0 0 1 183.19 62.83
  Q 182.65 62.84 181.97 62.84
  A 2.11 1.93 79.1 0 0 180.24 65.65
  Q 180.87 67.38 182.46 67.82
  C 189.72 69.85 193.63 62.20 192.07 56.10
  C 190.45 49.76 184.29 46.29 177.97 46.11
  Q 172.68 45.95 170.85 45.36
  A 0.97 0.96 -88.9 0 1 170.22 44.70
  Q 170.22 44.67 169.79 42.08
  C 168.10 31.87 155.86 31.62 148.45 35.22
  Q 142.42 38.14 134.86 42.48
  C 131.52 44.40 123.21 48.28 119.66 45.86
  A 1.77 1.69 -56.5 0 1 119.23 43.48
  Q 120.10 42.14 122.00 41.17
  A 0.71 0.71 0.0 0 0 122.30 40.18
  L 120.69 37.40
  A 1.10 1.08 66.8 0 0 119.44 36.89
  C 114.16 38.43 109.07 42.92 110.76 48.70
  C 112.36 54.22 119.35 54.63 124.29 53.83
  C 134.15 52.24 141.68 46.97 150.46 41.47
  C 155.21 38.51 161.53 37.56 164.19 43.64
  A 0.46 0.46 0.0 0 1 163.94 44.26
  L 163.92 44.27
  A 0.47 0.47 0.0 0 1 163.32 44.04
  Q 161.15 39.47 156.09 40.36
  Q 153.42 40.83 152.17 41.64
  C 142.75 47.73 125.26 59.66 113.64 53.62
  C 108.85 51.14 108.38 45.81 110.94 41.32
  A 0.23 0.23 0.0 0 0 110.60 41.02
  Q 105.47 44.69 107.97 51.59
  A 0.76 0.75 -14.2 0 1 107.37 52.59
  C 95.47 54.39 80.48 62.32 79.43 75.86
  Q 78.93 82.25 82.95 85.27
  C 87.74 88.89 96.20 88.30 97.89 81.35
  A 0.40 0.39 78.3 0 0 97.27 80.94
  Q 97.18 81.01 96.29 82.20
  C 92.53 87.24 84.72 85.90 82.31 80.46
  C 80.38 76.11 82.24 70.94 85.54 67.80
  Q 96.20 57.70 111.28 56.97
  A 0.58 0.56 84.5 0 1 111.87 57.47
  L 111.87 57.49
  A 0.53 0.52 85.1 0 1 111.37 58.09
  Q 96.09 58.71 85.69 69.12
  C 81.57 73.25 80.97 83.67 89.09 84.17
  Q 95.27 84.55 97.22 78.41
  Q 97.99 75.97 96.56 73.84
  A 1.48 1.42 56.6 0 0 94.59 73.39
  C 92.21 74.89 94.40 78.08 91.88 79.03
  A 2.03 1.84 69.2 0 1 89.45 77.79
  Q 88.23 74.60 90.67 71.87
  Q 96.42 65.46 105.00 64.76
  A 0.58 0.58 0.0 0 1 105.50 65.70
  Q 100.31 72.11 98.63 79.56
  C 98.06 82.13 97.90 87.22 98.47 89.69
  C 101.11 101.11 109.63 108.31 121.40 110.22
  Q 128.07 111.30 132.24 110.61
  A 0.22 0.22 0.0 0 0 132.42 110.39
  L 132.42 110.38
  A 0.25 0.24 2.6 0 0 132.19 110.14"
/>
<path stroke="#c5676d" vector-effect="non-scaling-stroke" d="
  M 116.27 159.50
  C 120.07 161.15 123.86 161.50 128.76 161.54
  C 137.10 161.60 144.11 159.07 150.65 153.62
  Q 156.90 148.42 162.16 143.68
  C 165.87 140.33 174.67 134.04 179.13 138.93
  Q 179.99 139.88 179.67 141.30
  A 1.61 1.42 -57.3 0 1 176.98 142.07
  Q 176.03 140.56 173.76 141.16
  A 0.98 0.97 -1.0 0 0 173.05 141.89
  Q 172.51 144.38 172.79 145.70
  A 3.66 3.25 1.5 0 0 175.58 148.31
  C 179.41 149.09 185.32 147.23 185.73 142.51
  C 186.37 135.24 179.98 131.51 173.46 131.58
  C 161.36 131.72 156.14 139.29 149.10 147.60
  Q 144.83 152.64 141.73 154.71
  C 134.65 159.43 124.62 160.67 116.41 159.07
  A 0.23 0.23 0.0 0 0 116.27 159.50"
/>
<path stroke="#c5676d" vector-effect="non-scaling-stroke" d="
  M 159.67 43.73
  C 155.19 41.49 150.71 45.44 147.39 48.42
  A 0.42 0.42 0.0 0 0 147.52 49.13
  Q 151.98 50.80 157.34 50.85
  A 0.39 0.39 0.0 0 0 157.66 50.23
  Q 157.66 50.22 156.80 49.60
  C 155.05 48.32 154.89 45.68 156.92 44.60
  C 158.06 44.00 159.23 44.55 159.64 44.39
  A 0.36 0.36 0.0 0 0 159.67 43.73"
/>
<path stroke="#c5676d" vector-effect="non-scaling-stroke" d="
  M 198.16 72.11
  Q 197.98 75.02 195.57 74.97
  A 1.60 1.56 -23.6 0 1 194.62 74.61
  Q 192.00 72.49 194.13 69.72
  A 2.36 2.34 -84.3 0 1 194.88 69.10
  C 197.28 67.85 199.61 68.98 201.15 71.02
  Q 202.04 72.19 202.21 74.25
  Q 202.72 80.49 197.36 84.17
  Q 187.81 90.72 176.19 91.18
  A 0.35 0.35 0.0 0 0 175.85 91.53
  L 175.85 91.81
  A 0.49 0.49 0.0 0 0 176.37 92.30
  Q 189.55 91.73 199.31 83.83
  Q 204.43 79.69 203.32 73.37
  C 202.73 70.02 198.76 66.04 195.08 67.80
  C 191.38 69.58 190.82 74.99 195.09 75.88
  Q 198.76 76.64 199.16 72.03
  A 0.26 0.26 0.0 0 0 198.90 71.75
  L 198.54 71.75
  A 0.38 0.38 0.0 0 0 198.16 72.11"
/>
<path stroke="#c5676d" vector-effect="non-scaling-stroke" d="
  M 169.61 92.93
  A 0.35 0.35 0.0 0 0 169.75 92.25
  C 162.56 89.75 163.24 100.81 169.36 100.05
  Q 171.24 99.81 171.92 99.15
  C 174.02 97.11 177.50 94.19 179.68 97.94
  A 2.00 1.92 67.9 0 1 178.51 100.86
  Q 178.45 100.87 176.55 101.11
  A 0.62 0.62 0.0 0 0 176.49 102.33
  C 182.04 103.58 182.57 95.80 177.21 95.12
  C 174.84 94.82 173.29 96.75 171.55 98.23
  A 2.04 2.01 -76.4 0 1 170.97 98.59
  C 165.37 100.95 163.68 93.21 167.83 92.93
  Q 168.62 92.88 169.61 92.93"
/>
<path stroke="#b88b9d" vector-effect="non-scaling-stroke" d="
  M 168.1465 197.6973
  A 9.28 8.61 -86.5 0 0 158.9861 206.4344
  A 9.28 8.61 -86.5 0 0 167.0135 216.2227
  A 9.28 8.61 -86.5 0 0 176.1739 207.4856
  A 9.28 8.61 -86.5 0 0 168.1465 197.6973"
/>
<path stroke="#b88b9d" vector-effect="non-scaling-stroke" d="
  M 64.73 215.45
  A 0.51 0.51 0.0 0 0 65.24 215.96
  C 69.81 216.01 74.95 216.74 75.14 210.95
  Q 75.34 204.58 75.28 199.21
  A 1.10 1.10 0.0 0 0 73.63 198.28
  L 73.05 198.61
  A 3.17 3.16 75.2 0 0 71.46 201.36
  L 71.46 210.62
  A 2.13 2.13 0.0 0 1 69.33 212.75
  L 65.20 212.75
  A 0.48 0.47 90.0 0 0 64.73 213.23
  L 64.73 215.45"
/>
<path stroke="#b88b9d" vector-effect="non-scaling-stroke" d="
  M 81.09 198.18
  L 80.22 198.68
  A 2.32 2.30 76.0 0 0 79.07 200.61
  Q 78.92 206.12 79.15 210.05
  Q 79.46 215.15 83.94 215.83
  C 88.30 216.48 92.65 215.57 93.14 210.62
  Q 93.32 208.89 93.31 199.30
  A 1.16 1.15 74.9 0 0 91.58 198.30
  L 91.06 198.60
  A 3.11 3.11 0.0 0 0 89.51 201.29
  L 89.51 209.74
  A 3.04 3.04 0.0 0 1 86.47 212.78
  L 86.10 212.78
  A 3.35 3.35 0.0 0 1 82.75 209.43
  L 82.75 199.13
  A 1.11 1.10 -15.1 0 0 81.09 198.18"
/>
<path stroke="#b88b9d" vector-effect="non-scaling-stroke" d="
  M 103.27 207.70
  Q 106.83 214.43 106.85 214.49
  A 1.73 1.72 -9.1 0 0 108.39 215.60
  L 111.41 215.72
  A 0.58 0.58 0.0 0 0 112.01 215.14
  L 112.01 198.62
  A 0.46 0.46 0.0 0 0 111.55 198.16
  L 108.96 198.16
  A 0.41 0.41 0.0 0 0 108.55 198.57
  L 108.55 210.25
  A 0.24 0.24 0.0 0 1 108.11 210.37
  Q 107.31 208.95 105.82 206.12
  Q 102.26 199.39 102.24 199.33
  A 1.73 1.72 -9.1 0 0 100.69 198.22
  L 97.67 198.10
  A 0.58 0.58 0.0 0 0 97.07 198.68
  L 97.07 215.20
  A 0.46 0.46 0.0 0 0 97.53 215.66
  L 100.12 215.66
  A 0.41 0.41 0.0 0 0 100.53 215.25
  L 100.53 203.57
  A 0.24 0.24 0.0 0 1 100.98 203.45
  Q 101.77 204.87 103.27 207.70"
/>
<path stroke="#b88b9d" vector-effect="non-scaling-stroke" d="
  M 125.54 201.23
  A 0.65 0.65 0.0 0 0 126.11 200.90
  L 127.08 199.22
  A 0.65 0.65 0.0 0 0 126.51 198.25
  L 116.40 198.25
  A 0.65 0.65 0.0 0 0 115.75 198.90
  L 115.75 215.08
  A 0.65 0.65 0.0 0 0 116.40 215.73
  L 125.66 215.73
  A 0.65 0.65 0.0 0 0 126.22 215.41
  L 127.19 213.73
  A 0.65 0.65 0.0 0 0 126.63 212.75
  L 119.88 212.75
  A 0.65 0.65 0.0 0 1 119.23 212.10
  L 119.23 209.13
  A 0.65 0.65 0.0 0 1 119.88 208.48
  L 124.69 208.48
  A 0.65 0.65 0.0 0 0 125.26 208.16
  L 126.22 206.50
  A 0.65 0.65 0.0 0 0 125.65 205.52
  L 119.86 205.52
  A 0.65 0.65 0.0 0 1 119.21 204.87
  L 119.21 201.88
  A 0.65 0.65 0.0 0 1 119.86 201.23
  L 125.54 201.23"
/>
<path stroke="#b88b9d" vector-effect="non-scaling-stroke" d="
  M 137.95 208.54
  A 0.43 0.43 0.0 0 1 138.01 208.32
  L 143.45 198.89
  A 0.43 0.43 0.0 0 0 143.08 198.25
  L 140.33 198.25
  A 0.43 0.43 0.0 0 0 139.96 198.46
  L 136.47 204.49
  A 0.43 0.43 0.0 0 1 135.73 204.49
  L 132.24 198.46
  A 0.43 0.43 0.0 0 0 131.87 198.24
  L 128.96 198.24
  A 0.43 0.43 0.0 0 0 128.59 198.88
  L 133.96 208.20
  A 0.43 0.43 0.0 0 1 134.02 208.42
  L 134.02 215.41
  A 0.43 0.43 0.0 0 0 134.50 215.84
  L 137.57 215.51
  A 0.43 0.43 0.0 0 0 137.95 215.08
  L 137.95 208.54"
/>
<path stroke="#b88b9d" vector-effect="non-scaling-stroke" d="
  M 150.26 211.49
  Q 152.45 211.50 152.53 211.49
  A 0.65 0.65 0.0 0 1 153.23 211.96
  L 154.14 215.22
  A 0.75 0.75 0.0 0 0 154.86 215.77
  L 157.54 215.77
  A 0.46 0.45 81.4 0 0 157.97 215.18
  L 153.15 199.37
  A 1.53 1.53 0.0 0 0 151.75 198.28
  Q 150.39 198.22 150.30 198.22
  Q 150.21 198.22 148.84 198.27
  A 1.53 1.53 0.0 0 0 147.44 199.35
  L 142.52 215.13
  A 0.46 0.45 -81.1 0 0 142.95 215.73
  L 145.63 215.74
  A 0.75 0.75 0.0 0 0 146.35 215.20
  L 147.28 211.94
  A 0.65 0.65 0.0 0 1 147.99 211.48
  Q 148.07 211.49 150.26 211.49"
/>
<path stroke="#b88b9d" vector-effect="non-scaling-stroke" d="
  M 189.92 211.48
  Q 192.11 211.49 192.19 211.48
  A 0.65 0.65 0.0 0 1 192.89 211.95
  L 193.80 215.21
  A 0.75 0.75 0.0 0 0 194.52 215.76
  L 197.20 215.76
  A 0.46 0.45 81.5 0 0 197.63 215.17
  L 192.82 199.37
  A 1.53 1.53 0.0 0 0 191.43 198.28
  Q 190.06 198.21 189.97 198.21
  Q 189.88 198.21 188.51 198.27
  A 1.53 1.53 0.0 0 0 187.11 199.35
  L 182.19 215.11
  A 0.46 0.45 -81.0 0 0 182.61 215.71
  L 185.29 215.72
  A 0.75 0.75 0.0 0 0 186.02 215.18
  L 186.95 211.93
  A 0.65 0.65 0.0 0 1 187.65 211.46
  Q 187.73 211.47 189.92 211.48"
/>
<path stroke="#b88b9d" vector-effect="non-scaling-stroke" d="
  M 200.71 215.73
  L 203.41 215.75
  A 0.51 0.51 0.0 0 0 203.92 215.25
  L 204.08 200.01
  A 1.78 1.77 0.6 0 0 202.32 198.22
  L 202.16 198.22
  A 1.78 1.77 0.6 0 0 200.36 199.97
  L 200.20 215.21
  A 0.51 0.51 0.0 0 0 200.71 215.73"
/>
<path stroke="#b88b9d" vector-effect="non-scaling-stroke" d="
  M 218.19 207.13
  C 222.43 204.78 221.45 198.65 216.26 198.34
  Q 212.87 198.14 208.89 198.29
  A 0.67 0.66 -1.4 0 0 208.25 198.95
  L 208.25 214.93
  A 1.01 1.00 -8.4 0 0 209.55 215.89
  L 210.55 215.58
  A 2.00 1.99 -8.4 0 0 211.97 213.67
  L 211.97 209.00
  A 0.57 0.56 -89.0 0 1 212.55 208.43
  Q 216.54 208.57 217.78 215.45
  A 0.35 0.34 -5.0 0 0 218.12 215.73
  L 221.41 215.73
  A 0.18 0.18 0.0 0 0 221.59 215.52
  Q 220.76 210.42 218.10 207.81
  A 0.43 0.43 0.0 0 1 218.19 207.13"
/>
<path stroke="#b88b9d" vector-effect="non-scaling-stroke" d="
  M 188.26 238.56
  A 0.84 0.84 0.0 0 0 189.87 238.28
  Q 189.87 238.21 190.40 232.91
  Q 190.61 230.80 192.49 230.48
  Q 200.19 229.20 211.42 230.31
  Q 213.62 230.53 213.85 232.59
  Q 214.24 236.27 214.51 237.38
  A 1.08 1.08 0.0 0 0 216.61 237.34
  C 217.07 235.00 218.28 228.92 215.58 227.80
  A 1.05 1.00 -32.3 0 0 215.18 227.72
  L 205.52 227.72
  A 0.72 0.71 -89.6 0 1 204.81 226.99
  C 204.92 222.86 200.12 222.49 199.72 227.01
  A 0.82 0.81 2.3 0 1 198.90 227.76
  L 189.24 227.76
  A 1.91 1.90 6.2 0 0 187.38 229.25
  Q 186.32 234.06 188.26 238.56"
/>
<path stroke="#b88b9d" vector-effect="non-scaling-stroke" d="
  M 100.30 230.26
  A 1.18 1.17 13.2 0 0 99.24 228.56
  L 85.45 228.56
  A 0.62 0.61 90.0 0 1 84.84 227.94
  L 84.84 225.78
  A 1.07 1.05 18.6 0 0 84.41 224.93
  Q 82.88 223.77 80.98 224.04
  A 0.58 0.57 -4.0 0 0 80.48 224.61
  L 80.48 226.81
  A 1.71 1.70 90.0 0 1 78.78 228.52
  L 68.07 228.52
  A 2.72 2.72 0.0 0 0 65.56 230.19
  L 65.28 230.85
  A 1.00 1.00 0.0 0 0 66.31 232.24
  L 79.37 230.87
  A 1.17 1.16 -5.9 0 1 80.65 231.90
  L 80.76 232.92
  A 0.98 0.98 0.0 0 1 79.92 233.99
  Q 77.48 234.34 73.25 234.09
  Q 70.88 233.96 69.22 234.74
  A 1.30 1.29 -26.1 0 0 68.61 236.51
  Q 68.93 237.13 69.07 237.33
  Q 69.26 237.60 69.97 237.51
  Q 80.49 236.27 93.00 237.06
  Q 93.85 237.11 95.91 236.31
  A 0.46 0.46 0.0 0 0 96.04 235.54
  C 94.07 233.81 90.49 234.22 85.57 234.16
  A 1.13 1.13 0.0 0 1 84.47 232.88
  L 84.63 231.72
  A 1.26 1.25 7.8 0 1 86.05 230.65
  L 97.17 232.17
  A 2.88 2.88 0.0 0 0 100.14 230.59
  L 100.30 230.26"
/>
<path stroke="#b88b9d" vector-effect="non-scaling-stroke" d="
  M 132.35 229.32
  L 134.01 227.89
  A 1.36 1.35 71.8 0 0 134.50 226.91
  Q 134.57 225.68 134.29 224.96
  A 1.54 1.54 0.0 0 0 131.46 224.89
  C 130.56 226.86 130.76 230.56 127.00 229.41
  A 1.19 1.18 -0.4 0 1 126.21 228.64
  Q 125.75 227.25 124.97 225.68
  Q 124.04 223.81 122.77 224.18
  A 2.21 2.02 56.2 0 0 122.22 227.83
  Q 123.00 228.52 123.99 229.37
  A 0.25 0.25 0.0 0 1 123.82 229.81
  L 119.71 229.81
  A 1.47 1.46 -80.5 0 0 118.33 230.80
  L 118.24 231.06
  A 0.89 0.88 9.3 0 0 119.09 232.23
  L 125.02 232.23
  A 1.39 1.38 -3.0 0 1 126.40 233.47
  L 126.47 234.16
  A 1.01 1.00 -3.1 0 1 125.47 235.27
  L 120.61 235.27
  A 0.97 0.97 0.0 0 0 119.65 236.11
  L 119.60 236.45
  A 0.87 0.87 0.0 0 0 120.40 237.44
  L 125.78 237.84
  A 0.86 0.86 0.0 0 1 126.57 238.81
  L 126.40 240.02
  A 1.43 1.43 0.0 0 1 124.98 241.26
  L 117.40 241.26
  A 1.40 1.40 0.0 0 0 116.00 242.66
  L 116.00 243.01
  A 1.34 1.34 0.0 0 0 117.48 244.34
  L 125.22 243.53
  A 1.16 1.15 89.0 0 1 126.49 244.77
  L 126.18 248.96
  A 1.56 1.56 0.0 0 0 127.95 250.62
  L 128.46 250.55
  A 1.60 1.59 -3.9 0 0 129.84 248.97
  L 129.84 244.34
  A 1.01 1.00 -86.0 0 1 130.98 243.34
  L 138.06 244.31
  A 2.49 2.48 18.8 0 0 140.54 243.09
  L 141.09 242.13
  A 0.75 0.74 -74.9 0 0 140.45 241.01
  L 131.13 241.02
  A 1.58 1.58 0.0 0 1 130.66 237.93
  Q 131.84 237.56 134.24 237.73
  A 2.07 2.03 -57.5 0 0 135.44 237.45
  L 136.43 236.88
  A 0.76 0.76 0.0 0 0 136.11 235.46
  L 130.98 235.08
  A 1.15 1.14 2.2 0 1 129.92 233.94
  L 129.92 233.61
  A 1.36 1.36 0.0 0 1 131.28 232.25
  L 136.42 232.25
  A 1.60 1.60 0.0 0 0 137.81 231.44
  L 138.06 231.01
  A 0.80 0.80 0.0 0 0 137.37 229.81
  L 132.53 229.81
  A 0.28 0.28 0.0 0 1 132.35 229.32"
/>
<path stroke="#b88b9d" vector-effect="non-scaling-stroke" d="
  M 148.83 235.78
  L 144.21 235.78
  A 1.16 1.15 -2.9 0 0 143.06 237.05
  L 143.09 237.36
  A 1.59 1.59 0.0 0 0 144.83 238.77
  L 148.50 238.38
  A 0.54 0.54 0.0 0 1 149.09 238.97
  Q 148.45 244.96 144.12 247.60
  A 1.36 1.36 0.0 0 0 144.63 250.10
  C 149.74 250.88 151.26 242.88 151.77 239.09
  A 1.25 1.24 -86.0 0 1 153.00 238.01
  L 157.42 238.01
  A 1.09 1.09 0.0 0 1 158.51 239.10
  L 158.51 245.71
  A 1.62 1.61 90.0 0 1 156.90 247.33
  L 153.52 247.33
  A 0.43 0.43 0.0 0 0 153.18 248.03
  C 155.05 250.41 159.12 251.94 160.90 248.57
  A 0.83 0.81 -73.1 0 1 161.70 248.13
  Q 162.26 248.18 162.63 248.38
  A 2.75 2.41 -55.8 0 0 165.88 247.53
  Q 169.11 243.37 168.75 237.72
  A 2.29 2.28 -7.5 0 1 170.59 235.33
  L 170.67 235.31
  A 1.78 1.78 0.0 0 1 172.79 237.10
  Q 172.68 240.99 172.76 244.67
  C 172.89 250.82 179.59 250.85 183.10 247.93
  A 1.15 1.14 -65.1 0 0 182.36 245.90
  Q 181.62 245.91 180.15 246.16
  C 174.15 247.17 175.44 239.53 175.93 235.74
  A 2.18 2.18 0.0 0 0 173.77 233.28
  L 166.82 233.28
  A 0.94 0.94 0.0 0 0 165.88 234.22
  L 165.88 240.72
  A 5.74 5.71 68.9 0 1 164.02 244.95
  L 163.30 245.61
  A 1.46 1.46 0.0 0 1 160.89 244.63
  Q 160.32 237.56 161.57 229.97
  A 1.27 1.27 0.0 0 0 160.32 228.49
  L 156.13 228.49
  A 0.39 0.38 -75.0 0 1 155.80 227.91
  L 156.90 226.01
  A 1.21 1.20 -71.1 0 0 156.02 224.21
  L 154.92 224.06
  A 1.12 1.11 -82.3 0 0 153.67 225.02
  L 153.30 227.71
  A 0.95 0.95 0.0 0 1 152.36 228.52
  L 149.96 228.52
  A 0.80 0.79 -83.0 0 0 149.19 229.13
  Q 148.49 231.93 149.40 235.01
  A 0.60 0.60 0.0 0 1 148.83 235.78"
/>
<path stroke="#b88b9d" vector-effect="non-scaling-stroke" d="
  M 106.87 225.61
  L 106.61 227.75
  A 0.49 0.49 0.0 0 0 107.04 228.30
  L 107.21 228.32
  A 10.46 1.41 7.0 0 0 117.76 228.20
  L 117.80 227.88
  A 10.46 1.41 7.0 0 0 107.59 225.20
  L 107.42 225.18
  A 0.49 0.49 0.0 0 0 106.87 225.61"
/>
<path stroke="#b88b9d" vector-effect="non-scaling-stroke" d="
  M 172.83 227.68
  L 172.83 226.12
  A 1.03 1.03 0.0 0 0 171.62 225.10
  Q 169.68 225.43 169.23 226.32
  Q 169.02 226.73 169.17 227.11
  Q 169.25 227.33 169.29 227.49
  A 0.80 0.80 0.0 0 1 168.52 228.50
  L 165.13 228.50
  A 2.54 2.53 14.9 0 0 162.93 229.77
  L 162.68 230.20
  A 0.62 0.61 14.8 0 0 163.22 231.12
  L 179.00 231.12
  A 1.77 1.76 23.0 0 0 180.22 230.63
  L 180.74 230.14
  A 0.71 0.71 0.0 0 0 180.30 228.92
  L 173.52 228.42
  A 0.76 0.74 2.5 0 1 172.83 227.68"
/>
<path stroke="#b88b9d" vector-effect="non-scaling-stroke" d="
  M 116.29 230.63
  C 112.72 230.00 109.42 230.50 106.10 230.41
  A 1.64 1.64 0.0 0 0 104.43 231.83
  L 104.39 232.11
  A 1.34 1.33 1.0 0 0 105.86 233.62
  L 111.46 233.03
  A 0.77 0.77 0.0 0 1 112.23 234.14
  C 110.54 237.59 104.87 239.82 101.56 240.08
  A 1.16 1.16 0.0 0 0 101.13 242.28
  C 104.86 244.14 107.43 241.53 110.56 239.15
  A 0.47 0.47 0.0 0 1 111.32 239.56
  L 110.64 248.72
  A 0.83 0.82 88.9 0 0 111.55 249.60
  L 112.94 249.46
  A 1.18 1.16 87.0 0 0 113.98 248.29
  L 113.98 238.56
  A 0.74 0.73 -5.8 0 1 114.57 237.84
  Q 115.42 237.67 116.44 238.38
  A 1.82 1.82 0.0 0 0 118.33 238.49
  L 118.82 238.26
  A 0.59 0.59 0.0 0 0 118.87 237.22
  L 115.64 235.36
  A 0.69 0.69 0.0 0 1 115.48 234.28
  Q 116.71 232.98 116.84 231.35
  A 0.68 0.66 -83.0 0 0 116.29 230.63"
/>
<path stroke="#b88b9d" vector-effect="non-scaling-stroke" d="
  M 192.33 237.00
  Q 197.17 237.21 200.46 233.93
  A 1.27 1.26 -66.2 0 0 199.63 231.77
  C 197.64 231.68 194.57 234.23 192.04 235.98
  A 0.56 0.56 0.0 0 0 192.33 237.00"
/>
<path stroke="#b88b9d" vector-effect="non-scaling-stroke" d="
  M 211.69 236.70
  A 0.55 0.55 0.0 0 0 212.02 235.73
  Q 208.06 232.42 205.24 231.78
  Q 204.31 231.56 204.24 231.63
  A 2.21 2.01 -52.3 0 0 204.51 234.95
  Q 207.82 236.86 211.69 236.70"
/>
<path stroke="#b88b9d" vector-effect="non-scaling-stroke" d="
  M 198.84 246.05
  C 196.40 245.93 193.01 246.02 189.40 246.06
  Q 186.68 246.09 185.70 247.91
  A 1.24 1.23 -80.9 0 0 187.00 249.71
  Q 201.30 247.23 215.98 249.80
  Q 218.30 250.21 220.54 248.54
  A 1.35 1.35 0.0 0 0 219.73 246.10
  L 205.47 246.10
  A 1.90 1.90 0.0 0 1 203.57 244.20
  L 203.57 242.87
  A 1.78 1.77 -90.0 0 1 205.34 241.09
  L 209.60 241.09
  A 1.95 1.94 14.9 0 0 211.29 240.11
  L 211.47 239.77
  A 1.07 1.07 0.0 0 0 210.42 238.54
  L 194.73 238.48
  A 1.60 1.59 -87.5 0 0 193.13 239.95
  L 193.11 240.24
  A 0.88 0.88 0.0 0 0 193.99 241.19
  L 199.09 241.19
  A 1.13 1.12 90.0 0 1 200.21 242.32
  L 200.21 244.74
  A 1.31 1.31 0.0 0 1 198.84 246.05"
/>
<path stroke="#b88b9d" vector-effect="non-scaling-stroke" d="
  M 154.48 238.67
  L 152.87 239.72
  A 0.29 0.29 0.0 0 0 152.79 240.12
  L 153.26 240.84
  A 4.67 1.17 56.8 0 0 156.80 244.11
  L 156.93 244.02
  A 4.67 1.17 56.8 0 0 155.35 239.47
  L 154.88 238.75
  A 0.29 0.29 0.0 0 0 154.48 238.67"
/>
<path stroke="#b88b9d" vector-effect="non-scaling-stroke" d="
  M 82.74 249.22
  Q 85.89 249.23 91.73 250.27
  A 1.79 1.79 0.0 0 0 93.74 249.07
  Q 94.63 246.45 95.42 242.45
  Q 95.97 239.70 93.22 239.58
  Q 84.90 239.23 82.77 239.22
  Q 80.64 239.22 72.32 239.52
  Q 69.57 239.62 70.10 242.38
  Q 70.87 246.38 71.74 249.01
  A 1.79 1.79 0.0 0 0 73.75 250.21
  Q 79.59 249.21 82.74 249.22"
/>
<path stroke="#b88b9d" vector-effect="non-scaling-stroke" d="
  M 167.6618 201.1506
  A 5.86 4.57 -89.2 0 0 163.0104 206.9462
  A 5.86 4.57 -89.2 0 0 167.4982 212.8694
  A 5.86 4.57 -89.2 0 0 172.1496 207.0738
  A 5.86 4.57 -89.2 0 0 167.6618 201.1506"
/>
<path stroke="#b88b9d" vector-effect="non-scaling-stroke" d="
  M 148.07 208.23
  A 0.44 0.44 0.0 0 0 148.50 208.78
  L 151.81 208.76
  A 0.44 0.44 0.0 0 0 152.23 208.20
  L 150.54 202.27
  A 0.44 0.44 0.0 0 0 149.70 202.28
  L 148.07 208.23"
/>
<path stroke="#b88b9d" vector-effect="non-scaling-stroke" d="
  M 187.73 208.09
  A 0.50 0.50 0.0 0 0 188.22 208.73
  L 191.38 208.73
  A 0.50 0.50 0.0 0 0 191.87 208.09
  L 190.28 202.46
  A 0.50 0.50 0.0 0 0 189.32 202.46
  L 187.73 208.09"
/>
<path stroke="#b88b9d" vector-effect="non-scaling-stroke" d="
  M 211.97 201.37
  L 211.93 205.33
  A 0.69 0.69 0.0 0 0 212.61 206.03
  L 214.02 206.04
  A 2.98 2.56 0.7 0 0 217.03 203.52
  L 217.03 203.30
  A 2.98 2.56 0.7 0 0 214.08 200.70
  L 212.67 200.69
  A 0.69 0.69 0.0 0 0 211.97 201.37"
/>
<path stroke="#b88b9d" vector-effect="non-scaling-stroke" d="
  M 152.50 235.77
  L 157.98 235.81
  A 0.55 0.55 0.0 0 0 158.54 235.27
  L 158.57 232.13
  A 2.51 2.13 0.5 0 0 156.08 229.98
  L 154.52 229.96
  A 2.51 2.13 0.5 0 0 151.99 232.07
  L 151.96 235.21
  A 0.55 0.55 0.0 0 0 152.50 235.77"
/>
<path stroke="#b88b9d" vector-effect="non-scaling-stroke" d="
  M 156.76 234.37
  L 155.41 231.16
  A 0.49 0.49 0.0 0 0 154.77 230.90
  L 154.61 230.97
  A 2.05 1.98 67.1 0 0 153.58 233.63
  L 153.72 233.96
  A 2.05 1.98 67.1 0 0 156.35 235.08
  L 156.50 235.01
  A 0.49 0.49 0.0 0 0 156.76 234.37"
/>
<path stroke="#b88b9d" vector-effect="non-scaling-stroke" d="
  M 91.3445 243.6688
  A 1.75 1.75 0.0 0 0 89.6068 241.9066
  L 76.2671 241.8135
  A 1.75 1.75 0.0 0 0 74.5050 243.5512
  L 74.4955 244.9112
  A 1.75 1.75 0.0 0 0 76.2332 246.6734
  L 89.5729 246.7665
  A 1.75 1.75 0.0 0 0 91.3350 245.0288
  L 91.3445 243.6688"
/>
</g>
<path fill="#ffffff" d="
  M 287.00 0.00
  L 287.00 287.00
  L 0.00 287.00
  L 0.00 0.00
  L 287.00 0.00
  Z
  M 8.46 184.15
  A 141.60 141.54 11.4 0 0 52.29 249.97
  A 141.67 141.54 -18.5 0 0 112.24 279.79
  A 141.54 141.45 43.6 0 0 181.37 278.13
  A 141.55 141.47 15.3 0 0 241.58 243.83
  A 141.65 141.59 76.7 0 0 278.74 183.64
  A 141.60 141.56 47.6 0 0 281.98 112.25
  A 141.38 141.34 -70.2 0 0 254.57 53.93
  A 141.56 141.54 -6.9 0 0 202.29 12.93
  A 141.59 141.55 56.3 0 0 139.00 0.23
  A 141.54 141.52 -60.2 0 0 76.02 17.29
  A 141.55 141.49 3.9 0 0 29.32 58.07
  A 141.60 141.59 -21.9 0 0 4.08 117.28
  A 141.66 141.63 -48.8 0 0 8.46 184.15
  Z"
/>
<path fill="#ac1950" d="
  M 278.74 183.64
  Q 146.28 183.72 14.22 183.81
  Q 14.01 183.81 11.30 183.54
  Q 9.51 183.37 8.46 184.15
  A 141.66 141.63 -48.8 0 1 4.08 117.28
  A 141.60 141.59 -21.9 0 1 29.32 58.07
  A 141.55 141.49 3.9 0 1 76.02 17.29
  A 141.54 141.52 -60.2 0 1 139.00 0.23
  A 141.59 141.55 56.3 0 1 202.29 12.93
  A 141.56 141.54 -6.9 0 1 254.57 53.93
  A 141.38 141.34 -70.2 0 1 281.98 112.25
  A 141.60 141.56 47.6 0 1 278.74 183.64
  Z
  M 221.16 98.73
  A 78.24 78.24 0.0 0 0 142.92 20.49
  A 78.24 78.24 0.0 0 0 64.68 98.73
  A 78.24 78.24 0.0 0 0 142.92 176.97
  A 78.24 78.24 0.0 0 0 221.16 98.73
  Z"
/>
<path fill="#ddb489" d="
  M 221.16 98.73
  A 78.24 78.24 0.0 0 1 142.92 176.97
  A 78.24 78.24 0.0 0 1 64.68 98.73
  A 78.24 78.24 0.0 0 1 142.92 20.49
  A 78.24 78.24 0.0 0 1 221.16 98.73
  Z
  M 216.43 98.69
  A 73.54 73.54 0.0 0 0 142.89 25.15
  A 73.54 73.54 0.0 0 0 69.35 98.69
  A 73.54 73.54 0.0 0 0 142.89 172.23
  A 73.54 73.54 0.0 0 0 216.43 98.69
  Z"
/>
<path fill="#ac1950" d="
  M 216.43 98.69
  A 73.54 73.54 0.0 0 1 142.89 172.23
  A 73.54 73.54 0.0 0 1 69.35 98.69
  A 73.54 73.54 0.0 0 1 142.89 25.15
  A 73.54 73.54 0.0 0 1 216.43 98.69
  Z
  M 215.32 98.69
  A 72.46 72.46 0.0 0 0 142.86 26.23
  A 72.46 72.46 0.0 0 0 70.40 98.69
  A 72.46 72.46 0.0 0 0 142.86 171.15
  A 72.46 72.46 0.0 0 0 215.32 98.69
  Z"
/>
<path fill="#ddb489" d="
  M 215.32 98.69
  A 72.46 72.46 0.0 0 1 142.86 171.15
  A 72.46 72.46 0.0 0 1 70.40 98.69
  A 72.46 72.46 0.0 0 1 142.86 26.23
  A 72.46 72.46 0.0 0 1 215.32 98.69
  Z
  M 213.71 98.69
  A 70.80 70.80 0.0 0 0 142.91 27.89
  A 70.80 70.80 0.0 0 0 72.11 98.69
  A 70.80 70.80 0.0 0 0 142.91 169.49
  A 70.80 70.80 0.0 0 0 213.71 98.69
  Z"
/>
<path fill="#ac1950" d="
  M 213.71 98.69
  A 70.80 70.80 0.0 0 1 142.91 169.49
  A 70.80 70.80 0.0 0 1 72.11 98.69
  A 70.80 70.80 0.0 0 1 142.91 27.89
  A 70.80 70.80 0.0 0 1 213.71 98.69
  Z
  M 132.19 110.14
  C 122.67 109.47 110.78 104.70 106.45 95.62
  C 101.25 84.73 103.40 73.22 113.16 65.92
  Q 118.60 61.85 123.92 60.76
  A 0.19 0.18 75.9 0 1 124.13 60.89
  L 124.21 61.15
  A 0.43 0.43 0.0 0 1 123.93 61.68
  C 113.66 64.86 105.46 71.74 104.89 82.66
  C 104.13 97.17 113.35 105.00 126.54 108.21
  Q 134.89 110.25 144.38 110.59
  Q 155.64 111.00 181.75 110.48
  C 183.86 110.44 187.32 110.38 188.12 112.24
  A 1.12 0.95 -48.9 0 0 190.01 111.95
  C 191.16 109.10 187.64 108.19 185.49 108.07
  Q 178.29 107.69 173.50 107.84
  Q 155.99 108.37 146.90 107.64
  A 0.48 0.47 -88.1 0 1 146.46 107.16
  L 146.46 107.07
  A 0.49 0.49 0.0 0 1 146.96 106.58
  Q 163.20 106.92 184.50 106.71
  C 187.54 106.68 192.59 108.30 191.10 112.39
  A 1.56 1.56 0.0 0 1 190.49 113.15
  Q 187.28 115.18 183.24 115.19
  Q 148.42 115.27 108.25 115.20
  C 103.20 115.19 97.86 116.05 93.38 114.97
  Q 89.99 114.17 89.05 110.83
  C 88.53 108.99 90.17 107.87 91.97 108.38
  A 1.26 1.22 -10.5 0 1 92.62 108.81
  L 93.93 110.44
  A 1.04 1.03 -21.1 0 0 94.82 110.83
  Q 98.01 110.61 98.18 107.77
  C 98.48 102.84 92.17 101.46 88.24 102.10
  C 83.21 102.91 80.53 108.49 81.38 113.05
  C 82.36 118.30 86.10 120.26 90.71 122.07
  A 0.22 0.21 -75.6 0 1 90.85 122.31
  L 90.82 122.58
  A 0.33 0.33 0.0 0 1 90.42 122.85
  C 83.32 121.13 77.78 114.55 80.93 107.18
  Q 84.01 99.96 91.83 100.83
  C 92.74 100.93 93.73 101.41 94.66 101.49
  A 0.29 0.29 0.0 0 0 94.85 100.96
  Q 89.73 97.39 83.77 100.05
  C 78.10 102.59 75.49 107.75 76.23 114.03
  Q 77.25 122.68 86.00 126.25
  Q 87.91 127.03 89.23 127.17
  A 0.51 0.50 -78.7 0 1 89.65 127.81
  C 89.28 129.14 88.29 131.00 88.12 132.00
  Q 86.91 139.01 91.87 144.36
  Q 99.06 152.11 108.96 155.89
  C 120.00 160.11 136.49 159.89 145.19 150.43
  Q 146.12 149.42 155.31 138.82
  C 161.65 131.52 173.65 127.33 182.23 132.97
  Q 187.96 136.73 186.62 143.56
  C 185.89 147.28 181.11 149.80 177.68 149.30
  A 0.20 0.20 0.0 0 0 177.46 149.56
  L 177.60 150.03
  A 0.01 0.01 0.0 0 0 177.61 150.04
  Q 182.37 150.84 185.73 148.50
  C 192.39 143.86 190.74 132.85 183.65 129.59
  A 0.23 0.22 58.3 0 1 183.75 129.16
  C 195.51 129.70 209.85 125.84 209.94 111.25
  Q 209.98 103.26 204.24 98.03
  A 0.35 0.35 0.0 0 0 203.72 98.49
  Q 208.49 105.09 205.96 113.27
  C 203.92 119.86 196.30 122.59 189.96 123.14
  C 179.95 124.01 167.13 123.08 158.33 123.26
  Q 154.36 123.34 106.45 122.88
  C 100.31 122.82 93.15 124.06 92.08 130.80
  C 90.86 138.52 98.18 142.53 104.70 138.92
  A 2.09 2.07 1.7 0 0 105.47 138.20
  Q 107.74 134.71 104.66 132.45
  A 1.74 1.74 0.0 0 0 101.91 133.62
  L 101.76 134.74
  A 1.06 1.05 -2.0 0 1 100.92 135.63
  Q 98.24 136.19 96.82 133.97
  A 1.59 1.55 -60.5 0 1 96.57 133.02
  C 96.77 128.66 101.07 128.14 104.50 128.19
  Q 146.33 128.78 156.58 129.04
  Q 159.64 129.12 162.77 129.16
  A 0.32 0.32 0.0 0 1 162.83 129.79
  C 157.95 130.79 152.32 136.29 149.35 140.13
  A 0.31 0.31 0.0 0 1 148.80 140.00
  C 146.98 130.72 136.45 126.62 129.76 134.03
  A 0.24 0.24 0.0 0 0 130.00 134.42
  Q 130.65 134.25 131.55 133.81
  C 140.05 129.62 148.38 137.29 145.37 146.19
  A 0.07 0.07 0.0 0 1 145.32 146.24
  L 144.82 146.39
  A 0.35 0.35 0.0 0 1 144.38 145.96
  C 147.18 135.75 137.75 130.77 129.69 136.01
  A 2.57 2.48 86.3 0 0 128.74 137.13
  Q 126.26 142.80 130.74 146.88
  Q 132.56 148.53 135.03 146.42
  A 0.70 0.70 0.0 0 0 135.18 145.54
  L 133.96 143.42
  A 1.00 0.99 42.6 0 1 133.92 142.50
  C 136.19 137.62 142.58 143.52 138.22 147.56
  Q 134.34 151.16 128.73 151.54
  C 119.51 152.17 108.34 150.39 101.46 143.74
  A 0.38 0.38 0.0 0 1 101.55 143.13
  Q 104.33 141.69 105.78 140.07
  A 0.29 0.29 0.0 0 0 105.40 139.64
  Q 100.31 143.09 95.42 140.27
  C 91.00 137.72 89.48 132.38 91.86 128.03
  C 95.10 122.11 102.04 121.65 108.50 121.67
  Q 116.34 121.68 132.50 121.94
  Q 153.07 122.28 187.00 122.21
  C 195.46 122.19 205.29 119.04 205.66 108.79
  C 205.90 102.16 202.60 96.53 196.02 94.47
  A 1.71 1.70 43.6 0 0 194.97 94.49
  L 185.28 97.91
  A 0.83 0.83 0.0 0 1 184.25 97.47
  L 184.21 97.37
  A 0.53 0.53 0.0 0 1 184.61 96.75
  Q 196.00 94.13 203.78 86.27
  C 208.95 81.03 209.62 72.80 204.27 67.46
  Q 200.19 63.39 194.43 64.72
  C 187.60 66.30 186.53 74.64 192.90 77.54
  A 0.52 0.52 0.0 0 1 193.05 78.37
  C 189.36 82.09 184.30 82.98 178.85 83.11
  Q 169.92 83.33 165.76 83.44
  C 159.32 83.62 149.39 86.15 149.85 94.57
  C 150.19 100.71 157.25 102.09 162.32 102.15
  A 0.35 0.35 0.0 0 1 162.66 102.50
  L 162.66 102.80
  A 0.42 0.42 0.0 0 1 162.25 103.22
  C 156.37 103.42 148.02 100.89 148.81 93.24
  C 149.84 83.19 163.08 81.88 170.50 81.98
  C 178.19 82.08 182.83 82.01 187.27 80.70
  A 0.16 0.16 0.0 0 0 187.22 80.38
  Q 177.52 80.56 166.00 80.51
  C 158.01 80.48 148.77 81.67 145.15 90.11
  A 1.42 1.41 11.7 0 1 143.85 90.96
  L 136.48 90.96
  A 0.85 0.85 0.0 0 1 135.64 89.98
  Q 136.43 85.00 133.58 81.20
  Q 132.29 79.49 131.24 79.39
  A 0.33 0.33 0.0 0 0 130.96 79.94
  Q 134.30 83.68 133.60 89.10
  Q 132.48 97.77 123.95 99.42
  Q 120.30 100.13 117.44 99.06
  A 0.35 0.35 0.0 0 1 117.63 98.39
  Q 120.89 98.99 124.89 98.11
  Q 131.19 96.73 132.32 89.76
  C 132.92 86.08 131.91 79.51 126.95 79.30
  A 3.04 3.03 11.2 0 0 123.98 81.28
  L 123.83 81.69
  A 1.49 1.48 -80.9 0 0 125.27 83.69
  C 128.92 83.57 128.40 88.65 125.23 89.01
  C 119.78 89.62 117.85 84.04 119.62 79.82
  Q 121.83 74.52 127.92 71.74
  A 0.89 0.86 79.3 0 0 128.43 70.97
  Q 128.46 70.27 128.37 69.68
  C 127.84 66.47 130.31 63.41 133.01 62.80
  C 136.21 62.08 139.92 64.77 139.19 68.30
  C 137.82 74.90 128.37 70.03 133.36 65.94
  A 0.38 0.37 49.0 0 1 133.87 65.98
  L 133.90 66.01
  A 0.43 0.43 0.0 0 1 133.90 66.59
  C 132.21 68.45 133.02 70.85 135.66 70.31
  C 139.67 69.48 138.26 64.62 135.17 63.85
  C 132.46 63.17 129.92 65.20 129.53 67.77
  C 128.59 74.09 136.11 76.04 140.16 72.65
  Q 145.14 68.48 146.75 67.31
  C 150.60 64.53 161.08 59.48 164.28 64.91
  C 165.31 66.65 164.12 68.97 161.99 68.74
  A 1.39 1.39 0.0 0 1 161.10 68.30
  Q 159.82 66.90 158.99 67.45
  A 2.08 2.04 53.0 0 0 158.59 70.50
  Q 160.11 72.30 162.56 72.66
  C 171.56 74.00 175.15 65.28 171.43 58.15
  A 0.45 0.44 -13.7 0 1 171.83 57.50
  C 175.78 57.53 180.98 57.29 184.20 60.05
  A 1.58 1.58 0.0 0 1 183.19 62.83
  Q 182.65 62.84 181.97 62.84
  A 2.11 1.93 79.1 0 0 180.24 65.65
  Q 180.87 67.38 182.46 67.82
  C 189.72 69.85 193.63 62.20 192.07 56.10
  C 190.45 49.76 184.29 46.29 177.97 46.11
  Q 172.68 45.95 170.85 45.36
  A 0.97 0.96 -88.9 0 1 170.22 44.70
  Q 170.22 44.67 169.79 42.08
  C 168.10 31.87 155.86 31.62 148.45 35.22
  Q 142.42 38.14 134.86 42.48
  C 131.52 44.40 123.21 48.28 119.66 45.86
  A 1.77 1.69 -56.5 0 1 119.23 43.48
  Q 120.10 42.14 122.00 41.17
  A 0.71 0.71 0.0 0 0 122.30 40.18
  L 120.69 37.40
  A 1.10 1.08 66.8 0 0 119.44 36.89
  C 114.16 38.43 109.07 42.92 110.76 48.70
  C 112.36 54.22 119.35 54.63 124.29 53.83
  C 134.15 52.24 141.68 46.97 150.46 41.47
  C 155.21 38.51 161.53 37.56 164.19 43.64
  A 0.46 0.46 0.0 0 1 163.94 44.26
  L 163.92 44.27
  A 0.47 0.47 0.0 0 1 163.32 44.04
  Q 161.15 39.47 156.09 40.36
  Q 153.42 40.83 152.17 41.64
  C 142.75 47.73 125.26 59.66 113.64 53.62
  C 108.85 51.14 108.38 45.81 110.94 41.32
  A 0.23 0.23 0.0 0 0 110.60 41.02
  Q 105.47 44.69 107.97 51.59
  A 0.76 0.75 -14.2 0 1 107.37 52.59
  C 95.47 54.39 80.48 62.32 79.43 75.86
  Q 78.93 82.25 82.95 85.27
  C 87.74 88.89 96.20 88.30 97.89 81.35
  A 0.40 0.39 78.3 0 0 97.27 80.94
  Q 97.18 81.01 96.29 82.20
  C 92.53 87.24 84.72 85.90 82.31 80.46
  C 80.38 76.11 82.24 70.94 85.54 67.80
  Q 96.20 57.70 111.28 56.97
  A 0.58 0.56 84.5 0 1 111.87 57.47
  L 111.87 57.49
  A 0.53 0.52 85.1 0 1 111.37 58.09
  Q 96.09 58.71 85.69 69.12
  C 81.57 73.25 80.97 83.67 89.09 84.17
  Q 95.27 84.55 97.22 78.41
  Q 97.99 75.97 96.56 73.84
  A 1.48 1.42 56.6 0 0 94.59 73.39
  C 92.21 74.89 94.40 78.08 91.88 79.03
  A 2.03 1.84 69.2 0 1 89.45 77.79
  Q 88.23 74.60 90.67 71.87
  Q 96.42 65.46 105.00 64.76
  A 0.58 0.58 0.0 0 1 105.50 65.70
  Q 100.31 72.11 98.63 79.56
  C 98.06 82.13 97.90 87.22 98.47 89.69
  C 101.11 101.11 109.63 108.31 121.40 110.22
  Q 128.07 111.30 132.24 110.61
  A 0.22 0.22 0.0 0 0 132.42 110.39
  L 132.42 110.38
  A 0.25 0.24 2.6 0 0 132.19 110.14
  Z
  M 116.27 159.50
  C 120.07 161.15 123.86 161.50 128.76 161.54
  C 137.10 161.60 144.11 159.07 150.65 153.62
  Q 156.90 148.42 162.16 143.68
  C 165.87 140.33 174.67 134.04 179.13 138.93
  Q 179.99 139.88 179.67 141.30
  A 1.61 1.42 -57.3 0 1 176.98 142.07
  Q 176.03 140.56 173.76 141.16
  A 0.98 0.97 -1.0 0 0 173.05 141.89
  Q 172.51 144.38 172.79 145.70
  A 3.66 3.25 1.5 0 0 175.58 148.31
  C 179.41 149.09 185.32 147.23 185.73 142.51
  C 186.37 135.24 179.98 131.51 173.46 131.58
  C 161.36 131.72 156.14 139.29 149.10 147.60
  Q 144.83 152.64 141.73 154.71
  C 134.65 159.43 124.62 160.67 116.41 159.07
  A 0.23 0.23 0.0 0 0 116.27 159.50
  Z"
/>
<path fill="#ddb489" d="
  M 132.19 110.14
  A 0.25 0.24 2.6 0 1 132.42 110.38
  L 132.42 110.39
  A 0.22 0.22 0.0 0 1 132.24 110.61
  Q 128.07 111.30 121.40 110.22
  C 109.63 108.31 101.11 101.11 98.47 89.69
  C 97.90 87.22 98.06 82.13 98.63 79.56
  Q 100.31 72.11 105.50 65.70
  A 0.58 0.58 0.0 0 0 105.00 64.76
  Q 96.42 65.46 90.67 71.87
  Q 88.23 74.60 89.45 77.79
  A 2.03 1.84 69.2 0 0 91.88 79.03
  C 94.40 78.08 92.21 74.89 94.59 73.39
  A 1.48 1.42 56.6 0 1 96.56 73.84
  Q 97.99 75.97 97.22 78.41
  Q 95.27 84.55 89.09 84.17
  C 80.97 83.67 81.57 73.25 85.69 69.12
  Q 96.09 58.71 111.37 58.09
  A 0.53 0.52 85.1 0 0 111.87 57.49
  L 111.87 57.47
  A 0.58 0.56 84.5 0 0 111.28 56.97
  Q 96.20 57.70 85.54 67.80
  C 82.24 70.94 80.38 76.11 82.31 80.46
  C 84.72 85.90 92.53 87.24 96.29 82.20
  Q 97.18 81.01 97.27 80.94
  A 0.40 0.39 78.3 0 1 97.89 81.35
  C 96.20 88.30 87.74 88.89 82.95 85.27
  Q 78.93 82.25 79.43 75.86
  C 80.48 62.32 95.47 54.39 107.37 52.59
  A 0.76 0.75 -14.2 0 0 107.97 51.59
  Q 105.47 44.69 110.60 41.02
  A 0.23 0.23 0.0 0 1 110.94 41.32
  C 108.38 45.81 108.85 51.14 113.64 53.62
  C 125.26 59.66 142.75 47.73 152.17 41.64
  Q 153.42 40.83 156.09 40.36
  Q 161.15 39.47 163.32 44.04
  A 0.47 0.47 0.0 0 0 163.92 44.27
  L 163.94 44.26
  A 0.46 0.46 0.0 0 0 164.19 43.64
  C 161.53 37.56 155.21 38.51 150.46 41.47
  C 141.68 46.97 134.15 52.24 124.29 53.83
  C 119.35 54.63 112.36 54.22 110.76 48.70
  C 109.07 42.92 114.16 38.43 119.44 36.89
  A 1.10 1.08 66.8 0 1 120.69 37.40
  L 122.30 40.18
  A 0.71 0.71 0.0 0 1 122.00 41.17
  Q 120.10 42.14 119.23 43.48
  A 1.77 1.69 -56.5 0 0 119.66 45.86
  C 123.21 48.28 131.52 44.40 134.86 42.48
  Q 142.42 38.14 148.45 35.22
  C 155.86 31.62 168.10 31.87 169.79 42.08
  Q 170.22 44.67 170.22 44.70
  A 0.97 0.96 -88.9 0 0 170.85 45.36
  Q 172.68 45.95 177.97 46.11
  C 184.29 46.29 190.45 49.76 192.07 56.10
  C 193.63 62.20 189.72 69.85 182.46 67.82
  Q 180.87 67.38 180.24 65.65
  A 2.11 1.93 79.1 0 1 181.97 62.84
  Q 182.65 62.84 183.19 62.83
  A 1.58 1.58 0.0 0 0 184.20 60.05
  C 180.98 57.29 175.78 57.53 171.83 57.50
  A 0.45 0.44 -13.7 0 0 171.43 58.15
  C 175.15 65.28 171.56 74.00 162.56 72.66
  Q 160.11 72.30 158.59 70.50
  A 2.08 2.04 53.0 0 1 158.99 67.45
  Q 159.82 66.90 161.10 68.30
  A 1.39 1.39 0.0 0 0 161.99 68.74
  C 164.12 68.97 165.31 66.65 164.28 64.91
  C 161.08 59.48 150.60 64.53 146.75 67.31
  Q 145.14 68.48 140.16 72.65
  C 136.11 76.04 128.59 74.09 129.53 67.77
  C 129.92 65.20 132.46 63.17 135.17 63.85
  C 138.26 64.62 139.67 69.48 135.66 70.31
  C 133.02 70.85 132.21 68.45 133.90 66.59
  A 0.43 0.43 0.0 0 0 133.90 66.01
  L 133.87 65.98
  A 0.38 0.37 49.0 0 0 133.36 65.94
  C 128.37 70.03 137.82 74.90 139.19 68.30
  C 139.92 64.77 136.21 62.08 133.01 62.80
  C 130.31 63.41 127.84 66.47 128.37 69.68
  Q 128.46 70.27 128.43 70.97
  A 0.89 0.86 79.3 0 1 127.92 71.74
  Q 121.83 74.52 119.62 79.82
  C 117.85 84.04 119.78 89.62 125.23 89.01
  C 128.40 88.65 128.92 83.57 125.27 83.69
  A 1.49 1.48 -80.9 0 1 123.83 81.69
  L 123.98 81.28
  A 3.04 3.03 11.2 0 1 126.95 79.30
  C 131.91 79.51 132.92 86.08 132.32 89.76
  Q 131.19 96.73 124.89 98.11
  Q 120.89 98.99 117.63 98.39
  A 0.35 0.35 0.0 0 0 117.44 99.06
  Q 120.30 100.13 123.95 99.42
  Q 132.48 97.77 133.60 89.10
  Q 134.30 83.68 130.96 79.94
  A 0.33 0.33 0.0 0 1 131.24 79.39
  Q 132.29 79.49 133.58 81.20
  Q 136.43 85.00 135.64 89.98
  A 0.85 0.85 0.0 0 0 136.48 90.96
  L 143.85 90.96
  A 1.42 1.41 11.7 0 0 145.15 90.11
  C 148.77 81.67 158.01 80.48 166.00 80.51
  Q 177.52 80.56 187.22 80.38
  A 0.16 0.16 0.0 0 1 187.27 80.70
  C 182.83 82.01 178.19 82.08 170.50 81.98
  C 163.08 81.88 149.84 83.19 148.81 93.24
  C 148.02 100.89 156.37 103.42 162.25 103.22
  A 0.42 0.42 0.0 0 0 162.66 102.80
  L 162.66 102.50
  A 0.35 0.35 0.0 0 0 162.32 102.15
  C 157.25 102.09 150.19 100.71 149.85 94.57
  C 149.39 86.15 159.32 83.62 165.76 83.44
  Q 169.92 83.33 178.85 83.11
  C 184.30 82.98 189.36 82.09 193.05 78.37
  A 0.52 0.52 0.0 0 0 192.90 77.54
  C 186.53 74.64 187.60 66.30 194.43 64.72
  Q 200.19 63.39 204.27 67.46
  C 209.62 72.80 208.95 81.03 203.78 86.27
  Q 196.00 94.13 184.61 96.75
  A 0.53 0.53 0.0 0 0 184.21 97.37
  L 184.25 97.47
  A 0.83 0.83 0.0 0 0 185.28 97.91
  L 194.97 94.49
  A 1.71 1.70 43.6 0 1 196.02 94.47
  C 202.60 96.53 205.90 102.16 205.66 108.79
  C 205.29 119.04 195.46 122.19 187.00 122.21
  Q 153.07 122.28 132.50 121.94
  Q 116.34 121.68 108.50 121.67
  C 102.04 121.65 95.10 122.11 91.86 128.03
  C 89.48 132.38 91.00 137.72 95.42 140.27
  Q 100.31 143.09 105.40 139.64
  A 0.29 0.29 0.0 0 1 105.78 140.07
  Q 104.33 141.69 101.55 143.13
  A 0.38 0.38 0.0 0 0 101.46 143.74
  C 108.34 150.39 119.51 152.17 128.73 151.54
  Q 134.34 151.16 138.22 147.56
  C 142.58 143.52 136.19 137.62 133.92 142.50
  A 1.00 0.99 42.6 0 0 133.96 143.42
  L 135.18 145.54
  A 0.70 0.70 0.0 0 1 135.03 146.42
  Q 132.56 148.53 130.74 146.88
  Q 126.26 142.80 128.74 137.13
  A 2.57 2.48 86.3 0 1 129.69 136.01
  C 137.75 130.77 147.18 135.75 144.38 145.96
  A 0.35 0.35 0.0 0 0 144.82 146.39
  L 145.32 146.24
  A 0.07 0.07 0.0 0 0 145.37 146.19
  C 148.38 137.29 140.05 129.62 131.55 133.81
  Q 130.65 134.25 130.00 134.42
  A 0.24 0.24 0.0 0 1 129.76 134.03
  C 136.45 126.62 146.98 130.72 148.80 140.00
  A 0.31 0.31 0.0 0 0 149.35 140.13
  C 152.32 136.29 157.95 130.79 162.83 129.79
  A 0.32 0.32 0.0 0 0 162.77 129.16
  Q 159.64 129.12 156.58 129.04
  Q 146.33 128.78 104.50 128.19
  C 101.07 128.14 96.77 128.66 96.57 133.02
  A 1.59 1.55 -60.5 0 0 96.82 133.97
  Q 98.24 136.19 100.92 135.63
  A 1.06 1.05 -2.0 0 0 101.76 134.74
  L 101.91 133.62
  A 1.74 1.74 0.0 0 1 104.66 132.45
  Q 107.74 134.71 105.47 138.20
  A 2.09 2.07 1.7 0 1 104.70 138.92
  C 98.18 142.53 90.86 138.52 92.08 130.80
  C 93.15 124.06 100.31 122.82 106.45 122.88
  Q 154.36 123.34 158.33 123.26
  C 167.13 123.08 179.95 124.01 189.96 123.14
  C 196.30 122.59 203.92 119.86 205.96 113.27
  Q 208.49 105.09 203.72 98.49
  A 0.35 0.35 0.0 0 1 204.24 98.03
  Q 209.98 103.26 209.94 111.25
  C 209.85 125.84 195.51 129.70 183.75 129.16
  A 0.23 0.22 58.3 0 0 183.65 129.59
  C 190.74 132.85 192.39 143.86 185.73 148.50
  Q 182.37 150.84 177.61 150.04
  A 0.01 0.01 0.0 0 1 177.60 150.03
  L 177.46 149.56
  A 0.20 0.20 0.0 0 1 177.68 149.30
  C 181.11 149.80 185.89 147.28 186.62 143.56
  Q 187.96 136.73 182.23 132.97
  C 173.65 127.33 161.65 131.52 155.31 138.82
  Q 146.12 149.42 145.19 150.43
  C 136.49 159.89 120.00 160.11 108.96 155.89
  Q 99.06 152.11 91.87 144.36
  Q 86.91 139.01 88.12 132.00
  C 88.29 131.00 89.28 129.14 89.65 127.81
  A 0.51 0.50 -78.7 0 0 89.23 127.17
  Q 87.91 127.03 86.00 126.25
  Q 77.25 122.68 76.23 114.03
  C 75.49 107.75 78.10 102.59 83.77 100.05
  Q 89.73 97.39 94.85 100.96
  A 0.29 0.29 0.0 0 1 94.66 101.49
  C 93.73 101.41 92.74 100.93 91.83 100.83
  Q 84.01 99.96 80.93 107.18
  C 77.78 114.55 83.32 121.13 90.42 122.85
  A 0.33 0.33 0.0 0 0 90.82 122.58
  L 90.85 122.31
  A 0.22 0.21 -75.6 0 0 90.71 122.07
  C 86.10 120.26 82.36 118.30 81.38 113.05
  C 80.53 108.49 83.21 102.91 88.24 102.10
  C 92.17 101.46 98.48 102.84 98.18 107.77
  Q 98.01 110.61 94.82 110.83
  A 1.04 1.03 -21.1 0 1 93.93 110.44
  L 92.62 108.81
  A 1.26 1.22 -10.5 0 0 91.97 108.38
  C 90.17 107.87 88.53 108.99 89.05 110.83
  Q 89.99 114.17 93.38 114.97
  C 97.86 116.05 103.20 115.19 108.25 115.20
  Q 148.42 115.27 183.24 115.19
  Q 187.28 115.18 190.49 113.15
  A 1.56 1.56 0.0 0 0 191.10 112.39
  C 192.59 108.30 187.54 106.68 184.50 106.71
  Q 163.20 106.92 146.96 106.58
  A 0.49 0.49 0.0 0 0 146.46 107.07
  L 146.46 107.16
  A 0.48 0.47 -88.1 0 0 146.90 107.64
  Q 155.99 108.37 173.50 107.84
  Q 178.29 107.69 185.49 108.07
  C 187.64 108.19 191.16 109.10 190.01 111.95
  A 1.12 0.95 -48.9 0 1 188.12 112.24
  C 187.32 110.38 183.86 110.44 181.75 110.48
  Q 155.64 111.00 144.38 110.59
  Q 134.89 110.25 126.54 108.21
  C 113.35 105.00 104.13 97.17 104.89 82.66
  C 105.46 71.74 113.66 64.86 123.93 61.68
  A 0.43 0.43 0.0 0 0 124.21 61.15
  L 124.13 60.89
  A 0.19 0.18 75.9 0 0 123.92 60.76
  Q 118.60 61.85 113.16 65.92
  C 103.40 73.22 101.25 84.73 106.45 95.62
  C 110.78 104.70 122.67 109.47 132.19 110.14
  Z
  M 159.67 43.73
  C 155.19 41.49 150.71 45.44 147.39 48.42
  A 0.42 0.42 0.0 0 0 147.52 49.13
  Q 151.98 50.80 157.34 50.85
  A 0.39 0.39 0.0 0 0 157.66 50.23
  Q 157.66 50.22 156.80 49.60
  C 155.05 48.32 154.89 45.68 156.92 44.60
  C 158.06 44.00 159.23 44.55 159.64 44.39
  A 0.36 0.36 0.0 0 0 159.67 43.73
  Z
  M 198.16 72.11
  Q 197.98 75.02 195.57 74.97
  A 1.60 1.56 -23.6 0 1 194.62 74.61
  Q 192.00 72.49 194.13 69.72
  A 2.36 2.34 -84.3 0 1 194.88 69.10
  C 197.28 67.85 199.61 68.98 201.15 71.02
  Q 202.04 72.19 202.21 74.25
  Q 202.72 80.49 197.36 84.17
  Q 187.81 90.72 176.19 91.18
  A 0.35 0.35 0.0 0 0 175.85 91.53
  L 175.85 91.81
  A 0.49 0.49 0.0 0 0 176.37 92.30
  Q 189.55 91.73 199.31 83.83
  Q 204.43 79.69 203.32 73.37
  C 202.73 70.02 198.76 66.04 195.08 67.80
  C 191.38 69.58 190.82 74.99 195.09 75.88
  Q 198.76 76.64 199.16 72.03
  A 0.26 0.26 0.0 0 0 198.90 71.75
  L 198.54 71.75
  A 0.38 0.38 0.0 0 0 198.16 72.11
  Z
  M 169.61 92.93
  A 0.35 0.35 0.0 0 0 169.75 92.25
  C 162.56 89.75 163.24 100.81 169.36 100.05
  Q 171.24 99.81 171.92 99.15
  C 174.02 97.11 177.50 94.19 179.68 97.94
  A 2.00 1.92 67.9 0 1 178.51 100.86
  Q 178.45 100.87 176.55 101.11
  A 0.62 0.62 0.0 0 0 176.49 102.33
  C 182.04 103.58 182.57 95.80 177.21 95.12
  C 174.84 94.82 173.29 96.75 171.55 98.23
  A 2.04 2.01 -76.4 0 1 170.97 98.59
  C 165.37 100.95 163.68 93.21 167.83 92.93
  Q 168.62 92.88 169.61 92.93
  Z"
/>
<path fill="#ac1950" d="
  M 159.64 44.39
  C 159.23 44.55 158.06 44.00 156.92 44.60
  C 154.89 45.68 155.05 48.32 156.80 49.60
  Q 157.66 50.22 157.66 50.23
  A 0.39 0.39 0.0 0 1 157.34 50.85
  Q 151.98 50.80 147.52 49.13
  A 0.42 0.42 0.0 0 1 147.39 48.42
  C 150.71 45.44 155.19 41.49 159.67 43.73
  A 0.36 0.36 0.0 0 1 159.64 44.39
  Z"
/>
<path fill="#ac1950" d="
  M 198.16 72.11
  A 0.38 0.38 0.0 0 1 198.54 71.75
  L 198.90 71.75
  A 0.26 0.26 0.0 0 1 199.16 72.03
  Q 198.76 76.64 195.09 75.88
  C 190.82 74.99 191.38 69.58 195.08 67.80
  C 198.76 66.04 202.73 70.02 203.32 73.37
  Q 204.43 79.69 199.31 83.83
  Q 189.55 91.73 176.37 92.30
  A 0.49 0.49 0.0 0 1 175.85 91.81
  L 175.85 91.53
  A 0.35 0.35 0.0 0 1 176.19 91.18
  Q 187.81 90.72 197.36 84.17
  Q 202.72 80.49 202.21 74.25
  Q 202.04 72.19 201.15 71.02
  C 199.61 68.98 197.28 67.85 194.88 69.10
  A 2.36 2.34 -84.3 0 0 194.13 69.72
  Q 192.00 72.49 194.62 74.61
  A 1.60 1.56 -23.6 0 0 195.57 74.97
  Q 197.98 75.02 198.16 72.11
  Z"
/>
<path fill="#ac1950" d="
  M 169.61 92.93
  Q 168.62 92.88 167.83 92.93
  C 163.68 93.21 165.37 100.95 170.97 98.59
  A 2.04 2.01 -76.4 0 0 171.55 98.23
  C 173.29 96.75 174.84 94.82 177.21 95.12
  C 182.57 95.80 182.04 103.58 176.49 102.33
  A 0.62 0.62 0.0 0 1 176.55 101.11
  Q 178.45 100.87 178.51 100.86
  A 2.00 1.92 67.9 0 0 179.68 97.94
  C 177.50 94.19 174.02 97.11 171.92 99.15
  Q 171.24 99.81 169.36 100.05
  C 163.24 100.81 162.56 89.75 169.75 92.25
  A 0.35 0.35 0.0 0 1 169.61 92.93
  Z"
/>
<path fill="#ddb489" d="
  M 116.27 159.50
  A 0.23 0.23 0.0 0 1 116.41 159.07
  C 124.62 160.67 134.65 159.43 141.73 154.71
  Q 144.83 152.64 149.10 147.60
  C 156.14 139.29 161.36 131.72 173.46 131.58
  C 179.98 131.51 186.37 135.24 185.73 142.51
  C 185.32 147.23 179.41 149.09 175.58 148.31
  A 3.66 3.25 1.5 0 1 172.79 145.70
  Q 172.51 144.38 173.05 141.89
  A 0.98 0.97 -1.0 0 1 173.76 141.16
  Q 176.03 140.56 176.98 142.07
  A 1.61 1.42 -57.3 0 0 179.67 141.30
  Q 179.99 139.88 179.13 138.93
  C 174.67 134.04 165.87 140.33 162.16 143.68
  Q 156.90 148.42 150.65 153.62
  C 144.11 159.07 137.10 161.60 128.76 161.54
  C 123.86 161.50 120.07 161.15 116.27 159.50
  Z"
/>
<path fill="#71173a" d="
  M 278.74 183.64
  A 141.65 141.59 76.7 0 1 241.58 243.83
  A 141.55 141.47 15.3 0 1 181.37 278.13
  A 141.54 141.45 43.6 0 1 112.24 279.79
  A 141.67 141.54 -18.5 0 1 52.29 249.97
  A 141.60 141.54 11.4 0 1 8.46 184.15
  Q 9.51 183.37 11.30 183.54
  Q 14.01 183.81 14.22 183.81
  Q 146.28 183.72 278.74 183.64
  Z
  M 168.1465 197.6973
  A 9.28 8.61 -86.5 0 0 158.9861 206.4344
  A 9.28 8.61 -86.5 0 0 167.0135 216.2227
  A 9.28 8.61 -86.5 0 0 176.1739 207.4856
  A 9.28 8.61 -86.5 0 0 168.1465 197.6973
  Z
  M 64.73 215.45
  A 0.51 0.51 0.0 0 0 65.24 215.96
  C 69.81 216.01 74.95 216.74 75.14 210.95
  Q 75.34 204.58 75.28 199.21
  A 1.10 1.10 0.0 0 0 73.63 198.28
  L 73.05 198.61
  A 3.17 3.16 75.2 0 0 71.46 201.36
  L 71.46 210.62
  A 2.13 2.13 0.0 0 1 69.33 212.75
  L 65.20 212.75
  A 0.48 0.47 90.0 0 0 64.73 213.23
  L 64.73 215.45
  Z
  M 81.09 198.18
  L 80.22 198.68
  A 2.32 2.30 76.0 0 0 79.07 200.61
  Q 78.92 206.12 79.15 210.05
  Q 79.46 215.15 83.94 215.83
  C 88.30 216.48 92.65 215.57 93.14 210.62
  Q 93.32 208.89 93.31 199.30
  A 1.16 1.15 74.9 0 0 91.58 198.30
  L 91.06 198.60
  A 3.11 3.11 0.0 0 0 89.51 201.29
  L 89.51 209.74
  A 3.04 3.04 0.0 0 1 86.47 212.78
  L 86.10 212.78
  A 3.35 3.35 0.0 0 1 82.75 209.43
  L 82.75 199.13
  A 1.11 1.10 -15.1 0 0 81.09 198.18
  Z
  M 103.27 207.70
  Q 106.83 214.43 106.85 214.49
  A 1.73 1.72 -9.1 0 0 108.39 215.60
  L 111.41 215.72
  A 0.58 0.58 0.0 0 0 112.01 215.14
  L 112.01 198.62
  A 0.46 0.46 0.0 0 0 111.55 198.16
  L 108.96 198.16
  A 0.41 0.41 0.0 0 0 108.55 198.57
  L 108.55 210.25
  A 0.24 0.24 0.0 0 1 108.11 210.37
  Q 107.31 208.95 105.82 206.12
  Q 102.26 199.39 102.24 199.33
  A 1.73 1.72 -9.1 0 0 100.69 198.22
  L 97.67 198.10
  A 0.58 0.58 0.0 0 0 97.07 198.68
  L 97.07 215.20
  A 0.46 0.46 0.0 0 0 97.53 215.66
  L 100.12 215.66
  A 0.41 0.41 0.0 0 0 100.53 215.25
  L 100.53 203.57
  A 0.24 0.24 0.0 0 1 100.98 203.45
  Q 101.77 204.87 103.27 207.70
  Z
  M 125.54 201.23
  A 0.65 0.65 0.0 0 0 126.11 200.90
  L 127.08 199.22
  A 0.65 0.65 0.0 0 0 126.51 198.25
  L 116.40 198.25
  A 0.65 0.65 0.0 0 0 115.75 198.90
  L 115.75 215.08
  A 0.65 0.65 0.0 0 0 116.40 215.73
  L 125.66 215.73
  A 0.65 0.65 0.0 0 0 126.22 215.41
  L 127.19 213.73
  A 0.65 0.65 0.0 0 0 126.63 212.75
  L 119.88 212.75
  A 0.65 0.65 0.0 0 1 119.23 212.10
  L 119.23 209.13
  A 0.65 0.65 0.0 0 1 119.88 208.48
  L 124.69 208.48
  A 0.65 0.65 0.0 0 0 125.26 208.16
  L 126.22 206.50
  A 0.65 0.65 0.0 0 0 125.65 205.52
  L 119.86 205.52
  A 0.65 0.65 0.0 0 1 119.21 204.87
  L 119.21 201.88
  A 0.65 0.65 0.0 0 1 119.86 201.23
  L 125.54 201.23
  Z
  M 137.95 208.54
  A 0.43 0.43 0.0 0 1 138.01 208.32
  L 143.45 198.89
  A 0.43 0.43 0.0 0 0 143.08 198.25
  L 140.33 198.25
  A 0.43 0.43 0.0 0 0 139.96 198.46
  L 136.47 204.49
  A 0.43 0.43 0.0 0 1 135.73 204.49
  L 132.24 198.46
  A 0.43 0.43 0.0 0 0 131.87 198.24
  L 128.96 198.24
  A 0.43 0.43 0.0 0 0 128.59 198.88
  L 133.96 208.20
  A 0.43 0.43 0.0 0 1 134.02 208.42
  L 134.02 215.41
  A 0.43 0.43 0.0 0 0 134.50 215.84
  L 137.57 215.51
  A 0.43 0.43 0.0 0 0 137.95 215.08
  L 137.95 208.54
  Z
  M 150.26 211.49
  Q 152.45 211.50 152.53 211.49
  A 0.65 0.65 0.0 0 1 153.23 211.96
  L 154.14 215.22
  A 0.75 0.75 0.0 0 0 154.86 215.77
  L 157.54 215.77
  A 0.46 0.45 81.4 0 0 157.97 215.18
  L 153.15 199.37
  A 1.53 1.53 0.0 0 0 151.75 198.28
  Q 150.39 198.22 150.30 198.22
  Q 150.21 198.22 148.84 198.27
  A 1.53 1.53 0.0 0 0 147.44 199.35
  L 142.52 215.13
  A 0.46 0.45 -81.1 0 0 142.95 215.73
  L 145.63 215.74
  A 0.75 0.75 0.0 0 0 146.35 215.20
  L 147.28 211.94
  A 0.65 0.65 0.0 0 1 147.99 211.48
  Q 148.07 211.49 150.26 211.49
  Z
  M 189.92 211.48
  Q 192.11 211.49 192.19 211.48
  A 0.65 0.65 0.0 0 1 192.89 211.95
  L 193.80 215.21
  A 0.75 0.75 0.0 0 0 194.52 215.76
  L 197.20 215.76
  A 0.46 0.45 81.5 0 0 197.63 215.17
  L 192.82 199.37
  A 1.53 1.53 0.0 0 0 191.43 198.28
  Q 190.06 198.21 189.97 198.21
  Q 189.88 198.21 188.51 198.27
  A 1.53 1.53 0.0 0 0 187.11 199.35
  L 182.19 215.11
  A 0.46 0.45 -81.0 0 0 182.61 215.71
  L 185.29 215.72
  A 0.75 0.75 0.0 0 0 186.02 215.18
  L 186.95 211.93
  A 0.65 0.65 0.0 0 1 187.65 211.46
  Q 187.73 211.47 189.92 211.48
  Z
  M 200.71 215.73
  L 203.41 215.75
  A 0.51 0.51 0.0 0 0 203.92 215.25
  L 204.08 200.01
  A 1.78 1.77 0.6 0 0 202.32 198.22
  L 202.16 198.22
  A 1.78 1.77 0.6 0 0 200.36 199.97
  L 200.20 215.21
  A 0.51 0.51 0.0 0 0 200.71 215.73
  Z
  M 218.19 207.13
  C 222.43 204.78 221.45 198.65 216.26 198.34
  Q 212.87 198.14 208.89 198.29
  A 0.67 0.66 -1.4 0 0 208.25 198.95
  L 208.25 214.93
  A 1.01 1.00 -8.4 0 0 209.55 215.89
  L 210.55 215.58
  A 2.00 1.99 -8.4 0 0 211.97 213.67
  L 211.97 209.00
  A 0.57 0.56 -89.0 0 1 212.55 208.43
  Q 216.54 208.57 217.78 215.45
  A 0.35 0.34 -5.0 0 0 218.12 215.73
  L 221.41 215.73
  A 0.18 0.18 0.0 0 0 221.59 215.52
  Q 220.76 210.42 218.10 207.81
  A 0.43 0.43 0.0 0 1 218.19 207.13
  Z
  M 188.26 238.56
  A 0.84 0.84 0.0 0 0 189.87 238.28
  Q 189.87 238.21 190.40 232.91
  Q 190.61 230.80 192.49 230.48
  Q 200.19 229.20 211.42 230.31
  Q 213.62 230.53 213.85 232.59
  Q 214.24 236.27 214.51 237.38
  A 1.08 1.08 0.0 0 0 216.61 237.34
  C 217.07 235.00 218.28 228.92 215.58 227.80
  A 1.05 1.00 -32.3 0 0 215.18 227.72
  L 205.52 227.72
  A 0.72 0.71 -89.6 0 1 204.81 226.99
  C 204.92 222.86 200.12 222.49 199.72 227.01
  A 0.82 0.81 2.3 0 1 198.90 227.76
  L 189.24 227.76
  A 1.91 1.90 6.2 0 0 187.38 229.25
  Q 186.32 234.06 188.26 238.56
  Z
  M 100.30 230.26
  A 1.18 1.17 13.2 0 0 99.24 228.56
  L 85.45 228.56
  A 0.62 0.61 90.0 0 1 84.84 227.94
  L 84.84 225.78
  A 1.07 1.05 18.6 0 0 84.41 224.93
  Q 82.88 223.77 80.98 224.04
  A 0.58 0.57 -4.0 0 0 80.48 224.61
  L 80.48 226.81
  A 1.71 1.70 90.0 0 1 78.78 228.52
  L 68.07 228.52
  A 2.72 2.72 0.0 0 0 65.56 230.19
  L 65.28 230.85
  A 1.00 1.00 0.0 0 0 66.31 232.24
  L 79.37 230.87
  A 1.17 1.16 -5.9 0 1 80.65 231.90
  L 80.76 232.92
  A 0.98 0.98 0.0 0 1 79.92 233.99
  Q 77.48 234.34 73.25 234.09
  Q 70.88 233.96 69.22 234.74
  A 1.30 1.29 -26.1 0 0 68.61 236.51
  Q 68.93 237.13 69.07 237.33
  Q 69.26 237.60 69.97 237.51
  Q 80.49 236.27 93.00 237.06
  Q 93.85 237.11 95.91 236.31
  A 0.46 0.46 0.0 0 0 96.04 235.54
  C 94.07 233.81 90.49 234.22 85.57 234.16
  A 1.13 1.13 0.0 0 1 84.47 232.88
  L 84.63 231.72
  A 1.26 1.25 7.8 0 1 86.05 230.65
  L 97.17 232.17
  A 2.88 2.88 0.0 0 0 100.14 230.59
  L 100.30 230.26
  Z
  M 132.35 229.32
  L 134.01 227.89
  A 1.36 1.35 71.8 0 0 134.50 226.91
  Q 134.57 225.68 134.29 224.96
  A 1.54 1.54 0.0 0 0 131.46 224.89
  C 130.56 226.86 130.76 230.56 127.00 229.41
  A 1.19 1.18 -0.4 0 1 126.21 228.64
  Q 125.75 227.25 124.97 225.68
  Q 124.04 223.81 122.77 224.18
  A 2.21 2.02 56.2 0 0 122.22 227.83
  Q 123.00 228.52 123.99 229.37
  A 0.25 0.25 0.0 0 1 123.82 229.81
  L 119.71 229.81
  A 1.47 1.46 -80.5 0 0 118.33 230.80
  L 118.24 231.06
  A 0.89 0.88 9.3 0 0 119.09 232.23
  L 125.02 232.23
  A 1.39 1.38 -3.0 0 1 126.40 233.47
  L 126.47 234.16
  A 1.01 1.00 -3.1 0 1 125.47 235.27
  L 120.61 235.27
  A 0.97 0.97 0.0 0 0 119.65 236.11
  L 119.60 236.45
  A 0.87 0.87 0.0 0 0 120.40 237.44
  L 125.78 237.84
  A 0.86 0.86 0.0 0 1 126.57 238.81
  L 126.40 240.02
  A 1.43 1.43 0.0 0 1 124.98 241.26
  L 117.40 241.26
  A 1.40 1.40 0.0 0 0 116.00 242.66
  L 116.00 243.01
  A 1.34 1.34 0.0 0 0 117.48 244.34
  L 125.22 243.53
  A 1.16 1.15 89.0 0 1 126.49 244.77
  L 126.18 248.96
  A 1.56 1.56 0.0 0 0 127.95 250.62
  L 128.46 250.55
  A 1.60 1.59 -3.9 0 0 129.84 248.97
  L 129.84 244.34
  A 1.01 1.00 -86.0 0 1 130.98 243.34
  L 138.06 244.31
  A 2.49 2.48 18.8 0 0 140.54 243.09
  L 141.09 242.13
  A 0.75 0.74 -74.9 0 0 140.45 241.01
  L 131.13 241.02
  A 1.58 1.58 0.0 0 1 130.66 237.93
  Q 131.84 237.56 134.24 237.73
  A 2.07 2.03 -57.5 0 0 135.44 237.45
  L 136.43 236.88
  A 0.76 0.76 0.0 0 0 136.11 235.46
  L 130.98 235.08
  A 1.15 1.14 2.2 0 1 129.92 233.94
  L 129.92 233.61
  A 1.36 1.36 0.0 0 1 131.28 232.25
  L 136.42 232.25
  A 1.60 1.60 0.0 0 0 137.81 231.44
  L 138.06 231.01
  A 0.80 0.80 0.0 0 0 137.37 229.81
  L 132.53 229.81
  A 0.28 0.28 0.0 0 1 132.35 229.32
  Z
  M 148.83 235.78
  L 144.21 235.78
  A 1.16 1.15 -2.9 0 0 143.06 237.05
  L 143.09 237.36
  A 1.59 1.59 0.0 0 0 144.83 238.77
  L 148.50 238.38
  A 0.54 0.54 0.0 0 1 149.09 238.97
  Q 148.45 244.96 144.12 247.60
  A 1.36 1.36 0.0 0 0 144.63 250.10
  C 149.74 250.88 151.26 242.88 151.77 239.09
  A 1.25 1.24 -86.0 0 1 153.00 238.01
  L 157.42 238.01
  A 1.09 1.09 0.0 0 1 158.51 239.10
  L 158.51 245.71
  A 1.62 1.61 90.0 0 1 156.90 247.33
  L 153.52 247.33
  A 0.43 0.43 0.0 0 0 153.18 248.03
  C 155.05 250.41 159.12 251.94 160.90 248.57
  A 0.83 0.81 -73.1 0 1 161.70 248.13
  Q 162.26 248.18 162.63 248.38
  A 2.75 2.41 -55.8 0 0 165.88 247.53
  Q 169.11 243.37 168.75 237.72
  A 2.29 2.28 -7.5 0 1 170.59 235.33
  L 170.67 235.31
  A 1.78 1.78 0.0 0 1 172.79 237.10
  Q 172.68 240.99 172.76 244.67
  C 172.89 250.82 179.59 250.85 183.10 247.93
  A 1.15 1.14 -65.1 0 0 182.36 245.90
  Q 181.62 245.91 180.15 246.16
  C 174.15 247.17 175.44 239.53 175.93 235.74
  A 2.18 2.18 0.0 0 0 173.77 233.28
  L 166.82 233.28
  A 0.94 0.94 0.0 0 0 165.88 234.22
  L 165.88 240.72
  A 5.74 5.71 68.9 0 1 164.02 244.95
  L 163.30 245.61
  A 1.46 1.46 0.0 0 1 160.89 244.63
  Q 160.32 237.56 161.57 229.97
  A 1.27 1.27 0.0 0 0 160.32 228.49
  L 156.13 228.49
  A 0.39 0.38 -75.0 0 1 155.80 227.91
  L 156.90 226.01
  A 1.21 1.20 -71.1 0 0 156.02 224.21
  L 154.92 224.06
  A 1.12 1.11 -82.3 0 0 153.67 225.02
  L 153.30 227.71
  A 0.95 0.95 0.0 0 1 152.36 228.52
  L 149.96 228.52
  A 0.80 0.79 -83.0 0 0 149.19 229.13
  Q 148.49 231.93 149.40 235.01
  A 0.60 0.60 0.0 0 1 148.83 235.78
  Z
  M 106.87 225.61
  L 106.61 227.75
  A 0.49 0.49 0.0 0 0 107.04 228.30
  L 107.21 228.32
  A 10.46 1.41 7.0 0 0 117.76 228.20
  L 117.80 227.88
  A 10.46 1.41 7.0 0 0 107.59 225.20
  L 107.42 225.18
  A 0.49 0.49 0.0 0 0 106.87 225.61
  Z
  M 172.83 227.68
  L 172.83 226.12
  A 1.03 1.03 0.0 0 0 171.62 225.10
  Q 169.68 225.43 169.23 226.32
  Q 169.02 226.73 169.17 227.11
  Q 169.25 227.33 169.29 227.49
  A 0.80 0.80 0.0 0 1 168.52 228.50
  L 165.13 228.50
  A 2.54 2.53 14.9 0 0 162.93 229.77
  L 162.68 230.20
  A 0.62 0.61 14.8 0 0 163.22 231.12
  L 179.00 231.12
  A 1.77 1.76 23.0 0 0 180.22 230.63
  L 180.74 230.14
  A 0.71 0.71 0.0 0 0 180.30 228.92
  L 173.52 228.42
  A 0.76 0.74 2.5 0 1 172.83 227.68
  Z
  M 116.29 230.63
  C 112.72 230.00 109.42 230.50 106.10 230.41
  A 1.64 1.64 0.0 0 0 104.43 231.83
  L 104.39 232.11
  A 1.34 1.33 1.0 0 0 105.86 233.62
  L 111.46 233.03
  A 0.77 0.77 0.0 0 1 112.23 234.14
  C 110.54 237.59 104.87 239.82 101.56 240.08
  A 1.16 1.16 0.0 0 0 101.13 242.28
  C 104.86 244.14 107.43 241.53 110.56 239.15
  A 0.47 0.47 0.0 0 1 111.32 239.56
  L 110.64 248.72
  A 0.83 0.82 88.9 0 0 111.55 249.60
  L 112.94 249.46
  A 1.18 1.16 87.0 0 0 113.98 248.29
  L 113.98 238.56
  A 0.74 0.73 -5.8 0 1 114.57 237.84
  Q 115.42 237.67 116.44 238.38
  A 1.82 1.82 0.0 0 0 118.33 238.49
  L 118.82 238.26
  A 0.59 0.59 0.0 0 0 118.87 237.22
  L 115.64 235.36
  A 0.69 0.69 0.0 0 1 115.48 234.28
  Q 116.71 232.98 116.84 231.35
  A 0.68 0.66 -83.0 0 0 116.29 230.63
  Z
  M 192.33 237.00
  Q 197.17 237.21 200.46 233.93
  A 1.27 1.26 -66.2 0 0 199.63 231.77
  C 197.64 231.68 194.57 234.23 192.04 235.98
  A 0.56 0.56 0.0 0 0 192.33 237.00
  Z
  M 211.69 236.70
  A 0.55 0.55 0.0 0 0 212.02 235.73
  Q 208.06 232.42 205.24 231.78
  Q 204.31 231.56 204.24 231.63
  A 2.21 2.01 -52.3 0 0 204.51 234.95
  Q 207.82 236.86 211.69 236.70
  Z
  M 198.84 246.05
  C 196.40 245.93 193.01 246.02 189.40 246.06
  Q 186.68 246.09 185.70 247.91
  A 1.24 1.23 -80.9 0 0 187.00 249.71
  Q 201.30 247.23 215.98 249.80
  Q 218.30 250.21 220.54 248.54
  A 1.35 1.35 0.0 0 0 219.73 246.10
  L 205.47 246.10
  A 1.90 1.90 0.0 0 1 203.57 244.20
  L 203.57 242.87
  A 1.78 1.77 -90.0 0 1 205.34 241.09
  L 209.60 241.09
  A 1.95 1.94 14.9 0 0 211.29 240.11
  L 211.47 239.77
  A 1.07 1.07 0.0 0 0 210.42 238.54
  L 194.73 238.48
  A 1.60 1.59 -87.5 0 0 193.13 239.95
  L 193.11 240.24
  A 0.88 0.88 0.0 0 0 193.99 241.19
  L 199.09 241.19
  A 1.13 1.12 90.0 0 1 200.21 242.32
  L 200.21 244.74
  A 1.31 1.31 0.0 0 1 198.84 246.05
  Z
  M 154.48 238.67
  L 152.87 239.72
  A 0.29 0.29 0.0 0 0 152.79 240.12
  L 153.26 240.84
  A 4.67 1.17 56.8 0 0 156.80 244.11
  L 156.93 244.02
  A 4.67 1.17 56.8 0 0 155.35 239.47
  L 154.88 238.75
  A 0.29 0.29 0.0 0 0 154.48 238.67
  Z
  M 82.74 249.22
  Q 85.89 249.23 91.73 250.27
  A 1.79 1.79 0.0 0 0 93.74 249.07
  Q 94.63 246.45 95.42 242.45
  Q 95.97 239.70 93.22 239.58
  Q 84.90 239.23 82.77 239.22
  Q 80.64 239.22 72.32 239.52
  Q 69.57 239.62 70.10 242.38
  Q 70.87 246.38 71.74 249.01
  A 1.79 1.79 0.0 0 0 73.75 250.21
  Q 79.59 249.21 82.74 249.22
  Z"
/>
<path fill="#ffffff" d="
  M 168.1465 197.6973
  A 9.28 8.61 -86.5 0 1 176.1739 207.4856
  A 9.28 8.61 -86.5 0 1 167.0135 216.2227
  A 9.28 8.61 -86.5 0 1 158.9861 206.4344
  A 9.28 8.61 -86.5 0 1 168.1465 197.6973
  Z
  M 167.6618 201.1506
  A 5.86 4.57 -89.2 0 0 163.0104 206.9462
  A 5.86 4.57 -89.2 0 0 167.4982 212.8694
  A 5.86 4.57 -89.2 0 0 172.1496 207.0738
  A 5.86 4.57 -89.2 0 0 167.6618 201.1506
  Z"
/>
<path fill="#ffffff" d="
  M 65.20 212.75
  L 69.33 212.75
  A 2.13 2.13 0.0 0 0 71.46 210.62
  L 71.46 201.36
  A 3.17 3.16 75.2 0 1 73.05 198.61
  L 73.63 198.28
  A 1.10 1.10 0.0 0 1 75.28 199.21
  Q 75.34 204.58 75.14 210.95
  C 74.95 216.74 69.81 216.01 65.24 215.96
  A 0.51 0.51 0.0 0 1 64.73 215.45
  L 64.73 213.23
  A 0.48 0.47 -90.0 0 1 65.20 212.75
  Z"
/>
<path fill="#ffffff" d="
  M 82.75 199.13
  L 82.75 209.43
  A 3.35 3.35 0.0 0 0 86.10 212.78
  L 86.47 212.78
  A 3.04 3.04 0.0 0 0 89.51 209.74
  L 89.51 201.29
  A 3.11 3.11 0.0 0 1 91.06 198.60
  L 91.58 198.30
  A 1.16 1.15 74.9 0 1 93.31 199.30
  Q 93.32 208.89 93.14 210.62
  C 92.65 215.57 88.30 216.48 83.94 215.83
  Q 79.46 215.15 79.15 210.05
  Q 78.92 206.12 79.07 200.61
  A 2.32 2.30 76.0 0 1 80.22 198.68
  L 81.09 198.18
  A 1.11 1.10 -15.1 0 1 82.75 199.13
  Z"
/>
<path fill="#ffffff" d="
  M 103.27 207.70
  Q 101.77 204.87 100.98 203.45
  A 0.24 0.24 0.0 0 0 100.53 203.57
  L 100.53 215.25
  A 0.41 0.41 0.0 0 1 100.12 215.66
  L 97.53 215.66
  A 0.46 0.46 0.0 0 1 97.07 215.20
  L 97.07 198.68
  A 0.58 0.58 0.0 0 1 97.67 198.10
  L 100.69 198.22
  A 1.73 1.72 -9.1 0 1 102.24 199.33
  Q 102.26 199.39 105.82 206.12
  Q 107.31 208.95 108.11 210.37
  A 0.24 0.24 0.0 0 0 108.55 210.25
  L 108.55 198.57
  A 0.41 0.41 0.0 0 1 108.96 198.16
  L 111.55 198.16
  A 0.46 0.46 0.0 0 1 112.01 198.62
  L 112.01 215.14
  A 0.58 0.58 0.0 0 1 111.41 215.72
  L 108.39 215.60
  A 1.73 1.72 -9.1 0 1 106.85 214.49
  Q 106.83 214.43 103.27 207.70
  Z"
/>
<path fill="#ffffff" d="
  M 125.54 201.23
  L 119.86 201.23
  A 0.65 0.65 0.0 0 0 119.21 201.88
  L 119.21 204.87
  A 0.65 0.65 0.0 0 0 119.86 205.52
  L 125.65 205.52
  A 0.65 0.65 0.0 0 1 126.22 206.50
  L 125.26 208.16
  A 0.65 0.65 0.0 0 1 124.69 208.48
  L 119.88 208.48
  A 0.65 0.65 0.0 0 0 119.23 209.13
  L 119.23 212.10
  A 0.65 0.65 0.0 0 0 119.88 212.75
  L 126.63 212.75
  A 0.65 0.65 0.0 0 1 127.19 213.73
  L 126.22 215.41
  A 0.65 0.65 0.0 0 1 125.66 215.73
  L 116.40 215.73
  A 0.65 0.65 0.0 0 1 115.75 215.08
  L 115.75 198.90
  A 0.65 0.65 0.0 0 1 116.40 198.25
  L 126.51 198.25
  A 0.65 0.65 0.0 0 1 127.08 199.22
  L 126.11 200.90
  A 0.65 0.65 0.0 0 1 125.54 201.23
  Z"
/>
<path fill="#ffffff" d="
  M 137.95 208.54
  L 137.95 215.08
  A 0.43 0.43 0.0 0 1 137.57 215.51
  L 134.50 215.84
  A 0.43 0.43 0.0 0 1 134.02 215.41
  L 134.02 208.42
  A 0.43 0.43 0.0 0 0 133.96 208.20
  L 128.59 198.88
  A 0.43 0.43 0.0 0 1 128.96 198.24
  L 131.87 198.24
  A 0.43 0.43 0.0 0 1 132.24 198.46
  L 135.73 204.49
  A 0.43 0.43 0.0 0 0 136.47 204.49
  L 139.96 198.46
  A 0.43 0.43 0.0 0 1 140.33 198.25
  L 143.08 198.25
  A 0.43 0.43 0.0 0 1 143.45 198.89
  L 138.01 208.32
  A 0.43 0.43 0.0 0 0 137.95 208.54
  Z"
/>
<path fill="#ffffff" d="
  M 150.30 198.22
  Q 150.39 198.22 151.75 198.28
  A 1.53 1.53 0.0 0 1 153.15 199.37
  L 157.97 215.18
  A 0.46 0.45 81.4 0 1 157.54 215.77
  L 154.86 215.77
  A 0.75 0.75 0.0 0 1 154.14 215.22
  L 153.23 211.96
  A 0.65 0.65 0.0 0 0 152.53 211.49
  Q 152.45 211.50 150.26 211.49
  Q 148.07 211.49 147.99 211.48
  A 0.65 0.65 0.0 0 0 147.28 211.94
  L 146.35 215.20
  A 0.75 0.75 0.0 0 1 145.63 215.74
  L 142.95 215.73
  A 0.46 0.45 -81.1 0 1 142.52 215.13
  L 147.44 199.35
  A 1.53 1.53 0.0 0 1 148.84 198.27
  Q 150.21 198.22 150.30 198.22
  Z
  M 148.07 208.23
  A 0.44 0.44 0.0 0 0 148.50 208.78
  L 151.81 208.76
  A 0.44 0.44 0.0 0 0 152.23 208.20
  L 150.54 202.27
  A 0.44 0.44 0.0 0 0 149.70 202.28
  L 148.07 208.23
  Z"
/>
<path fill="#ffffff" d="
  M 189.92 211.48
  Q 187.73 211.47 187.65 211.46
  A 0.65 0.65 0.0 0 0 186.95 211.93
  L 186.02 215.18
  A 0.75 0.75 0.0 0 1 185.29 215.72
  L 182.61 215.71
  A 0.46 0.45 -81.0 0 1 182.19 215.11
  L 187.11 199.35
  A 1.53 1.53 0.0 0 1 188.51 198.27
  Q 189.88 198.21 189.97 198.21
  Q 190.06 198.21 191.43 198.28
  A 1.53 1.53 0.0 0 1 192.82 199.37
  L 197.63 215.17
  A 0.46 0.45 81.5 0 1 197.20 215.76
  L 194.52 215.76
  A 0.75 0.75 0.0 0 1 193.80 215.21
  L 192.89 211.95
  A 0.65 0.65 0.0 0 0 192.19 211.48
  Q 192.11 211.49 189.92 211.48
  Z
  M 187.73 208.09
  A 0.50 0.50 0.0 0 0 188.22 208.73
  L 191.38 208.73
  A 0.50 0.50 0.0 0 0 191.87 208.09
  L 190.28 202.46
  A 0.50 0.50 0.0 0 0 189.32 202.46
  L 187.73 208.09
  Z"
/>
<path fill="#ffffff" d="
  M 200.71 215.73
  A 0.51 0.51 0.0 0 1 200.20 215.21
  L 200.36 199.97
  A 1.78 1.77 0.6 0 1 202.16 198.22
  L 202.32 198.22
  A 1.78 1.77 0.6 0 1 204.08 200.01
  L 203.92 215.25
  A 0.51 0.51 0.0 0 1 203.41 215.75
  L 200.71 215.73
  Z"
/>
<path fill="#ffffff" d="
  M 218.10 207.81
  Q 220.76 210.42 221.59 215.52
  A 0.18 0.18 0.0 0 1 221.41 215.73
  L 218.12 215.73
  A 0.35 0.34 -5.0 0 1 217.78 215.45
  Q 216.54 208.57 212.55 208.43
  A 0.57 0.56 -89.0 0 0 211.97 209.00
  L 211.97 213.67
  A 2.00 1.99 -8.4 0 1 210.55 215.58
  L 209.55 215.89
  A 1.01 1.00 -8.4 0 1 208.25 214.93
  L 208.25 198.95
  A 0.67 0.66 -1.4 0 1 208.89 198.29
  Q 212.87 198.14 216.26 198.34
  C 221.45 198.65 222.43 204.78 218.19 207.13
  A 0.43 0.43 0.0 0 0 218.10 207.81
  Z
  M 211.97 201.37
  L 211.93 205.33
  A 0.69 0.69 0.0 0 0 212.61 206.03
  L 214.02 206.04
  A 2.98 2.56 0.7 0 0 217.03 203.52
  L 217.03 203.30
  A 2.98 2.56 0.7 0 0 214.08 200.70
  L 212.67 200.69
  A 0.69 0.69 0.0 0 0 211.97 201.37
  Z"
/>
<path fill="#71173a" d="
  M 211.97 201.37
  A 0.69 0.69 0.0 0 1 212.67 200.69
  L 214.08 200.70
  A 2.98 2.56 0.7 0 1 217.03 203.30
  L 217.03 203.52
  A 2.98 2.56 0.7 0 1 214.02 206.04
  L 212.61 206.03
  A 0.69 0.69 0.0 0 1 211.93 205.33
  L 211.97 201.37
  Z"
/>
<ellipse fill="#71173a" cx="0.00" cy="0.00" transform="translate(167.58,207.01) rotate(-89.2)" rx="5.86" ry="4.57"/>
<path fill="#71173a" d="
  M 148.07 208.23
  L 149.70 202.28
  A 0.44 0.44 0.0 0 1 150.54 202.27
  L 152.23 208.20
  A 0.44 0.44 0.0 0 1 151.81 208.76
  L 148.50 208.78
  A 0.44 0.44 0.0 0 1 148.07 208.23
  Z"
/>
<path fill="#71173a" d="
  M 187.73 208.09
  L 189.32 202.46
  A 0.50 0.50 0.0 0 1 190.28 202.46
  L 191.87 208.09
  A 0.50 0.50 0.0 0 1 191.38 208.73
  L 188.22 208.73
  A 0.50 0.50 0.0 0 1 187.73 208.09
  Z"
/>
<path fill="#ffffff" d="
  M 188.26 238.56
  Q 186.32 234.06 187.38 229.25
  A 1.91 1.90 6.2 0 1 189.24 227.76
  L 198.90 227.76
  A 0.82 0.81 2.3 0 0 199.72 227.01
  C 200.12 222.49 204.92 222.86 204.81 226.99
  A 0.72 0.71 -89.6 0 0 205.52 227.72
  L 215.18 227.72
  A 1.05 1.00 -32.3 0 1 215.58 227.80
  C 218.28 228.92 217.07 235.00 216.61 237.34
  A 1.08 1.08 0.0 0 1 214.51 237.38
  Q 214.24 236.27 213.85 232.59
  Q 213.62 230.53 211.42 230.31
  Q 200.19 229.20 192.49 230.48
  Q 190.61 230.80 190.40 232.91
  Q 189.87 238.21 189.87 238.28
  A 0.84 0.84 0.0 0 1 188.26 238.56
  Z"
/>
<path fill="#ffffff" d="
  M 100.30 230.26
  L 100.14 230.59
  A 2.88 2.88 0.0 0 1 97.17 232.17
  L 86.05 230.65
  A 1.26 1.25 7.8 0 0 84.63 231.72
  L 84.47 232.88
  A 1.13 1.13 0.0 0 0 85.57 234.16
  C 90.49 234.22 94.07 233.81 96.04 235.54
  A 0.46 0.46 0.0 0 1 95.91 236.31
  Q 93.85 237.11 93.00 237.06
  Q 80.49 236.27 69.97 237.51
  Q 69.26 237.60 69.07 237.33
  Q 68.93 237.13 68.61 236.51
  A 1.30 1.29 -26.1 0 1 69.22 234.74
  Q 70.88 233.96 73.25 234.09
  Q 77.48 234.34 79.92 233.99
  A 0.98 0.98 0.0 0 0 80.76 232.92
  L 80.65 231.90
  A 1.17 1.16 -5.9 0 0 79.37 230.87
  L 66.31 232.24
  A 1.00 1.00 0.0 0 1 65.28 230.85
  L 65.56 230.19
  A 2.72 2.72 0.0 0 1 68.07 228.52
  L 78.78 228.52
  A 1.71 1.70 -90.0 0 0 80.48 226.81
  L 80.48 224.61
  A 0.58 0.57 -4.0 0 1 80.98 224.04
  Q 82.88 223.77 84.41 224.93
  A 1.07 1.05 18.6 0 1 84.84 225.78
  L 84.84 227.94
  A 0.62 0.61 -90.0 0 0 85.45 228.56
  L 99.24 228.56
  A 1.18 1.17 13.2 0 1 100.30 230.26
  Z"
/>
<path fill="#ffffff" d="
  M 132.35 229.32
  A 0.28 0.28 0.0 0 0 132.53 229.81
  L 137.37 229.81
  A 0.80 0.80 0.0 0 1 138.06 231.01
  L 137.81 231.44
  A 1.60 1.60 0.0 0 1 136.42 232.25
  L 131.28 232.25
  A 1.36 1.36 0.0 0 0 129.92 233.61
  L 129.92 233.94
  A 1.15 1.14 2.2 0 0 130.98 235.08
  L 136.11 235.46
  A 0.76 0.76 0.0 0 1 136.43 236.88
  L 135.44 237.45
  A 2.07 2.03 -57.5 0 1 134.24 237.73
  Q 131.84 237.56 130.66 237.93
  A 1.58 1.58 0.0 0 0 131.13 241.02
  L 140.45 241.01
  A 0.75 0.74 -74.9 0 1 141.09 242.13
  L 140.54 243.09
  A 2.49 2.48 18.8 0 1 138.06 244.31
  L 130.98 243.34
  A 1.01 1.00 -86.0 0 0 129.84 244.34
  L 129.84 248.97
  A 1.60 1.59 -3.9 0 1 128.46 250.55
  L 127.95 250.62
  A 1.56 1.56 0.0 0 1 126.18 248.96
  L 126.49 244.77
  A 1.16 1.15 89.0 0 0 125.22 243.53
  L 117.48 244.34
  A 1.34 1.34 0.0 0 1 116.00 243.01
  L 116.00 242.66
  A 1.40 1.40 0.0 0 1 117.40 241.26
  L 124.98 241.26
  A 1.43 1.43 0.0 0 0 126.40 240.02
  L 126.57 238.81
  A 0.86 0.86 0.0 0 0 125.78 237.84
  L 120.40 237.44
  A 0.87 0.87 0.0 0 1 119.60 236.45
  L 119.65 236.11
  A 0.97 0.97 0.0 0 1 120.61 235.27
  L 125.47 235.27
  A 1.01 1.00 -3.1 0 0 126.47 234.16
  L 126.40 233.47
  A 1.39 1.38 -3.0 0 0 125.02 232.23
  L 119.09 232.23
  A 0.89 0.88 9.3 0 1 118.24 231.06
  L 118.33 230.80
  A 1.47 1.46 -80.5 0 1 119.71 229.81
  L 123.82 229.81
  A 0.25 0.25 0.0 0 0 123.99 229.37
  Q 123.00 228.52 122.22 227.83
  A 2.21 2.02 56.2 0 1 122.77 224.18
  Q 124.04 223.81 124.97 225.68
  Q 125.75 227.25 126.21 228.64
  A 1.19 1.18 -0.4 0 0 127.00 229.41
  C 130.76 230.56 130.56 226.86 131.46 224.89
  A 1.54 1.54 0.0 0 1 134.29 224.96
  Q 134.57 225.68 134.50 226.91
  A 1.36 1.35 71.8 0 1 134.01 227.89
  L 132.35 229.32
  Z"
/>
<path fill="#ffffff" d="
  M 148.83 235.78
  A 0.60 0.60 0.0 0 0 149.40 235.01
  Q 148.49 231.93 149.19 229.13
  A 0.80 0.79 -83.0 0 1 149.96 228.52
  L 152.36 228.52
  A 0.95 0.95 0.0 0 0 153.30 227.71
  L 153.67 225.02
  A 1.12 1.11 -82.3 0 1 154.92 224.06
  L 156.02 224.21
  A 1.21 1.20 -71.1 0 1 156.90 226.01
  L 155.80 227.91
  A 0.39 0.38 -75.0 0 0 156.13 228.49
  L 160.32 228.49
  A 1.27 1.27 0.0 0 1 161.57 229.97
  Q 160.32 237.56 160.89 244.63
  A 1.46 1.46 0.0 0 0 163.30 245.61
  L 164.02 244.95
  A 5.74 5.71 68.9 0 0 165.88 240.72
  L 165.88 234.22
  A 0.94 0.94 0.0 0 1 166.82 233.28
  L 173.77 233.28
  A 2.18 2.18 0.0 0 1 175.93 235.74
  C 175.44 239.53 174.15 247.17 180.15 246.16
  Q 181.62 245.91 182.36 245.90
  A 1.15 1.14 -65.1 0 1 183.10 247.93
  C 179.59 250.85 172.89 250.82 172.76 244.67
  Q 172.68 240.99 172.79 237.10
  A 1.78 1.78 0.0 0 0 170.67 235.31
  L 170.59 235.33
  A 2.29 2.28 -7.5 0 0 168.75 237.72
  Q 169.11 243.37 165.88 247.53
  A 2.75 2.41 -55.8 0 1 162.63 248.38
  Q 162.26 248.18 161.70 248.13
  A 0.83 0.81 -73.1 0 0 160.90 248.57
  C 159.12 251.94 155.05 250.41 153.18 248.03
  A 0.43 0.43 0.0 0 1 153.52 247.33
  L 156.90 247.33
  A 1.62 1.61 90.0 0 0 158.51 245.71
  L 158.51 239.10
  A 1.09 1.09 0.0 0 0 157.42 238.01
  L 153.00 238.01
  A 1.25 1.24 -86.0 0 0 151.77 239.09
  C 151.26 242.88 149.74 250.88 144.63 250.10
  A 1.36 1.36 0.0 0 1 144.12 247.60
  Q 148.45 244.96 149.09 238.97
  A 0.54 0.54 0.0 0 0 148.50 238.38
  L 144.83 238.77
  A 1.59 1.59 0.0 0 1 143.09 237.36
  L 143.06 237.05
  A 1.16 1.15 -2.9 0 1 144.21 235.78
  L 148.83 235.78
  Z
  M 152.50 235.77
  L 157.98 235.81
  A 0.55 0.55 0.0 0 0 158.54 235.27
  L 158.57 232.13
  A 2.51 2.13 0.5 0 0 156.08 229.98
  L 154.52 229.96
  A 2.51 2.13 0.5 0 0 151.99 232.07
  L 151.96 235.21
  A 0.55 0.55 0.0 0 0 152.50 235.77
  Z"
/>
<path fill="#ffffff" d="
  M 106.87 225.61
  A 0.49 0.49 0.0 0 1 107.42 225.18
  L 107.59 225.20
  A 10.46 1.41 7.0 0 1 117.80 227.88
  L 117.76 228.20
  A 10.46 1.41 7.0 0 1 107.21 228.32
  L 107.04 228.30
  A 0.49 0.49 0.0 0 1 106.61 227.75
  L 106.87 225.61
  Z"
/>
<path fill="#ffffff" d="
  M 173.52 228.42
  L 180.30 228.92
  A 0.71 0.71 0.0 0 1 180.74 230.14
  L 180.22 230.63
  A 1.77 1.76 23.0 0 1 179.00 231.12
  L 163.22 231.12
  A 0.62 0.61 14.8 0 1 162.68 230.20
  L 162.93 229.77
  A 2.54 2.53 14.9 0 1 165.13 228.50
  L 168.52 228.50
  A 0.80 0.80 0.0 0 0 169.29 227.49
  Q 169.25 227.33 169.17 227.11
  Q 169.02 226.73 169.23 226.32
  Q 169.68 225.43 171.62 225.10
  A 1.03 1.03 0.0 0 1 172.83 226.12
  L 172.83 227.68
  A 0.76 0.74 2.5 0 0 173.52 228.42
  Z"
/>
<path fill="#71173a" d="
  M 152.50 235.77
  A 0.55 0.55 0.0 0 1 151.96 235.21
  L 151.99 232.07
  A 2.51 2.13 0.5 0 1 154.52 229.96
  L 156.08 229.98
  A 2.51 2.13 0.5 0 1 158.57 232.13
  L 158.54 235.27
  A 0.55 0.55 0.0 0 1 157.98 235.81
  L 152.50 235.77
  Z
  M 156.76 234.37
  L 155.41 231.16
  A 0.49 0.49 0.0 0 0 154.77 230.90
  L 154.61 230.97
  A 2.05 1.98 67.1 0 0 153.58 233.63
  L 153.72 233.96
  A 2.05 1.98 67.1 0 0 156.35 235.08
  L 156.50 235.01
  A 0.49 0.49 0.0 0 0 156.76 234.37
  Z"
/>
<path fill="#ffffff" d="
  M 116.84 231.35
  Q 116.71 232.98 115.48 234.28
  A 0.69 0.69 0.0 0 0 115.64 235.36
  L 118.87 237.22
  A 0.59 0.59 0.0 0 1 118.82 238.26
  L 118.33 238.49
  A 1.82 1.82 0.0 0 1 116.44 238.38
  Q 115.42 237.67 114.57 237.84
  A 0.74 0.73 -5.8 0 0 113.98 238.56
  L 113.98 248.29
  A 1.18 1.16 87.0 0 1 112.94 249.46
  L 111.55 249.60
  A 0.83 0.82 88.9 0 1 110.64 248.72
  L 111.32 239.56
  A 0.47 0.47 0.0 0 0 110.56 239.15
  C 107.43 241.53 104.86 244.14 101.13 242.28
  A 1.16 1.16 0.0 0 1 101.56 240.08
  C 104.87 239.82 110.54 237.59 112.23 234.14
  A 0.77 0.77 0.0 0 0 111.46 233.03
  L 105.86 233.62
  A 1.34 1.33 1.0 0 1 104.39 232.11
  L 104.43 231.83
  A 1.64 1.64 0.0 0 1 106.10 230.41
  C 109.42 230.50 112.72 230.00 116.29 230.63
  A 0.68 0.66 -83.0 0 1 116.84 231.35
  Z"
/>
<path fill="#ffffff" d="
  M 156.76 234.37
  A 0.49 0.49 0.0 0 1 156.50 235.01
  L 156.35 235.08
  A 2.05 1.98 67.1 0 1 153.72 233.96
  L 153.58 233.63
  A 2.05 1.98 67.1 0 1 154.61 230.97
  L 154.77 230.90
  A 0.49 0.49 0.0 0 1 155.41 231.16
  L 156.76 234.37
  Z"
/>
<path fill="#ffffff" d="
  M 192.33 237.00
  A 0.56 0.56 0.0 0 1 192.04 235.98
  C 194.57 234.23 197.64 231.68 199.63 231.77
  A 1.27 1.26 -66.2 0 1 200.46 233.93
  Q 197.17 237.21 192.33 237.00
  Z"
/>
<path fill="#ffffff" d="
  M 211.69 236.70
  Q 207.82 236.86 204.51 234.95
  A 2.21 2.01 -52.3 0 1 204.24 231.63
  Q 204.31 231.56 205.24 231.78
  Q 208.06 232.42 212.02 235.73
  A 0.55 0.55 0.0 0 1 211.69 236.70
  Z"
/>
<path fill="#ffffff" d="
  M 198.84 246.05
  A 1.31 1.31 0.0 0 0 200.21 244.74
  L 200.21 242.32
  A 1.13 1.12 90.0 0 0 199.09 241.19
  L 193.99 241.19
  A 0.88 0.88 0.0 0 1 193.11 240.24
  L 193.13 239.95
  A 1.60 1.59 -87.5 0 1 194.73 238.48
  L 210.42 238.54
  A 1.07 1.07 0.0 0 1 211.47 239.77
  L 211.29 240.11
  A 1.95 1.94 14.9 0 1 209.60 241.09
  L 205.34 241.09
  A 1.78 1.77 90.0 0 0 203.57 242.87
  L 203.57 244.20
  A 1.90 1.90 0.0 0 0 205.47 246.10
  L 219.73 246.10
  A 1.35 1.35 0.0 0 1 220.54 248.54
  Q 218.30 250.21 215.98 249.80
  Q 201.30 247.23 187.00 249.71
  A 1.24 1.23 -80.9 0 1 185.70 247.91
  Q 186.68 246.09 189.40 246.06
  C 193.01 246.02 196.40 245.93 198.84 246.05
  Z"
/>
<path fill="#ffffff" d="
  M 154.48 238.67
  A 0.29 0.29 0.0 0 1 154.88 238.75
  L 155.35 239.47
  A 4.67 1.17 56.8 0 1 156.93 244.02
  L 156.80 244.11
  A 4.67 1.17 56.8 0 1 153.26 240.84
  L 152.79 240.12
  A 0.29 0.29 0.0 0 1 152.87 239.72
  L 154.48 238.67
  Z"
/>
<path fill="#ffffff" d="
  M 82.77 239.22
  Q 84.90 239.23 93.22 239.58
  Q 95.97 239.70 95.42 242.45
  Q 94.63 246.45 93.74 249.07
  A 1.79 1.79 0.0 0 1 91.73 250.27
  Q 85.89 249.23 82.74 249.22
  Q 79.59 249.21 73.75 250.21
  A 1.79 1.79 0.0 0 1 71.74 249.01
  Q 70.87 246.38 70.10 242.38
  Q 69.57 239.62 72.32 239.52
  Q 80.64 239.22 82.77 239.22
  Z
  M 91.3445 243.6688
  A 1.75 1.75 0.0 0 0 89.6068 241.9066
  L 76.2671 241.8135
  A 1.75 1.75 0.0 0 0 74.5050 243.5512
  L 74.4955 244.9112
  A 1.75 1.75 0.0 0 0 76.2332 246.6734
  L 89.5729 246.7665
  A 1.75 1.75 0.0 0 0 91.3350 245.0288
  L 91.3445 243.6688
  Z"
/>
<rect fill="#71173a" x="-8.42" y="-2.43" transform="translate(82.92,244.29) rotate(0.4)" width="16.84" height="4.86" rx="1.75"/>
</svg>
