<?xml version="1.0" encoding="UTF-8" standalone="no"?>
<!DOCTYPE svg PUBLIC "-//W3C//DTD SVG 1.1//EN" "http://www.w3.org/Graphics/SVG/1.1/DTD/svg11.dtd">
<svg xmlns="http://www.w3.org/2000/svg" version="1.1" viewBox="0.00 0.00 320.00 320.00">
<path fill="#dbb967" d="
  M 91.97 97.45
  A 0.46 0.46 0.0 0 1 91.92 96.58
  Q 97.62 94.19 102.54 95.07
  A 0.90 0.88 -65.8 0 0 103.39 94.74
  Q 103.97 93.99 106.17 92.18
  C 112.36 87.09 121.21 89.64 127.56 92.96
  Q 141.07 100.03 153.00 110.32
  A 0.32 0.32 0.0 0 0 153.53 110.10
  Q 156.55 75.21 187.67 59.39
  Q 199.92 53.17 214.43 54.12
  C 237.07 55.61 261.08 67.90 268.22 91.01
  C 272.47 104.78 271.21 120.38 271.13 136.48
  Q 271.03 154.97 280.83 170.67
  Q 292.23 188.92 303.62 204.27
  A 1.39 1.39 0.0 0 1 303.34 206.21
  C 294.95 212.54 281.78 214.98 272.16 209.98
  Q 270.05 208.88 262.80 202.07
  C 248.85 188.97 235.91 173.45 226.88 156.25
  C 222.30 147.53 218.49 136.18 214.39 126.90
  Q 211.82 121.07 208.71 117.33
  C 203.57 111.16 197.01 110.58 189.50 111.32
  Q 179.90 112.26 173.89 119.37
  C 167.03 127.49 168.45 135.99 172.56 144.96
  C 184.99 172.03 210.18 187.17 235.70 200.13
  C 243.31 204.00 252.97 206.13 261.21 209.55
  Q 265.81 211.46 269.00 213.99
  A 2.04 2.03 -53.9 0 1 269.42 216.71
  Q 268.62 217.91 266.60 218.84
  Q 218.24 241.20 209.91 244.94
  C 204.29 247.47 201.19 248.11 195.41 246.30
  Q 186.91 243.64 179.64 238.12
  Q 161.76 224.55 149.65 210.61
  C 143.25 203.24 138.83 194.68 135.84 184.69
  C 131.66 170.72 126.27 153.42 108.57 153.25
  C 94.24 153.11 84.03 160.11 84.86 175.78
  C 85.30 183.89 89.20 190.95 94.53 197.78
  Q 116.72 226.23 150.63 239.59
  C 159.99 243.28 171.44 245.07 179.87 248.46
  A 0.90 0.89 -82.2 0 1 180.44 249.22
  C 181.26 258.81 168.81 263.22 161.49 264.24
  C 134.47 268.05 108.19 255.42 84.60 241.98
  C 58.32 227.02 31.56 207.81 19.93 179.10
  C 12.56 160.91 15.85 141.20 27.47 125.44
  C 38.80 110.09 56.66 102.29 75.75 101.45
  C 99.52 100.40 116.64 112.91 125.68 134.70
  A 0.99 0.99 0.0 0 0 127.09 135.18
  L 128.51 134.36
  A 0.96 0.95 65.6 0 0 128.93 133.24
  Q 119.74 105.47 91.97 97.45
  Z"
/>
</svg>
