<?xml version="1.0" encoding="UTF-8" standalone="no"?>
<!DOCTYPE svg PUBLIC "-//W3C//DTD SVG 1.1//EN" "http://www.w3.org/Graphics/SVG/1.1/DTD/svg11.dtd">
<svg xmlns="http://www.w3.org/2000/svg" version="1.1" viewBox="0.00 0.00 1000.00 1000.00">
<g stroke-width="2.00" fill="none" stroke-linecap="butt">
<path stroke="#ba809d" vector-effect="non-scaling-stroke" d="
  M 513.23 55.63
  L 487.18 55.50"
/>
<path stroke="#9a4b7a" vector-effect="non-scaling-stroke" d="
  M 520.36 56.04
  L 533.32 56.73"
/>
<path stroke="#9a4b7a" vector-effect="non-scaling-stroke" d="
  M 535.60 56.80
  Q 541.06 57.68 546.52 58.24
  Q 555.76 59.18 557.47 59.41
  Q 653.15 72.05 734.57 122.70
  Q 789.76 157.04 832.09 204.88
  C 895.67 276.72 934.96 367.14 942.74 463.18
  Q 943.02 466.62 943.07 470.40
  Q 943.10 472.52 943.93 480.53"
/>
<path stroke="#9a4b7a" vector-effect="non-scaling-stroke" d="
  M 944.55 486.17
  Q 943.65 500.61 944.42 515.01"
/>
<path stroke="#9a4b7a" vector-effect="non-scaling-stroke" d="
  M 944.23 518.26
  L 943.05 535.24
  A 0.53 0.48 -42.1 0 1 943.04 535.34
  Q 942.43 538.11 942.25 541.17
  C 941.83 548.64 940.59 557.10 939.82 562.51
  C 929.41 636.38 900.37 706.34 855.64 766.13
  Q 827.43 803.85 792.95 833.94
  C 739.76 880.37 677.39 913.27 609.51 930.62
  Q 576.72 939.00 540.33 942.44
  Q 539.53 942.52 537.17 942.79
  Q 534.19 943.15 529.75 943.13
  Q 525.80 943.11 518.77 944.21"
/>
<path stroke="#9a4b7a" vector-effect="non-scaling-stroke" d="
  M 512.76 944.41
  Q 499.10 943.72 485.51 944.43"
/>
<path stroke="#9a4b7a" vector-effect="non-scaling-stroke" d="
  M 481.17 944.22
  Q 472.87 942.95 470.77 942.99
  Q 466.96 943.05 463.16 942.74
  C 373.17 935.27 287.89 900.68 218.08 843.46"
/>
<path stroke="#ba809d" vector-effect="non-scaling-stroke" d="
  M 218.08 843.46
  Q 192.45 822.52 170.31 797.86"
/>
<path stroke="#9a4b7a" vector-effect="non-scaling-stroke" d="
  M 170.31 797.86
  C 104.88 725.32 65.27 634.05 57.20 536.83
  Q 56.90 533.32 56.99 529.21
  Q 57.03 526.92 55.73 518.79"
/>
<path stroke="#9a4b7a" vector-effect="non-scaling-stroke" d="
  M 55.55 513.33
  L 55.61 486.45"
/>
<path stroke="#9a4b7a" vector-effect="non-scaling-stroke" d="
  M 55.91 480.98
  Q 57.04 473.50 56.67 465.96"
/>
<path stroke="#9a4b7a" vector-effect="non-scaling-stroke" d="
  M 56.67 464.22
  Q 57.12 464.33 57.17 463.77
  Q 67.88 340.01 140.07 239.57
  Q 146.06 231.23 155.85 219.09"
/>
<path stroke="#ba809d" vector-effect="non-scaling-stroke" d="
  M 155.85 219.09
  Q 178.05 191.74 204.43 168.26"
/>
<path stroke="#9a4b7a" vector-effect="non-scaling-stroke" d="
  M 204.43 168.26
  Q 218.79 155.64 230.95 146.46
  Q 328.65 72.65 450.56 58.47
  Q 450.65 58.46 456.70 57.98
  Q 460.60 57.66 464.36 56.73"
/>
<path stroke="#9a4b7a" vector-effect="non-scaling-stroke" d="
  M 466.18 56.68
  Q 473.68 57.11 481.02 55.89"
/>
<path stroke="#e0cbdc" vector-effect="non-scaling-stroke" d="
  M 170.31 797.86
  Q 170.03 798.04 169.99 798.21"
/>
<path stroke="#e0cbdc" vector-effect="non-scaling-stroke" d="
  M 155.85 219.09
  Q 155.48 218.92 155.26 218.66"
/>
<path stroke="#e0cbdc" vector-effect="non-scaling-stroke" d="
  M 218.08 843.46
  Q 217.96 843.66 217.90 844.03"
/>
<path stroke="#e0cbdc" vector-effect="non-scaling-stroke" d="
  M 204.43 168.26
  Q 204.16 167.93 203.84 167.93"
/>
<path stroke="#ba809d" vector-effect="non-scaling-stroke" d="
  M 421.87 462.75
  L 399.61 483.62
  A 1.60 1.58 -65.9 0 1 398.50 484.05
  Q 365.25 483.42 314.56 482.73
  C 291.49 482.42 271.94 482.69 251.33 482.06
  C 247.48 481.94 244.29 482.25 239.01 482.44
  C 229.29 482.79 214.14 485.20 207.44 492.42
  C 203.75 496.40 205.61 501.18 209.55 503.96
  C 217.72 509.73 230.46 511.78 239.99 511.90
  Q 262.70 512.21 285.29 511.86
  Q 288.47 511.81 288.79 511.81
  Q 310.95 511.73 355.92 510.84
  Q 365.19 510.66 372.51 510.80
  A 0.31 0.30 -68.7 0 1 372.73 511.31
  L 356.02 529.85
  A 1.21 1.17 21.0 0 1 355.11 530.24
  C 349.51 530.13 343.06 529.74 337.41 529.77
  Q 331.29 529.79 317.00 529.57
  Q 290.19 529.16 249.69 529.23
  Q 249.64 529.23 242.35 529.10
  C 230.23 528.87 216.99 530.44 206.62 536.09
  C 203.46 537.81 199.20 542.11 200.93 546.10
  Q 202.53 549.78 205.66 551.64
  C 213.94 556.56 225.08 558.98 234.51 559.19
  Q 247.75 559.47 284.88 559.05
  Q 317.59 558.68 331.45 558.67
  A 0.61 0.60 -71.6 0 1 331.93 559.64
  L 319.46 576.46
  A 1.08 1.08 0.0 0 1 318.58 576.89
  C 292.25 576.52 275.10 576.59 256.98 576.27
  Q 246.35 576.08 236.26 576.72
  C 227.33 577.28 213.52 579.71 207.53 586.28
  C 201.88 592.49 208.96 598.46 214.14 600.64
  Q 225.55 605.43 239.13 605.86
  C 252.27 606.28 266.39 605.72 278.97 605.73
  Q 298.23 605.75 299.35 605.79
  A 0.68 0.68 0.0 0 1 299.88 606.86
  Q 298.00 609.52 300.12 612.13
  Q 306.79 620.36 316.51 614.91
  Q 323.68 610.89 330.26 605.04
  A 0.97 0.96 -20.5 0 1 331.87 605.77
  C 331.78 612.57 324.96 618.76 319.67 621.89
  Q 315.62 624.28 313.40 624.38
  C 303.83 624.81 284.58 624.60 270.04 624.30
  C 256.87 624.04 243.93 623.94 231.75 627.93
  C 227.84 629.22 222.66 631.53 220.65 635.17
  C 217.61 640.70 223.28 645.23 227.65 647.11
  Q 239.06 652.04 252.00 652.16
  Q 273.46 652.36 299.07 652.16
  Q 340.78 651.83 360.50 651.31
  Q 362.76 651.25 370.75 651.14
  Q 414.73 650.56 483.59 648.78
  Q 486.42 648.71 487.24 648.73
  A 1.67 1.66 73.0 0 1 488.59 649.45
  L 506.85 675.77
  A 0.53 0.53 0.0 0 1 506.40 676.60
  Q 428.51 674.48 351.28 673.40
  Q 310.01 672.83 273.26 673.05
  Q 264.59 673.11 253.86 677.16
  C 248.61 679.14 242.35 684.60 248.29 690.05
  C 254.12 695.40 266.01 697.29 273.50 697.55
  Q 276.93 697.67 282.30 697.56
  C 302.45 697.16 318.87 697.69 328.70 697.43
  Q 343.82 697.04 364.96 696.77
  Q 436.86 695.88 490.32 694.28
  Q 491.24 694.25 519.07 693.68
  A 1.13 1.11 71.6 0 1 520.03 694.17
  Q 532.10 711.28 546.16 726.40
  A 0.39 0.38 -20.2 0 1 545.86 727.04
  Q 462.04 724.09 365.25 722.80
  C 350.43 722.60 339.70 722.84 323.81 722.53
  Q 314.53 722.34 306.78 723.06
  Q 298.71 723.81 292.53 727.70
  C 287.27 731.00 289.92 736.00 294.44 738.12
  C 300.98 741.20 307.68 741.96 315.75 742.00
  Q 333.91 742.07 347.78 741.87
  Q 356.11 741.74 385.14 741.35
  Q 471.08 740.18 554.99 737.09
  A 2.65 2.62 -24.9 0 1 556.85 737.76
  L 574.65 753.80
  A 2.72 2.72 0.0 0 0 577.83 754.13
  Q 603.56 739.22 625.05 718.50
  A 0.59 0.59 0.0 0 0 624.95 717.57
  Q 624.68 717.41 624.37 717.38
  Q 605.12 715.71 593.13 713.63
  Q 588.23 712.78 584.69 711.31
  A 0.99 0.98 41.1 0 1 584.57 709.55
  Q 586.01 708.70 588.00 708.22
  Q 596.21 706.23 605.99 705.18
  Q 620.84 703.58 636.89 702.32
  C 639.27 702.13 640.88 701.57 642.32 699.82
  Q 652.38 687.53 660.62 674.28
  A 0.81 0.81 0.0 0 0 659.97 673.04
  C 632.29 671.64 606.79 670.39 581.50 667.26
  Q 572.87 666.19 566.03 664.29
  A 1.03 1.02 -54.9 0 1 565.72 662.47
  Q 566.33 662.04 568.24 661.51
  Q 575.44 659.52 589.75 658.19
  Q 628.35 654.62 669.75 652.95
  Q 671.82 652.87 672.88 651.96
  A 2.61 2.58 -8.6 0 0 673.58 651.02
  L 683.27 628.66
  A 1.01 1.01 0.0 0 0 682.39 627.25
  C 643.73 625.60 608.36 623.99 571.87 620.15
  Q 561.76 619.09 553.86 616.83
  A 1.08 1.08 0.0 0 1 553.69 614.81
  Q 554.35 614.50 555.49 614.21
  Q 563.77 612.13 573.25 611.19
  C 612.34 607.27 650.66 605.47 689.82 604.02
  A 1.35 1.33 -84.8 0 0 691.09 602.95
  L 695.63 580.73
  A 1.34 1.34 0.0 0 0 694.36 579.12
  Q 638.79 577.25 589.00 573.28
  C 580.50 572.61 567.68 571.53 557.20 568.81
  Q 555.88 568.46 555.53 567.95
  A 1.24 1.18 -23.4 0 1 556.31 566.13
  Q 565.83 563.76 576.01 562.77
  C 616.76 558.81 657.99 556.84 697.12 555.39
  A 1.07 1.07 0.0 0 0 698.15 554.34
  L 698.53 534.93
  A 2.13 2.12 -86.6 0 0 696.62 532.77
  C 662.82 529.37 629.66 521.35 599.72 505.55
  A 0.44 0.44 0.0 0 1 599.91 504.72
  Q 638.04 503.53 674.99 500.72
  Q 684.67 499.98 692.76 498.25
  A 1.10 1.09 -27.3 0 0 693.34 496.44
  Q 693.29 496.39 692.20 496.04
  Q 689.32 495.11 684.59 494.62
  Q 666.28 492.72 644.26 491.51
  Q 619.86 490.16 579.01 488.72
  Q 577.50 488.66 575.40 488.45
  A 1.64 1.63 -20.0 0 1 574.45 488.01
  C 568.78 482.62 565.04 478.70 561.76 473.93
  A 2.97 2.91 24.4 0 1 561.25 472.61
  Q 560.84 469.43 564.43 468.50
  A 2.30 2.06 -48.2 0 1 565.05 468.43
  C 586.01 468.99 603.04 467.87 620.00 456.31
  A 2.22 2.15 -63.2 0 1 621.07 455.94
  Q 644.84 454.58 655.46 453.89
  Q 668.35 453.04 678.54 451.13
  A 1.06 1.05 -38.0 0 0 678.79 449.13
  Q 678.36 448.93 677.31 448.69
  Q 671.82 447.40 660.24 446.57
  Q 600.87 442.28 536.00 440.95
  Q 534.17 440.92 532.57 440.04
  A 1.28 1.27 -67.0 0 1 531.97 438.54
  Q 533.24 434.45 536.96 431.95
  Q 554.38 420.22 572.74 409.78
  A 2.13 2.10 -61.0 0 1 573.73 409.49
  C 599.13 408.32 623.49 407.36 643.52 405.50
  Q 649.82 404.91 652.61 403.88
  A 0.85 0.85 0.0 0 0 652.52 402.26
  Q 648.64 401.27 646.88 401.07
  C 630.01 399.17 611.77 398.42 597.45 397.60
  Q 596.87 397.57 596.09 397.35
  A 0.34 0.34 0.0 0 1 596.02 396.72
  Q 635.73 375.53 679.08 356.34
  Q 757.09 321.81 832.97 294.52
  C 838.18 292.65 844.22 290.76 840.01 283.80
  C 838.71 281.66 835.24 282.11 833.31 282.63
  Q 756.10 303.30 673.98 335.00
  C 612.23 358.84 551.56 388.66 495.72 425.08
  A 2.07 2.07 0.0 0 1 492.78 424.35
  L 492.75 424.29
  A 2.41 2.41 0.0 0 1 493.49 421.13
  C 525.85 398.90 559.02 378.09 593.19 360.19
  C 598.60 357.36 605.50 354.51 609.75 351.77
  Q 662.99 317.39 719.26 285.75
  Q 765.88 259.53 810.50 240.01
  C 814.25 238.37 816.81 235.20 813.98 231.23
  C 811.76 228.12 806.93 229.27 804.22 230.19
  C 763.52 243.99 723.50 262.49 685.93 282.44
  Q 626.08 314.22 570.01 351.28
  A 3.00 2.99 -60.2 0 1 568.21 351.77
  Q 548.07 350.73 521.52 349.92
  Q 426.76 347.06 342.50 346.32
  Q 320.57 346.13 311.53 346.38
  C 305.56 346.54 293.83 348.33 290.45 353.44
  C 287.44 357.98 293.00 361.59 296.64 362.87
  Q 304.36 365.58 311.75 365.71
  Q 317.98 365.81 341.25 365.71
  Q 370.14 365.58 452.89 363.84
  Q 495.13 362.95 554.08 360.89
  A 0.35 0.35 0.0 0 1 554.30 361.53
  L 507.11 394.25
  A 1.35 1.34 28.1 0 1 506.31 394.49
  Q 450.37 392.71 383.90 391.73
  Q 374.55 391.59 370.75 391.46
  C 359.37 391.04 351.47 391.31 337.89 391.04
  Q 314.60 390.58 278.78 390.75
  C 268.38 390.80 260.42 391.74 251.69 395.88
  C 247.24 398.00 243.08 403.70 248.38 407.97
  C 255.70 413.88 266.91 415.26 276.56 415.40
  Q 300.92 415.73 322.38 415.21
  C 332.57 414.96 341.88 415.04 351.89 414.89
  Q 410.46 414.03 481.30 412.35
  A 0.42 0.41 25.0 0 1 481.57 413.09
  L 450.01 438.17
  A 1.31 1.30 -64.3 0 1 449.19 438.46
  Q 437.59 438.56 425.75 438.09
  Q 421.50 437.93 385.44 437.35
  Q 308.91 436.13 292.83 436.06
  Q 265.07 435.94 251.63 436.17
  Q 239.37 436.37 228.11 441.06
  C 221.52 443.80 215.28 450.84 223.92 456.59
  C 232.22 462.11 244.33 463.92 254.25 463.98
  Q 276.97 464.12 330.75 463.41
  Q 357.72 463.05 421.56 461.98
  A 0.44 0.44 0.0 0 1 421.87 462.75"
/>
<path stroke="#ba809d" vector-effect="non-scaling-stroke" d="
  M 358.50 318.58
  C 358.50 323.46 367.71 325.50 371.30 325.50
  Q 421.20 325.48 489.26 322.94
  Q 540.65 321.02 540.65 318.59
  Q 540.65 316.09 489.26 314.19
  Q 421.20 311.67 371.30 311.66
  C 367.71 311.66 358.50 313.71 358.50 318.58"
/>
<path stroke="#ba809d" vector-effect="non-scaling-stroke" d="
  M 358.48 769.79
  C 358.48 774.67 367.69 776.71 371.28 776.70
  Q 421.18 776.67 489.24 774.10
  Q 540.64 772.16 540.64 769.74
  Q 540.64 767.24 489.24 765.35
  Q 421.17 762.85 371.27 762.86
  C 367.68 762.86 358.47 764.91 358.48 769.79"
/>
<path stroke="#ba809d" vector-effect="non-scaling-stroke" d="
  M 473.72 494.19
  Q 469.77 509.38 460.20 520.63
  Q 457.99 523.24 456.36 524.14
  A 1.08 1.07 67.9 0 1 454.80 523.48
  Q 454.69 523.08 454.75 522.50
  Q 455.39 515.79 455.65 510.97
  C 456.44 496.25 452.87 480.72 444.19 468.69
  A 0.45 0.45 0.0 0 0 443.39 468.86
  Q 442.04 474.80 438.38 491.85
  Q 438.08 493.24 437.57 494.16
  Q 436.79 495.56 435.88 495.94
  Q 418.09 503.24 411.65 521.33
  A 1.32 1.31 15.8 0 0 412.62 523.06
  C 416.90 523.93 421.59 521.21 425.73 519.07
  A 1.43 1.40 -20.2 0 1 427.77 519.99
  Q 427.83 520.29 427.60 521.11
  C 418.50 553.54 406.92 582.91 390.57 612.02
  C 388.12 616.38 385.55 620.04 382.44 624.26
  A 0.37 0.36 18.7 0 0 382.73 624.84
  L 471.49 626.59
  A 0.28 0.28 0.0 0 0 471.72 626.15
  C 466.91 619.67 461.39 613.17 452.36 616.09
  Q 433.52 622.18 417.76 623.50
  Q 415.45 623.69 413.68 622.98
  A 1.30 1.28 -89.6 0 1 412.98 622.26
  Q 412.36 620.60 413.11 619.24
  A 1.59 1.59 0.0 0 1 413.89 618.55
  C 425.97 613.41 436.52 607.76 447.20 598.97
  C 461.69 587.06 472.90 571.55 476.89 553.42
  C 481.10 534.24 479.21 513.32 474.10 494.19
  A 0.20 0.20 0.0 0 0 473.72 494.19"
/>
</g>
<path fill="#ffffff" d="
  M 513.23 55.63
  L 487.18 55.50
  Q 495.18 54.99 508.00 55.20
  Q 511.59 55.26 513.23 55.63
  Z"
/>
<path fill="#74003b" d="
  M 487.18 55.50
  L 513.23 55.63
  L 520.36 56.04
  L 533.32 56.73
  L 535.60 56.80
  Q 541.06 57.68 546.52 58.24
  Q 555.76 59.18 557.47 59.41
  Q 653.15 72.05 734.57 122.70
  Q 789.76 157.04 832.09 204.88
  C 895.67 276.72 934.96 367.14 942.74 463.18
  Q 943.02 466.62 943.07 470.40
  Q 943.10 472.52 943.93 480.53
  L 944.55 486.17
  Q 943.65 500.61 944.42 515.01
  L 944.23 518.26
  L 943.05 535.24
  A 0.53 0.48 -42.1 0 1 943.04 535.34
  Q 942.43 538.11 942.25 541.17
  C 941.83 548.64 940.59 557.10 939.82 562.51
  C 929.41 636.38 900.37 706.34 855.64 766.13
  Q 827.43 803.85 792.95 833.94
  C 739.76 880.37 677.39 913.27 609.51 930.62
  Q 576.72 939.00 540.33 942.44
  Q 539.53 942.52 537.17 942.79
  Q 534.19 943.15 529.75 943.13
  Q 525.80 943.11 518.77 944.21
  L 512.76 944.41
  Q 499.10 943.72 485.51 944.43
  L 481.17 944.22
  Q 472.87 942.95 470.77 942.99
  Q 466.96 943.05 463.16 942.74
  C 373.17 935.27 287.89 900.68 218.08 843.46
  Q 192.45 822.52 170.31 797.86
  C 104.88 725.32 65.27 634.05 57.20 536.83
  Q 56.90 533.32 56.99 529.21
  Q 57.03 526.92 55.73 518.79
  L 55.55 513.33
  L 55.61 486.45
  L 55.91 480.98
  Q 57.04 473.50 56.67 465.96
  L 56.67 464.22
  Q 57.12 464.33 57.17 463.77
  Q 67.88 340.01 140.07 239.57
  Q 146.06 231.23 155.85 219.09
  Q 178.05 191.74 204.43 168.26
  Q 218.79 155.64 230.95 146.46
  Q 328.65 72.65 450.56 58.47
  Q 450.65 58.46 456.70 57.98
  Q 460.60 57.66 464.36 56.73
  L 466.18 56.68
  Q 473.68 57.11 481.02 55.89
  L 487.18 55.50
  Z
  M 421.87 462.75
  L 399.61 483.62
  A 1.60 1.58 -65.9 0 1 398.50 484.05
  Q 365.25 483.42 314.56 482.73
  C 291.49 482.42 271.94 482.69 251.33 482.06
  C 247.48 481.94 244.29 482.25 239.01 482.44
  C 229.29 482.79 214.14 485.20 207.44 492.42
  C 203.75 496.40 205.61 501.18 209.55 503.96
  C 217.72 509.73 230.46 511.78 239.99 511.90
  Q 262.70 512.21 285.29 511.86
  Q 288.47 511.81 288.79 511.81
  Q 310.95 511.73 355.92 510.84
  Q 365.19 510.66 372.51 510.80
  A 0.31 0.30 -68.7 0 1 372.73 511.31
  L 356.02 529.85
  A 1.21 1.17 21.0 0 1 355.11 530.24
  C 349.51 530.13 343.06 529.74 337.41 529.77
  Q 331.29 529.79 317.00 529.57
  Q 290.19 529.16 249.69 529.23
  Q 249.64 529.23 242.35 529.10
  C 230.23 528.87 216.99 530.44 206.62 536.09
  C 203.46 537.81 199.20 542.11 200.93 546.10
  Q 202.53 549.78 205.66 551.64
  C 213.94 556.56 225.08 558.98 234.51 559.19
  Q 247.75 559.47 284.88 559.05
  Q 317.59 558.68 331.45 558.67
  A 0.61 0.60 -71.6 0 1 331.93 559.64
  L 319.46 576.46
  A 1.08 1.08 0.0 0 1 318.58 576.89
  C 292.25 576.52 275.10 576.59 256.98 576.27
  Q 246.35 576.08 236.26 576.72
  C 227.33 577.28 213.52 579.71 207.53 586.28
  C 201.88 592.49 208.96 598.46 214.14 600.64
  Q 225.55 605.43 239.13 605.86
  C 252.27 606.28 266.39 605.72 278.97 605.73
  Q 298.23 605.75 299.35 605.79
  A 0.68 0.68 0.0 0 1 299.88 606.86
  Q 298.00 609.52 300.12 612.13
  Q 306.79 620.36 316.51 614.91
  Q 323.68 610.89 330.26 605.04
  A 0.97 0.96 -20.5 0 1 331.87 605.77
  C 331.78 612.57 324.96 618.76 319.67 621.89
  Q 315.62 624.28 313.40 624.38
  C 303.83 624.81 284.58 624.60 270.04 624.30
  C 256.87 624.04 243.93 623.94 231.75 627.93
  C 227.84 629.22 222.66 631.53 220.65 635.17
  C 217.61 640.70 223.28 645.23 227.65 647.11
  Q 239.06 652.04 252.00 652.16
  Q 273.46 652.36 299.07 652.16
  Q 340.78 651.83 360.50 651.31
  Q 362.76 651.25 370.75 651.14
  Q 414.73 650.56 483.59 648.78
  Q 486.42 648.71 487.24 648.73
  A 1.67 1.66 73.0 0 1 488.59 649.45
  L 506.85 675.77
  A 0.53 0.53 0.0 0 1 506.40 676.60
  Q 428.51 674.48 351.28 673.40
  Q 310.01 672.83 273.26 673.05
  Q 264.59 673.11 253.86 677.16
  C 248.61 679.14 242.35 684.60 248.29 690.05
  C 254.12 695.40 266.01 697.29 273.50 697.55
  Q 276.93 697.67 282.30 697.56
  C 302.45 697.16 318.87 697.69 328.70 697.43
  Q 343.82 697.04 364.96 696.77
  Q 436.86 695.88 490.32 694.28
  Q 491.24 694.25 519.07 693.68
  A 1.13 1.11 71.6 0 1 520.03 694.17
  Q 532.10 711.28 546.16 726.40
  A 0.39 0.38 -20.2 0 1 545.86 727.04
  Q 462.04 724.09 365.25 722.80
  C 350.43 722.60 339.70 722.84 323.81 722.53
  Q 314.53 722.34 306.78 723.06
  Q 298.71 723.81 292.53 727.70
  C 287.27 731.00 289.92 736.00 294.44 738.12
  C 300.98 741.20 307.68 741.96 315.75 742.00
  Q 333.91 742.07 347.78 741.87
  Q 356.11 741.74 385.14 741.35
  Q 471.08 740.18 554.99 737.09
  A 2.65 2.62 -24.9 0 1 556.85 737.76
  L 574.65 753.80
  A 2.72 2.72 0.0 0 0 577.83 754.13
  Q 603.56 739.22 625.05 718.50
  A 0.59 0.59 0.0 0 0 624.95 717.57
  Q 624.68 717.41 624.37 717.38
  Q 605.12 715.71 593.13 713.63
  Q 588.23 712.78 584.69 711.31
  A 0.99 0.98 41.1 0 1 584.57 709.55
  Q 586.01 708.70 588.00 708.22
  Q 596.21 706.23 605.99 705.18
  Q 620.84 703.58 636.89 702.32
  C 639.27 702.13 640.88 701.57 642.32 699.82
  Q 652.38 687.53 660.62 674.28
  A 0.81 0.81 0.0 0 0 659.97 673.04
  C 632.29 671.64 606.79 670.39 581.50 667.26
  Q 572.87 666.19 566.03 664.29
  A 1.03 1.02 -54.9 0 1 565.72 662.47
  Q 566.33 662.04 568.24 661.51
  Q 575.44 659.52 589.75 658.19
  Q 628.35 654.62 669.75 652.95
  Q 671.82 652.87 672.88 651.96
  A 2.61 2.58 -8.6 0 0 673.58 651.02
  L 683.27 628.66
  A 1.01 1.01 0.0 0 0 682.39 627.25
  C 643.73 625.60 608.36 623.99 571.87 620.15
  Q 561.76 619.09 553.86 616.83
  A 1.08 1.08 0.0 0 1 553.69 614.81
  Q 554.35 614.50 555.49 614.21
  Q 563.77 612.13 573.25 611.19
  C 612.34 607.27 650.66 605.47 689.82 604.02
  A 1.35 1.33 -84.8 0 0 691.09 602.95
  L 695.63 580.73
  A 1.34 1.34 0.0 0 0 694.36 579.12
  Q 638.79 577.25 589.00 573.28
  C 580.50 572.61 567.68 571.53 557.20 568.81
  Q 555.88 568.46 555.53 567.95
  A 1.24 1.18 -23.4 0 1 556.31 566.13
  Q 565.83 563.76 576.01 562.77
  C 616.76 558.81 657.99 556.84 697.12 555.39
  A 1.07 1.07 0.0 0 0 698.15 554.34
  L 698.53 534.93
  A 2.13 2.12 -86.6 0 0 696.62 532.77
  C 662.82 529.37 629.66 521.35 599.72 505.55
  A 0.44 0.44 0.0 0 1 599.91 504.72
  Q 638.04 503.53 674.99 500.72
  Q 684.67 499.98 692.76 498.25
  A 1.10 1.09 -27.3 0 0 693.34 496.44
  Q 693.29 496.39 692.20 496.04
  Q 689.32 495.11 684.59 494.62
  Q 666.28 492.72 644.26 491.51
  Q 619.86 490.16 579.01 488.72
  Q 577.50 488.66 575.40 488.45
  A 1.64 1.63 -20.0 0 1 574.45 488.01
  C 568.78 482.62 565.04 478.70 561.76 473.93
  A 2.97 2.91 24.4 0 1 561.25 472.61
  Q 560.84 469.43 564.43 468.50
  A 2.30 2.06 -48.2 0 1 565.05 468.43
  C 586.01 468.99 603.04 467.87 620.00 456.31
  A 2.22 2.15 -63.2 0 1 621.07 455.94
  Q 644.84 454.58 655.46 453.89
  Q 668.35 453.04 678.54 451.13
  A 1.06 1.05 -38.0 0 0 678.79 449.13
  Q 678.36 448.93 677.31 448.69
  Q 671.82 447.40 660.24 446.57
  Q 600.87 442.28 536.00 440.95
  Q 534.17 440.92 532.57 440.04
  A 1.28 1.27 -67.0 0 1 531.97 438.54
  Q 533.24 434.45 536.96 431.95
  Q 554.38 420.22 572.74 409.78
  A 2.13 2.10 -61.0 0 1 573.73 409.49
  C 599.13 408.32 623.49 407.36 643.52 405.50
  Q 649.82 404.91 652.61 403.88
  A 0.85 0.85 0.0 0 0 652.52 402.26
  Q 648.64 401.27 646.88 401.07
  C 630.01 399.17 611.77 398.42 597.45 397.60
  Q 596.87 397.57 596.09 397.35
  A 0.34 0.34 0.0 0 1 596.02 396.72
  Q 635.73 375.53 679.08 356.34
  Q 757.09 321.81 832.97 294.52
  C 838.18 292.65 844.22 290.76 840.01 283.80
  C 838.71 281.66 835.24 282.11 833.31 282.63
  Q 756.10 303.30 673.98 335.00
  C 612.23 358.84 551.56 388.66 495.72 425.08
  A 2.07 2.07 0.0 0 1 492.78 424.35
  L 492.75 424.29
  A 2.41 2.41 0.0 0 1 493.49 421.13
  C 525.85 398.90 559.02 378.09 593.19 360.19
  C 598.60 357.36 605.50 354.51 609.75 351.77
  Q 662.99 317.39 719.26 285.75
  Q 765.88 259.53 810.50 240.01
  C 814.25 238.37 816.81 235.20 813.98 231.23
  C 811.76 228.12 806.93 229.27 804.22 230.19
  C 763.52 243.99 723.50 262.49 685.93 282.44
  Q 626.08 314.22 570.01 351.28
  A 3.00 2.99 -60.2 0 1 568.21 351.77
  Q 548.07 350.73 521.52 349.92
  Q 426.76 347.06 342.50 346.32
  Q 320.57 346.13 311.53 346.38
  C 305.56 346.54 293.83 348.33 290.45 353.44
  C 287.44 357.98 293.00 361.59 296.64 362.87
  Q 304.36 365.58 311.75 365.71
  Q 317.98 365.81 341.25 365.71
  Q 370.14 365.58 452.89 363.84
  Q 495.13 362.95 554.08 360.89
  A 0.35 0.35 0.0 0 1 554.30 361.53
  L 507.11 394.25
  A 1.35 1.34 28.1 0 1 506.31 394.49
  Q 450.37 392.71 383.90 391.73
  Q 374.55 391.59 370.75 391.46
  C 359.37 391.04 351.47 391.31 337.89 391.04
  Q 314.60 390.58 278.78 390.75
  C 268.38 390.80 260.42 391.74 251.69 395.88
  C 247.24 398.00 243.08 403.70 248.38 407.97
  C 255.70 413.88 266.91 415.26 276.56 415.40
  Q 300.92 415.73 322.38 415.21
  C 332.57 414.96 341.88 415.04 351.89 414.89
  Q 410.46 414.03 481.30 412.35
  A 0.42 0.41 25.0 0 1 481.57 413.09
  L 450.01 438.17
  A 1.31 1.30 -64.3 0 1 449.19 438.46
  Q 437.59 438.56 425.75 438.09
  Q 421.50 437.93 385.44 437.35
  Q 308.91 436.13 292.83 436.06
  Q 265.07 435.94 251.63 436.17
  Q 239.37 436.37 228.11 441.06
  C 221.52 443.80 215.28 450.84 223.92 456.59
  C 232.22 462.11 244.33 463.92 254.25 463.98
  Q 276.97 464.12 330.75 463.41
  Q 357.72 463.05 421.56 461.98
  A 0.44 0.44 0.0 0 1 421.87 462.75
  Z
  M 358.50 318.58
  C 358.50 323.46 367.71 325.50 371.30 325.50
  Q 421.20 325.48 489.26 322.94
  Q 540.65 321.02 540.65 318.59
  Q 540.65 316.09 489.26 314.19
  Q 421.20 311.67 371.30 311.66
  C 367.71 311.66 358.50 313.71 358.50 318.58
  Z
  M 358.48 769.79
  C 358.48 774.67 367.69 776.71 371.28 776.70
  Q 421.18 776.67 489.24 774.10
  Q 540.64 772.16 540.64 769.74
  Q 540.64 767.24 489.24 765.35
  Q 421.17 762.85 371.27 762.86
  C 367.68 762.86 358.47 764.91 358.48 769.79
  Z"
/>
<path fill="#c096b8" d="
  M 481.02 55.89
  Q 473.68 57.11 466.18 56.68
  L 481.02 55.89
  Z"
/>
<path fill="#c096b8" d="
  M 533.32 56.73
  L 520.36 56.04
  L 533.32 56.73
  Z"
/>
<path fill="#c096b8" d="
  M 464.36 56.73
  Q 460.60 57.66 456.70 57.98
  Q 450.65 58.46 450.56 58.47
  Q 328.65 72.65 230.95 146.46
  Q 218.79 155.64 204.43 168.26
  Q 204.16 167.93 203.84 167.93
  Q 223.33 150.48 244.75 135.52
  Q 327.49 77.75 427.74 60.97
  Q 446.86 57.77 464.36 56.73
  Z"
/>
<path fill="#c096b8" d="
  M 943.93 480.53
  Q 943.10 472.52 943.07 470.40
  Q 943.02 466.62 942.74 463.18
  C 934.96 367.14 895.67 276.72 832.09 204.88
  Q 789.76 157.04 734.57 122.70
  Q 653.15 72.05 557.47 59.41
  Q 555.76 59.18 546.52 58.24
  Q 541.06 57.68 535.60 56.80
  Q 553.82 57.89 571.74 60.89
  Q 695.75 81.65 790.70 163.05
  Q 804.37 174.78 820.32 190.94
  Q 831.66 202.44 847.10 221.64
  Q 881.74 264.73 904.58 314.70
  Q 940.01 392.21 944.31 478.48
  Q 944.37 479.77 943.93 480.53
  Z"
/>
<path fill="#ffffff" d="
  M 203.84 167.93
  Q 204.16 167.93 204.43 168.26
  Q 178.05 191.74 155.85 219.09
  Q 155.48 218.92 155.26 218.66
  Q 177.42 191.23 203.84 167.93
  Z"
/>
<path fill="#c096b8" d="
  M 155.26 218.66
  Q 155.48 218.92 155.85 219.09
  Q 146.06 231.23 140.07 239.57
  Q 67.88 340.01 57.17 463.77
  Q 57.12 464.33 56.67 464.22
  Q 56.60 464.12 56.53 464.01
  A 0.15 0.15 0.0 0 1 56.50 463.92
  C 63.89 373.96 98.26 288.61 155.26 218.66
  Z"
/>
<path fill="#ffffff" d="
  M 421.87 462.75
  A 0.44 0.44 0.0 0 0 421.56 461.98
  Q 357.72 463.05 330.75 463.41
  Q 276.97 464.12 254.25 463.98
  C 244.33 463.92 232.22 462.11 223.92 456.59
  C 215.28 450.84 221.52 443.80 228.11 441.06
  Q 239.37 436.37 251.63 436.17
  Q 265.07 435.94 292.83 436.06
  Q 308.91 436.13 385.44 437.35
  Q 421.50 437.93 425.75 438.09
  Q 437.59 438.56 449.19 438.46
  A 1.31 1.30 -64.3 0 0 450.01 438.17
  L 481.57 413.09
  A 0.42 0.41 25.0 0 0 481.30 412.35
  Q 410.46 414.03 351.89 414.89
  C 341.88 415.04 332.57 414.96 322.38 415.21
  Q 300.92 415.73 276.56 415.40
  C 266.91 415.26 255.70 413.88 248.38 407.97
  C 243.08 403.70 247.24 398.00 251.69 395.88
  C 260.42 391.74 268.38 390.80 278.78 390.75
  Q 314.60 390.58 337.89 391.04
  C 351.47 391.31 359.37 391.04 370.75 391.46
  Q 374.55 391.59 383.90 391.73
  Q 450.37 392.71 506.31 394.49
  A 1.35 1.34 28.1 0 0 507.11 394.25
  L 554.30 361.53
  A 0.35 0.35 0.0 0 0 554.08 360.89
  Q 495.13 362.95 452.89 363.84
  Q 370.14 365.58 341.25 365.71
  Q 317.98 365.81 311.75 365.71
  Q 304.36 365.58 296.64 362.87
  C 293.00 361.59 287.44 357.98 290.45 353.44
  C 293.83 348.33 305.56 346.54 311.53 346.38
  Q 320.57 346.13 342.50 346.32
  Q 426.76 347.06 521.52 349.92
  Q 548.07 350.73 568.21 351.77
  A 3.00 2.99 -60.2 0 0 570.01 351.28
  Q 626.08 314.22 685.93 282.44
  C 723.50 262.49 763.52 243.99 804.22 230.19
  C 806.93 229.27 811.76 228.12 813.98 231.23
  C 816.81 235.20 814.25 238.37 810.50 240.01
  Q 765.88 259.53 719.26 285.75
  Q 662.99 317.39 609.75 351.77
  C 605.50 354.51 598.60 357.36 593.19 360.19
  C 559.02 378.09 525.85 398.90 493.49 421.13
  A 2.41 2.41 0.0 0 0 492.75 424.29
  L 492.78 424.35
  A 2.07 2.07 0.0 0 0 495.72 425.08
  C 551.56 388.66 612.23 358.84 673.98 335.00
  Q 756.10 303.30 833.31 282.63
  C 835.24 282.11 838.71 281.66 840.01 283.80
  C 844.22 290.76 838.18 292.65 832.97 294.52
  Q 757.09 321.81 679.08 356.34
  Q 635.73 375.53 596.02 396.72
  A 0.34 0.34 0.0 0 0 596.09 397.35
  Q 596.87 397.57 597.45 397.60
  C 611.77 398.42 630.01 399.17 646.88 401.07
  Q 648.64 401.27 652.52 402.26
  A 0.85 0.85 0.0 0 1 652.61 403.88
  Q 649.82 404.91 643.52 405.50
  C 623.49 407.36 599.13 408.32 573.73 409.49
  A 2.13 2.10 -61.0 0 0 572.74 409.78
  Q 554.38 420.22 536.96 431.95
  Q 533.24 434.45 531.97 438.54
  A 1.28 1.27 -67.0 0 0 532.57 440.04
  Q 534.17 440.92 536.00 440.95
  Q 600.87 442.28 660.24 446.57
  Q 671.82 447.40 677.31 448.69
  Q 678.36 448.93 678.79 449.13
  A 1.06 1.05 -38.0 0 1 678.54 451.13
  Q 668.35 453.04 655.46 453.89
  Q 644.84 454.58 621.07 455.94
  A 2.22 2.15 -63.2 0 0 620.00 456.31
  C 603.04 467.87 586.01 468.99 565.05 468.43
  A 2.30 2.06 -48.2 0 0 564.43 468.50
  Q 560.84 469.43 561.25 472.61
  A 2.97 2.91 24.4 0 0 561.76 473.93
  C 565.04 478.70 568.78 482.62 574.45 488.01
  A 1.64 1.63 -20.0 0 0 575.40 488.45
  Q 577.50 488.66 579.01 488.72
  Q 619.86 490.16 644.26 491.51
  Q 666.28 492.72 684.59 494.62
  Q 689.32 495.11 692.20 496.04
  Q 693.29 496.39 693.34 496.44
  A 1.10 1.09 -27.3 0 1 692.76 498.25
  Q 684.67 499.98 674.99 500.72
  Q 638.04 503.53 599.91 504.72
  A 0.44 0.44 0.0 0 0 599.72 505.55
  C 629.66 521.35 662.82 529.37 696.62 532.77
  A 2.13 2.12 -86.6 0 1 698.53 534.93
  L 698.15 554.34
  A 1.07 1.07 0.0 0 1 697.12 555.39
  C 657.99 556.84 616.76 558.81 576.01 562.77
  Q 565.83 563.76 556.31 566.13
  A 1.24 1.18 -23.4 0 0 555.53 567.95
  Q 555.88 568.46 557.20 568.81
  C 567.68 571.53 580.50 572.61 589.00 573.28
  Q 638.79 577.25 694.36 579.12
  A 1.34 1.34 0.0 0 1 695.63 580.73
  L 691.09 602.95
  A 1.35 1.33 -84.8 0 1 689.82 604.02
  C 650.66 605.47 612.34 607.27 573.25 611.19
  Q 563.77 612.13 555.49 614.21
  Q 554.35 614.50 553.69 614.81
  A 1.08 1.08 0.0 0 0 553.86 616.83
  Q 561.76 619.09 571.87 620.15
  C 608.36 623.99 643.73 625.60 682.39 627.25
  A 1.01 1.01 0.0 0 1 683.27 628.66
  L 673.58 651.02
  A 2.61 2.58 -8.6 0 1 672.88 651.96
  Q 671.82 652.87 669.75 652.95
  Q 628.35 654.62 589.75 658.19
  Q 575.44 659.52 568.24 661.51
  Q 566.33 662.04 565.72 662.47
  A 1.03 1.02 -54.9 0 0 566.03 664.29
  Q 572.87 666.19 581.50 667.26
  C 606.79 670.39 632.29 671.64 659.97 673.04
  A 0.81 0.81 0.0 0 1 660.62 674.28
  Q 652.38 687.53 642.32 699.82
  C 640.88 701.57 639.27 702.13 636.89 702.32
  Q 620.84 703.58 605.99 705.18
  Q 596.21 706.23 588.00 708.22
  Q 586.01 708.70 584.57 709.55
  A 0.99 0.98 41.1 0 0 584.69 711.31
  Q 588.23 712.78 593.13 713.63
  Q 605.12 715.71 624.37 717.38
  Q 624.68 717.41 624.95 717.57
  A 0.59 0.59 0.0 0 1 625.05 718.50
  Q 603.56 739.22 577.83 754.13
  A 2.72 2.72 0.0 0 1 574.65 753.80
  L 556.85 737.76
  A 2.65 2.62 -24.9 0 0 554.99 737.09
  Q 471.08 740.18 385.14 741.35
  Q 356.11 741.74 347.78 741.87
  Q 333.91 742.07 315.75 742.00
  C 307.68 741.96 300.98 741.20 294.44 738.12
  C 289.92 736.00 287.27 731.00 292.53 727.70
  Q 298.71 723.81 306.78 723.06
  Q 314.53 722.34 323.81 722.53
  C 339.70 722.84 350.43 722.60 365.25 722.80
  Q 462.04 724.09 545.86 727.04
  A 0.39 0.38 -20.2 0 0 546.16 726.40
  Q 532.10 711.28 520.03 694.17
  A 1.13 1.11 71.6 0 0 519.07 693.68
  Q 491.24 694.25 490.32 694.28
  Q 436.86 695.88 364.96 696.77
  Q 343.82 697.04 328.70 697.43
  C 318.87 697.69 302.45 697.16 282.30 697.56
  Q 276.93 697.67 273.50 697.55
  C 266.01 697.29 254.12 695.40 248.29 690.05
  C 242.35 684.60 248.61 679.14 253.86 677.16
  Q 264.59 673.11 273.26 673.05
  Q 310.01 672.83 351.28 673.40
  Q 428.51 674.48 506.40 676.60
  A 0.53 0.53 0.0 0 0 506.85 675.77
  L 488.59 649.45
  A 1.67 1.66 73.0 0 0 487.24 648.73
  Q 486.42 648.71 483.59 648.78
  Q 414.73 650.56 370.75 651.14
  Q 362.76 651.25 360.50 651.31
  Q 340.78 651.83 299.07 652.16
  Q 273.46 652.36 252.00 652.16
  Q 239.06 652.04 227.65 647.11
  C 223.28 645.23 217.61 640.70 220.65 635.17
  C 222.66 631.53 227.84 629.22 231.75 627.93
  C 243.93 623.94 256.87 624.04 270.04 624.30
  C 284.58 624.60 303.83 624.81 313.40 624.38
  Q 315.62 624.28 319.67 621.89
  C 324.96 618.76 331.78 612.57 331.87 605.77
  A 0.97 0.96 -20.5 0 0 330.26 605.04
  Q 323.68 610.89 316.51 614.91
  Q 306.79 620.36 300.12 612.13
  Q 298.00 609.52 299.88 606.86
  A 0.68 0.68 0.0 0 0 299.35 605.79
  Q 298.23 605.75 278.97 605.73
  C 266.39 605.72 252.27 606.28 239.13 605.86
  Q 225.55 605.43 214.14 600.64
  C 208.96 598.46 201.88 592.49 207.53 586.28
  C 213.52 579.71 227.33 577.28 236.26 576.72
  Q 246.35 576.08 256.98 576.27
  C 275.10 576.59 292.25 576.52 318.58 576.89
  A 1.08 1.08 0.0 0 0 319.46 576.46
  L 331.93 559.64
  A 0.61 0.60 -71.6 0 0 331.45 558.67
  Q 317.59 558.68 284.88 559.05
  Q 247.75 559.47 234.51 559.19
  C 225.08 558.98 213.94 556.56 205.66 551.64
  Q 202.53 549.78 200.93 546.10
  C 199.20 542.11 203.46 537.81 206.62 536.09
  C 216.99 530.44 230.23 528.87 242.35 529.10
  Q 249.64 529.23 249.69 529.23
  Q 290.19 529.16 317.00 529.57
  Q 331.29 529.79 337.41 529.77
  C 343.06 529.74 349.51 530.13 355.11 530.24
  A 1.21 1.17 21.0 0 0 356.02 529.85
  L 372.73 511.31
  A 0.31 0.30 -68.7 0 0 372.51 510.80
  Q 365.19 510.66 355.92 510.84
  Q 310.95 511.73 288.79 511.81
  Q 288.47 511.81 285.29 511.86
  Q 262.70 512.21 239.99 511.90
  C 230.46 511.78 217.72 509.73 209.55 503.96
  C 205.61 501.18 203.75 496.40 207.44 492.42
  C 214.14 485.20 229.29 482.79 239.01 482.44
  C 244.29 482.25 247.48 481.94 251.33 482.06
  C 271.94 482.69 291.49 482.42 314.56 482.73
  Q 365.25 483.42 398.50 484.05
  A 1.60 1.58 -65.9 0 0 399.61 483.62
  L 421.87 462.75
  Z
  M 473.72 494.19
  Q 469.77 509.38 460.20 520.63
  Q 457.99 523.24 456.36 524.14
  A 1.08 1.07 67.9 0 1 454.80 523.48
  Q 454.69 523.08 454.75 522.50
  Q 455.39 515.79 455.65 510.97
  C 456.44 496.25 452.87 480.72 444.19 468.69
  A 0.45 0.45 0.0 0 0 443.39 468.86
  Q 442.04 474.80 438.38 491.85
  Q 438.08 493.24 437.57 494.16
  Q 436.79 495.56 435.88 495.94
  Q 418.09 503.24 411.65 521.33
  A 1.32 1.31 15.8 0 0 412.62 523.06
  C 416.90 523.93 421.59 521.21 425.73 519.07
  A 1.43 1.40 -20.2 0 1 427.77 519.99
  Q 427.83 520.29 427.60 521.11
  C 418.50 553.54 406.92 582.91 390.57 612.02
  C 388.12 616.38 385.55 620.04 382.44 624.26
  A 0.37 0.36 18.7 0 0 382.73 624.84
  L 471.49 626.59
  A 0.28 0.28 0.0 0 0 471.72 626.15
  C 466.91 619.67 461.39 613.17 452.36 616.09
  Q 433.52 622.18 417.76 623.50
  Q 415.45 623.69 413.68 622.98
  A 1.30 1.28 -89.6 0 1 412.98 622.26
  Q 412.36 620.60 413.11 619.24
  A 1.59 1.59 0.0 0 1 413.89 618.55
  C 425.97 613.41 436.52 607.76 447.20 598.97
  C 461.69 587.06 472.90 571.55 476.89 553.42
  C 481.10 534.24 479.21 513.32 474.10 494.19
  A 0.20 0.20 0.0 0 0 473.72 494.19
  Z"
/>
<path fill="#ffffff" d="
  M 540.65 318.59
  Q 540.65 321.02 489.26 322.94
  Q 421.20 325.48 371.30 325.50
  C 367.71 325.50 358.50 323.46 358.50 318.58
  C 358.50 313.71 367.71 311.66 371.30 311.66
  Q 421.20 311.67 489.26 314.19
  Q 540.65 316.09 540.65 318.59
  Z"
/>
<path fill="#c096b8" d="
  M 55.91 480.98
  Q 55.58 473.42 56.67 465.96
  Q 57.04 473.50 55.91 480.98
  Z"
/>
<path fill="#74003b" d="
  M 473.72 494.19
  A 0.20 0.20 0.0 0 1 474.10 494.19
  C 479.21 513.32 481.10 534.24 476.89 553.42
  C 472.90 571.55 461.69 587.06 447.20 598.97
  C 436.52 607.76 425.97 613.41 413.89 618.55
  A 1.59 1.59 0.0 0 0 413.11 619.24
  Q 412.36 620.60 412.98 622.26
  A 1.30 1.28 -89.6 0 0 413.68 622.98
  Q 415.45 623.69 417.76 623.50
  Q 433.52 622.18 452.36 616.09
  C 461.39 613.17 466.91 619.67 471.72 626.15
  A 0.28 0.28 0.0 0 1 471.49 626.59
  L 382.73 624.84
  A 0.37 0.36 18.7 0 1 382.44 624.26
  C 385.55 620.04 388.12 616.38 390.57 612.02
  C 406.92 582.91 418.50 553.54 427.60 521.11
  Q 427.83 520.29 427.77 519.99
  A 1.43 1.40 -20.2 0 0 425.73 519.07
  C 421.59 521.21 416.90 523.93 412.62 523.06
  A 1.32 1.31 15.8 0 1 411.65 521.33
  Q 418.09 503.24 435.88 495.94
  Q 436.79 495.56 437.57 494.16
  Q 438.08 493.24 438.38 491.85
  Q 442.04 474.80 443.39 468.86
  A 0.45 0.45 0.0 0 1 444.19 468.69
  C 452.87 480.72 456.44 496.25 455.65 510.97
  Q 455.39 515.79 454.75 522.50
  Q 454.69 523.08 454.80 523.48
  A 1.08 1.07 67.9 0 0 456.36 524.14
  Q 457.99 523.24 460.20 520.63
  Q 469.77 509.38 473.72 494.19
  Z"
/>
<path fill="#c096b8" d="
  M 944.55 486.17
  Q 945.44 500.59 944.42 515.01
  Q 943.65 500.61 944.55 486.17
  Z"
/>
<path fill="#c096b8" d="
  M 55.61 486.45
  L 55.55 513.33
  Q 54.31 499.86 55.61 486.45
  Z"
/>
<path fill="#c096b8" d="
  M 944.23 518.26
  C 943.26 554.41 937.01 590.91 926.97 625.24
  Q 925.01 631.92 920.03 646.71
  Q 916.26 657.89 912.19 667.85
  Q 884.51 735.53 836.58 791.09
  Q 832.80 795.48 827.80 800.79
  C 822.96 805.93 819.65 810.14 815.96 813.63
  Q 801.16 827.63 796.39 831.89
  Q 737.65 884.33 664.08 913.71
  Q 654.31 917.61 646.51 920.07
  C 640.50 921.96 630.67 925.50 622.75 927.71
  C 588.63 937.23 554.08 943.19 518.77 944.21
  Q 525.80 943.11 529.75 943.13
  Q 534.19 943.15 537.17 942.79
  Q 539.53 942.52 540.33 942.44
  Q 576.72 939.00 609.51 930.62
  C 677.39 913.27 739.76 880.37 792.95 833.94
  Q 827.43 803.85 855.64 766.13
  C 900.37 706.34 929.41 636.38 939.82 562.51
  C 940.59 557.10 941.83 548.64 942.25 541.17
  Q 942.43 538.11 943.04 535.34
  A 0.53 0.48 -42.1 0 0 943.05 535.24
  L 944.23 518.26
  Z"
/>
<path fill="#c096b8" d="
  M 170.31 797.86
  Q 170.03 798.04 169.99 798.21
  Q 156.80 783.92 145.10 768.41
  Q 85.73 689.63 64.89 593.04
  Q 56.96 556.33 55.73 518.79
  Q 57.03 526.92 56.99 529.21
  Q 56.90 533.32 57.20 536.83
  C 65.27 634.05 104.88 725.32 170.31 797.86
  Z"
/>
<path fill="#ffffff" d="
  M 358.48 769.79
  C 358.47 764.91 367.68 762.86 371.27 762.86
  Q 421.17 762.85 489.24 765.35
  Q 540.64 767.24 540.64 769.74
  Q 540.64 772.16 489.24 774.10
  Q 421.18 776.67 371.28 776.70
  C 367.69 776.71 358.48 774.67 358.48 769.79
  Z"
/>
<path fill="#ffffff" d="
  M 170.31 797.86
  Q 192.45 822.52 218.08 843.46
  Q 217.96 843.66 217.90 844.03
  Q 192.06 823.09 169.99 798.21
  Q 170.03 798.04 170.31 797.86
  Z"
/>
<path fill="#c096b8" d="
  M 481.17 944.22
  Q 467.99 943.83 461.50 943.24
  Q 341.83 932.39 244.13 864.13
  Q 231.94 855.61 217.90 844.03
  Q 217.96 843.66 218.08 843.46
  C 287.89 900.68 373.17 935.27 463.16 942.74
  Q 466.96 943.05 470.77 942.99
  Q 472.87 942.95 481.17 944.22
  Z"
/>
<path fill="#c096b8" d="
  M 512.76 944.41
  Q 499.14 945.27 485.51 944.43
  Q 499.10 943.72 512.76 944.41
  Z"
/>
</svg>
