<?xml version="1.0" encoding="UTF-8" standalone="no"?>
<!DOCTYPE svg PUBLIC "-//W3C//DTD SVG 1.1//EN" "http://www.w3.org/Graphics/SVG/1.1/DTD/svg11.dtd">
<svg xmlns="http://www.w3.org/2000/svg" version="1.1" viewBox="0.00 0.00 268.00 380.00">
<path fill="#ffffff" d="
  M 134.40 0.00
  L 142.49 23.94
  A 0.97 0.96 -32.3 0 1 142.26 24.94
  L 138.67 28.53
  A 0.49 0.49 0.0 0 0 138.76 29.29
  C 141.16 30.79 143.03 30.83 147.65 31.43
  A 0.47 0.47 0.0 0 1 147.86 32.28
  Q 139.80 38.03 134.37 46.97
  A 0.35 0.34 44.7 0 1 133.78 46.97
  Q 128.33 38.02 120.29 32.28
  A 0.47 0.47 0.0 0 1 120.50 31.43
  C 124.34 30.94 127.29 30.90 129.33 29.36
  A 0.61 0.60 -40.9 0 0 129.40 28.45
  L 125.88 24.93
  A 1.00 0.98 32.2 0 1 125.64 23.91
  L 133.72 0.00
  L 134.40 0.00
  Z"
/>
<path fill="#ffffff" d="
  M 134.06 58.17
  Q 134.18 58.17 134.34 58.08
  A 0.09 0.07 -8.9 0 0 134.38 58.03
  Q 135.85 54.42 141.15 47.15
  C 146.02 40.48 153.81 33.00 161.87 32.50
  Q 169.41 32.04 174.71 37.52
  A 2.63 2.55 -15.1 0 0 175.99 38.23
  Q 181.40 39.41 189.79 43.86
  Q 201.16 49.89 206.04 59.69
  A 0.70 0.70 0.0 0 0 206.75 60.07
  Q 238.13 56.00 253.10 82.15
  C 264.71 102.45 252.30 127.58 234.97 140.33
  A 0.73 0.72 -32.7 0 1 233.90 140.10
  Q 228.19 129.79 218.56 121.64
  A 0.41 0.41 0.0 0 1 218.65 120.96
  Q 232.98 114.29 235.09 98.23
  Q 237.48 80.14 221.21 73.30
  Q 215.53 70.91 209.68 70.65
  A 0.44 0.44 0.0 0 0 209.23 71.14
  Q 210.14 78.88 208.44 87.29
  C 206.14 98.66 204.17 106.95 205.15 117.08
  A 0.71 0.70 77.9 0 1 204.68 117.81
  C 196.25 120.66 190.83 122.39 184.47 126.49
  A 0.34 0.33 56.3 0 1 184.00 126.39
  L 172.88 109.60
  A 0.12 0.12 0.0 0 1 172.90 109.45
  C 181.43 100.70 188.51 89.04 189.14 76.58
  C 190.02 59.03 178.34 47.73 161.90 44.25
  A 1.12 1.10 29.7 0 0 160.92 44.51
  C 143.05 60.36 142.60 86.43 149.16 107.60
  A 0.68 0.68 0.0 0 1 148.91 108.36
  Q 140.90 114.20 134.26 120.74
  Q 134.16 120.84 134.06 120.84
  Q 133.96 120.84 133.85 120.74
  Q 127.22 114.20 119.21 108.36
  A 0.68 0.68 0.0 0 1 118.96 107.60
  C 125.52 86.43 125.06 60.36 107.19 44.51
  A 1.12 1.10 -29.8 0 0 106.21 44.25
  C 89.77 47.74 78.09 59.04 78.97 76.59
  C 79.61 89.05 86.69 100.71 95.22 109.45
  A 0.12 0.12 0.0 0 1 95.24 109.60
  L 84.12 126.40
  A 0.34 0.33 -56.3 0 1 83.65 126.50
  C 77.29 122.40 71.87 120.67 63.44 117.82
  A 0.71 0.70 -77.9 0 1 62.97 117.09
  C 63.95 106.96 61.98 98.67 59.68 87.30
  Q 57.97 78.89 58.88 71.15
  A 0.44 0.44 0.0 0 0 58.43 70.66
  Q 52.58 70.92 46.90 73.31
  Q 30.63 80.15 33.03 98.24
  Q 35.14 114.30 49.47 120.97
  A 0.41 0.41 0.0 0 1 49.56 121.65
  Q 39.93 129.80 34.22 140.11
  A 0.73 0.72 32.7 0 1 33.15 140.34
  C 15.82 127.59 3.41 102.46 15.01 82.16
  Q 29.98 56.01 61.36 60.08
  A 0.70 0.70 0.0 0 0 62.07 59.70
  Q 66.95 49.90 78.32 43.87
  Q 86.71 39.42 92.12 38.23
  A 2.63 2.55 15.1 0 0 93.40 37.52
  Q 98.70 32.04 106.24 32.50
  C 114.30 33.00 122.09 40.48 126.96 47.15
  Q 132.26 54.42 133.73 58.03
  A 0.09 0.07 8.9 0 0 133.78 58.08
  Q 133.93 58.17 134.06 58.17
  Z"
/>
<path fill="#ffffff" d="
  M 134.07 140.23
  Q 134.11 140.23 134.15 140.23
  A 0.15 0.13 -16.1 0 1 134.26 140.28
  C 140.81 147.70 148.15 149.66 156.50 143.08
  A 0.47 0.47 0.0 0 0 156.48 142.33
  C 150.10 137.86 157.14 129.27 162.34 134.17
  C 165.33 136.99 164.16 141.26 160.37 142.67
  A 0.36 0.36 0.0 0 0 160.22 143.25
  Q 162.86 146.35 165.38 147.84
  C 171.26 151.33 178.41 148.44 183.00 144.16
  A 0.72 0.71 -35.2 0 1 184.12 144.35
  C 186.07 148.13 189.21 151.58 193.32 152.57
  C 197.91 153.68 201.84 151.78 205.80 149.45
  A 0.52 0.52 0.0 0 0 205.79 148.55
  C 201.34 146.01 203.80 139.81 208.41 139.42
  C 210.46 139.25 212.85 140.96 213.36 143.09
  Q 214.45 147.62 209.71 149.39
  A 0.55 0.55 0.0 0 0 209.45 150.22
  Q 214.17 156.92 221.83 154.88
  A 0.46 0.46 0.0 0 1 222.35 155.55
  Q 216.05 166.64 213.42 179.28
  A 1.58 1.58 0.0 0 1 211.86 180.54
  Q 209.35 180.51 134.08 180.51
  Q 58.81 180.52 56.30 180.55
  A 1.58 1.58 0.0 0 1 54.73 179.29
  Q 52.10 166.65 45.80 155.56
  A 0.46 0.46 0.0 0 1 46.32 154.89
  Q 53.98 156.93 58.70 150.23
  A 0.55 0.55 0.0 0 0 58.44 149.40
  Q 53.70 147.63 54.79 143.10
  C 55.30 140.97 57.69 139.26 59.74 139.43
  C 64.35 139.82 66.81 146.02 62.36 148.56
  A 0.52 0.52 0.0 0 0 62.35 149.46
  C 66.31 151.79 70.24 153.69 74.83 152.58
  C 78.94 151.59 82.08 148.14 84.03 144.36
  A 0.72 0.71 35.2 0 1 85.15 144.17
  C 89.74 148.45 96.89 151.33 102.77 147.84
  Q 105.29 146.35 107.93 143.25
  A 0.36 0.36 0.0 0 0 107.78 142.67
  C 103.99 141.26 102.82 136.99 105.81 134.17
  C 111.01 129.27 118.05 137.86 111.67 142.33
  A 0.47 0.47 0.0 0 0 111.65 143.08
  C 120.00 149.66 127.34 147.70 133.89 140.28
  A 0.15 0.13 16.1 0 1 134.00 140.23
  Q 134.04 140.23 134.07 140.23
  Z
  M 82.37 172.28
  A 0.41 0.41 0.0 0 0 82.65 172.28
  L 94.55 167.90
  A 0.41 0.41 0.0 0 0 94.55 167.13
  L 82.70 162.70
  A 0.41 0.41 0.0 0 0 82.42 162.70
  L 70.52 167.08
  A 0.41 0.41 0.0 0 0 70.52 167.85
  L 82.37 172.28
  Z
  M 113.06 167.50
  A 4.67 4.67 0.0 0 0 108.39 162.83
  A 4.67 4.67 0.0 0 0 103.72 167.50
  A 4.67 4.67 0.0 0 0 108.39 172.17
  A 4.67 4.67 0.0 0 0 113.06 167.50
  Z
  M 133.92 172.30
  A 0.34 0.34 0.0 0 0 134.16 172.30
  L 146.25 167.85
  A 0.34 0.34 0.0 0 0 146.25 167.21
  L 134.19 162.69
  A 0.34 0.34 0.0 0 0 133.95 162.69
  L 121.86 167.13
  A 0.34 0.34 0.0 0 0 121.86 167.77
  L 133.92 172.30
  Z
  M 164.42 167.50
  A 4.66 4.66 0.0 0 0 159.76 162.84
  A 4.66 4.66 0.0 0 0 155.10 167.50
  A 4.66 4.66 0.0 0 0 159.76 172.16
  A 4.66 4.66 0.0 0 0 164.42 167.50
  Z
  M 185.36 172.28
  A 0.40 0.40 0.0 0 0 185.64 172.28
  L 197.63 167.87
  A 0.40 0.40 0.0 0 0 197.63 167.12
  L 185.81 162.70
  A 0.40 0.40 0.0 0 0 185.53 162.70
  L 173.55 167.11
  A 0.40 0.40 0.0 0 0 173.55 167.86
  L 185.36 172.28
  Z"
/>
<path fill="#ffffff" d="
  M 211.55 188.36
  L 210.51 197.89
  A 0.91 0.91 0.0 0 1 209.60 198.70
  L 58.58 198.70
  A 0.91 0.91 0.0 0 1 57.67 197.89
  L 56.64 188.36
  A 0.91 0.91 0.0 0 1 57.54 187.35
  L 210.65 187.35
  A 0.91 0.91 0.0 0 1 211.55 188.36
  Z"
/>
<path fill="#ffffff" d="
  M 93.99 273.97
  C 110.24 271.87 129.33 262.65 125.10 242.59
  C 123.04 232.79 112.95 226.97 103.41 226.99
  Q 96.69 227.01 89.51 228.46
  A 0.41 0.41 0.0 0 0 89.19 228.86
  Q 89.18 308.74 89.19 320.00
  C 89.20 326.13 90.52 334.09 97.15 336.78
  A 0.43 0.43 0.0 0 1 96.99 337.60
  L 62.75 337.60
  A 0.45 0.45 0.0 0 1 62.57 336.73
  C 69.65 333.67 70.45 324.78 70.38 318.25
  Q 70.22 302.74 70.36 235.25
  C 70.37 229.67 69.86 218.79 62.62 216.52
  A 0.57 0.57 0.0 0 1 62.79 215.40
  Q 107.61 215.44 109.98 215.54
  C 119.26 215.94 130.03 219.10 136.65 225.78
  C 147.69 236.92 146.91 253.75 136.69 265.27
  Q 128.30 274.72 115.41 277.93
  A 0.20 0.19 63.7 0 0 115.31 278.24
  Q 130.06 296.70 135.68 303.90
  Q 145.46 316.43 151.79 322.20
  Q 161.06 330.63 171.19 337.05
  A 0.31 0.30 -28.7 0 1 171.02 337.61
  Q 154.03 337.66 150.02 337.35
  Q 143.97 336.89 138.49 333.36
  Q 135.89 331.68 130.29 324.32
  Q 110.55 298.39 93.82 274.35
  A 0.24 0.24 0.0 0 1 93.99 273.97
  Z"
/>
<path fill="#ffffff" d="
  M 158.85 380.00
  L 156.16 380.00
  Q 166.70 372.88 171.40 366.64
  C 177.66 358.32 178.95 348.57 178.96 338.50
  Q 178.97 271.47 178.98 239.03
  C 178.99 231.64 179.55 219.52 171.01 216.39
  A 0.47 0.47 0.0 0 1 170.73 215.79
  L 170.83 215.53
  A 0.13 0.12 -80.3 0 1 170.95 215.44
  L 205.56 215.44
  A 0.39 0.39 0.0 0 1 205.86 216.07
  Q 205.36 216.68 204.50 216.95
  C 199.37 218.57 197.92 228.52 197.89 232.77
  Q 197.77 251.52 197.88 339.93
  Q 197.89 352.83 196.42 356.95
  C 192.04 369.18 180.51 375.45 168.30 378.02
  Q 163.60 379.00 158.85 380.00
  Z"
/>
</svg>
