<?xml version="1.0" encoding="UTF-8" standalone="no"?>
<!DOCTYPE svg PUBLIC "-//W3C//DTD SVG 1.1//EN" "http://www.w3.org/Graphics/SVG/1.1/DTD/svg11.dtd">
<svg xmlns="http://www.w3.org/2000/svg" version="1.1" viewBox="0.00 0.00 1553.00 1552.00">
<path fill="#000000" d="
  M 786.82 0.00
  Q 861.32 0.93 934.77 12.45
  C 947.15 14.39 961.67 17.30 975.40 19.89
  Q 981.68 21.08 991.57 23.26
  Q 1105.14 48.24 1210.08 99.21
  Q 1274.21 130.37 1333.51 170.44
  A 0.45 0.45 0.0 0 1 1333.54 171.16
  L 1191.28 282.30
  A 0.81 0.81 0.0 0 1 1190.38 282.36
  Q 1032.65 191.08 853.14 174.31
  Q 793.30 168.71 733.28 171.91
  C 629.53 177.43 527.81 202.31 433.58 245.82
  Q 398.12 262.20 363.52 282.17
  A 0.92 0.91 -40.9 0 1 362.51 282.10
  L 220.32 171.03
  A 0.49 0.49 0.0 0 1 220.35 170.24
  Q 256.92 145.64 296.21 123.73
  C 315.73 112.85 340.50 100.27 361.46 90.65
  Q 479.77 36.35 606.50 14.51
  Q 685.24 0.94 767.15 0.00
  L 786.82 0.00
  Z"
/>
<path fill="#000000" d="
  M 171.69 776.04
  C 171.67 921.69 209.72 1064.42 283.15 1189.83
  A 0.50 0.49 49.0 0 1 283.12 1190.38
  L 172.08 1332.54
  A 0.46 0.46 0.0 0 1 171.34 1332.51
  C 60.00 1168.24 0.98 974.82 1.00 776.03
  C 1.01 577.24 60.06 383.82 171.43 219.57
  A 0.46 0.46 0.0 0 1 172.17 219.55
  L 283.19 361.73
  A 0.50 0.49 -49.0 0 1 283.22 362.27
  C 209.77 487.67 171.70 630.40 171.69 776.04
  Z"
/>
<path fill="#000000" d="
  M 1553.00 770.69
  L 1553.00 788.69
  Q 1552.64 788.90 1552.84 789.02
  Q 1549.02 1023.01 1443.59 1229.24
  C 1425.36 1264.90 1404.70 1299.23 1382.42 1332.50
  A 0.38 0.38 0.0 0 1 1381.81 1332.53
  L 1270.81 1190.45
  A 0.88 0.87 -49.3 0 1 1270.74 1189.48
  Q 1365.67 1025.08 1379.85 837.68
  Q 1384.38 777.80 1380.11 717.80
  Q 1366.65 528.57 1270.77 362.40
  A 0.70 0.69 49.0 0 1 1270.82 361.62
  L 1381.83 219.50
  A 0.48 0.47 -42.5 0 1 1382.60 219.53
  C 1394.91 238.14 1408.11 258.79 1418.92 277.48
  Q 1535.72 479.50 1551.03 713.98
  Q 1552.36 734.39 1553.00 770.69
  Z"
/>
<path fill="#000000" d="
  M 1239.60 612.42
  A 0.27 0.26 -71.3 0 1 1239.17 612.64
  C 1226.53 602.70 1212.84 594.17 1197.54 587.07
  C 1160.83 570.00 1120.68 561.08 1080.24 558.73
  C 1068.76 558.06 1056.75 557.46 1045.24 557.69
  Q 1006.33 558.51 967.49 569.02
  Q 956.81 571.91 946.66 576.19
  A 1.09 1.08 78.6 0 0 946.00 577.19
  L 946.00 1152.12
  A 0.42 0.42 0.0 0 1 945.58 1152.54
  L 814.39 1152.54
  A 0.92 0.92 0.0 0 1 813.47 1151.62
  L 813.47 480.03
  A 0.73 0.71 79.2 0 1 813.91 479.36
  Q 819.80 476.99 822.48 476.01
  Q 893.81 450.06 973.72 438.94
  Q 1032.18 430.80 1090.33 435.62
  Q 1145.27 440.17 1195.74 459.51
  Q 1201.23 461.61 1213.27 467.26
  Q 1226.33 473.38 1239.05 482.09
  A 1.28 1.27 -72.7 0 1 1239.60 483.14
  L 1239.60 612.42
  Z"
/>
<path fill="#000000" d="
  M 314.60 929.28
  A 0.37 0.37 0.0 0 1 315.26 929.04
  Q 328.21 945.12 341.58 957.66
  Q 362.44 977.23 387.37 992.11
  Q 447.35 1027.92 518.25 1027.51
  C 552.29 1027.31 584.07 1014.59 598.83 982.62
  Q 606.18 966.71 607.37 946.92
  Q 609.08 918.51 592.70 896.05
  C 575.75 872.81 550.79 857.88 525.19 843.84
  Q 509.86 835.43 481.73 822.40
  C 464.50 814.42 449.34 807.09 434.80 799.20
  C 408.63 784.99 382.90 768.43 361.84 746.69
  Q 321.66 705.21 315.78 647.48
  C 314.41 634.04 313.87 618.30 315.54 604.76
  Q 320.72 562.72 342.89 529.08
  C 382.89 468.38 453.39 438.53 524.49 435.57
  Q 567.69 433.78 608.49 441.10
  Q 631.46 445.23 651.18 452.13
  C 673.78 460.03 693.42 469.73 711.98 484.34
  A 0.89 0.86 -71.4 0 1 712.31 485.03
  L 712.31 613.26
  A 0.35 0.35 0.0 0 1 711.72 613.52
  Q 684.67 588.27 652.05 574.22
  C 610.96 556.51 564.90 548.29 521.00 553.70
  Q 506.50 555.49 489.16 561.65
  Q 485.79 562.84 476.85 567.83
  Q 453.72 580.73 447.72 606.47
  C 444.80 618.96 444.67 632.97 450.34 644.67
  Q 455.55 655.41 466.45 665.06
  C 477.60 674.95 489.42 682.57 501.01 688.95
  C 526.32 702.88 555.12 717.22 574.50 727.51
  C 626.36 755.05 677.92 789.49 709.44 840.51
  Q 732.66 878.09 737.46 921.76
  C 738.51 931.40 739.34 943.54 738.89 954.09
  C 736.99 998.17 721.56 1044.12 693.04 1078.57
  Q 681.20 1092.87 665.05 1104.89
  Q 639.64 1123.79 610.55 1134.07
  C 602.47 1136.92 592.64 1140.06 583.03 1142.13
  Q 555.00 1148.18 528.75 1148.31
  Q 499.03 1148.46 469.45 1144.27
  Q 386.38 1132.50 318.09 1082.93
  Q 315.95 1081.38 314.97 1080.42
  A 1.23 1.22 -68.1 0 1 314.60 1079.54
  L 314.60 929.28
  Z"
/>
<circle fill="#d80c24" cx="1096.29" cy="791.25" r="81.49"/>
<path fill="#000000" d="
  M 786.61 1552.00
  L 767.01 1552.00
  Q 731.99 1551.21 721.50 1550.61
  Q 634.21 1545.62 551.53 1526.36
  Q 525.96 1520.40 493.34 1510.85
  C 447.25 1497.36 402.91 1480.29 360.45 1460.73
  C 312.07 1438.45 264.76 1411.61 220.37 1381.61
  A 0.44 0.43 -47.0 0 1 220.35 1380.91
  L 362.63 1269.75
  A 0.63 0.62 41.5 0 1 363.32 1269.71
  Q 416.79 1301.08 476.22 1324.43
  Q 532.73 1346.62 590.73 1359.99
  Q 735.61 1393.38 885.52 1374.07
  Q 914.11 1370.39 950.18 1362.80
  Q 981.90 1356.13 1013.75 1346.51
  Q 1107.35 1318.25 1190.54 1269.63
  A 0.46 0.45 48.8 0 1 1191.06 1269.67
  L 1333.44 1380.88
  A 0.42 0.41 -42.8 0 1 1333.41 1381.55
  Q 1288.97 1411.60 1241.24 1436.97
  Q 1226.88 1444.60 1193.46 1460.66
  Q 1178.87 1467.68 1148.02 1480.20
  Q 1121.62 1490.92 1101.75 1497.70
  C 1045.93 1516.74 987.75 1531.64 928.56 1540.50
  Q 887.36 1546.66 853.00 1549.28
  Q 824.38 1551.46 786.61 1552.00
  Z"
/>
</svg>
