<?xml version="1.0" encoding="UTF-8" standalone="no"?>
<!DOCTYPE svg PUBLIC "-//W3C//DTD SVG 1.1//EN" "http://www.w3.org/Graphics/SVG/1.1/DTD/svg11.dtd">
<svg xmlns="http://www.w3.org/2000/svg" version="1.1" viewBox="0.00 0.00 200.00 200.00">
<path fill="#3e4095" d="
  M 100.21 0.00
  L 117.17 1.51
  A 0.45 0.45 0.0 0 1 117.41 2.31
  Q 106.16 11.26 97.14 20.64
  Q 81.57 36.83 81.60 59.50
  C 81.62 72.22 83.83 81.99 86.71 95.74
  Q 89.28 108.01 88.02 120.77
  C 85.75 143.83 68.34 154.35 50.30 168.28
  C 48.32 169.81 45.96 172.09 43.83 173.89
  A 0.26 0.26 0.0 0 0 44.00 174.35
  L 145.21 174.35
  A 1.66 1.66 0.0 0 0 146.23 174.00
  C 163.50 160.51 180.26 143.80 180.24 120.48
  C 180.24 114.88 178.64 108.56 178.59 103.47
  Q 178.40 82.82 194.81 69.43
  A 0.33 0.33 0.0 0 1 195.33 69.59
  Q 199.15 82.06 200.00 95.19
  L 200.00 104.71
  C 196.63 156.78 156.86 196.60 104.79 200.00
  L 95.19 200.00
  Q 59.88 197.76 34.28 175.22
  Q 3.01 147.68 0.00 104.95
  L 0.00 95.10
  C 3.53 43.23 43.06 3.46 94.99 0.00
  L 100.21 0.00
  Z"
/>
<path fill="#3e4095" d="
  M 106.24 155.18
  Q 115.64 133.44 113.57 108.14
  Q 112.06 89.82 109.78 77.26
  Q 108.85 72.12 111.24 62.73
  C 116.14 43.44 133.40 25.26 149.66 13.48
  A 0.32 0.30 43.8 0 1 150.01 13.48
  L 157.26 18.22
  A 0.15 0.14 43.8 0 1 157.27 18.46
  Q 142.00 29.32 131.30 40.53
  Q 119.47 52.93 117.67 69.97
  C 116.21 83.78 119.82 100.17 120.75 112.49
  C 122.01 129.34 118.41 143.10 106.53 155.38
  A 0.18 0.18 0.0 0 1 106.24 155.18
  Z"
/>
<path fill="#3e4095" d="
  M 136.16 156.35
  C 147.06 133.44 147.48 108.05 144.14 83.18
  C 142.14 68.25 148.03 58.57 159.42 49.67
  Q 166.96 43.78 177.01 37.27
  A 0.59 0.59 0.0 0 1 177.80 37.40
  L 182.26 43.19
  A 0.52 0.51 55.0 0 1 182.13 43.93
  C 166.05 54.27 150.72 64.80 152.00 86.52
  C 153.37 109.69 154.54 138.81 136.55 156.63
  A 0.24 0.24 0.0 0 1 136.16 156.35
  Z"
/>
</svg>
