<?xml version="1.0" encoding="UTF-8" standalone="no"?>
<!DOCTYPE svg PUBLIC "-//W3C//DTD SVG 1.1//EN" "http://www.w3.org/Graphics/SVG/1.1/DTD/svg11.dtd">
<svg xmlns="http://www.w3.org/2000/svg" version="1.1" viewBox="0.00 0.00 226.00 223.00">
<g stroke-width="2.00" fill="none" stroke-linecap="butt">
<path stroke="#e88591" vector-effect="non-scaling-stroke" d="
  M 206.53 50.71
  C 208.88 31.05 193.09 20.63 175.13 24.35
  A 0.28 0.28 0.0 0 1 174.87 23.89
  C 179.15 18.96 175.81 13.87 170.88 11.77
  C 165.37 9.42 154.86 11.30 149.45 12.67
  C 128.11 18.08 112.23 24.23 92.77 15.98
  A 0.52 0.52 0.0 0 0 92.05 16.47
  C 92.44 30.33 106.33 36.91 118.79 36.31
  Q 123.97 36.07 130.42 33.90
  Q 136.07 32.00 146.85 28.11
  C 152.45 26.09 160.99 23.31 165.30 28.07
  A 2.05 2.05 0.0 0 1 164.70 31.27
  Q 155.33 36.01 147.82 31.99
  A 1.74 1.74 0.0 0 0 145.33 34.05
  L 146.02 36.21
  A 6.35 6.32 -87.3 0 0 149.53 40.09
  C 155.47 42.69 161.01 39.65 168.01 37.03
  C 174.69 34.53 185.87 32.93 192.08 37.05
  A 0.30 0.30 0.0 0 1 191.94 37.60
  C 175.25 39.09 158.85 44.76 143.47 52.28
  C 123.23 62.19 104.92 75.52 90.13 92.35
  Q 82.31 101.24 77.83 107.90
  A 1.14 1.14 0.0 0 0 78.73 109.68
  Q 78.82 109.69 79.42 109.40
  Q 102.46 98.22 128.54 91.60
  C 142.79 87.99 154.43 85.40 167.99 87.41
  C 176.70 88.70 185.18 93.98 187.80 102.67
  C 190.18 110.57 188.10 119.35 179.39 121.93
  Q 171.54 124.26 166.42 117.65
  A 1.46 1.45 -27.7 0 0 164.83 117.16
  L 151.44 121.43
  A 1.99 1.98 67.6 0 0 150.28 124.23
  Q 157.03 137.49 172.02 138.89
  C 198.33 141.35 213.77 114.14 202.42 91.73
  C 194.34 75.76 179.33 69.89 161.50 70.64
  Q 146.90 71.24 133.41 76.83
  A 0.32 0.32 0.0 0 1 133.08 76.30
  Q 136.13 73.62 140.16 71.16
  Q 156.67 61.08 175.54 54.79
  C 184.79 51.71 194.12 49.48 203.64 50.32
  Q 203.93 50.35 204.78 50.72
  Q 205.41 50.99 205.76 51.15
  A 0.55 0.55 0.0 0 0 206.53 50.71"
/>
<path stroke="#e88591" vector-effect="non-scaling-stroke" d="
  M 128.44 113.56
  Q 108.41 143.61 76.29 191.79
  Q 73.95 195.31 70.64 198.38
  C 66.38 202.34 61.97 202.16 55.90 201.82
  A 2.47 2.29 -50.3 0 0 54.99 201.94
  C 53.08 202.56 51.72 205.56 50.95 207.32
  A 0.89 0.89 0.0 0 0 51.38 208.48
  C 58.72 211.89 67.95 213.87 75.58 211.41
  C 83.57 208.84 88.95 202.68 93.51 195.76
  Q 130.37 139.84 146.52 115.77
  Q 149.69 111.05 152.39 109.86
  Q 162.88 105.23 166.45 115.45
  A 1.58 1.57 71.8 0 0 168.40 116.44
  Q 176.05 114.08 180.07 113.04
  Q 183.97 112.04 183.05 107.71
  Q 180.60 96.08 168.85 93.37
  Q 159.68 91.26 149.71 92.87
  Q 111.67 99.04 77.43 116.41
  C 72.74 118.79 68.68 121.55 66.04 125.58
  Q 52.82 145.81 44.48 158.23
  Q 40.01 164.89 34.93 170.41
  Q 30.03 175.73 23.50 175.50
  Q 18.77 175.34 18.54 175.26
  A 0.97 0.97 0.0 0 0 17.42 175.67
  L 14.21 180.91
  A 0.59 0.59 0.0 0 0 14.46 181.75
  C 29.94 189.00 44.19 187.91 54.29 172.77
  Q 69.60 149.84 79.07 135.59
  Q 83.95 128.25 92.86 125.07
  A 0.23 0.23 0.0 0 1 93.13 125.41
  Q 67.97 163.32 58.63 177.34
  C 56.48 180.57 53.57 184.19 50.43 186.42
  C 46.69 189.08 43.15 188.89 38.46 188.49
  C 36.34 188.31 35.60 189.00 34.49 190.75
  Q 33.24 192.71 32.69 194.10
  A 0.70 0.70 0.0 0 0 33.05 194.99
  Q 39.98 198.31 47.64 199.03
  C 60.65 200.24 68.58 192.29 75.11 182.36
  Q 79.36 175.90 113.51 124.07
  Q 117.44 118.10 119.40 116.79
  Q 123.36 114.14 128.05 113.00
  A 0.37 0.37 0.0 0 1 128.44 113.56"
/>
</g>
<path fill="#ffffff" d="
  M 226.00 0.00
  L 226.00 223.00
  L 0.00 223.00
  L 0.00 0.00
  L 226.00 0.00
  Z
  M 206.53 50.71
  C 208.88 31.05 193.09 20.63 175.13 24.35
  A 0.28 0.28 0.0 0 1 174.87 23.89
  C 179.15 18.96 175.81 13.87 170.88 11.77
  C 165.37 9.42 154.86 11.30 149.45 12.67
  C 128.11 18.08 112.23 24.23 92.77 15.98
  A 0.52 0.52 0.0 0 0 92.05 16.47
  C 92.44 30.33 106.33 36.91 118.79 36.31
  Q 123.97 36.07 130.42 33.90
  Q 136.07 32.00 146.85 28.11
  C 152.45 26.09 160.99 23.31 165.30 28.07
  A 2.05 2.05 0.0 0 1 164.70 31.27
  Q 155.33 36.01 147.82 31.99
  A 1.74 1.74 0.0 0 0 145.33 34.05
  L 146.02 36.21
  A 6.35 6.32 -87.3 0 0 149.53 40.09
  C 155.47 42.69 161.01 39.65 168.01 37.03
  C 174.69 34.53 185.87 32.93 192.08 37.05
  A 0.30 0.30 0.0 0 1 191.94 37.60
  C 175.25 39.09 158.85 44.76 143.47 52.28
  C 123.23 62.19 104.92 75.52 90.13 92.35
  Q 82.31 101.24 77.83 107.90
  A 1.14 1.14 0.0 0 0 78.73 109.68
  Q 78.82 109.69 79.42 109.40
  Q 102.46 98.22 128.54 91.60
  C 142.79 87.99 154.43 85.40 167.99 87.41
  C 176.70 88.70 185.18 93.98 187.80 102.67
  C 190.18 110.57 188.10 119.35 179.39 121.93
  Q 171.54 124.26 166.42 117.65
  A 1.46 1.45 -27.7 0 0 164.83 117.16
  L 151.44 121.43
  A 1.99 1.98 67.6 0 0 150.28 124.23
  Q 157.03 137.49 172.02 138.89
  C 198.33 141.35 213.77 114.14 202.42 91.73
  C 194.34 75.76 179.33 69.89 161.50 70.64
  Q 146.90 71.24 133.41 76.83
  A 0.32 0.32 0.0 0 1 133.08 76.30
  Q 136.13 73.62 140.16 71.16
  Q 156.67 61.08 175.54 54.79
  C 184.79 51.71 194.12 49.48 203.64 50.32
  Q 203.93 50.35 204.78 50.72
  Q 205.41 50.99 205.76 51.15
  A 0.55 0.55 0.0 0 0 206.53 50.71
  Z
  M 128.44 113.56
  Q 108.41 143.61 76.29 191.79
  Q 73.95 195.31 70.64 198.38
  C 66.38 202.34 61.97 202.16 55.90 201.82
  A 2.47 2.29 -50.3 0 0 54.99 201.94
  C 53.08 202.56 51.72 205.56 50.95 207.32
  A 0.89 0.89 0.0 0 0 51.38 208.48
  C 58.72 211.89 67.95 213.87 75.58 211.41
  C 83.57 208.84 88.95 202.68 93.51 195.76
  Q 130.37 139.84 146.52 115.77
  Q 149.69 111.05 152.39 109.86
  Q 162.88 105.23 166.45 115.45
  A 1.58 1.57 71.8 0 0 168.40 116.44
  Q 176.05 114.08 180.07 113.04
  Q 183.97 112.04 183.05 107.71
  Q 180.60 96.08 168.85 93.37
  Q 159.68 91.26 149.71 92.87
  Q 111.67 99.04 77.43 116.41
  C 72.74 118.79 68.68 121.55 66.04 125.58
  Q 52.82 145.81 44.48 158.23
  Q 40.01 164.89 34.93 170.41
  Q 30.03 175.73 23.50 175.50
  Q 18.77 175.34 18.54 175.26
  A 0.97 0.97 0.0 0 0 17.42 175.67
  L 14.21 180.91
  A 0.59 0.59 0.0 0 0 14.46 181.75
  C 29.94 189.00 44.19 187.91 54.29 172.77
  Q 69.60 149.84 79.07 135.59
  Q 83.95 128.25 92.86 125.07
  A 0.23 0.23 0.0 0 1 93.13 125.41
  Q 67.97 163.32 58.63 177.34
  C 56.48 180.57 53.57 184.19 50.43 186.42
  C 46.69 189.08 43.15 188.89 38.46 188.49
  C 36.34 188.31 35.60 189.00 34.49 190.75
  Q 33.24 192.71 32.69 194.10
  A 0.70 0.70 0.0 0 0 33.05 194.99
  Q 39.98 198.31 47.64 199.03
  C 60.65 200.24 68.58 192.29 75.11 182.36
  Q 79.36 175.90 113.51 124.07
  Q 117.44 118.10 119.40 116.79
  Q 123.36 114.14 128.05 113.00
  A 0.37 0.37 0.0 0 1 128.44 113.56
  Z"
/>
<path fill="#d00a23" d="
  M 205.76 51.15
  Q 205.41 50.99 204.78 50.72
  Q 203.93 50.35 203.64 50.32
  C 194.12 49.48 184.79 51.71 175.54 54.79
  Q 156.67 61.08 140.16 71.16
  Q 136.13 73.62 133.08 76.30
  A 0.32 0.32 0.0 0 0 133.41 76.83
  Q 146.90 71.24 161.50 70.64
  C 179.33 69.89 194.34 75.76 202.42 91.73
  C 213.77 114.14 198.33 141.35 172.02 138.89
  Q 157.03 137.49 150.28 124.23
  A 1.99 1.98 67.6 0 1 151.44 121.43
  L 164.83 117.16
  A 1.46 1.45 -27.7 0 1 166.42 117.65
  Q 171.54 124.26 179.39 121.93
  C 188.10 119.35 190.18 110.57 187.80 102.67
  C 185.18 93.98 176.70 88.70 167.99 87.41
  C 154.43 85.40 142.79 87.99 128.54 91.60
  Q 102.46 98.22 79.42 109.40
  Q 78.82 109.69 78.73 109.68
  A 1.14 1.14 0.0 0 1 77.83 107.90
  Q 82.31 101.24 90.13 92.35
  C 104.92 75.52 123.23 62.19 143.47 52.28
  C 158.85 44.76 175.25 39.09 191.94 37.60
  A 0.30 0.30 0.0 0 0 192.08 37.05
  C 185.87 32.93 174.69 34.53 168.01 37.03
  C 161.01 39.65 155.47 42.69 149.53 40.09
  A 6.35 6.32 -87.3 0 1 146.02 36.21
  L 145.33 34.05
  A 1.74 1.74 0.0 0 1 147.82 31.99
  Q 155.33 36.01 164.70 31.27
  A 2.05 2.05 0.0 0 0 165.30 28.07
  C 160.99 23.31 152.45 26.09 146.85 28.11
  Q 136.07 32.00 130.42 33.90
  Q 123.97 36.07 118.79 36.31
  C 106.33 36.91 92.44 30.33 92.05 16.47
  A 0.52 0.52 0.0 0 1 92.77 15.98
  C 112.23 24.23 128.11 18.08 149.45 12.67
  C 154.86 11.30 165.37 9.42 170.88 11.77
  C 175.81 13.87 179.15 18.96 174.87 23.89
  A 0.28 0.28 0.0 0 0 175.13 24.35
  C 193.09 20.63 208.88 31.05 206.53 50.71
  A 0.55 0.55 0.0 0 1 205.76 51.15
  Z"
/>
<path fill="#d00a23" d="
  M 128.05 113.00
  Q 123.36 114.14 119.40 116.79
  Q 117.44 118.10 113.51 124.07
  Q 79.36 175.90 75.11 182.36
  C 68.58 192.29 60.65 200.24 47.64 199.03
  Q 39.98 198.31 33.05 194.99
  A 0.70 0.70 0.0 0 1 32.69 194.10
  Q 33.24 192.71 34.49 190.75
  C 35.60 189.00 36.34 188.31 38.46 188.49
  C 43.15 188.89 46.69 189.08 50.43 186.42
  C 53.57 184.19 56.48 180.57 58.63 177.34
  Q 67.97 163.32 93.13 125.41
  A 0.23 0.23 0.0 0 0 92.86 125.07
  Q 83.95 128.25 79.07 135.59
  Q 69.60 149.84 54.29 172.77
  C 44.19 187.91 29.94 189.00 14.46 181.75
  A 0.59 0.59 0.0 0 1 14.21 180.91
  L 17.42 175.67
  A 0.97 0.97 0.0 0 1 18.54 175.26
  Q 18.77 175.34 23.50 175.50
  Q 30.03 175.73 34.93 170.41
  Q 40.01 164.89 44.48 158.23
  Q 52.82 145.81 66.04 125.58
  C 68.68 121.55 72.74 118.79 77.43 116.41
  Q 111.67 99.04 149.71 92.87
  Q 159.68 91.26 168.85 93.37
  Q 180.60 96.08 183.05 107.71
  Q 183.97 112.04 180.07 113.04
  Q 176.05 114.08 168.40 116.44
  A 1.58 1.57 71.8 0 1 166.45 115.45
  Q 162.88 105.23 152.39 109.86
  Q 149.69 111.05 146.52 115.77
  Q 130.37 139.84 93.51 195.76
  C 88.95 202.68 83.57 208.84 75.58 211.41
  C 67.95 213.87 58.72 211.89 51.38 208.48
  A 0.89 0.89 0.0 0 1 50.95 207.32
  C 51.72 205.56 53.08 202.56 54.99 201.94
  A 2.47 2.29 -50.3 0 1 55.90 201.82
  C 61.97 202.16 66.38 202.34 70.64 198.38
  Q 73.95 195.31 76.29 191.79
  Q 108.41 143.61 128.44 113.56
  A 0.37 0.37 0.0 0 0 128.05 113.00
  Z"
/>
</svg>
