<?xml version="1.0" encoding="UTF-8" standalone="no"?>
<!DOCTYPE svg PUBLIC "-//W3C//DTD SVG 1.1//EN" "http://www.w3.org/Graphics/SVG/1.1/DTD/svg11.dtd">
<svg xmlns="http://www.w3.org/2000/svg" version="1.1" viewBox="0.00 0.00 1132.00 1568.00">
<path fill="#fcb130" d="
  M 95.27 415.55
  A 0.10 0.10 0.0 0 1 95.43 415.56
  L 417.51 937.91
  A 1.40 1.18 89.7 0 0 417.80 938.25
  Q 419.09 939.34 419.24 939.55
  C 436.63 964.64 445.66 995.76 443.68 1026.08
  Q 442.04 1051.16 430.56 1075.34
  C 424.83 1087.41 418.86 1096.20 410.03 1109.95
  Q 287.89 1299.99 175.70 1474.55
  A 0.29 0.29 0.0 0 0 175.94 1475.00
  Q 423.84 1475.01 680.83 1475.00
  Q 686.06 1475.00 692.16 1475.36
  Q 698.30 1475.73 703.50 1475.14
  C 726.70 1472.53 747.96 1461.76 765.25 1446.26
  Q 782.40 1430.88 794.19 1412.72
  Q 794.59 1412.11 795.67 1410.38
  Q 800.08 1403.29 918.39 1222.09
  Q 921.74 1216.96 924.23 1211.80
  Q 926.65 1206.79 929.89 1201.40
  Q 945.86 1174.83 967.54 1154.56
  C 981.46 1141.54 996.92 1131.43 1014.11 1123.91
  A 0.22 0.21 32.9 0 0 1014.02 1123.50
  Q 998.34 1123.51 914.72 1123.50
  C 910.06 1123.50 904.91 1124.24 900.96 1125.23
  C 871.10 1132.78 846.36 1150.98 827.30 1174.94
  Q 824.01 1179.07 805.84 1207.13
  Q 719.23 1340.94 705.23 1362.92
  Q 703.65 1365.40 702.24 1367.50
  Q 677.07 1404.81 637.92 1423.61
  Q 618.88 1432.75 594.72 1436.60
  Q 584.15 1438.28 563.71 1438.03
  Q 558.02 1437.96 393.81 1438.01
  A 0.25 0.25 0.0 0 1 393.60 1437.62
  Q 498.78 1274.70 604.09 1111.71
  Q 606.21 1108.43 615.36 1094.69
  Q 645.12 1050.00 661.00 998.88
  C 668.24 975.58 672.85 950.69 673.76 926.76
  C 675.33 885.12 665.86 843.99 644.84 807.89
  Q 644.48 807.26 643.93 806.39
  Q 637.34 796.05 290.83 222.45
  Q 285.24 213.21 283.19 207.59
  C 272.91 179.47 272.84 146.39 288.68 120.70
  C 290.27 118.12 291.14 116.28 292.96 113.57
  Q 307.00 92.63 368.56 0.43
  A 0.31 0.31 0.0 0 1 369.08 0.44
  Q 774.85 654.27 775.12 654.63
  Q 775.24 654.78 776.54 656.25
  A 3.78 3.21 -85.4 0 1 776.95 656.82
  C 798.82 694.76 817.54 735.94 828.35 777.62
  Q 835.78 806.25 835.96 831.01
  C 836.17 862.00 827.69 895.27 816.60 925.11
  C 804.34 958.08 789.41 987.77 772.21 1018.16
  Q 764.77 1031.32 752.53 1050.34
  Q 584.41 1311.52 582.82 1314.29
  Q 582.79 1314.35 582.33 1315.56
  A 2.27 2.01 77.1 0 1 582.04 1316.09
  C 575.47 1325.07 564.97 1343.97 577.24 1352.30
  Q 584.34 1357.11 592.94 1352.95
  Q 597.78 1350.60 601.37 1347.12
  Q 611.06 1337.74 612.03 1336.47
  Q 615.10 1332.45 617.66 1328.57
  Q 745.01 1135.61 751.06 1125.86
  Q 751.29 1125.50 752.06 1124.05
  C 767.27 1095.32 793.38 1070.47 823.38 1056.30
  Q 854.50 1041.60 890.25 1041.55
  Q 950.39 1041.46 1032.81 1041.52
  A 0.65 0.64 -15.9 0 1 1033.36 1041.82
  L 1131.54 1197.03
  A 0.38 0.38 0.0 0 1 1131.20 1197.61
  C 1116.85 1196.59 1103.12 1197.86 1089.06 1200.49
  C 1066.82 1204.66 1045.90 1214.71 1029.97 1230.93
  Q 1025.34 1235.65 1018.94 1245.27
  Q 873.27 1464.02 873.06 1464.54
  C 871.28 1469.10 868.13 1474.28 864.06 1480.30
  C 839.01 1517.34 803.24 1545.42 760.72 1558.44
  Q 739.84 1564.84 718.36 1566.97
  Q 710.42 1567.76 675.14 1567.76
  Q 130.25 1567.75 11.66 1567.75
  A 0.50 0.50 0.0 0 1 11.24 1566.98
  Q 78.54 1464.00 272.64 1166.64
  Q 280.29 1154.93 283.32 1140.81
  C 290.52 1107.31 278.03 1072.54 259.96 1044.69
  C 258.60 1042.59 256.47 1039.99 254.77 1037.24
  Q 130.72 837.61 28.20 672.59
  Q 26.12 669.23 21.76 663.78
  C 1.03 637.81 -3.83 602.70 4.16 570.84
  C 9.07 551.27 18.01 532.39 28.91 515.64
  Q 37.81 501.94 93.99 417.24
  Q 94.12 417.05 95.27 415.55
  Z"
/>
<path fill="#fcb130" d="
  M 239.88 206.17
  Q 240.69 207.15 241.79 208.96
  Q 414.52 491.43 598.68 792.32
  Q 598.81 792.53 599.38 793.00
  A 3.36 3.31 -86.6 0 1 600.00 793.71
  C 638.13 852.01 647.24 922.79 628.55 988.55
  C 622.79 1008.78 613.91 1029.21 603.12 1048.38
  Q 601.16 1051.86 595.34 1061.62
  Q 590.63 1069.53 587.31 1074.67
  Q 505.80 1200.91 367.38 1415.38
  Q 360.81 1425.55 354.54 1435.09
  A 0.93 0.91 16.3 0 1 353.77 1435.50
  L 245.89 1435.50
  A 0.27 0.27 0.0 0 1 245.66 1435.08
  Q 408.12 1179.24 461.85 1094.78
  Q 465.42 1089.16 467.24 1084.28
  Q 472.85 1069.25 475.41 1052.71
  Q 484.58 993.63 456.11 941.68
  Q 455.88 941.26 455.00 940.43
  A 2.38 2.34 -84.4 0 1 454.62 939.96
  Q 329.26 732.29 149.53 434.35
  Q 148.15 432.07 145.74 427.24
  Q 142.25 420.24 139.19 405.85
  Q 132.98 376.70 144.15 350.61
  Q 147.21 343.46 155.09 331.71
  Q 203.18 260.07 239.20 206.20
  A 0.42 0.42 0.0 0 1 239.88 206.17
  Z"
/>
</svg>
