<?xml version="1.0" encoding="UTF-8" standalone="no"?>
<!DOCTYPE svg PUBLIC "-//W3C//DTD SVG 1.1//EN" "http://www.w3.org/Graphics/SVG/1.1/DTD/svg11.dtd">
<svg xmlns="http://www.w3.org/2000/svg" version="1.1" viewBox="0.00 0.00 900.00 900.00">
<g stroke-width="2.00" fill="none" stroke-linecap="butt">
<path stroke="#e99f92" vector-effect="non-scaling-stroke" d="
  M 403.96 287.98
  L 384.83 284.30"
/>
<path stroke="#eea892" vector-effect="non-scaling-stroke" d="
  M 384.83 284.30
  L 242.08 256.87"
/>
<path stroke="#f2b192" vector-effect="non-scaling-stroke" d="
  M 242.08 256.87
  L 110.16 231.51
  A 0.26 0.26 0.0 0 0 109.92 231.93
  L 192.70 328.28"
/>
<path stroke="#eea892" vector-effect="non-scaling-stroke" d="
  M 192.70 328.28
  L 279.97 429.38"
/>
<path stroke="#e99f92" vector-effect="non-scaling-stroke" d="
  M 279.97 429.38
  Q 293.45 445.08 307.10 460.66
  Q 307.57 461.20 307.61 462.21"
/>
<path stroke="#9b8fa7" vector-effect="non-scaling-stroke" d="
  M 307.61 462.21
  L 199.32 597.77
  A 0.43 0.43 0.0 0 0 199.72 598.47
  L 371.47 572.33"
/>
<path stroke="#e39493" vector-effect="non-scaling-stroke" d="
  M 371.47 572.33
  Q 372.58 572.59 372.72 573.00
  Q 385.79 611.26 398.95 649.14"
/>
<path stroke="#e99f92" vector-effect="non-scaling-stroke" d="
  M 398.95 649.14
  Q 435.08 753.04 470.91 856.71
  C 471.23 857.62 471.28 859.13 471.49 859.49
  A 0.43 0.43 0.0 0 0 472.20 859.54
  Q 473.39 858.06 473.64 857.37
  Q 508.77 756.22 543.74 654.97"
/>
<path stroke="#e39493" vector-effect="non-scaling-stroke" d="
  M 543.74 654.97
  Q 557.85 614.49 571.89 573.93
  Q 572.61 571.86 573.33 572.24"
/>
<path stroke="#c28c94" vector-effect="non-scaling-stroke" d="
  M 573.33 572.24
  L 745.44 598.42
  A 0.45 0.45 0.0 0 0 745.86 597.69
  L 637.75 462.23"
/>
<path stroke="#e99f92" vector-effect="non-scaling-stroke" d="
  M 637.75 462.23
  Q 637.56 461.02 638.92 459.41
  Q 647.42 449.33 656.00 439.55"
/>
<path stroke="#eea892" vector-effect="non-scaling-stroke" d="
  M 656.00 439.55
  L 764.02 314.44"
/>
<path stroke="#f2b192" vector-effect="non-scaling-stroke" d="
  M 764.02 314.44
  L 834.48 232.87
  A 0.73 0.73 0.0 0 0 833.79 231.68
  L 760.97 245.69"
/>
<path stroke="#eea892" vector-effect="non-scaling-stroke" d="
  M 760.97 245.69
  L 656.19 266.04"
/>
<path stroke="#e99f92" vector-effect="non-scaling-stroke" d="
  M 656.19 266.04
  L 551.29 285.88"
/>
<path stroke="#e39493" vector-effect="non-scaling-stroke" d="
  M 551.29 285.88
  L 542.22 287.80
  A 1.52 1.51 -15.6 0 1 540.47 286.82
  L 473.28 92.77
  A 0.89 0.89 0.0 0 0 471.59 92.77
  L 403.96 287.98"
/>
<path stroke="#cd3426" vector-effect="non-scaling-stroke" d="
  M 551.29 285.88
  L 548.20 372.44"
/>
<path stroke="#d23d26" vector-effect="non-scaling-stroke" d="
  M 548.20 372.44
  L 472.97 372.26"
/>
<path stroke="#cd3426" vector-effect="non-scaling-stroke" d="
  M 472.97 372.26
  Q 472.31 369.90 472.32 367.67
  Q 472.34 365.46 472.70 301.61
  A 0.59 0.59 0.0 0 0 472.22 301.02
  L 403.96 287.98"
/>
<path stroke="#d84725" vector-effect="non-scaling-stroke" d="
  M 472.97 372.26
  Q 469.95 372.30 466.94 372.33
  Q 423.22 372.77 379.51 372.20
  Q 373.89 372.13 353.97 373.34"
/>
<path stroke="#e26a23" vector-effect="non-scaling-stroke" d="
  M 353.97 373.34
  Q 353.04 372.79 352.21 372.64
  A 0.58 0.57 -9.9 0 0 351.61 373.49
  L 410.75 475.91"
/>
<path stroke="#cd3426" vector-effect="non-scaling-stroke" d="
  M 410.75 475.91
  Q 407.38 479.41 403.28 481.75
  Q 394.87 486.53 386.44 491.26
  C 376.00 497.11 362.93 505.14 350.86 511.49"
/>
<path stroke="#852e3a" vector-effect="non-scaling-stroke" d="
  M 350.86 511.49
  Q 324.42 480.68 308.61 462.64
  Q 308.32 462.30 307.61 462.21"
/>
<path stroke="#e46225" vector-effect="non-scaling-stroke" d="
  M 589.64 374.26
  Q 587.74 376.15 586.10 377.12
  C 552.73 396.93 511.96 419.94 475.02 441.54
  Q 473.63 442.36 472.65 442.17"
/>
<path stroke="#e67323" vector-effect="non-scaling-stroke" d="
  M 472.65 442.17
  L 353.97 373.34"
/>
<path stroke="#ac2c27" vector-effect="non-scaling-stroke" d="
  M 637.75 462.23
  Q 636.49 462.26 635.91 462.92
  Q 626.46 473.68 593.28 512.17"
/>
<path stroke="#cd3426" vector-effect="non-scaling-stroke" d="
  M 593.28 512.17
  Q 591.54 510.85 589.60 509.70
  Q 561.47 492.96 555.68 489.60
  C 549.51 486.01 543.16 482.73 537.51 479.60
  A 1.80 1.73 -4.5 0 1 537.01 479.19
  L 534.12 475.81"
/>
<path stroke="#df5925" vector-effect="non-scaling-stroke" d="
  M 534.12 475.81
  L 592.64 374.10
  A 0.70 0.70 0.0 0 0 592.05 373.05
  Q 590.71 373.01 589.64 374.26"
/>
<path stroke="#d84725" vector-effect="non-scaling-stroke" d="
  M 589.64 374.26
  Q 586.55 372.59 583.50 372.59
  Q 565.86 372.61 548.20 372.44"
/>
<path stroke="#cd3426" vector-effect="non-scaling-stroke" d="
  M 543.74 654.97
  Q 531.83 654.33 526.59 654.47
  Q 492.40 655.39 463.58 655.25
  Q 431.61 655.10 398.95 649.14"
/>
<path stroke="#ee8522" vector-effect="non-scaling-stroke" d="
  M 472.65 442.17
  Q 472.87 509.80 472.51 576.71
  Q 472.50 578.09 473.86 580.05"
/>
<path stroke="#dc5f23" vector-effect="non-scaling-stroke" d="
  M 473.86 580.05
  Q 472.96 582.10 471.80 581.72
  A 0.45 0.43 82.5 0 1 471.54 581.51
  L 410.75 475.91"
/>
<path stroke="#d84725" vector-effect="non-scaling-stroke" d="
  M 384.83 284.30
  Q 376.44 290.94 371.14 297.18
  Q 363.84 305.78 354.54 318.86
  Q 330.02 353.30 305.73 387.89
  Q 293.32 405.55 279.97 429.38"
/>
<path stroke="#7f243b" vector-effect="non-scaling-stroke" d="
  M 350.86 511.49
  C 351.66 513.20 352.55 514.86 353.17 516.64
  Q 362.35 543.29 371.61 569.92
  Q 372.01 571.08 371.47 572.33"
/>
<path stroke="#d94f25" vector-effect="non-scaling-stroke" d="
  M 534.12 475.81
  L 473.86 580.05"
/>
<path stroke="#d84725" vector-effect="non-scaling-stroke" d="
  M 656.00 439.55
  C 654.42 393.84 654.49 341.17 654.98 297.84
  Q 655.17 281.93 656.19 266.04"
/>
<path stroke="#a62127" vector-effect="non-scaling-stroke" d="
  M 573.33 572.24
  Q 576.09 561.29 579.83 550.60
  Q 586.49 531.60 586.52 531.49
  Q 589.77 521.81 593.28 512.17"
/>
<path stroke="#e05a25" vector-effect="non-scaling-stroke" d="
  M 242.08 256.87
  C 226.01 280.96 210.02 305.12 192.70 328.28"
/>
<path stroke="#e05a25" vector-effect="non-scaling-stroke" d="
  M 764.02 314.44
  C 761.54 291.05 761.10 270.29 760.97 245.69"
/>
</g>
<path fill="#ffffff" d="
  M 900.00 0.00
  L 900.00 900.00
  L 0.00 900.00
  L 0.00 0.00
  L 900.00 0.00
  Z
  M 403.96 287.98
  L 384.83 284.30
  L 242.08 256.87
  L 110.16 231.51
  A 0.26 0.26 0.0 0 0 109.92 231.93
  L 192.70 328.28
  L 279.97 429.38
  Q 293.45 445.08 307.10 460.66
  Q 307.57 461.20 307.61 462.21
  L 199.32 597.77
  A 0.43 0.43 0.0 0 0 199.72 598.47
  L 371.47 572.33
  Q 372.58 572.59 372.72 573.00
  Q 385.79 611.26 398.95 649.14
  Q 435.08 753.04 470.91 856.71
  C 471.23 857.62 471.28 859.13 471.49 859.49
  A 0.43 0.43 0.0 0 0 472.20 859.54
  Q 473.39 858.06 473.64 857.37
  Q 508.77 756.22 543.74 654.97
  Q 557.85 614.49 571.89 573.93
  Q 572.61 571.86 573.33 572.24
  L 745.44 598.42
  A 0.45 0.45 0.0 0 0 745.86 597.69
  L 637.75 462.23
  Q 637.56 461.02 638.92 459.41
  Q 647.42 449.33 656.00 439.55
  L 764.02 314.44
  L 834.48 232.87
  A 0.73 0.73 0.0 0 0 833.79 231.68
  L 760.97 245.69
  L 656.19 266.04
  L 551.29 285.88
  L 542.22 287.80
  A 1.52 1.51 -15.6 0 1 540.47 286.82
  L 473.28 92.77
  A 0.89 0.89 0.0 0 0 471.59 92.77
  L 403.96 287.98
  Z"
/>
<path fill="#c72926" d="
  M 551.29 285.88
  L 548.20 372.44
  L 472.97 372.26
  Q 472.31 369.90 472.32 367.67
  Q 472.34 365.46 472.70 301.61
  A 0.59 0.59 0.0 0 0 472.22 301.02
  L 403.96 287.98
  L 471.59 92.77
  A 0.89 0.89 0.0 0 1 473.28 92.77
  L 540.47 286.82
  A 1.52 1.51 -15.6 0 0 542.22 287.80
  L 551.29 285.88
  Z"
/>
<path fill="#e46325" d="
  M 764.02 314.44
  C 761.54 291.05 761.10 270.29 760.97 245.69
  L 833.79 231.68
  A 0.73 0.73 0.0 0 1 834.48 232.87
  L 764.02 314.44
  Z"
/>
<path fill="#e46325" d="
  M 242.08 256.87
  C 226.01 280.96 210.02 305.12 192.70 328.28
  L 109.92 231.93
  A 0.26 0.26 0.0 0 1 110.16 231.51
  L 242.08 256.87
  Z"
/>
<path fill="#dc5025" d="
  M 760.97 245.69
  C 761.10 270.29 761.54 291.05 764.02 314.44
  L 656.00 439.55
  C 654.42 393.84 654.49 341.17 654.98 297.84
  Q 655.17 281.93 656.19 266.04
  L 760.97 245.69
  Z"
/>
<path fill="#dc5025" d="
  M 242.08 256.87
  L 384.83 284.30
  Q 376.44 290.94 371.14 297.18
  Q 363.84 305.78 354.54 318.86
  Q 330.02 353.30 305.73 387.89
  Q 293.32 405.55 279.97 429.38
  L 192.70 328.28
  C 210.02 305.12 226.01 280.96 242.08 256.87
  Z"
/>
<path fill="#d33e25" d="
  M 656.19 266.04
  Q 655.17 281.93 654.98 297.84
  C 654.49 341.17 654.42 393.84 656.00 439.55
  Q 647.42 449.33 638.92 459.41
  Q 637.56 461.02 637.75 462.23
  Q 636.49 462.26 635.91 462.92
  Q 626.46 473.68 593.28 512.17
  Q 591.54 510.85 589.60 509.70
  Q 561.47 492.96 555.68 489.60
  C 549.51 486.01 543.16 482.73 537.51 479.60
  A 1.80 1.73 -4.5 0 1 537.01 479.19
  L 534.12 475.81
  L 592.64 374.10
  A 0.70 0.70 0.0 0 0 592.05 373.05
  Q 590.71 373.01 589.64 374.26
  Q 586.55 372.59 583.50 372.59
  Q 565.86 372.61 548.20 372.44
  L 551.29 285.88
  L 656.19 266.04
  Z"
/>
<path fill="#d33e25" d="
  M 384.83 284.30
  L 403.96 287.98
  L 472.22 301.02
  A 0.59 0.59 0.0 0 1 472.70 301.61
  Q 472.34 365.46 472.32 367.67
  Q 472.31 369.90 472.97 372.26
  Q 469.95 372.30 466.94 372.33
  Q 423.22 372.77 379.51 372.20
  Q 373.89 372.13 353.97 373.34
  Q 353.04 372.79 352.21 372.64
  A 0.58 0.57 -9.9 0 0 351.61 373.49
  L 410.75 475.91
  Q 407.38 479.41 403.28 481.75
  Q 394.87 486.53 386.44 491.26
  C 376.00 497.11 362.93 505.14 350.86 511.49
  Q 324.42 480.68 308.61 462.64
  Q 308.32 462.30 307.61 462.21
  Q 307.57 461.20 307.10 460.66
  Q 293.45 445.08 279.97 429.38
  Q 293.32 405.55 305.73 387.89
  Q 330.02 353.30 354.54 318.86
  Q 363.84 305.78 371.14 297.18
  Q 376.44 290.94 384.83 284.30
  Z"
/>
<path fill="#dc5025" d="
  M 472.97 372.26
  L 548.20 372.44
  Q 565.86 372.61 583.50 372.59
  Q 586.55 372.59 589.64 374.26
  Q 587.74 376.15 586.10 377.12
  C 552.73 396.93 511.96 419.94 475.02 441.54
  Q 473.63 442.36 472.65 442.17
  L 353.97 373.34
  Q 373.89 372.13 379.51 372.20
  Q 423.22 372.77 466.94 372.33
  Q 469.95 372.30 472.97 372.26
  Z"
/>
<path fill="#f09520" d="
  M 353.97 373.34
  L 472.65 442.17
  Q 472.87 509.80 472.51 576.71
  Q 472.50 578.09 473.86 580.05
  Q 472.96 582.10 471.80 581.72
  A 0.45 0.43 82.5 0 1 471.54 581.51
  L 410.75 475.91
  L 351.61 373.49
  A 0.58 0.57 -9.9 0 1 352.21 372.64
  Q 353.04 372.79 353.97 373.34
  Z"
/>
<path fill="#eb7424" d="
  M 534.12 475.81
  L 473.86 580.05
  Q 472.50 578.09 472.51 576.71
  Q 472.87 509.80 472.65 442.17
  Q 473.63 442.36 475.02 441.54
  C 511.96 419.94 552.73 396.93 586.10 377.12
  Q 587.74 376.15 589.64 374.26
  Q 590.71 373.01 592.05 373.05
  A 0.70 0.70 0.0 0 1 592.64 374.10
  L 534.12 475.81
  Z"
/>
<path fill="#361e4f" d="
  M 350.86 511.49
  C 351.66 513.20 352.55 514.86 353.17 516.64
  Q 362.35 543.29 371.61 569.92
  Q 372.01 571.08 371.47 572.33
  L 199.72 598.47
  A 0.43 0.43 0.0 0 1 199.32 597.77
  L 307.61 462.21
  Q 308.32 462.30 308.61 462.64
  Q 324.42 480.68 350.86 511.49
  Z"
/>
<path fill="#851928" d="
  M 637.75 462.23
  L 745.86 597.69
  A 0.45 0.45 0.0 0 1 745.44 598.42
  L 573.33 572.24
  Q 576.09 561.29 579.83 550.60
  Q 586.49 531.60 586.52 531.49
  Q 589.77 521.81 593.28 512.17
  Q 626.46 473.68 635.91 462.92
  Q 636.49 462.26 637.75 462.23
  Z"
/>
<path fill="#c72926" d="
  M 593.28 512.17
  Q 589.77 521.81 586.52 531.49
  Q 586.49 531.60 579.83 550.60
  Q 576.09 561.29 573.33 572.24
  Q 572.61 571.86 571.89 573.93
  Q 557.85 614.49 543.74 654.97
  Q 531.83 654.33 526.59 654.47
  Q 492.40 655.39 463.58 655.25
  Q 431.61 655.10 398.95 649.14
  Q 385.79 611.26 372.72 573.00
  Q 372.58 572.59 371.47 572.33
  Q 372.01 571.08 371.61 569.92
  Q 362.35 543.29 353.17 516.64
  C 352.55 514.86 351.66 513.20 350.86 511.49
  C 362.93 505.14 376.00 497.11 386.44 491.26
  Q 394.87 486.53 403.28 481.75
  Q 407.38 479.41 410.75 475.91
  L 471.54 581.51
  A 0.45 0.43 82.5 0 0 471.80 581.72
  Q 472.96 582.10 473.86 580.05
  L 534.12 475.81
  L 537.01 479.19
  A 1.80 1.73 -4.5 0 0 537.51 479.60
  C 543.16 482.73 549.51 486.01 555.68 489.60
  Q 561.47 492.96 589.60 509.70
  Q 591.54 510.85 593.28 512.17
  Z"
/>
<path fill="#d33e25" d="
  M 543.74 654.97
  Q 508.77 756.22 473.64 857.37
  Q 473.39 858.06 472.20 859.54
  A 0.43 0.43 0.0 0 1 471.49 859.49
  C 471.28 859.13 471.23 857.62 470.91 856.71
  Q 435.08 753.04 398.95 649.14
  Q 431.61 655.10 463.58 655.25
  Q 492.40 655.39 526.59 654.47
  Q 531.83 654.33 543.74 654.97
  Z"
/>
</svg>
